<?xml version="1.0" encoding="UTF-8" standalone="no"?>
<svg
   viewBox="0 0 1122.5197 793.7008"
   width="297mm"
   height="210mm"
   version="1.1"
   id="svg486"
   sodipodi:docname="switch-plate.svg"
   inkscape:version="1.3 (0e150ed, 2023-07-21)"
   xmlns:inkscape="http://www.inkscape.org/namespaces/inkscape"
   xmlns:sodipodi="http://sodipodi.sourceforge.net/DTD/sodipodi-0.dtd"
   xmlns="http://www.w3.org/2000/svg"
   xmlns:svg="http://www.w3.org/2000/svg">
  <sodipodi:namedview
     id="namedview486"
     pagecolor="#ffffff"
     bordercolor="#111111"
     borderopacity="1"
     inkscape:showpageshadow="0"
     inkscape:pageopacity="0"
     inkscape:pagecheckerboard="1"
     inkscape:deskcolor="#d1d1d1"
     inkscape:document-units="mm"
     inkscape:zoom="0.65767856"
     inkscape:cx="334.50992"
     inkscape:cy="549.66061"
     inkscape:window-width="2464"
     inkscape:window-height="1342"
     inkscape:window-x="1060"
     inkscape:window-y="452"
     inkscape:window-maximized="0"
     inkscape:current-layer="g486" />
  <desc
     id="desc1">switch-plate.dxf - scale = 1.000000, origin = (0.000000, 0.000000), method = manual</desc>
  <defs
     id="defs4">
    <marker
       id="DistanceX"
       orient="auto"
       refX="0"
       refY="0"
       style="overflow:visible">
      <path
         d="M 3,-3 -3,3 M 0,-5 V 5"
         style="stroke:#000000;stroke-width:0.5"
         id="path1" />
    </marker>
    <pattern
       id="Hatch"
       patternUnits="userSpaceOnUse"
       width="8"
       height="8"
       x="0"
       y="0">
      <path
         d="M8 4 l-4,4"
         stroke="#000000"
         stroke-width="0.25"
         linecap="square"
         id="path2" />
      <path
         d="M6 2 l-4,4"
         stroke="#000000"
         stroke-width="0.25"
         linecap="square"
         id="path3" />
      <path
         d="M4 0 l-4,4"
         stroke="#000000"
         stroke-width="0.25"
         linecap="square"
         id="path4" />
    </pattern>
    <symbol
       id="*MODEL_SPACE" />
    <symbol
       id="*PAPER_SPACE" />
  </defs>
  <g
     inkscape:groupmode="layer"
     inkscape:label="0"
     id="g486">
    <g
       id="g1"
       transform="translate(-2.8429453,9.5393321)">
      <path
         d="m 825.17356,269.60472 c 0.0477,0.1393 0.12022,0.2957 0.2407,0.453 0.14657,0.1914 0.32687,0.3355 0.50038,0.4355 0.18858,0.1087 0.38465,0.1762 0.59303,0.2032 0.27344,0.035 0.51507,-0.01 0.74095,-0.047 l 48.3877,-8.531 c 0.15781,-0.029 0.32113,-0.058 0.48822,-0.1152 0.1393,-0.048 0.29569,-0.1203 0.45302,-0.2408 0.19139,-0.1465 0.33545,-0.3268 0.43544,-0.5003 0.10868,-0.1886 0.17617,-0.3847 0.20319,-0.5931 0.0355,-0.2734 -0.007,-0.515 -0.0469,-0.7402 l -8.532,-48.3887 c -0.0279,-0.1575 -0.0567,-0.3208 -0.114,-0.4879 -0.0477,-0.1393 -0.12022,-0.2957 -0.24071,-0.453 -0.14656,-0.1914 -0.32686,-0.3355 -0.50037,-0.4355 -0.18858,-0.1087 -0.38465,-0.1762 -0.59303,-0.2032 -0.27345,-0.035 -0.51508,0.01 -0.74099,0.048 l -48.38771,8.531 c -0.15777,0.028 -0.32108,0.057 -0.48817,0.1138 -0.13931,0.048 -0.29569,0.1203 -0.45302,0.2407 -0.19139,0.1466 -0.33546,0.3269 -0.43545,0.5004 -0.10868,0.1886 -0.17617,0.3847 -0.20319,0.5931 -0.0354,0.2734 0.007,0.515 0.0469,0.7416 l 8.53201,48.3887 c 0.028,0.1561 0.0568,0.3194 0.11404,0.4865 z"
         style="fill:none;stroke:#000000"
         id="path7"
         sodipodi:nodetypes="ssssccssssccssssccssssccs" />
      <path
         d="m 1052.5321,425.35544 c -0.048,-0.13931 -0.1202,-0.29569 -0.2407,-0.45302 -0.1466,-0.19139 -0.3269,-0.33546 -0.5004,-0.43544 -0.1886,-0.10868 -0.3846,-0.17617 -0.593,-0.20319 -0.2735,-0.0355 -0.5151,0.007 -0.7414,0.0471 l -48.3872,8.53203 c -0.1579,0.0277 -0.3212,0.0565 -0.4883,0.11379 -0.1393,0.0477 -0.2957,0.12022 -0.453,0.24071 -0.1914,0.14656 -0.3355,0.32686 -0.4355,0.50037 -0.1086,0.18858 -0.1761,0.38465 -0.2031,0.59303 -0.036,0.27345 0.01,0.51508 0.047,0.7412 l 8.532,48.3872 c 0.028,0.1581 0.057,0.3214 0.1139,0.4885 0.048,0.1393 0.1202,0.2957 0.2407,0.453 0.1466,0.1914 0.3269,0.3355 0.5004,0.4354 0.1886,0.1087 0.3847,0.1762 0.593,0.2032 0.2735,0.035 0.5151,-0.01 0.7411,-0.047 l 48.3877,-8.532 c 0.1577,-0.028 0.321,-0.056 0.4881,-0.1137 0.1393,-0.048 0.2957,-0.1202 0.453,-0.2407 0.1914,-0.1466 0.3355,-0.3269 0.4355,-0.5004 0.1087,-0.1886 0.1761,-0.3846 0.2032,-0.593 0.035,-0.2735 -0.01,-0.5151 -0.047,-0.7413 l -8.532,-48.38718 c -0.028,-0.15802 -0.057,-0.32133 -0.1141,-0.48842 z"
         style="fill:none;stroke:#000000"
         id="path13"
         sodipodi:nodetypes="ssssccssssccssssccssssccs" />
      <path
         style="fill:none;stroke:#000000"
         d="m 687.3585,529.53902 c 0.0679,0.1452 0.13796,0.2955 0.23652,0.4421 0.0822,0.1222 0.19265,0.2545 0.34975,0.3753 0.1911,0.1469 0.40255,0.2394 0.59602,0.2911 0.21029,0.056 0.41715,0.071 0.62542,0.043 0.2733,-0.036 0.49568,-0.1402 0.70397,-0.2373 l 44.5302,-20.7649 c 0.14528,-0.068 0.29558,-0.1378 0.44215,-0.2363 0.1222,-0.082 0.2545,-0.1927 0.37529,-0.3498 0.14693,-0.1911 0.23942,-0.4025 0.2911,-0.596 0.0562,-0.2103 0.0706,-0.4171 0.0428,-0.6254 -0.0365,-0.2733 -0.14021,-0.4957 -0.23729,-0.7037 l -20.76493,-44.5307 c -0.0676,-0.1451 -0.13773,-0.2954 -0.23629,-0.4419 -0.0822,-0.1222 -0.19265,-0.2545 -0.34975,-0.3753 -0.1911,-0.1469 -0.40255,-0.2394 -0.59602,-0.2911 -0.21029,-0.056 -0.41715,-0.071 -0.62542,-0.043 -0.2733,0.037 -0.49567,0.1402 -0.7037,0.2371 l -44.53072,20.7649 c -0.14506,0.068 -0.29536,0.1379 -0.44193,0.2365 -0.1222,0.082 -0.2545,0.1926 -0.37529,0.3497 -0.14693,0.1911 -0.23942,0.4026 -0.2911,0.5961 -0.0562,0.2103 -0.0706,0.4171 -0.0428,0.6254 0.0365,0.2733 0.14021,0.4957 0.23706,0.704 z"
         id="path26"
         sodipodi:nodetypes="cssssccssssccssssccsssscc" />
      <path
         d="m 669.01462,543.62972 c 0.0968,-0.111 0.19596,-0.252 0.27197,-0.435 0.0925,-0.2226 0.12708,-0.4508 0.12692,-0.651 -1.7e-4,-0.2177 -0.0398,-0.4213 -0.12054,-0.6152 -0.10602,-0.2546 -0.26373,-0.4425 -0.41146,-0.6185 l -31.58252,-37.6388 c -0.10302,-0.1226 -0.20961,-0.2497 -0.34275,-0.3657 -0.111,-0.097 -0.25196,-0.196 -0.43497,-0.272 -0.22262,-0.092 -0.4508,-0.1271 -0.65106,-0.1269 -0.21765,1e-4 -0.4212,0.04 -0.61517,0.1205 -0.25454,0.106 -0.4425,0.2638 -0.61838,0.4111 l -37.63871,31.5828 c -0.12281,0.1031 -0.24985,0.2097 -0.36592,0.3429 -0.0968,0.111 -0.19596,0.2519 -0.27198,0.4349 -0.0925,0.2226 -0.12707,0.4508 -0.12691,0.6511 1.7e-4,0.2176 0.0398,0.4212 0.12055,0.6152 0.10601,0.2545 0.26372,0.4424 0.4113,0.6181 l 31.58267,37.6389 c 0.10302,0.1229 0.20962,0.2499 0.34275,0.366 0.111,0.097 0.25196,0.1959 0.43497,0.2719 0.22262,0.092 0.4508,0.1271 0.65106,0.127 0.21765,-2e-4 0.4212,-0.04 0.61517,-0.1206 0.25454,-0.106 0.4425,-0.2637 0.61838,-0.4114 l 37.63855,-31.5828 c 0.12297,-0.1028 0.25001,-0.2094 0.36608,-0.3425 z"
         style="fill:none;stroke:#000000"
         id="path33"
         sodipodi:nodetypes="ssssccssssccssssccssssccs" />
      <path
         style="fill:none;stroke:#000000"
         d="m 706.68961,427.07094 c 0.0281,0.15779 0.0569,0.3211 0.11414,0.48819 0.0477,0.1393 0.12021,0.29568 0.2407,0.45302 0.14656,0.19139 0.32687,0.33545 0.50037,0.43544 0.18858,0.10868 0.38466,0.17617 0.59304,0.20319 0.27344,0.0355 0.51507,-0.007 0.74135,-0.0469 l 48.3872,-8.532 c 0.15791,-0.028 0.32123,-0.0568 0.48832,-0.11403 0.1393,-0.0477 0.29568,-0.12022 0.45302,-0.24071 0.19138,-0.14656 0.33545,-0.32686 0.43544,-0.50037 0.10868,-0.18858 0.17617,-0.38465 0.20319,-0.59303 0.0355,-0.27345 -0.007,-0.51508 -0.047,-0.74097 l -8.532,-48.3877 c -0.0278,-0.1578 -0.0566,-0.32111 -0.1139,-0.4882 -0.0478,-0.13931 -0.12022,-0.29569 -0.24071,-0.45302 -0.14656,-0.19139 -0.32687,-0.33546 -0.50037,-0.43545 -0.18858,-0.10868 -0.38466,-0.17617 -0.59303,-0.20319 -0.27345,-0.0354 -0.51508,0.007 -0.74109,0.0469 l -48.3877,8.532 c -0.15768,0.028 -0.321,0.0567 -0.48808,0.11402 -0.13931,0.0477 -0.29569,0.12022 -0.45303,0.2407 -0.19138,0.14657 -0.33545,0.32687 -0.43544,0.50038 -0.10868,0.18858 -0.17617,0.38465 -0.20319,0.59303 -0.0355,0.27344 0.007,0.51508 0.0468,0.74098 z"
         id="path38"
         sodipodi:nodetypes="cssssccssssccssssccsssscc" />
      <path
         style="fill:none;stroke:#000000"
         d="m 311.68323,220.72952 c 0.0397,-0.2266 0.0823,-0.4682 0.0469,-0.7416 -0.027,-0.2084 -0.0945,-0.4045 -0.20319,-0.5931 -0.1,-0.1735 -0.24406,-0.3538 -0.43545,-0.5004 -0.15733,-0.1204 -0.31371,-0.1929 -0.45302,-0.2407 -0.16709,-0.057 -0.3304,-0.086 -0.48817,-0.1138 l -48.38771,-8.531 c -0.22591,-0.041 -0.46754,-0.083 -0.74099,-0.048 -0.20838,0.027 -0.40445,0.094 -0.59303,0.2032 -0.17351,0.1 -0.35381,0.2441 -0.50037,0.4355 -0.12049,0.1573 -0.19297,0.3137 -0.24071,0.453 -0.0573,0.1671 -0.0861,0.3304 -0.114,0.4879 l -8.532,48.3887 c -0.0398,0.2252 -0.0824,0.4668 -0.0469,0.7402 0.027,0.2084 0.0945,0.4045 0.20319,0.5931 0.1,0.1735 0.24405,0.3538 0.43544,0.5003 0.15733,0.1205 0.31372,0.193 0.45302,0.2408 0.16709,0.057 0.33041,0.086 0.48822,0.1152 l 48.3877,8.531 c 0.22588,0.039 0.46751,0.082 0.74095,0.047 0.20838,-0.027 0.40445,-0.094 0.59303,-0.2032 0.17351,-0.1 0.35381,-0.2441 0.50038,-0.4355 0.12048,-0.1573 0.19296,-0.3137 0.2407,-0.453 0.0573,-0.1671 0.0861,-0.3304 0.11404,-0.4865 z"
         id="path45"
         sodipodi:nodetypes="cssssccssssccssssccsssscc" />
      <path
         style="fill:none;stroke:#000000"
         d="m 680.9242,390.86105 c -0.028,-0.15783 -0.0568,-0.32115 -0.11407,-0.48823 -0.0477,-0.13931 -0.12022,-0.29569 -0.2407,-0.45302 -0.14657,-0.19139 -0.32687,-0.33546 -0.50038,-0.43545 -0.18858,-0.10868 -0.38465,-0.17617 -0.59303,-0.20319 -0.27344,-0.0354 -0.51507,0.007 -0.74142,0.0469 l -48.3872,8.532 c -0.15784,0.0279 -0.32116,0.0567 -0.48825,0.11399 -0.1393,0.0477 -0.29568,0.12022 -0.45302,0.2407 -0.19138,0.14656 -0.33545,0.32687 -0.43544,0.50037 -0.10868,0.18859 -0.17617,0.38466 -0.20319,0.59304 -0.0355,0.27344 0.007,0.51507 0.047,0.74101 l 8.53205,48.3877 c 0.0278,0.15775 0.0566,0.32107 0.11388,0.48816 0.0477,0.1393 0.12022,0.29568 0.2407,0.45302 0.14657,0.19139 0.32687,0.33545 0.50037,0.43544 0.18859,0.10868 0.38466,0.17617 0.59304,0.20319 0.27344,0.0355 0.51507,-0.007 0.74122,-0.0469 l 48.38749,-8.532 c 0.15775,-0.028 0.32107,-0.0568 0.48815,-0.11406 0.13931,-0.0477 0.29569,-0.12022 0.45302,-0.24071 0.19139,-0.14656 0.33546,-0.32687 0.43545,-0.50037 0.10868,-0.18858 0.17617,-0.38466 0.20319,-0.59303 0.0354,-0.27345 -0.007,-0.51508 -0.0469,-0.74144 z"
         id="path58"
         sodipodi:nodetypes="cssssccssssccssssccsssscc" />
      <path
         style="fill:none;stroke:#000000"
         d="m 67.032561,474.23112 c -0.0397,0.2261 -0.0823,0.4678 -0.0468,0.7412 0.027,0.2084 0.0945,0.4044 0.20319,0.593 0.1,0.1735 0.24406,0.3538 0.43544,0.5004 0.15734,0.1205 0.31372,0.193 0.45303,0.2407 0.16708,0.057 0.3304,0.086 0.48813,0.1138 l 48.387699,8.532 c 0.22596,0.04 0.46759,0.083 0.74104,0.047 0.20837,-0.027 0.40445,-0.094 0.59303,-0.2032 0.1735,-0.1 0.35381,-0.2441 0.50037,-0.4355 0.12049,-0.1573 0.19296,-0.3137 0.24071,-0.453 0.0573,-0.1671 0.0861,-0.3304 0.11395,-0.4885 l 8.53201,-48.38718 c 0.0398,-0.22612 0.0824,-0.46775 0.047,-0.7412 -0.027,-0.20838 -0.0945,-0.40445 -0.20319,-0.59303 -0.1,-0.17351 -0.24406,-0.35381 -0.43544,-0.50037 -0.15734,-0.12049 -0.31372,-0.19297 -0.45302,-0.24071 -0.16709,-0.0573 -0.33041,-0.0861 -0.48826,-0.11379 l -48.387209,-8.53201 c -0.22633,-0.04 -0.46796,-0.0826 -0.7414,-0.0471 -0.20838,0.027 -0.40445,0.0945 -0.59304,0.20319 -0.1735,0.1 -0.3538,0.24405 -0.50037,0.43544 -0.12049,0.15733 -0.19296,0.31371 -0.2407,0.45302 -0.0573,0.16709 -0.0861,0.3304 -0.11409,0.48842 z"
         id="path63"
         sodipodi:nodetypes="cssssccssssccssssccsssscc" />
      <path
         style="fill:none;stroke:#000000"
         d="m 312.57055,325.61024 c -0.0397,0.22634 -0.0823,0.46797 -0.0469,0.74141 0.027,0.20838 0.0945,0.40445 0.20319,0.59304 0.1,0.1735 0.24406,0.3538 0.43545,0.50037 0.15733,0.12048 0.31371,0.19296 0.45302,0.2407 0.16708,0.0573 0.3304,0.0861 0.48814,0.11408 l 48.3877,8.532 c 0.22595,0.0397 0.46758,0.0823 0.74103,0.0468 0.20838,-0.027 0.40445,-0.0945 0.59303,-0.20319 0.1735,-0.1 0.35381,-0.24406 0.50037,-0.43545 0.12049,-0.15733 0.19296,-0.31371 0.24071,-0.45302 0.0573,-0.16708 0.0861,-0.3304 0.11396,-0.48814 l 8.53201,-48.38817 c 0.0398,-0.2255 0.0824,-0.4671 0.0469,-0.7406 -0.027,-0.2083 -0.0945,-0.4044 -0.20319,-0.593 -0.1,-0.1735 -0.24405,-0.3538 -0.43544,-0.5004 -0.15734,-0.1204 -0.31372,-0.1929 -0.45302,-0.2407 -0.16709,-0.057 -0.33041,-0.086 -0.48825,-0.1149 l -48.38721,-8.531 c -0.22634,-0.04 -0.46797,-0.082 -0.74141,-0.047 -0.20838,0.027 -0.40445,0.095 -0.59304,0.2032 -0.1735,0.1 -0.3538,0.2441 -0.50037,0.4354 -0.12048,0.1574 -0.19296,0.3138 -0.2407,0.4531 -0.0573,0.167 -0.0861,0.3304 -0.11408,0.4867 z"
         id="path71"
         sodipodi:nodetypes="cssssccssssccssssccsssscc" />
      <path
         d="m 806.99411,276.73482 c -0.0477,-0.1393 -0.12022,-0.2957 -0.2407,-0.4531 -0.14657,-0.1913 -0.32687,-0.3354 -0.50037,-0.4354 -0.18859,-0.1087 -0.38466,-0.1762 -0.59304,-0.2032 -0.27344,-0.035 -0.51507,0.01 -0.74141,0.047 l -48.38721,8.531 c -0.15784,0.029 -0.32116,0.058 -0.48825,0.1149 -0.1393,0.048 -0.29568,0.1203 -0.45302,0.2407 -0.19139,0.1466 -0.33545,0.3269 -0.43544,0.5004 -0.10868,0.1886 -0.17617,0.3847 -0.20319,0.593 -0.0355,0.2735 0.007,0.5151 0.0469,0.7406 l 8.53201,48.38817 c 0.0279,0.15774 0.0567,0.32106 0.11396,0.48814 0.0478,0.13931 0.12022,0.29569 0.24071,0.45302 0.14656,0.19139 0.32687,0.33546 0.50037,0.43545 0.18858,0.10868 0.38465,0.17617 0.59303,0.20319 0.27345,0.0354 0.51508,-0.007 0.74103,-0.0468 l 48.3877,-8.532 c 0.15774,-0.028 0.32106,-0.0568 0.48814,-0.11408 0.13931,-0.0477 0.29569,-0.12022 0.45302,-0.2407 0.19139,-0.14657 0.33546,-0.32687 0.43545,-0.50037 0.10868,-0.18859 0.17617,-0.38466 0.20319,-0.59304 0.0354,-0.27344 -0.007,-0.51507 -0.0469,-0.74141 l -8.532,-48.38872 c -0.028,-0.1563 -0.0568,-0.3197 -0.11408,-0.4867 z"
         style="fill:none;stroke:#000000"
         id="path77"
         sodipodi:nodetypes="ssssccssssccssssccssssccs" />
      <path
         style="fill:none;stroke:#000000"
         d="m 104.54056,261.51132 c -0.0397,0.2274 -0.0823,0.4691 -0.0468,0.7425 0.027,0.2084 0.0945,0.4045 0.20319,0.593 0.1,0.1736 0.24406,0.3539 0.43544,0.5004 0.15734,0.1205 0.31372,0.193 0.45302,0.2407 0.16709,0.057 0.33041,0.086 0.48813,0.113 l 48.3877,8.531 c 0.22597,0.042 0.4676,0.084 0.74104,0.049 0.20838,-0.027 0.40445,-0.095 0.59304,-0.2032 0.1735,-0.1 0.35381,-0.2441 0.50037,-0.4355 0.12049,-0.1573 0.19296,-0.3137 0.24071,-0.453 0.0573,-0.1671 0.0861,-0.3304 0.11395,-0.4887 l 8.532,-48.3887 c 0.0398,-0.2244 0.0824,-0.466 0.047,-0.7395 -0.027,-0.2084 -0.0945,-0.4044 -0.20319,-0.593 -0.1,-0.1735 -0.24406,-0.3538 -0.43544,-0.5004 -0.15734,-0.1205 -0.31372,-0.1929 -0.45303,-0.2407 -0.16708,-0.057 -0.3304,-0.086 -0.48826,-0.116 l -48.3872,-8.531 c -0.22633,-0.039 -0.46796,-0.081 -0.74141,-0.046 -0.20837,0.027 -0.40445,0.095 -0.59303,0.2032 -0.1735,0.1 -0.35381,0.244 -0.50037,0.4354 -0.12049,0.1574 -0.19296,0.3137 -0.24071,0.453 -0.0573,0.1671 -0.0861,0.3304 -0.11409,0.4907 z"
         id="path85"
         sodipodi:nodetypes="cssssccssssccssssccsssscc" />
      <path
         style="fill:none;stroke:#000000"
         d="m 137.93914,486.73392 c -0.0401,0.226 -0.0827,0.4676 -0.0473,0.7411 0.027,0.2083 0.0945,0.4044 0.20319,0.593 0.1,0.1735 0.24406,0.3538 0.43544,0.5004 0.15734,0.1205 0.31372,0.1929 0.45303,0.2407 0.16708,0.057 0.3304,0.086 0.48805,0.1139 l 48.3877,8.532 c 0.22604,0.04 0.46767,0.082 0.74111,0.047 0.20838,-0.027 0.40446,-0.094 0.59304,-0.2032 0.1735,-0.1 0.35381,-0.244 0.50037,-0.4354 0.12049,-0.1574 0.19296,-0.3138 0.24071,-0.4531 0.0573,-0.167 0.0861,-0.3304 0.11387,-0.4883 l 8.532,-48.38717 c 0.0399,-0.22628 0.0825,-0.46791 0.0471,-0.74136 -0.027,-0.20838 -0.0945,-0.40445 -0.20319,-0.59303 -0.1,-0.17351 -0.24406,-0.35381 -0.43544,-0.50037 -0.15734,-0.12049 -0.31372,-0.19297 -0.45302,-0.24071 -0.16709,-0.0573 -0.33041,-0.0861 -0.48835,-0.11413 l -48.3872,-8.532 c -0.22625,-0.0397 -0.46788,-0.0823 -0.74132,-0.0468 -0.20838,0.027 -0.40446,0.0945 -0.59304,0.20318 -0.1735,0.1 -0.35381,0.24406 -0.50037,0.43545 -0.12049,0.15733 -0.19296,0.31371 -0.2407,0.45302 -0.0573,0.16709 -0.0861,0.3304 -0.11367,0.48809 z"
         id="path95"
         sodipodi:nodetypes="cssssccssssccssssccsssscc" />
      <path
         style="fill:none;stroke:#000000"
         d="m 799.78615,443.01313 c -0.0281,-0.15775 -0.0568,-0.32107 -0.11411,-0.48816 -0.0477,-0.1393 -0.12022,-0.29568 -0.24071,-0.45302 -0.14656,-0.19138 -0.32687,-0.33545 -0.50037,-0.43544 -0.18858,-0.10868 -0.38466,-0.17617 -0.59303,-0.20319 -0.27345,-0.0355 -0.51508,0.007 -0.74138,0.0469 l -48.3872,8.532 c -0.15789,0.028 -0.32121,0.0568 -0.48829,0.11406 -0.13931,0.0477 -0.29569,0.12022 -0.45302,0.24071 -0.19139,0.14656 -0.33546,0.32686 -0.43545,0.50037 -0.10868,0.18858 -0.17617,0.38466 -0.20319,0.59303 -0.0354,0.27345 0.007,0.51508 0.047,0.74144 l 8.532,48.38719 c 0.0279,0.1578 0.0567,0.3212 0.11393,0.4882 0.0477,0.1394 0.12022,0.2957 0.2407,0.4531 0.14657,0.1914 0.32687,0.3354 0.50037,0.4354 0.18859,0.1087 0.38466,0.1762 0.59304,0.2032 0.27344,0.035 0.51507,-0.01 0.74106,-0.047 l 48.38771,-8.532 c 0.15769,-0.028 0.32101,-0.057 0.4881,-0.114 0.1393,-0.048 0.29568,-0.1202 0.45302,-0.2407 0.19139,-0.1465 0.33545,-0.3269 0.43544,-0.5004 0.10868,-0.1885 0.17617,-0.3846 0.20319,-0.593 0.0355,-0.2734 -0.007,-0.5151 -0.0468,-0.741 z"
         id="path102"
         sodipodi:nodetypes="cssssccssssccssssccsssscc" />
      <path
         style="fill:none;stroke:#000000"
         d="m 394.41654,276.07012 c -0.0397,0.2262 -0.0823,0.4679 -0.0468,0.7413 0.027,0.2084 0.0945,0.4045 0.20319,0.593 0.1,0.1735 0.24405,0.3539 0.43544,0.5004 0.15734,0.1205 0.31372,0.193 0.45302,0.2407 0.16709,0.057 0.33041,0.086 0.48814,0.1142 l 48.38771,8.531 c 0.22594,0.041 0.46758,0.083 0.74102,0.048 0.20838,-0.027 0.40445,-0.094 0.59303,-0.2031 0.17351,-0.1 0.35381,-0.2441 0.50037,-0.4355 0.12049,-0.1573 0.19297,-0.3137 0.24071,-0.453 0.0573,-0.1671 0.0861,-0.3304 0.11397,-0.4875 l 8.532,-48.3887 c 0.0398,-0.2256 0.0824,-0.4672 0.047,-0.7407 -0.027,-0.2084 -0.0945,-0.4044 -0.20319,-0.593 -0.1,-0.1735 -0.24406,-0.3538 -0.43545,-0.5004 -0.15733,-0.1205 -0.31371,-0.1929 -0.45302,-0.2407 -0.16709,-0.057 -0.3304,-0.086 -0.48825,-0.1148 l -48.3872,-8.531 c -0.22634,-0.04 -0.46797,-0.083 -0.74142,-0.047 -0.20838,0.027 -0.40445,0.094 -0.59303,0.2032 -0.17351,0.1 -0.35381,0.244 -0.50037,0.4354 -0.12049,0.1574 -0.19297,0.3137 -0.24071,0.453 -0.0573,0.1671 -0.0861,0.3304 -0.11407,0.4869 z"
         id="path115"
         sodipodi:nodetypes="cssssccssssccssssccsssscc" />
      <path
         style="fill:none;stroke:#000000"
         d="m 977.06421,291.03022 c -0.15803,0.028 -0.32135,0.057 -0.48843,0.1142 -0.13931,0.048 -0.29569,0.1202 -0.45303,0.2407 -0.19138,0.1465 -0.33545,0.3268 -0.43544,0.5004 -0.10868,0.1885 -0.17617,0.3846 -0.20319,0.593 -0.0355,0.2734 0.007,0.5151 0.0471,0.7413 l 8.532,48.38724 c 0.0277,0.15791 0.0565,0.32123 0.11378,0.48831 0.0478,0.13931 0.12022,0.29569 0.24071,0.45303 0.14656,0.19138 0.32687,0.33545 0.50037,0.43544 0.18858,0.10868 0.38466,0.17617 0.59304,0.20319 0.27344,0.0355 0.51507,-0.007 0.7412,-0.047 l 48.38718,-8.532 c 0.1581,-0.0278 0.3214,-0.0566 0.4885,-0.11391 0.1393,-0.0477 0.2957,-0.12021 0.453,-0.2407 0.1914,-0.14656 0.3355,-0.32687 0.4355,-0.50037 0.1086,-0.18858 0.1761,-0.38466 0.2031,-0.59304 0.035,-0.27344 -0.01,-0.51507 -0.047,-0.74108 l -8.532,-48.38819 c -0.028,-0.1572 -0.057,-0.3205 -0.1137,-0.4876 -0.048,-0.1393 -0.1202,-0.2957 -0.2407,-0.453 -0.1466,-0.1914 -0.3269,-0.3355 -0.5004,-0.4355 -0.1886,-0.1086 -0.3846,-0.1761 -0.593,-0.2032 -0.2735,-0.035 -0.5151,0.01 -0.7413,0.048 z"
         id="path124"
         sodipodi:nodetypes="cssssccssssccssssccsssscc" />
      <path
         d="m 981.62593,437.85811 c -0.0477,-0.13931 -0.12021,-0.29569 -0.2407,-0.45302 -0.14656,-0.19139 -0.32687,-0.33546 -0.50037,-0.43545 -0.18858,-0.10867 -0.38466,-0.17617 -0.59304,-0.20318 -0.27344,-0.0355 -0.51507,0.007 -0.74132,0.0468 l -48.3872,8.532 c -0.15794,0.0281 -0.32126,0.0569 -0.48835,0.11413 -0.1393,0.0477 -0.29568,0.12022 -0.45302,0.24071 -0.19138,0.14656 -0.33545,0.32686 -0.43544,0.50037 -0.10868,0.18858 -0.17617,0.38465 -0.20319,0.59303 -0.0355,0.27345 0.007,0.51508 0.0471,0.74136 l 8.532,48.38726 c 0.0278,0.1579 0.0566,0.3212 0.11387,0.4883 0.0478,0.1393 0.12022,0.2956 0.24071,0.453 0.14656,0.1914 0.32687,0.3354 0.50037,0.4354 0.18858,0.1087 0.38466,0.1762 0.59304,0.2032 0.27344,0.035 0.51507,-0.01 0.74111,-0.047 l 48.3877,-8.532 c 0.15765,-0.028 0.32097,-0.057 0.48805,-0.1139 0.13931,-0.048 0.29569,-0.1202 0.45303,-0.2407 0.19138,-0.1466 0.33545,-0.3269 0.43544,-0.5004 0.10868,-0.1886 0.17617,-0.3846 0.20319,-0.593 0.0355,-0.2735 -0.007,-0.5151 -0.0473,-0.7411 l -8.532,-48.38771 c -0.0276,-0.15769 -0.0564,-0.321 -0.11367,-0.48809 z"
         style="fill:none;stroke:#000000"
         id="path125"
         sodipodi:nodetypes="ssssccssssccssssccssssccs" />
      <path
         style="fill:none;stroke:#000000"
         d="m 850.06518,410.92891 c 0.0276,0.15775 0.0564,0.32106 0.11372,0.48815 0.0477,0.13931 0.12021,0.29569 0.2407,0.45302 0.14656,0.19139 0.32687,0.33546 0.50037,0.43545 0.18858,0.10868 0.38466,0.17617 0.59304,0.20319 0.27344,0.0354 0.51507,-0.007 0.74128,-0.0469 l 48.3872,-8.53201 c 0.15798,-0.028 0.3213,-0.0568 0.48839,-0.11406 0.1393,-0.0477 0.29568,-0.12022 0.45302,-0.2407 0.19138,-0.14657 0.33545,-0.32687 0.43544,-0.50038 0.10868,-0.18858 0.17617,-0.38465 0.20319,-0.59303 0.0355,-0.27344 -0.007,-0.51508 -0.0471,-0.74143 l -8.532,-48.3872 c -0.0278,-0.15783 -0.0566,-0.32115 -0.11383,-0.48824 -0.0478,-0.13931 -0.12022,-0.29569 -0.24071,-0.45302 -0.14656,-0.19139 -0.32687,-0.33546 -0.50037,-0.43544 -0.18858,-0.10868 -0.38466,-0.17617 -0.59303,-0.20319 -0.27345,-0.0355 -0.51508,0.007 -0.74117,0.0469 l -48.3872,8.532 c -0.1581,0.0279 -0.32142,0.0567 -0.4885,0.11398 -0.13931,0.0477 -0.29569,0.12022 -0.45303,0.24071 -0.19138,0.14656 -0.33545,0.32686 -0.43544,0.50037 -0.10868,0.18858 -0.17617,0.38465 -0.20319,0.59303 -0.0355,0.27345 0.007,0.51508 0.0472,0.74101 z"
         id="path134"
         sodipodi:nodetypes="cssssccssssccssssccsssscc" />
      <path
         style="fill:none;stroke:#000000"
         d="m 776.03327,405.70497 c 0.0277,0.15782 0.0565,0.32113 0.1138,0.48822 0.0477,0.13931 0.12022,0.29569 0.24071,0.45302 0.14656,0.19139 0.32686,0.33546 0.50037,0.43545 0.18858,0.10867 0.38465,0.17617 0.59303,0.20319 0.27345,0.0354 0.51508,-0.007 0.7412,-0.0469 l 48.3872,-8.532 c 0.15807,-0.0279 0.32139,-0.0567 0.48847,-0.114 0.13931,-0.0477 0.29569,-0.12022 0.45302,-0.24071 0.19139,-0.14656 0.33546,-0.32686 0.43545,-0.50037 0.10867,-0.18858 0.17617,-0.38465 0.20319,-0.59303 0.0355,-0.27344 -0.007,-0.51508 -0.0472,-0.74099 l -8.53201,-48.38771 c -0.0277,-0.15777 -0.0565,-0.32108 -0.11374,-0.48817 -0.0477,-0.13931 -0.12022,-0.29569 -0.2407,-0.45302 -0.14657,-0.19139 -0.32687,-0.33545 -0.50038,-0.43545 -0.18858,-0.10867 -0.38465,-0.17616 -0.59303,-0.20318 -0.27344,-0.0355 -0.51508,0.007 -0.74125,0.0469 l -48.3872,8.53201 c -0.15802,0.028 -0.32133,0.0568 -0.48842,0.11404 -0.1393,0.0477 -0.29568,0.12022 -0.45302,0.24071 -0.19139,0.14656 -0.33545,0.32686 -0.43544,0.50037 -0.10868,0.18858 -0.17617,0.38465 -0.20319,0.59303 -0.0355,0.27345 0.007,0.51508 0.0471,0.74095 z"
         id="path142"
         sodipodi:nodetypes="cssssccssssccssssccsssscc" />
      <path
         style="fill:none;stroke:#000000"
         d="m 497.20076,575.55502 c 0.17588,0.1477 0.36383,0.3054 0.61837,0.4114 0.19397,0.081 0.39752,0.1204 0.61518,0.1206 0.20025,10e-5 0.42843,-0.034 0.65105,-0.127 0.18302,-0.076 0.32397,-0.1752 0.43497,-0.2719 0.13314,-0.1161 0.23974,-0.2431 0.34276,-0.366 l 31.58267,-37.6389 c 0.14757,-0.1757 0.30528,-0.3636 0.4113,-0.6181 0.0808,-0.194 0.12038,-0.3976 0.12055,-0.6152 1.6e-4,-0.2003 -0.0345,-0.4285 -0.12692,-0.6511 -0.076,-0.183 -0.17521,-0.3239 -0.27198,-0.4349 -0.11606,-0.1332 -0.2431,-0.2398 -0.36592,-0.3429 l -37.63871,-31.5828 c -0.17588,-0.1473 -0.36383,-0.3051 -0.61837,-0.4111 -0.19397,-0.081 -0.39752,-0.1204 -0.61518,-0.1205 -0.20025,-2e-4 -0.42844,0.034 -0.65106,0.1269 -0.18301,0.076 -0.32396,0.1752 -0.43496,0.272 -0.13314,0.116 -0.23974,0.2431 -0.34276,0.3657 l -31.58252,37.6388 c -0.14773,0.176 -0.30544,0.3639 -0.41146,0.6185 -0.0808,0.1939 -0.12037,0.3975 -0.12054,0.6152 -1.6e-4,0.2002 0.0344,0.4284 0.12692,0.651 0.076,0.183 0.1752,0.324 0.27197,0.435 0.11607,0.1331 0.24311,0.2397 0.36608,0.3425 z"
         id="path155"
         sodipodi:nodetypes="cssssccssssccssssccsssscc" />
      <path
         d="m 438.70768,439.98969 c 0.027,0.20837 0.0945,0.40445 0.20319,0.59303 0.1,0.1735 0.24406,0.35381 0.43545,0.50037 0.15733,0.12049 0.31371,0.19296 0.45302,0.24071 0.16708,0.0573 0.3304,0.0861 0.48815,0.11406 l 48.3875,8.532 c 0.22614,0.0397 0.46778,0.0823 0.74122,0.0469 0.20838,-0.027 0.40445,-0.0945 0.59303,-0.20319 0.17351,-0.1 0.35381,-0.24405 0.50037,-0.43544 0.12049,-0.15734 0.19297,-0.31372 0.24071,-0.45302 0.0573,-0.16709 0.0861,-0.33041 0.11388,-0.48816 l 8.53205,-48.3877 c 0.0399,-0.22594 0.0824,-0.46757 0.047,-0.74101 -0.027,-0.20838 -0.0945,-0.40445 -0.20319,-0.59304 -0.1,-0.1735 -0.24406,-0.35381 -0.43544,-0.50037 -0.15734,-0.12048 -0.31372,-0.19296 -0.45303,-0.2407 -0.16708,-0.0573 -0.3304,-0.0861 -0.48824,-0.11399 l -48.38721,-8.532 c -0.22635,-0.0398 -0.46798,-0.0824 -0.74142,-0.0469 -0.20838,0.027 -0.40445,0.0945 -0.59303,0.20319 -0.17351,0.1 -0.35381,0.24406 -0.50038,0.43545 -0.12048,0.15733 -0.19296,0.31371 -0.2407,0.45302 -0.0573,0.16708 -0.0861,0.3304 -0.11407,0.48823 l -8.532,48.3872 c -0.0397,0.22636 -0.0823,0.46799 -0.0469,0.74144 z"
         style="fill:none;stroke:#000000"
         id="path162"
         sodipodi:nodetypes="ssssccssssccssssccssssccs" />
      <path
         d="m 430.09992,377.94226 c -0.027,-0.20838 -0.0945,-0.40445 -0.20319,-0.59303 -0.1,-0.17351 -0.24406,-0.35381 -0.43544,-0.50038 -0.15734,-0.12048 -0.31372,-0.19296 -0.45303,-0.2407 -0.16708,-0.0573 -0.3304,-0.0861 -0.48808,-0.11402 l -48.3877,-8.532 c -0.22601,-0.0398 -0.46764,-0.0824 -0.74109,-0.0469 -0.20837,0.027 -0.40445,0.0945 -0.59303,0.20319 -0.1735,0.1 -0.35381,0.24406 -0.50037,0.43545 -0.12049,0.15733 -0.19296,0.31371 -0.24071,0.45302 -0.0573,0.16709 -0.0861,0.3304 -0.1139,0.4882 l -8.532,48.3877 c -0.0399,0.22589 -0.0825,0.46752 -0.047,0.74097 0.027,0.20838 0.0945,0.40445 0.20319,0.59303 0.1,0.17351 0.24406,0.35381 0.43544,0.50037 0.15734,0.12049 0.31372,0.19297 0.45302,0.24071 0.16709,0.0573 0.33041,0.0861 0.48832,0.11403 l 48.3872,8.532 c 0.22628,0.0397 0.46791,0.0824 0.74135,0.0469 0.20838,-0.027 0.40446,-0.0945 0.59304,-0.20319 0.1735,-0.1 0.35381,-0.24405 0.50037,-0.43544 0.12049,-0.15734 0.19296,-0.31372 0.2407,-0.45302 0.0573,-0.16709 0.0861,-0.3304 0.11414,-0.48819 l 8.532,-48.3877 c 0.0396,-0.2259 0.0823,-0.46754 0.0468,-0.74098 z"
         style="fill:none;stroke:#000000"
         id="path166"
         sodipodi:nodetypes="ssssccssssccssssccssssccs" />
      <path
         style="fill:none;stroke:#000000"
         d="m 925.65951,425.01598 c 0.028,0.15782 0.0568,0.32114 0.11404,0.48822 0.0478,0.13931 0.12022,0.29569 0.24071,0.45302 0.14656,0.19139 0.32687,0.33546 0.50037,0.43545 0.18858,0.10868 0.38466,0.17617 0.59304,0.20319 0.27344,0.0354 0.51507,-0.007 0.74095,-0.0469 l 48.3877,-8.532 c 0.15781,-0.0279 0.32113,-0.0567 0.48822,-0.114 0.1393,-0.0477 0.29568,-0.12022 0.45302,-0.2407 0.19138,-0.14657 0.33545,-0.32687 0.43544,-0.50038 0.10868,-0.18858 0.17617,-0.38465 0.20319,-0.59303 0.0355,-0.27344 -0.007,-0.51507 -0.0469,-0.741 l -8.532,-48.3877 c -0.0279,-0.15776 -0.0567,-0.32108 -0.114,-0.48817 -0.0478,-0.13931 -0.12022,-0.29568 -0.24071,-0.45302 -0.14656,-0.19139 -0.32687,-0.33545 -0.50037,-0.43544 -0.18858,-0.10868 -0.38466,-0.17617 -0.59304,-0.20319 -0.27344,-0.0355 -0.51507,0.007 -0.74099,0.0469 l -48.3877,8.532 c -0.15777,0.028 -0.32109,0.0568 -0.48817,0.11405 -0.13931,0.0477 -0.29569,0.12022 -0.45303,0.24071 -0.19138,0.14656 -0.33545,0.32687 -0.43544,0.50037 -0.10868,0.18858 -0.17617,0.38465 -0.20319,0.59303 -0.0355,0.27345 0.007,0.51508 0.0469,0.74145 z"
         id="path178"
         sodipodi:nodetypes="cssssccssssccssssccsssscc" />
      <path
         d="m 663.40607,299.51152 c 0.1393,-0.048 0.29568,-0.1203 0.45302,-0.2407 0.19138,-0.1466 0.33545,-0.3269 0.43544,-0.5004 0.10868,-0.1886 0.17617,-0.3847 0.20319,-0.5931 0.0355,-0.2734 -0.007,-0.515 -0.0472,-0.7392 l -8.53185,-48.3887 c -0.0278,-0.1585 -0.0566,-0.3218 -0.11388,-0.4889 -0.0477,-0.1393 -0.12022,-0.2957 -0.24071,-0.453 -0.14656,-0.1914 -0.32687,-0.3355 -0.50037,-0.4355 -0.18858,-0.1087 -0.38466,-0.1762 -0.59303,-0.2032 -0.27345,-0.035 -0.51508,0.01 -0.74121,0.049 l -48.3874,8.531 c -0.15786,0.027 -0.32118,0.056 -0.48826,0.1128 -0.13931,0.048 -0.29569,0.1203 -0.45303,0.2408 -0.19138,0.1465 -0.33545,0.3268 -0.43544,0.5003 -0.10868,0.1886 -0.17617,0.3847 -0.20319,0.5931 -0.0355,0.2734 0.007,0.515 0.047,0.7426 l 8.532,48.3837 c 0.0278,0.1601 0.0566,0.3234 0.11391,0.4905 0.0477,0.1393 0.12022,0.2957 0.24071,0.4531 0.14656,0.1913 0.32686,0.3354 0.50037,0.4354 0.18858,0.1087 0.38465,0.1762 0.59303,0.2032 0.27345,0.035 0.51508,-0.01 0.74119,-0.046 l 48.3874,-8.531 c 0.15788,-0.03 0.32119,-0.059 0.48828,-0.1162 z"
         style="fill:none;stroke:#000000"
         id="path185"
         sodipodi:nodetypes="ssssccssssccssssccssssccs" />
      <path
         d="m 299.22744,290.89402 c -0.027,-0.2084 -0.0945,-0.4044 -0.20319,-0.593 -0.1,-0.1735 -0.24406,-0.3538 -0.43545,-0.5004 -0.15733,-0.1205 -0.31371,-0.193 -0.45302,-0.2407 -0.16709,-0.057 -0.3304,-0.086 -0.48834,-0.1119 l -48.3872,-8.536 c -0.22625,-0.038 -0.46788,-0.081 -0.74133,-0.045 -0.20837,0.027 -0.40445,0.095 -0.59303,0.2032 -0.17351,0.1 -0.35381,0.244 -0.50037,0.4354 -0.12049,0.1573 -0.19296,0.3137 -0.24071,0.453 -0.0573,0.1671 -0.0861,0.3304 -0.11366,0.4898 l -8.53201,48.38575 c -0.0401,0.22628 -0.0827,0.46791 -0.0473,0.74135 0.027,0.20838 0.0945,0.40445 0.20319,0.59303 0.1,0.17351 0.24406,0.35382 0.43544,0.50038 0.15734,0.12049 0.31372,0.19296 0.45302,0.2407 0.16709,0.0573 0.33041,0.0861 0.48805,0.11415 l 48.38771,8.532 c 0.22604,0.0396 0.46767,0.0822 0.74111,0.0468 0.20838,-0.027 0.40445,-0.0945 0.59304,-0.20319 0.1735,-0.1 0.35381,-0.24406 0.50037,-0.43544 0.12048,-0.15734 0.19296,-0.31372 0.2407,-0.45303 0.0573,-0.16708 0.0861,-0.3304 0.11388,-0.48807 l 8.532,-48.38521 c 0.0399,-0.2285 0.0825,-0.4701 0.0471,-0.7436 z"
         style="fill:none;stroke:#000000"
         id="path196"
         sodipodi:nodetypes="ssssccssssccssssccssssccs" />
      <path
         d="m 461.85423,484.30482 c 0.0278,-0.2083 0.0134,-0.4151 -0.0428,-0.6254 -0.0517,-0.1935 -0.14417,-0.405 -0.2911,-0.5961 -0.12079,-0.1571 -0.25309,-0.2675 -0.37529,-0.3497 -0.14657,-0.099 -0.29687,-0.1687 -0.44193,-0.2365 l -44.53069,-20.7649 c -0.20803,-0.097 -0.4304,-0.2006 -0.7037,-0.2371 -0.20827,-0.028 -0.41513,-0.013 -0.62542,0.043 -0.19347,0.052 -0.40492,0.1441 -0.59602,0.2911 -0.1571,0.1208 -0.26758,0.2531 -0.34975,0.3753 -0.0986,0.1465 -0.16865,0.2968 -0.23629,0.4419 l -20.76493,44.5307 c -0.0971,0.208 -0.20077,0.4304 -0.23729,0.7037 -0.0278,0.2083 -0.0134,0.4151 0.0428,0.6254 0.0517,0.1935 0.14417,0.4049 0.2911,0.596 0.12079,0.1571 0.25309,0.2676 0.37529,0.3498 0.14657,0.099 0.29687,0.1686 0.44215,0.2363 l 44.5302,20.7649 c 0.20829,0.097 0.43067,0.2008 0.70397,0.2373 0.20827,0.028 0.41513,0.013 0.62542,-0.043 0.19347,-0.052 0.40492,-0.1442 0.59602,-0.2911 0.1571,-0.1208 0.26758,-0.2531 0.34975,-0.3753 0.0986,-0.1466 0.16865,-0.2969 0.23652,-0.4421 l 20.76493,-44.5302 c 0.0969,-0.2084 0.20054,-0.4307 0.23706,-0.704 z"
         style="fill:none;stroke:#000000"
         id="path202"
         sodipodi:nodetypes="ssssccssssccssssccssssccs" />
      <path
         style="fill:none;stroke:#000000"
         d="m 862.56752,481.83502 c 0.028,0.1578 0.0568,0.3211 0.11404,0.4882 0.0478,0.1393 0.12022,0.2957 0.24071,0.453 0.14656,0.1914 0.32687,0.3355 0.50037,0.4355 0.18858,0.1086 0.38466,0.1761 0.59304,0.2032 0.27344,0.035 0.51507,-0.01 0.74144,-0.047 l 48.3872,-8.5321 c 0.15782,-0.028 0.32114,-0.057 0.48823,-0.1139 0.1393,-0.048 0.29568,-0.1203 0.45302,-0.2407 0.19138,-0.1466 0.33545,-0.3269 0.43544,-0.5004 0.10868,-0.1886 0.17617,-0.3847 0.20319,-0.593 0.0355,-0.2735 -0.007,-0.5151 -0.0469,-0.7411 l -8.532,-48.38766 c -0.0279,-0.15776 -0.0567,-0.32107 -0.11399,-0.48816 -0.0478,-0.13931 -0.12022,-0.29569 -0.24071,-0.45302 -0.14656,-0.19139 -0.32687,-0.33546 -0.50037,-0.43545 -0.18858,-0.10868 -0.38466,-0.17617 -0.59304,-0.20319 -0.27344,-0.0354 -0.51507,0.007 -0.74099,0.0469 l -48.3877,8.532 c -0.15777,0.028 -0.32109,0.0568 -0.48818,0.11406 -0.1393,0.0477 -0.29568,0.12022 -0.45302,0.2407 -0.19138,0.14657 -0.33545,0.32687 -0.43544,0.50038 -0.10868,0.18858 -0.17617,0.38465 -0.20319,0.59303 -0.0355,0.27344 0.007,0.51508 0.0469,0.74143 z"
         id="path212"
         sodipodi:nodetypes="cssssccssssccssssccsssscc" />
      <path
         style="fill:none;stroke:#000000"
         d="m 893.65529,232.62852 c -0.15794,0.026 -0.32126,0.055 -0.48834,0.1124 -0.13931,0.048 -0.29569,0.1202 -0.45302,0.2407 -0.19139,0.1466 -0.33546,0.3269 -0.43545,0.5004 -0.10868,0.1885 -0.17617,0.3846 -0.20319,0.593 -0.0355,0.2734 0.007,0.5151 0.0471,0.7431 l 8.532,48.3837 c 0.0278,0.1597 0.0566,0.323 0.11388,0.4901 0.0477,0.1393 0.12022,0.2956 0.2407,0.453 0.14657,0.1914 0.32687,0.3354 0.50038,0.4354 0.18858,0.1087 0.38465,0.1762 0.59303,0.2032 0.27344,0.035 0.51507,-0.01 0.74112,-0.045 l 48.3877,-8.536 c 0.15764,-0.026 0.32096,-0.054 0.48805,-0.1116 0.1393,-0.048 0.29568,-0.1202 0.45302,-0.2407 0.19139,-0.1466 0.33545,-0.3269 0.43544,-0.5004 0.10868,-0.1886 0.17617,-0.3846 0.20319,-0.593 0.0355,-0.2735 -0.007,-0.5151 -0.0473,-0.7389 l -8.532,-48.3887 c -0.0276,-0.1589 -0.0564,-0.3222 -0.11367,-0.4893 -0.0478,-0.1393 -0.12022,-0.2957 -0.24071,-0.453 -0.14656,-0.1914 -0.32687,-0.3355 -0.50037,-0.4355 -0.18858,-0.1086 -0.38466,-0.1761 -0.59303,-0.2031 -0.27345,-0.035 -0.51508,0.01 -0.74133,0.044 z"
         id="path214"
         sodipodi:nodetypes="cssssccssssccssssccsssscc" />
      <path
         d="m 360.75659,356.57632 c -0.027,-0.20838 -0.0945,-0.40445 -0.20319,-0.59303 -0.1,-0.17351 -0.24405,-0.35381 -0.43544,-0.50037 -0.15734,-0.12049 -0.31372,-0.19297 -0.45302,-0.24071 -0.16709,-0.0573 -0.3304,-0.0861 -0.48842,-0.11404 l -48.3872,-8.53201 c -0.22617,-0.0397 -0.46781,-0.0823 -0.74125,-0.0469 -0.20838,0.027 -0.40445,0.0945 -0.59303,0.20318 -0.17351,0.1 -0.35381,0.24406 -0.50038,0.43545 -0.12048,0.15733 -0.19296,0.31371 -0.2407,0.45302 -0.0573,0.16709 -0.0861,0.3304 -0.11374,0.48817 l -8.53201,48.38771 c -0.04,0.22591 -0.0826,0.46755 -0.0472,0.74099 0.027,0.20838 0.0945,0.40445 0.20319,0.59303 0.1,0.17351 0.24406,0.35381 0.43545,0.50037 0.15733,0.12049 0.31371,0.19297 0.45302,0.24071 0.16708,0.0573 0.3304,0.0861 0.48847,0.114 l 48.3872,8.532 c 0.22612,0.0398 0.46775,0.0824 0.7412,0.0469 0.20838,-0.027 0.40445,-0.0945 0.59303,-0.20319 0.17351,-0.1 0.35381,-0.24406 0.50037,-0.43545 0.12049,-0.15733 0.19297,-0.31371 0.24071,-0.45302 0.0573,-0.16709 0.0861,-0.3304 0.1138,-0.48822 l 8.532,-48.3877 c 0.04,-0.22587 0.0826,-0.4675 0.0471,-0.74095 z"
         style="fill:none;stroke:#000000"
         id="path222"
         sodipodi:nodetypes="ssssccssssccssssccssssccs" />
      <path
         style="fill:none;stroke:#000000"
         d="m 501.17768,379.06378 c 0.22612,0.0396 0.46775,0.0822 0.7412,0.0468 0.20838,-0.027 0.40445,-0.0945 0.59303,-0.20319 0.17351,-0.1 0.35381,-0.24405 0.50037,-0.43544 0.12049,-0.15733 0.19297,-0.31371 0.24071,-0.45302 0.0573,-0.16709 0.0861,-0.3304 0.11389,-0.48808 l 8.532,-48.3877 c 0.0399,-0.22602 0.0825,-0.46765 0.047,-0.74109 -0.027,-0.20838 -0.0945,-0.40445 -0.20319,-0.59303 -0.1,-0.17351 -0.24405,-0.35381 -0.43544,-0.50038 -0.15734,-0.12048 -0.31372,-0.19296 -0.45302,-0.2407 -0.16709,-0.0573 -0.33041,-0.0861 -0.48828,-0.11391 l -48.3875,-8.532 c -0.22602,-0.0399 -0.46765,-0.0825 -0.74109,-0.047 -0.20838,0.027 -0.40446,0.0945 -0.59304,0.20319 -0.1735,0.1 -0.35381,0.24406 -0.50037,0.43545 -0.12048,0.15733 -0.19296,0.31371 -0.2407,0.45302 -0.0573,0.16708 -0.0861,0.3304 -0.11391,0.48831 l -8.532,48.3872 c -0.0399,0.22628 -0.0825,0.46791 -0.047,0.74136 0.027,0.20838 0.0945,0.40445 0.20319,0.59303 0.1,0.1735 0.24406,0.35381 0.43544,0.50037 0.15734,0.12049 0.31372,0.19297 0.45303,0.24071 0.16708,0.0573 0.3304,0.0861 0.48831,0.11414 z"
         id="path229"
         sodipodi:nodetypes="cssssccssssccssssccsssscc" />
      <path
         d="m 956.6206,296.04582 c -0.0477,-0.1393 -0.12022,-0.2957 -0.24071,-0.453 -0.14656,-0.1914 -0.32687,-0.3355 -0.50037,-0.4355 -0.18858,-0.1087 -0.38466,-0.1762 -0.59303,-0.2032 -0.27345,-0.035 -0.51508,0.01 -0.74116,0.047 l -48.3872,8.531 c -0.15811,0.029 -0.32143,0.058 -0.48851,0.1154 -0.13931,0.048 -0.29569,0.1203 -0.45303,0.2407 -0.19138,0.1466 -0.33545,0.3269 -0.43544,0.5004 -0.10868,0.1886 -0.17617,0.3847 -0.20319,0.5931 -0.0355,0.2734 0.007,0.515 0.0472,0.74 l 8.532,48.38868 c 0.0276,0.15774 0.0564,0.32106 0.11371,0.48814 0.0477,0.13931 0.12021,0.29569 0.2407,0.45302 0.14656,0.19139 0.32687,0.33546 0.50037,0.43545 0.18858,0.10868 0.38466,0.17617 0.59304,0.20319 0.27344,0.0354 0.51507,-0.007 0.74128,-0.0468 l 48.38721,-8.532 c 0.15797,-0.028 0.32129,-0.0568 0.48838,-0.11408 0.1393,-0.0477 0.29568,-0.12021 0.45302,-0.2407 0.19138,-0.14656 0.33545,-0.32687 0.43544,-0.50037 0.10868,-0.18859 0.17617,-0.38466 0.20319,-0.59304 0.0355,-0.27344 -0.007,-0.51507 -0.0471,-0.74142 l -8.53201,-48.38922 c -0.0278,-0.1558 -0.0566,-0.3191 -0.11383,-0.4862 z"
         style="fill:none;stroke:#000000"
         id="path239"
         sodipodi:nodetypes="ssssccssssccssssccssssccs" />
      <path
         d="m 211.13011,375.88733 c -0.027,-0.20838 -0.0945,-0.40445 -0.20319,-0.59303 -0.1,-0.1735 -0.24406,-0.35381 -0.43544,-0.50037 -0.15734,-0.12049 -0.31372,-0.19297 -0.45303,-0.24071 -0.16708,-0.0573 -0.3304,-0.0861 -0.48817,-0.11405 l -48.3877,-8.532 c -0.22592,-0.0397 -0.46755,-0.0823 -0.74099,-0.0469 -0.20838,0.027 -0.40446,0.0945 -0.59304,0.20319 -0.1735,0.1 -0.35381,0.24405 -0.50037,0.43544 -0.12049,0.15734 -0.19296,0.31371 -0.24071,0.45302 -0.0573,0.16709 -0.0861,0.33041 -0.114,0.48817 l -8.532,48.3877 c -0.0398,0.22593 -0.0824,0.46756 -0.0469,0.741 0.027,0.20838 0.0945,0.40445 0.20319,0.59303 0.1,0.17351 0.24406,0.35381 0.43544,0.50038 0.15734,0.12048 0.31372,0.19296 0.45302,0.2407 0.16709,0.0573 0.33041,0.0861 0.48822,0.114 l 48.3877,8.532 c 0.22588,0.0398 0.46751,0.0824 0.74095,0.0469 0.20838,-0.027 0.40446,-0.0945 0.59304,-0.20319 0.1735,-0.1 0.35381,-0.24406 0.50037,-0.43545 0.12049,-0.15733 0.19296,-0.31371 0.24071,-0.45302 0.0573,-0.16708 0.0861,-0.3304 0.11404,-0.48822 l 8.532,-48.3872 c 0.0397,-0.22637 0.0823,-0.468 0.0469,-0.74145 z"
         style="fill:none;stroke:#000000"
         id="path250"
         sodipodi:nodetypes="ssssccssssccssssccssssccs" />
      <path
         style="fill:none;stroke:#000000"
         d="m 513.68036,308.15872 c 0.22611,0.038 0.46774,0.081 0.74119,0.046 0.20838,-0.027 0.40445,-0.095 0.59303,-0.2032 0.1735,-0.1 0.35381,-0.2441 0.50037,-0.4354 0.12049,-0.1574 0.19297,-0.3138 0.24071,-0.4531 0.0573,-0.1671 0.0861,-0.3304 0.1139,-0.4905 l 8.53201,-48.3837 c 0.0399,-0.2276 0.0825,-0.4692 0.047,-0.7426 -0.027,-0.2084 -0.0945,-0.4045 -0.20319,-0.5931 -0.1,-0.1735 -0.24406,-0.3538 -0.43545,-0.5003 -0.15733,-0.1205 -0.31371,-0.193 -0.45302,-0.2408 -0.16708,-0.057 -0.3304,-0.086 -0.48826,-0.1128 l -48.3874,-8.531 c -0.22613,-0.042 -0.46776,-0.084 -0.74121,-0.049 -0.20838,0.027 -0.40445,0.094 -0.59303,0.2032 -0.1735,0.1 -0.35381,0.2441 -0.50037,0.4355 -0.12049,0.1573 -0.19296,0.3137 -0.24071,0.453 -0.0573,0.1671 -0.0861,0.3304 -0.11388,0.4889 l -8.53186,48.3887 c -0.04,0.2242 -0.0826,0.4658 -0.0472,0.7392 0.027,0.2084 0.0945,0.4045 0.20319,0.5931 0.1,0.1735 0.24406,0.3538 0.43545,0.5004 0.15734,0.1204 0.31372,0.1929 0.45302,0.2407 0.16709,0.057 0.33041,0.086 0.48828,0.1162 z"
         id="path259"
         sodipodi:nodetypes="cssssccssssccssssccsssscc" />
      <path
         style="fill:none;stroke:#000000"
         d="m 751.0276,263.89132 c 0.0281,0.1592 0.0569,0.3225 0.11413,0.4896 0.0478,0.1393 0.12022,0.2956 0.24071,0.453 0.14656,0.1914 0.32687,0.3354 0.50037,0.4354 0.18858,0.1087 0.38466,0.1762 0.59303,0.2032 0.27345,0.035 0.51508,-0.01 0.74137,-0.045 l 48.3872,-8.536 c 0.1579,-0.026 0.32122,-0.055 0.4883,-0.1121 0.13931,-0.048 0.29569,-0.1202 0.45303,-0.2407 0.19138,-0.1466 0.33545,-0.3269 0.43544,-0.5004 0.10868,-0.1886 0.17617,-0.3846 0.20319,-0.593 0.0354,-0.2735 -0.007,-0.5151 -0.047,-0.7434 l -8.532,-48.3837 c -0.0279,-0.1594 -0.0566,-0.3227 -0.11392,-0.4898 -0.0477,-0.1393 -0.12021,-0.2957 -0.2407,-0.453 -0.14656,-0.1914 -0.32687,-0.3355 -0.50037,-0.4355 -0.18859,-0.1086 -0.38466,-0.1761 -0.59304,-0.2032 -0.27344,-0.035 -0.51507,0.01 -0.74108,0.045 l -48.3877,8.536 c -0.15768,0.026 -0.321,0.055 -0.48809,0.1119 -0.1393,0.048 -0.29568,0.1202 -0.45302,0.2407 -0.19138,0.1465 -0.33545,0.3268 -0.43544,0.5004 -0.10868,0.1885 -0.17617,0.3846 -0.20319,0.593 -0.0355,0.2734 0.007,0.5151 0.0468,0.7436 z"
         id="path268"
         sodipodi:nodetypes="cssssccssssccssssccsssscc" />
      <path
         d="m 1015.0241,212.63692 c -0.048,-0.1393 -0.1202,-0.2956 -0.2407,-0.453 -0.1466,-0.1914 -0.3269,-0.3354 -0.5004,-0.4354 -0.1886,-0.1087 -0.3846,-0.1762 -0.593,-0.2032 -0.2735,-0.035 -0.5151,0.01 -0.7414,0.046 l -48.38723,8.531 c -0.15786,0.03 -0.32118,0.059 -0.48826,0.116 -0.13931,0.048 -0.29569,0.1202 -0.45303,0.2407 -0.19138,0.1466 -0.33545,0.3269 -0.43544,0.5004 -0.10868,0.1886 -0.17617,0.3846 -0.20319,0.593 -0.0355,0.2735 0.007,0.5151 0.047,0.7395 l 8.532,48.3887 c 0.0279,0.1583 0.0567,0.3216 0.11395,0.4887 0.0478,0.1393 0.12022,0.2957 0.24071,0.453 0.14656,0.1914 0.32687,0.3355 0.50037,0.4355 0.18859,0.1086 0.38466,0.1761 0.59304,0.2032 0.27344,0.035 0.51507,-0.01 0.74104,-0.049 l 48.38774,-8.531 c 0.1577,-0.027 0.321,-0.056 0.4881,-0.113 0.1393,-0.048 0.2957,-0.1202 0.453,-0.2407 0.1914,-0.1465 0.3355,-0.3268 0.4355,-0.5004 0.1086,-0.1885 0.1761,-0.3846 0.2031,-0.593 0.035,-0.2734 -0.01,-0.5151 -0.047,-0.7425 l -8.532,-48.3837 c -0.028,-0.1603 -0.057,-0.3236 -0.114,-0.4907 z"
         style="fill:none;stroke:#000000"
         id="path271"
         sodipodi:nodetypes="ssssccssssccssssccssssccs" />
      <path
         d="m 185.42692,224.04802 c -0.20837,0.027 -0.40445,0.095 -0.59303,0.2031 -0.1735,0.1 -0.35381,0.2441 -0.50037,0.4355 -0.12049,0.1573 -0.19296,0.3137 -0.24071,0.453 -0.0573,0.1671 -0.0861,0.3304 -0.11367,0.4893 l -8.532,48.3887 c -0.0401,0.2238 -0.0827,0.4654 -0.0473,0.7389 0.027,0.2084 0.0945,0.4044 0.20319,0.593 0.1,0.1735 0.24405,0.3538 0.43544,0.5004 0.15734,0.1205 0.31372,0.193 0.45302,0.2407 0.16709,0.057 0.33041,0.086 0.48805,0.1116 l 48.3877,8.536 c 0.22605,0.038 0.46768,0.081 0.74112,0.045 0.20838,-0.027 0.40445,-0.094 0.59303,-0.2032 0.17351,-0.1 0.35381,-0.244 0.50038,-0.4354 0.12048,-0.1574 0.19296,-0.3137 0.2407,-0.453 0.0573,-0.1671 0.0861,-0.3304 0.11388,-0.4901 l 8.532,-48.3837 c 0.0399,-0.228 0.0825,-0.4697 0.0471,-0.7431 -0.027,-0.2084 -0.0945,-0.4045 -0.20319,-0.593 -0.1,-0.1735 -0.24406,-0.3538 -0.43545,-0.5004 -0.15733,-0.1205 -0.31371,-0.193 -0.45302,-0.2407 -0.16708,-0.057 -0.3304,-0.086 -0.48834,-0.1124 l -48.3872,-8.536 c -0.22625,-0.037 -0.46788,-0.08 -0.74133,-0.044 z"
         style="fill:none;stroke:#000000"
         id="path278"
         sodipodi:nodetypes="ssssccssssccssssccssssccs" />
      <path
         style="fill:none;stroke:#000000"
         d="m 837.56235,340.02283 c 0.0278,0.15767 0.0566,0.32099 0.11388,0.48807 0.0477,0.13931 0.12022,0.29569 0.2407,0.45303 0.14656,0.19138 0.32687,0.33545 0.50037,0.43544 0.18859,0.10868 0.38466,0.17617 0.59304,0.20319 0.27344,0.0354 0.51507,-0.007 0.74111,-0.0468 l 48.38771,-8.532 c 0.15764,-0.0281 0.32096,-0.0569 0.48805,-0.11415 0.1393,-0.0477 0.29568,-0.12021 0.45302,-0.2407 0.19138,-0.14656 0.33545,-0.32687 0.43544,-0.50038 0.10868,-0.18858 0.17617,-0.38465 0.20319,-0.59303 0.0355,-0.27344 -0.007,-0.51507 -0.0473,-0.74135 l -8.53201,-48.38575 c -0.0276,-0.1594 -0.0564,-0.3227 -0.11366,-0.4898 -0.0478,-0.1393 -0.12022,-0.2957 -0.24071,-0.453 -0.14656,-0.1914 -0.32686,-0.3354 -0.50037,-0.4354 -0.18858,-0.1087 -0.38466,-0.1762 -0.59303,-0.2032 -0.27345,-0.035 -0.51508,0.01 -0.74133,0.045 l -48.3872,8.536 c -0.15794,0.026 -0.32125,0.055 -0.48834,0.1119 -0.13931,0.048 -0.29569,0.1202 -0.45302,0.2407 -0.19139,0.1466 -0.33546,0.3269 -0.43545,0.5004 -0.10868,0.1886 -0.17617,0.3846 -0.20319,0.593 -0.0354,0.2735 0.007,0.5151 0.0471,0.7436 z"
         id="path288"
         sodipodi:nodetypes="cssssccssssccssssccsssscc" />
      <path
         d="m 274.2221,432.70635 c -0.027,-0.20838 -0.0945,-0.40445 -0.20319,-0.59303 -0.1,-0.17351 -0.24406,-0.35381 -0.43544,-0.50038 -0.15734,-0.12048 -0.31372,-0.19296 -0.45302,-0.2407 -0.16709,-0.0573 -0.33041,-0.0861 -0.48818,-0.11406 l -48.3877,-8.532 c -0.22592,-0.0397 -0.46755,-0.0823 -0.74099,-0.0469 -0.20838,0.027 -0.40446,0.0945 -0.59304,0.20319 -0.1735,0.1 -0.35381,0.24406 -0.50037,0.43545 -0.12049,0.15733 -0.19296,0.31371 -0.24071,0.45302 -0.0573,0.16709 -0.0861,0.3304 -0.11399,0.48816 l -8.532,48.38772 c -0.0398,0.2259 -0.0824,0.4675 -0.0469,0.741 0.027,0.2084 0.0945,0.4044 0.20319,0.593 0.1,0.1735 0.24406,0.3538 0.43544,0.5004 0.15734,0.1205 0.31372,0.193 0.45302,0.2407 0.16709,0.057 0.33041,0.086 0.48823,0.114 l 48.3872,8.532 c 0.22637,0.04 0.468,0.082 0.74144,0.047 0.20838,-0.027 0.40446,-0.095 0.59304,-0.2032 0.1735,-0.1 0.35381,-0.244 0.50037,-0.4354 0.12049,-0.1574 0.19296,-0.3137 0.24071,-0.4531 0.0573,-0.167 0.0861,-0.3304 0.11404,-0.4882 l 8.532,-48.3872 c 0.0397,-0.22635 0.0823,-0.46799 0.0469,-0.74143 z"
         style="fill:none;stroke:#000000"
         id="path296"
         sodipodi:nodetypes="ssssccssssccssssccssssccs" />
      <path
         d="m 319.84578,492.14182 c 0.027,0.2084 0.0945,0.4045 0.20319,0.5931 0.1,0.1735 0.24405,0.3538 0.43544,0.5003 0.15734,0.1205 0.31372,0.193 0.45302,0.2407 0.16709,0.057 0.33041,0.086 0.4881,0.114 l 48.38771,8.532 c 0.22599,0.04 0.46762,0.082 0.74106,0.047 0.20838,-0.027 0.40445,-0.094 0.59304,-0.2032 0.1735,-0.1 0.3538,-0.244 0.50037,-0.4354 0.12048,-0.1573 0.19296,-0.3137 0.2407,-0.453 0.0573,-0.1671 0.0861,-0.3304 0.11393,-0.4883 l 8.532,-48.38717 c 0.0399,-0.22636 0.0824,-0.46799 0.047,-0.74144 -0.027,-0.20837 -0.0945,-0.40445 -0.20319,-0.59303 -0.1,-0.17351 -0.24406,-0.35381 -0.43545,-0.50037 -0.15733,-0.12049 -0.31371,-0.19296 -0.45302,-0.24071 -0.16708,-0.0573 -0.3304,-0.0861 -0.48829,-0.11406 l -48.3872,-8.532 c -0.2263,-0.0397 -0.46793,-0.0823 -0.74138,-0.0469 -0.20837,0.027 -0.40445,0.0945 -0.59303,0.20319 -0.1735,0.1 -0.35381,0.24406 -0.50037,0.43544 -0.12049,0.15734 -0.19296,0.31372 -0.24071,0.45302 -0.0573,0.16709 -0.0861,0.33041 -0.11411,0.48816 l -8.53201,48.38767 c -0.0396,0.226 -0.0823,0.4676 -0.0468,0.741 z"
         style="fill:none;stroke:#000000"
         id="path302"
         sodipodi:nodetypes="ssssccssssccssssccssssccs" />
      <path
         style="fill:none;stroke:#000000"
         d="m 687.18822,305.58902 c -0.15801,0.027 -0.32132,0.056 -0.48841,0.113 -0.13931,0.048 -0.29569,0.1202 -0.45302,0.2407 -0.19139,0.1465 -0.33546,0.3268 -0.43545,0.5003 -0.10868,0.1886 -0.17617,0.3847 -0.20319,0.5931 -0.0354,0.2734 0.007,0.5151 0.0471,0.7425 l 8.532,48.38624 c 0.0277,0.15771 0.0565,0.32102 0.11381,0.48811 0.0477,0.13931 0.12022,0.29569 0.2407,0.45302 0.14656,0.19139 0.32687,0.33546 0.50037,0.43544 0.18859,0.10868 0.38466,0.17618 0.59304,0.2032 0.27344,0.0354 0.51507,-0.007 0.74119,-0.0468 l 48.3872,-8.532 c 0.15807,-0.0281 0.32139,-0.0568 0.48848,-0.11411 0.1393,-0.0477 0.29568,-0.12022 0.45302,-0.2407 0.19139,-0.14657 0.33545,-0.32687 0.43544,-0.50038 0.10868,-0.18858 0.17617,-0.38465 0.20319,-0.59303 0.0355,-0.27344 -0.007,-0.51508 -0.0472,-0.74138 l -8.532,-48.38669 c -0.0277,-0.1584 -0.0565,-0.3217 -0.11374,-0.4888 -0.0478,-0.1393 -0.12022,-0.2957 -0.24071,-0.453 -0.14656,-0.1914 -0.32687,-0.3355 -0.50037,-0.4355 -0.18858,-0.1086 -0.38466,-0.1761 -0.59303,-0.2032 -0.27345,-0.035 -0.51508,0.01 -0.74126,0.049 z"
         id="path314"
         sodipodi:nodetypes="cssssccssssccssssccsssscc" />
      <path
         d="m 725.14812,227.19452 c -0.0477,-0.1393 -0.12022,-0.2956 -0.24071,-0.453 -0.14656,-0.1914 -0.32686,-0.3354 -0.50037,-0.4354 -0.18858,-0.1087 -0.38465,-0.1762 -0.59303,-0.2032 -0.27345,-0.035 -0.51508,0.01 -0.74142,0.047 l -48.3872,8.531 c -0.15785,0.029 -0.32116,0.058 -0.48825,0.1148 -0.13931,0.048 -0.29569,0.1202 -0.45302,0.2407 -0.19139,0.1466 -0.33546,0.3269 -0.43545,0.5004 -0.10868,0.1886 -0.17617,0.3846 -0.20319,0.593 -0.0355,0.2735 0.007,0.5151 0.047,0.7407 l 8.532,48.3887 c 0.0279,0.1571 0.0567,0.3204 0.11397,0.4875 0.0477,0.1393 0.12022,0.2957 0.24071,0.453 0.14656,0.1914 0.32686,0.3355 0.50037,0.4355 0.18858,0.1086 0.38465,0.1761 0.59303,0.2031 0.27344,0.035 0.51508,-0.01 0.74102,-0.048 l 48.38771,-8.531 c 0.15773,-0.028 0.32105,-0.057 0.48814,-0.1142 0.1393,-0.048 0.29568,-0.1202 0.45302,-0.2407 0.19139,-0.1465 0.33545,-0.3269 0.43544,-0.5004 0.10868,-0.1885 0.17617,-0.3846 0.20319,-0.593 0.0355,-0.2734 -0.007,-0.5151 -0.0468,-0.7413 l -8.53201,-48.3887 c -0.028,-0.1565 -0.0568,-0.3198 -0.11407,-0.4869 z"
         style="fill:none;stroke:#000000"
         id="path321"
         sodipodi:nodetypes="ssssccssssccssssccssssccs" />
      <path
         d="m 996.67971,413.00153 c 0.0478,0.13931 0.12022,0.29569 0.24071,0.45303 0.14656,0.19138 0.32687,0.33545 0.50037,0.43544 0.18858,0.10868 0.38466,0.17617 0.59303,0.20319 0.27345,0.0354 0.51508,-0.007 0.74138,-0.0471 l 48.3872,-8.532 c 0.1579,-0.0278 0.3212,-0.0566 0.4883,-0.11383 0.1393,-0.0477 0.2957,-0.12022 0.453,-0.2407 0.1914,-0.14656 0.3355,-0.32687 0.4355,-0.50038 0.1086,-0.18858 0.1761,-0.38465 0.2032,-0.59303 0.035,-0.27344 -0.01,-0.51507 -0.047,-0.74116 l -8.532,-48.38721 c -0.028,-0.15809 -0.057,-0.32141 -0.114,-0.4885 -0.048,-0.1393 -0.1202,-0.29568 -0.2407,-0.45302 -0.1465,-0.19138 -0.3268,-0.33545 -0.5003,-0.43544 -0.1886,-0.10868 -0.3847,-0.17617 -0.5931,-0.20319 -0.2734,-0.0355 -0.5151,0.007 -0.7411,0.0472 l -48.38766,8.53201 c -0.15769,0.0276 -0.32101,0.0564 -0.4881,0.11371 -0.1393,0.0477 -0.29568,0.12022 -0.45302,0.24071 -0.19138,0.14656 -0.33545,0.32687 -0.43544,0.50037 -0.10868,0.18858 -0.17617,0.38465 -0.20319,0.59303 -0.0355,0.27345 0.007,0.51508 0.0468,0.74128 l 8.532,48.3872 c 0.0281,0.15799 0.0569,0.32131 0.11412,0.48839 z"
         style="fill:none;stroke:#000000"
         id="path329"
         sodipodi:nodetypes="ssssccssssccssssccssssccs" />
      <path
         d="m 385.76193,214.76402 c -0.027,-0.2084 -0.0945,-0.4045 -0.20319,-0.593 -0.1,-0.1736 -0.24406,-0.3539 -0.43544,-0.5004 -0.15734,-0.1205 -0.31372,-0.193 -0.45302,-0.2407 -0.16709,-0.057 -0.33041,-0.086 -0.48809,-0.1119 l -48.3877,-8.536 c -0.22601,-0.038 -0.46764,-0.081 -0.74108,-0.045 -0.20838,0.027 -0.40445,0.095 -0.59304,0.2032 -0.1735,0.1 -0.35381,0.2441 -0.50037,0.4355 -0.12049,0.1573 -0.19296,0.3137 -0.2407,0.453 -0.0573,0.1671 -0.0861,0.3304 -0.11392,0.4898 l -8.532,48.3837 c -0.0399,0.2283 -0.0825,0.4699 -0.047,0.7434 0.027,0.2084 0.0945,0.4044 0.20319,0.593 0.1,0.1735 0.24406,0.3538 0.43544,0.5004 0.15734,0.1205 0.31372,0.1929 0.45303,0.2407 0.16708,0.057 0.3304,0.086 0.4883,0.1121 l 48.3872,8.536 c 0.22629,0.038 0.46792,0.08 0.74137,0.045 0.20837,-0.027 0.40445,-0.094 0.59303,-0.2032 0.1735,-0.1 0.35381,-0.244 0.50037,-0.4354 0.12049,-0.1574 0.19296,-0.3137 0.24071,-0.453 0.0573,-0.1671 0.0861,-0.3304 0.11413,-0.4896 l 8.532,-48.3837 c 0.0396,-0.2285 0.0823,-0.4702 0.0468,-0.7436 z"
         style="fill:none;stroke:#000000"
         id="path336"
         sodipodi:nodetypes="ssssccssssccssssccssssccs" />
      <path
         d="m 675.90873,370.41764 c 0.13931,-0.0477 0.29569,-0.12022 0.45303,-0.24071 0.19138,-0.14656 0.33545,-0.32687 0.43544,-0.50037 0.10868,-0.18858 0.17617,-0.38465 0.20319,-0.59303 0.0355,-0.27345 -0.007,-0.51508 -0.047,-0.74136 l -8.532,-48.3872 c -0.0278,-0.15791 -0.0566,-0.32123 -0.11391,-0.48831 -0.0477,-0.13931 -0.12022,-0.29569 -0.2407,-0.45302 -0.14656,-0.19139 -0.32687,-0.33546 -0.50037,-0.43545 -0.18858,-0.10868 -0.38466,-0.17617 -0.59304,-0.20319 -0.27344,-0.0354 -0.51507,0.007 -0.74109,0.047 l -48.3875,8.532 c -0.15787,0.0278 -0.32119,0.0566 -0.48827,0.11391 -0.13931,0.0477 -0.29569,0.12022 -0.45303,0.2407 -0.19138,0.14657 -0.33545,0.32687 -0.43544,0.50038 -0.10868,0.18858 -0.17617,0.38465 -0.20319,0.59303 -0.0355,0.27344 0.007,0.51507 0.047,0.74109 l 8.532,48.3877 c 0.0278,0.15768 0.0566,0.32099 0.11389,0.48808 0.0477,0.13931 0.12022,0.29569 0.24071,0.45302 0.14656,0.19139 0.32687,0.33545 0.50037,0.43544 0.18858,0.10868 0.38466,0.17617 0.59304,0.20319 0.27344,0.0355 0.51507,-0.007 0.7412,-0.0468 l 48.38735,-8.532 c 0.15791,-0.0281 0.32123,-0.0569 0.48831,-0.11414 z"
         style="fill:none;stroke:#000000"
         id="path343"
         sodipodi:nodetypes="ssssccssssccssssccssssccs" />
      <path
         style="fill:none;stroke:#000000"
         d="m 162.9443,344.92124 c -0.0399,0.22635 -0.0825,0.46798 -0.0471,0.74142 0.027,0.20838 0.0945,0.40445 0.20319,0.59304 0.1,0.1735 0.24406,0.35381 0.43544,0.50037 0.15734,0.12049 0.31372,0.19296 0.45302,0.2407 0.16709,0.0573 0.33041,0.0861 0.48838,0.11408 l 48.38721,8.532 c 0.22621,0.0397 0.46784,0.0823 0.74128,0.0468 0.20838,-0.027 0.40446,-0.0945 0.59304,-0.20319 0.1735,-0.1 0.35381,-0.24406 0.50037,-0.43545 0.12049,-0.15733 0.19296,-0.31371 0.2407,-0.45302 0.0573,-0.16708 0.0861,-0.3304 0.11371,-0.48814 l 8.532,-48.38868 c 0.0401,-0.225 0.0827,-0.4666 0.0472,-0.74 -0.027,-0.2084 -0.0945,-0.4045 -0.20319,-0.5931 -0.1,-0.1735 -0.24406,-0.3538 -0.43544,-0.5004 -0.15734,-0.1204 -0.31372,-0.1929 -0.45303,-0.2407 -0.16708,-0.057 -0.3304,-0.086 -0.48851,-0.1154 l -48.3872,-8.531 c -0.22608,-0.039 -0.46771,-0.082 -0.74116,-0.047 -0.20837,0.027 -0.40445,0.095 -0.59303,0.2032 -0.1735,0.1 -0.35381,0.2441 -0.50037,0.4355 -0.12049,0.1573 -0.19296,0.3137 -0.24071,0.453 -0.0573,0.1671 -0.0861,0.3304 -0.11383,0.4862 z"
         id="path349"
         sodipodi:nodetypes="cssssccssssccssssccsssscc" />
      <path
         style="fill:none;stroke:#000000"
         d="m 140.17715,364.12594 c 0.0396,-0.2262 0.0823,-0.46783 0.0468,-0.74128 -0.027,-0.20838 -0.0945,-0.40445 -0.20319,-0.59303 -0.1,-0.1735 -0.24406,-0.35381 -0.43544,-0.50037 -0.15734,-0.12049 -0.31372,-0.19297 -0.45302,-0.24071 -0.16709,-0.0573 -0.33041,-0.0861 -0.4881,-0.11371 l -48.387699,-8.53201 c -0.226,-0.0401 -0.46763,-0.0827 -0.74107,-0.0472 -0.20838,0.027 -0.40445,0.0945 -0.59304,0.20319 -0.1735,0.1 -0.35381,0.24406 -0.50037,0.43544 -0.12049,0.15734 -0.19296,0.31372 -0.2407,0.45302 -0.0573,0.16709 -0.0861,0.33041 -0.11393,0.4885 l -8.532,48.38721 c -0.0399,0.22609 -0.0825,0.46772 -0.047,0.74116 0.027,0.20838 0.0945,0.40445 0.20319,0.59303 0.1,0.17351 0.24406,0.35382 0.43544,0.50038 0.15734,0.12048 0.31372,0.19296 0.45303,0.2407 0.16708,0.0573 0.3304,0.0861 0.48829,0.11383 l 48.387199,8.532 c 0.2263,0.0399 0.46793,0.0825 0.74138,0.0471 0.20837,-0.027 0.40445,-0.0945 0.59303,-0.20319 0.1735,-0.1 0.35381,-0.24406 0.50037,-0.43544 0.12049,-0.15734 0.19296,-0.31372 0.24071,-0.45303 0.0573,-0.16708 0.0861,-0.3304 0.11412,-0.48839 z"
         id="path363"
         sodipodi:nodetypes="cssssccssssccssssccsssscc" />
      <path
         d="m 391.89406,297.00902 c -0.20837,0.027 -0.40445,0.095 -0.59303,0.2032 -0.1735,0.1 -0.35381,0.2441 -0.50037,0.4355 -0.12049,0.1573 -0.19296,0.3137 -0.24071,0.453 -0.0573,0.1671 -0.0861,0.3304 -0.11374,0.4888 l -8.532,48.38669 c -0.04,0.2263 -0.0826,0.46794 -0.0472,0.74138 0.027,0.20838 0.0945,0.40445 0.20319,0.59303 0.1,0.17351 0.24405,0.35381 0.43544,0.50038 0.15734,0.12048 0.31372,0.19296 0.45302,0.2407 0.16709,0.0573 0.33041,0.0861 0.48848,0.11411 l 48.3872,8.532 c 0.22612,0.0397 0.46775,0.0823 0.74119,0.0468 0.20838,-0.027 0.40445,-0.0945 0.59304,-0.2032 0.1735,-0.1 0.35381,-0.24405 0.50037,-0.43544 0.12048,-0.15733 0.19296,-0.31371 0.2407,-0.45302 0.0573,-0.16709 0.0861,-0.3304 0.11381,-0.48811 l 8.532,-48.38624 c 0.04,-0.2274 0.0826,-0.4691 0.0471,-0.7425 -0.027,-0.2084 -0.0945,-0.4045 -0.20319,-0.5931 -0.1,-0.1735 -0.24406,-0.3538 -0.43545,-0.5003 -0.15733,-0.1205 -0.31371,-0.193 -0.45302,-0.2407 -0.16709,-0.057 -0.3304,-0.086 -0.48841,-0.113 l -48.3872,-8.531 c -0.22618,-0.042 -0.46781,-0.084 -0.74126,-0.049 z"
         style="fill:none;stroke:#000000"
         id="path370"
         sodipodi:nodetypes="ssssccssssccssssccssssccs" />
      <path
         d="m 102.0181,282.45142 c -0.20838,0.027 -0.40446,0.095 -0.59304,0.2032 -0.1735,0.1 -0.35381,0.2441 -0.50037,0.4355 -0.12049,0.1573 -0.19296,0.3137 -0.24071,0.453 -0.0573,0.1671 -0.0861,0.3304 -0.11375,0.4876 l -8.531999,48.38819 c -0.04,0.22601 -0.0826,0.46764 -0.0472,0.74108 0.027,0.20838 0.0945,0.40446 0.20319,0.59304 0.1,0.1735 0.24406,0.35381 0.43544,0.50037 0.15734,0.12049 0.31372,0.19296 0.45303,0.2407 0.16708,0.0573 0.3304,0.0861 0.48846,0.11391 l 48.387199,8.532 c 0.22613,0.0399 0.46776,0.0825 0.7412,0.047 0.20838,-0.027 0.40446,-0.0945 0.59304,-0.20319 0.1735,-0.1 0.35381,-0.24406 0.50037,-0.43544 0.12049,-0.15734 0.19296,-0.31372 0.24071,-0.45303 0.0573,-0.16708 0.0861,-0.3304 0.11378,-0.48831 l 8.532,-48.38724 c 0.04,-0.2262 0.0826,-0.4679 0.0471,-0.7413 -0.027,-0.2084 -0.0945,-0.4045 -0.20319,-0.593 -0.1,-0.1736 -0.24406,-0.3539 -0.43544,-0.5004 -0.15734,-0.1205 -0.31372,-0.193 -0.45303,-0.2407 -0.16708,-0.057 -0.3304,-0.086 -0.48843,-0.1142 l -48.3872,-8.531 c -0.22616,-0.041 -0.46779,-0.083 -0.74123,-0.048 z"
         style="fill:none;stroke:#000000"
         id="path376"
         sodipodi:nodetypes="ssssccssssccssssccssssccs" />
      <path
         d="m 286.72477,361.80019 c -0.027,-0.20838 -0.0945,-0.40445 -0.20319,-0.59303 -0.1,-0.17351 -0.24406,-0.35381 -0.43544,-0.50037 -0.15734,-0.12049 -0.31372,-0.19297 -0.45303,-0.24071 -0.16708,-0.0573 -0.3304,-0.0861 -0.4885,-0.11398 l -48.3872,-8.532 c -0.22609,-0.0398 -0.46772,-0.0824 -0.74117,-0.0469 -0.20837,0.027 -0.40445,0.0945 -0.59303,0.20319 -0.1735,0.1 -0.35381,0.24405 -0.50037,0.43544 -0.12049,0.15733 -0.19296,0.31371 -0.24071,0.45302 -0.0573,0.16709 -0.0861,0.33041 -0.11383,0.48824 l -8.532,48.3872 c -0.0399,0.22635 -0.0825,0.46799 -0.0471,0.74143 0.027,0.20838 0.0945,0.40445 0.20319,0.59303 0.1,0.17351 0.24406,0.35381 0.43544,0.50038 0.15734,0.12048 0.31372,0.19296 0.45302,0.2407 0.16709,0.0573 0.33041,0.0861 0.48839,0.11406 l 48.3872,8.53201 c 0.22621,0.0397 0.46784,0.0823 0.74128,0.0469 0.20838,-0.027 0.40446,-0.0945 0.59304,-0.20319 0.1735,-0.1 0.35381,-0.24406 0.50037,-0.43545 0.12049,-0.15733 0.19296,-0.31371 0.2407,-0.45302 0.0573,-0.16709 0.0861,-0.3304 0.11372,-0.48815 l 8.532,-48.38771 c 0.0401,-0.22593 0.0827,-0.46756 0.0472,-0.74101 z"
         style="fill:none;stroke:#000000"
         id="path382"
         sodipodi:nodetypes="ssssccssssccssssccssssccs" />
      <path
         d="m 106.19677,192.18012 c 0.43321,-0.7202 0.88088,-1.0908 1.5613,-1.419 0.65684,-0.3168 1.48063,-0.3844 2.28948,-0.3828 h 6.03997 c 4.44617,3.7779 10.97626,3.7779 15.42207,0 h 16.89278 l 2.4e-4,-10.0195 c 2.4e-4,-0.9138 0.0632,-1.7871 0.51933,-2.5719 0.35348,-0.6083 0.95716,-1.2307 1.72549,-1.5917 0.84114,-0.3951 1.50748,-0.3714 2.29089,-0.3691 h 134.50485 c 0.91409,0 1.78734,0.061 2.57219,0.5168 0.60827,0.3535 1.23066,0.9572 1.59163,1.7255 0.39517,0.8411 0.37141,1.5075 0.3714,2.2904 l -2e-5,10.0195 h 30.16788 c 4.44591,3.7779 10.976,3.7779 15.42207,0 h 30.16905 v -4.54 h -10e-4 l -1.8e-4,-5.4795 c -1.8e-4,-0.9138 0.0628,-1.7871 0.51892,-2.5719 0.35348,-0.6083 0.95716,-1.2307 1.72549,-1.5917 0.84113,-0.3951 1.50748,-0.3714 2.29081,-0.3691 h 134.50698 c 0.9143,0 1.78756,0.061 2.5724,0.5168 0.60828,0.3535 1.23067,0.9572 1.59163,1.7255 0.39517,0.8411 0.37142,1.5075 0.37144,2.2904 l 1e-5,5.4795 h -0.001 v 4.54 h 105.5854 v -4.54 h -10e-4 l 2e-5,-5.4795 c 2e-5,-0.4671 0.002,-0.8987 0.0761,-1.3365 0.12117,-0.7142 0.62085,-1.6489 1.22726,-2.1961 0.9475,-0.8552 2.05185,-1.0024 3.23211,-1.0001 h 134.50698 c 0.46754,0 0.8991,-5e-4 1.33691,0.074 0.71425,0.1212 1.64887,0.6208 2.19614,1.2273 0.85512,0.9474 1.00235,2.0518 1.00217,3.2316 l -1.8e-4,5.4795 h -10e-4 v 4.54 h 30.16905 c 4.44607,3.7779 10.97616,3.7779 15.42207,0 h 30.16788 l -2e-5,-10.0195 c -10e-6,-0.4671 0.002,-0.8987 0.0761,-1.3365 0.12118,-0.7142 0.62086,-1.6489 1.22727,-2.1961 0.94749,-0.8552 2.05184,-1.0024 3.23189,-1.0001 h 134.50485 c 0.46761,0 0.89917,-5e-4 1.33699,0.074 0.71424,0.1212 1.64886,0.6208 2.19614,1.2273 0.85511,0.9474 1.00234,2.0518 1.00258,3.2316 l 2.4e-4,10.0195 h 16.89278 c 4.4458,3.7779 10.9759,3.7779 15.4221,0 h 6.0399 c 0.6761,0 1.3315,0.018 1.9469,0.2392 0.8021,0.2878 1.2756,0.6574 1.7606,1.3432 0.4255,0.6017 0.6214,1.3839 0.7588,2.1616 l 56.031,317.7706 c 0.081,0.4603 0.1545,0.8856 0.1574,1.3297 0,0.7244 -0.3251,1.7316 -0.8272,2.3759 -0.7847,1.0066 -1.8467,1.3434 -3.0091,1.5484 l -3.0601,0.5393 c -5.0347,-2.9499 -11.4656,-1.8159 -15.1879,2.678 l -15.1572,2.6724 0.787,4.467 h 10e-4 l 0.9518,5.3968 c 0.081,0.4603 0.1541,0.8856 0.157,1.3296 0.01,0.7245 -0.3251,1.7317 -0.8273,2.3759 -0.7846,1.0067 -1.8466,1.3435 -3.0087,1.5486 l -130.27381,22.9703 c -0.46046,0.081 -0.88578,0.1546 -1.32984,0.1575 -0.72444,0.01 -1.73163,-0.3251 -2.37589,-0.8273 -1.00665,-0.7846 -1.34342,-1.8466 -1.54832,-3.0092 l -0.95196,-5.3972 h 10e-4 l -0.788,-4.466 -29.16289,5.142 c -5.03468,-2.95 -11.46557,-1.8161 -15.18793,2.678 l -29.16418,5.142 0.788,4.467 h 10e-4 l 0.95205,5.3969 c 0.0812,0.4603 0.15441,0.8857 0.15728,1.3297 0.005,0.7245 -0.3251,1.7317 -0.82726,2.3759 -0.78461,1.0067 -1.84662,1.3434 -3.009,1.5484 l -130.27589,22.9711 c -0.46029,0.081 -0.88561,0.1544 -1.32967,0.1573 -0.72444,0.01 -1.73163,-0.3251 -2.37589,-0.8273 -1.00665,-0.7846 -1.34342,-1.8466 -1.54849,-3.009 l -0.95113,-5.397 h 10e-4 l -0.787,-4.467 -34.7368,6.125 h -181.6164 l -34.7368,-6.125 -0.787,4.467 h 0.001 l -0.95113,5.397 c -0.15889,0.9005 -0.37258,1.7495 -0.95802,2.4432 -0.45374,0.5377 -1.15633,1.0458 -1.97567,1.2678 -0.89697,0.2432 -1.54907,0.104 -2.32036,-0.032 l -130.27589,-22.971 c -0.90046,-0.1589 -1.74951,-0.3725 -2.44323,-0.958 -0.53765,-0.4537 -1.04576,-1.1563 -1.26782,-1.9757 -0.24311,-0.8969 -0.10401,-1.549 0.0321,-2.3204 l 0.95205,-5.3969 h 0.001 l 0.788,-4.467 -29.16418,-5.1419 c -3.72236,-4.4942 -10.15325,-5.6281 -15.18793,-2.678 l -29.16289,-5.1421 -0.788,4.466 h 0.001 l -0.95196,5.3973 c -0.15872,0.9006 -0.37241,1.7497 -0.95785,2.4434 -0.45374,0.5376 -1.15633,1.0457 -1.97567,1.2678 -0.89697,0.2431 -1.54907,0.104 -2.32053,-0.032 L 88.573601,538.15512 c -0.9002,-0.1589 -1.74924,-0.3726 -2.44296,-0.958 -0.53765,-0.4538 -1.04576,-1.1563 -1.26783,-1.9757 -0.2431,-0.897 -0.104,-1.5491 0.0318,-2.3203 l 0.95178,-5.3968 h 0.001 l 0.787,-4.467 -15.15716,-2.6728 c -3.72234,-4.4939 -10.15322,-5.6279 -15.18792,-2.678 l -3.06007,-0.5393 c -0.90055,-0.1589 -1.7496,-0.3726 -2.44332,-0.958 -0.53765,-0.4537 -1.04576,-1.1563 -1.26782,-1.9757 -0.24311,-0.8969 -0.104,-1.549 0.0322,-2.3204 L 105.58135,194.1226 c 0.12154,-0.6875 0.26191,-1.3544 0.61548,-1.9422 z"
         style="fill:none;stroke:#000000"
         id="path397"
         sodipodi:nodetypes="sscccccssccssccccccccssccssccccccccssccssccccccccssccsscccccssccsscccccccssccssccccccccccssccssccccccccccssccssccccccccccssccsscccccccssccs" />
    </g>
  </g>
</svg>
