<?xml version="1.0" encoding="UTF-8" standalone="no"?>
<svg
   viewBox="0 0 1122.5196 793.70081"
   width="297mm"
   height="210mm"
   version="1.1"
   id="svg389"
   xmlns="http://www.w3.org/2000/svg"
   xmlns:svg="http://www.w3.org/2000/svg">
  <desc
     id="desc1">switch-foam.dxf - scale = 1.000000, origin = (0.000000, 0.000000), method = manual</desc>
  <defs
     id="defs4">
    <marker
       id="DistanceX"
       orient="auto"
       refX="0"
       refY="0"
       style="overflow:visible">
      <path
         d="M 3,-3 -3,3 M 0,-5 V 5"
         style="stroke:#000000;stroke-width:0.5"
         id="path1" />
    </marker>
    <pattern
       id="Hatch"
       patternUnits="userSpaceOnUse"
       width="8"
       height="8"
       x="0"
       y="0">
      <path
         d="M8 4 l-4,4"
         stroke="#000000"
         stroke-width="0.25"
         linecap="square"
         id="path2" />
      <path
         d="M6 2 l-4,4"
         stroke="#000000"
         stroke-width="0.25"
         linecap="square"
         id="path3" />
      <path
         d="M4 0 l-4,4"
         stroke="#000000"
         stroke-width="0.25"
         linecap="square"
         id="path4" />
    </pattern>
    <symbol
       id="*MODEL_SPACE" />
    <symbol
       id="*PAPER_SPACE" />
  </defs>
  <g
     id="g389">
    <g
       id="g390">
      <path
         d="m 47.66654,508.32321 c -0.724918,4.11132 2.020288,8.03186 6.1316,8.7568 l 415.14711,73.2017 h 184.62916 l 415.14709,-73.2017 c 4.1113,-0.72494 6.8565,-4.64548 6.1316,-8.7568 l -52.6614,-298.6577 c -0.637,-3.61263 -3.7758,-6.24643 -7.4442,-6.24644 H 107.77217 c -3.66836,0 -6.80722,2.63381 -7.44422,6.24644 z"
         style="fill:none;stroke:#000000"
         id="path5" />
      <path
         d="m 660.74335,305.67598 c 0.18509,-0.089 0.35198,-0.21306 0.5014,-0.38215 0.12666,-0.14333 0.23932,-0.3191 0.31571,-0.5171 0.0891,-0.23108 0.10778,-0.43788 0.10467,-0.60338 -0.003,-0.17667 -0.0321,-0.34005 -0.0602,-0.49605 l -8.53184,-48.3887 c -0.0377,-0.21444 -0.0777,-0.44114 -0.18859,-0.67172 -0.089,-0.18509 -0.21306,-0.35198 -0.38215,-0.5014 -0.14333,-0.12666 -0.3191,-0.23932 -0.5171,-0.31571 -0.23108,-0.0891 -0.43789,-0.10778 -0.60338,-0.10467 -0.17667,0.003 -0.34005,0.0321 -0.49799,0.0621 l -48.3874,8.53099 c -0.2138,0.0366 -0.4405,0.0766 -0.67108,0.18752 -0.18509,0.089 -0.35198,0.21306 -0.5014,0.38215 -0.12666,0.14333 -0.23932,0.3191 -0.31571,0.5171 -0.0891,0.23108 -0.10778,0.43789 -0.10467,0.60338 0.003,0.17667 0.0321,0.34005 0.06,0.49945 l 8.53199,48.3837 c 0.0377,0.21604 0.0777,0.44274 0.18861,0.67332 0.089,0.18509 0.21306,0.35198 0.38215,0.5014 0.14333,0.12666 0.3191,0.23932 0.5171,0.31571 0.23108,0.0891 0.43788,0.10778 0.60338,0.10467 0.17667,-0.003 0.34005,-0.0321 0.49796,-0.0587 l 48.3874,-8.53098 c 0.21383,-0.04 0.44053,-0.08 0.67111,-0.19093 z"
         style="fill:none;stroke:#000000"
         id="path11" />
      <path
         style="fill:none;stroke:#000000"
         d="m 773.18773,411.94418 c 0.0376,0.21376 0.0776,0.44046 0.1885,0.67104 0.089,0.18509 0.21306,0.35198 0.38216,0.5014 0.14333,0.12666 0.31909,0.23932 0.5171,0.31571 0.23107,0.0891 0.43788,0.10778 0.60337,0.10467 0.17668,-0.003 0.34006,-0.0321 0.49798,-0.0599 l 48.3872,-8.53199 c 0.21401,-0.0378 0.44072,-0.0778 0.6713,-0.18871 0.18508,-0.089 0.35197,-0.21306 0.5014,-0.38215 0.12666,-0.14333 0.23932,-0.3191 0.31571,-0.5171 0.0891,-0.23108 0.10777,-0.43788 0.10467,-0.60338 -0.003,-0.17667 -0.0321,-0.34005 -0.0601,-0.49777 l -8.532,-48.3877 c -0.0375,-0.21372 -0.0775,-0.44042 -0.18844,-0.671 -0.089,-0.18509 -0.21306,-0.35198 -0.38215,-0.5014 -0.14334,-0.12666 -0.3191,-0.23932 -0.51711,-0.31571 -0.23107,-0.0891 -0.43788,-0.10778 -0.60337,-0.10467 -0.17667,0.003 -0.34006,0.0321 -0.49803,0.0599 l -48.3872,8.53199 c -0.21396,0.0378 -0.44066,0.0778 -0.67125,0.18874 -0.18508,0.089 -0.35197,0.21306 -0.5014,0.38215 -0.12666,0.14333 -0.23932,0.3191 -0.3157,0.5171 -0.0891,0.23108 -0.10778,0.43789 -0.10467,0.60338 0.003,0.17667 0.0321,0.34005 0.0601,0.49773 z"
         id="path16" />
      <path
         style="fill:none;stroke:#000000"
         d="m 834.71681,346.26203 c 0.0377,0.21362 0.0777,0.44032 0.18858,0.6709 0.089,0.18509 0.21306,0.35198 0.38215,0.5014 0.14333,0.12666 0.3191,0.23933 0.51711,0.31571 0.23107,0.0892 0.43788,0.10778 0.60337,0.10467 0.17667,-0.003 0.34005,-0.0321 0.49789,-0.0597 l 48.38771,-8.53198 c 0.21359,-0.038 0.44029,-0.0779 0.67087,-0.18885 0.18509,-0.089 0.35198,-0.21306 0.5014,-0.38216 0.12666,-0.14333 0.23933,-0.31909 0.31571,-0.5171 0.0892,-0.23107 0.10778,-0.43788 0.10467,-0.60337 -0.003,-0.17668 -0.0321,-0.34006 -0.0602,-0.49813 l -8.53198,-48.3857 c -0.0375,-0.21536 -0.0775,-0.44207 -0.18837,-0.67265 -0.089,-0.18509 -0.21306,-0.35197 -0.38216,-0.5014 -0.14333,-0.12666 -0.3191,-0.23932 -0.5171,-0.31571 -0.23107,-0.0891 -0.43788,-0.10777 -0.60337,-0.10467 -0.17668,0.003 -0.34006,0.0321 -0.49811,0.058 l -48.38721,8.53599 c -0.21387,0.0357 -0.44058,0.0757 -0.67116,0.1866 -0.18509,0.089 -0.35198,0.21306 -0.5014,0.38215 -0.12666,0.14334 -0.23932,0.3191 -0.31571,0.51711 -0.0891,0.23107 -0.10778,0.43788 -0.10467,0.60337 0.003,0.17667 0.0321,0.34006 0.06,0.50038 z"
         id="path26" />
      <path
         style="fill:none;stroke:#000000"
         d="m 890.80975,238.86772 c -0.21388,0.0362 -0.44059,0.0762 -0.67117,0.18709 -0.18509,0.089 -0.35198,0.21306 -0.5014,0.38216 -0.12666,0.14333 -0.23932,0.31909 -0.31571,0.5171 -0.0891,0.23107 -0.10778,0.43788 -0.10467,0.60337 0.003,0.17668 0.0321,0.34006 0.06,0.49989 l 8.53199,48.3837 c 0.0377,0.2156 0.0777,0.44231 0.18858,0.67289 0.089,0.18508 0.21306,0.35197 0.38215,0.5014 0.14333,0.12666 0.3191,0.23932 0.5171,0.3157 0.23108,0.0892 0.43789,0.10778 0.60338,0.10468 0.17667,-0.003 0.34006,-0.0321 0.4979,-0.0582 l 48.3877,-8.53598 c 0.21359,-0.0355 0.44029,-0.0755 0.67087,-0.18636 0.18509,-0.089 0.35198,-0.21306 0.5014,-0.38216 0.12666,-0.14333 0.23933,-0.31909 0.31571,-0.5171 0.0891,-0.23107 0.10778,-0.43788 0.10467,-0.60337 -0.003,-0.17667 -0.0321,-0.34006 -0.0602,-0.49562 l -8.53199,-48.3887 c -0.0375,-0.21487 -0.0775,-0.44157 -0.18837,-0.67216 -0.089,-0.18508 -0.21307,-0.35197 -0.38216,-0.5014 -0.14333,-0.12666 -0.31909,-0.23932 -0.5171,-0.3157 -0.23107,-0.0892 -0.43788,-0.10778 -0.60337,-0.10468 -0.17668,0.003 -0.34006,0.0321 -0.49811,0.0575 z"
         id="path32" />
      <path
         style="fill:none;stroke:#000000"
         d="m 999.22383,439.08213 c -0.2138,0.0376 -0.4405,0.0776 -0.67108,0.18849 -0.18509,0.089 -0.35198,0.21306 -0.5014,0.38215 -0.12666,0.14333 -0.23933,0.3191 -0.31571,0.5171 -0.0892,0.23108 -0.10778,0.43789 -0.10467,0.60338 0.003,0.17667 0.0321,0.34005 0.0599,0.49798 l 8.5319,48.38718 c 0.038,0.214 0.078,0.4407 0.1887,0.6713 0.089,0.1851 0.2131,0.352 0.3822,0.5014 0.1433,0.1267 0.3191,0.2393 0.5171,0.3157 0.2311,0.089 0.4379,0.1078 0.6034,0.1047 0.1766,0 0.34,-0.032 0.4977,-0.0602 l 48.3878,-8.532 c 0.2137,-0.0378 0.4404,-0.0779 0.671,-0.18845 0.185,-0.089 0.3519,-0.213 0.5013,-0.3821 0.1267,-0.1434 0.2394,-0.3191 0.3158,-0.5171 0.089,-0.2311 0.1077,-0.4379 0.1046,-0.6034 0,-0.1767 -0.032,-0.3401 -0.06,-0.49805 l -8.5319,-48.38719 c -0.038,-0.21397 -0.078,-0.44067 -0.1888,-0.67125 -0.089,-0.18509 -0.2131,-0.35198 -0.3822,-0.5014 -0.1433,-0.12666 -0.3191,-0.23932 -0.5171,-0.31571 -0.2311,-0.0891 -0.4379,-0.10778 -0.6034,-0.10467 -0.1766,0.003 -0.34,0.0321 -0.4982,0.0601 z"
         id="path40" />
      <path
         style="fill:none;stroke:#000000"
         d="m 684.51296,535.77821 c 0.0919,0.1967 0.18917,0.4054 0.35599,0.5994 0.13391,0.1557 0.2969,0.2848 0.49891,0.3854 0.17123,0.085 0.37016,0.1486 0.58119,0.1711 0.24627,0.026 0.45086,-0.01 0.60991,-0.055 0.16979,-0.049 0.32015,-0.119 0.46568,-0.18685 l 44.53019,-20.76495 c 0.19678,-0.0919 0.40541,-0.189 0.59942,-0.3558 0.15574,-0.1339 0.28484,-0.2969 0.38541,-0.4989 0.0853,-0.1712 0.14858,-0.3702 0.17111,-0.5812 0.0263,-0.2463 -0.009,-0.4509 -0.0551,-0.6099 -0.0489,-0.1698 -0.11904,-0.3202 -0.18683,-0.4654 l -20.76491,-44.53069 c -0.0916,-0.19657 -0.18894,-0.40521 -0.35576,-0.59922 -0.13391,-0.15574 -0.2969,-0.28484 -0.49891,-0.38541 -0.17123,-0.0852 -0.37016,-0.14858 -0.58119,-0.17111 -0.24627,-0.0263 -0.45086,0.009 -0.6099,0.0551 -0.1698,0.0489 -0.32016,0.11904 -0.46542,0.18663 l -44.5307,20.7649 c -0.19654,0.0921 -0.40517,0.1891 -0.59918,0.356 -0.15574,0.1339 -0.28484,0.2969 -0.38541,0.4989 -0.0853,0.1712 -0.14858,0.3701 -0.17111,0.5812 -0.0263,0.2462 0.009,0.4508 0.0551,0.6099 0.0489,0.1698 0.11904,0.3201 0.1866,0.4657 z"
         id="path52" />
      <path
         style="fill:none;stroke:#000000"
         d="m 498.33213,385.30299 c 0.2231,0.0391 0.461,0.0811 0.72975,0.0483 0.1985,-0.0242 0.38879,-0.0854 0.57578,-0.18845 0.1781,-0.0982 0.3576,-0.23812 0.5048,-0.42073 0.13368,-0.16583 0.21177,-0.33112 0.26196,-0.47516 0.0593,-0.17014 0.0886,-0.33643 0.11692,-0.49685 l 8.532,-48.38773 c 0.0393,-0.22298 0.0813,-0.46088 0.0485,-0.72963 -0.0242,-0.1985 -0.0854,-0.38879 -0.18845,-0.57578 -0.0982,-0.1781 -0.23812,-0.3576 -0.42073,-0.5048 -0.16583,-0.13368 -0.33112,-0.21177 -0.47516,-0.26196 -0.17014,-0.0593 -0.33643,-0.0886 -0.49705,-0.11692 l -48.38752,-8.53201 c -0.22298,-0.0393 -0.46089,-0.0813 -0.72963,-0.0485 -0.19851,0.0242 -0.3888,0.0854 -0.57579,0.18845 -0.17809,0.0981 -0.3576,0.23812 -0.5048,0.42073 -0.13368,0.16582 -0.21177,0.33112 -0.26196,0.47516 -0.0593,0.17014 -0.0886,0.33643 -0.11692,0.49709 l -8.53201,48.38722 c -0.0393,0.22324 -0.0813,0.46115 -0.0485,0.72989 0.0242,0.19851 0.0854,0.3888 0.18845,0.57579 0.0982,0.17809 0.23812,0.3576 0.42073,0.5048 0.16583,0.13368 0.33112,0.21177 0.47516,0.26196 0.17014,0.0593 0.33643,0.0886 0.49709,0.11716 z"
         id="path55" />
      <path
         style="fill:none;stroke:#000000"
         d="m 494.35522,581.79426 c 0.17351,0.14565 0.35857,0.30095 0.60772,0.40685 0.18404,0.078 0.37941,0.1205 0.59287,0.1247 0.20331,0 0.42875,-0.027 0.64754,-0.1119 0.19868,-0.077 0.34895,-0.1809 0.46444,-0.2806 0.13641,-0.1177 0.24495,-0.247 0.34975,-0.372 l 31.58268,-37.6389 c 0.14559,-0.1733 0.30087,-0.3583 0.40682,-0.6075 0.0783,-0.184 0.12043,-0.3794 0.12468,-0.5929 0.004,-0.2033 -0.0274,-0.4287 -0.11195,-0.6475 -0.0768,-0.1987 -0.18088,-0.349 -0.28053,-0.4644 -0.1177,-0.1365 -0.24705,-0.245 -0.37199,-0.34985 l -37.63871,-31.5828 c -0.17352,-0.14545 -0.35858,-0.30065 -0.60773,-0.40665 -0.18404,-0.078 -0.37941,-0.1204 -0.59287,-0.1247 -0.20331,0 -0.42875,0.027 -0.64753,0.112 -0.19869,0.077 -0.34896,0.1809 -0.46445,0.2805 -0.13641,0.1177 -0.24495,0.2471 -0.34975,0.3718 l -31.58252,37.63885 c -0.14575,0.17355 -0.30103,0.35865 -0.40698,0.60775 -0.0782,0.1841 -0.12043,0.3794 -0.12468,0.5929 -0.004,0.2033 0.0274,0.4288 0.11196,0.6475 0.0768,0.1987 0.18087,0.349 0.28052,0.4645 0.1177,0.1364 0.24705,0.2449 0.37214,0.34955 z"
         id="path69" />
      <path
         style="fill:none;stroke:#000000"
         d="m 309.725,331.84944 c -0.0391,0.22331 -0.0811,0.46122 -0.0483,0.72996 0.0242,0.19851 0.0854,0.38879 0.18845,0.57578 0.0981,0.1781 0.23813,0.3576 0.42073,0.5048 0.16583,0.13368 0.33112,0.21177 0.47517,0.26196 0.17013,0.0593 0.33642,0.0886 0.49691,0.11711 l 48.38772,8.532 c 0.22292,0.0391 0.46083,0.0811 0.72957,0.0483 0.19851,-0.0242 0.38879,-0.0854 0.57578,-0.18845 0.1781,-0.0981 0.3576,-0.23812 0.5048,-0.42072 0.13368,-0.16583 0.21177,-0.33113 0.26196,-0.47517 0.0593,-0.17014 0.0886,-0.33643 0.11699,-0.49691 l 8.532,-48.38822 c 0.0392,-0.22242 0.0812,-0.46033 0.0484,-0.72907 -0.0242,-0.19851 -0.0854,-0.3888 -0.18845,-0.57578 -0.0982,-0.1781 -0.23813,-0.35761 -0.42073,-0.50481 -0.16583,-0.13368 -0.33113,-0.21177 -0.47517,-0.26196 -0.17014,-0.0593 -0.33643,-0.0886 -0.49702,-0.11798 l -48.38722,-8.53101 c -0.2233,-0.0392 -0.46121,-0.0812 -0.72995,-0.0484 -0.19851,0.0242 -0.3888,0.0854 -0.57578,0.18845 -0.1781,0.0982 -0.35761,0.23812 -0.50481,0.42073 -0.13368,0.16583 -0.21177,0.33112 -0.26196,0.47516 -0.0593,0.17014 -0.0886,0.33643 -0.1171,0.49553 z"
         id="path73" />
      <path
         style="fill:none;stroke:#000000"
         d="m 233.91186,358.05931 c -0.22305,-0.0392 -0.46095,-0.0812 -0.7297,-0.0484 -0.19851,0.0242 -0.38879,0.0854 -0.57578,0.18845 -0.1781,0.0981 -0.3576,0.23812 -0.5048,0.42073 -0.13368,0.16583 -0.21177,0.33112 -0.26196,0.47516 -0.0593,0.17014 -0.0886,0.33643 -0.11686,0.49701 l -8.532,48.38723 c -0.0394,0.22332 -0.0814,0.46122 -0.0486,0.72997 0.0242,0.1985 0.0854,0.38879 0.18845,0.57578 0.0981,0.1781 0.23812,0.3576 0.42072,0.5048 0.16583,0.13368 0.33113,0.21177 0.47517,0.26196 0.17014,0.0593 0.33643,0.0886 0.49716,0.11709 l 48.38722,8.53201 c 0.22317,0.0391 0.46108,0.0811 0.72982,0.0483 0.19851,-0.0242 0.3888,-0.0854 0.57578,-0.18845 0.1781,-0.0981 0.35761,-0.23812 0.50481,-0.42072 0.13368,-0.16583 0.21177,-0.33113 0.26196,-0.47517 0.0593,-0.17014 0.0886,-0.33643 0.11674,-0.49693 l 8.532,-48.38772 c 0.0395,-0.2229 0.0815,-0.46081 0.0487,-0.72955 -0.0242,-0.19851 -0.0854,-0.3888 -0.18845,-0.57579 -0.0981,-0.17809 -0.23813,-0.3576 -0.42073,-0.5048 -0.16583,-0.13368 -0.33112,-0.21177 -0.47516,-0.26196 -0.17014,-0.0593 -0.33643,-0.0886 -0.49728,-0.117 z"
         id="path81" />
      <path
         style="fill:none;stroke:#000000"
         d="m 160.09876,351.16045 c -0.0394,0.22331 -0.0814,0.46122 -0.0486,0.72996 0.0242,0.19851 0.0854,0.38879 0.18845,0.57578 0.0981,0.1781 0.23812,0.3576 0.42072,0.5048 0.16583,0.13368 0.33113,0.21177 0.47517,0.26196 0.17014,0.0593 0.33643,0.0886 0.49715,0.1171 l 48.38723,8.532 c 0.22317,0.0391 0.46108,0.0811 0.72982,0.0483 0.19851,-0.0242 0.3888,-0.0854 0.57578,-0.18845 0.1781,-0.0981 0.35761,-0.23813 0.50481,-0.42073 0.13368,-0.16583 0.21177,-0.33113 0.26196,-0.47517 0.0593,-0.17014 0.0886,-0.33643 0.11673,-0.49691 l 8.532,-48.38872 c 0.0395,-0.22191 0.0815,-0.45982 0.0487,-0.72856 -0.0242,-0.19851 -0.0854,-0.3888 -0.18845,-0.57578 -0.0981,-0.1781 -0.23812,-0.35761 -0.42073,-0.50481 -0.16583,-0.13368 -0.33112,-0.21177 -0.47516,-0.26196 -0.17014,-0.0593 -0.33643,-0.0886 -0.49729,-0.11849 l -48.38722,-8.531 c -0.22305,-0.0387 -0.46095,-0.0807 -0.7297,-0.0479 -0.1985,0.0242 -0.38879,0.0854 -0.57578,0.18845 -0.1781,0.0982 -0.3576,0.23813 -0.5048,0.42073 -0.13368,0.16583 -0.21177,0.33112 -0.26196,0.47517 -0.0593,0.17013 -0.0886,0.33642 -0.11686,0.49502 z"
         id="path87" />
      <path
         style="fill:none;stroke:#000000"
         d="m 76.68985,409.56419 c -0.03928,0.22306 -0.08128,0.46097 -0.04848,0.72971 0.0242,0.19851 0.0854,0.38879 0.18845,0.57578 0.0982,0.1781 0.23812,0.3576 0.42073,0.5048 0.16583,0.13368 0.33112,0.21177 0.47516,0.26196 0.17014,0.0593 0.33643,0.0886 0.49707,0.11686 l 48.38723,8.532 c 0.22326,0.0394 0.46116,0.0814 0.72991,0.0486 0.19851,-0.0242 0.38879,-0.0854 0.57578,-0.18845 0.1781,-0.0982 0.3576,-0.23813 0.5048,-0.42073 0.13368,-0.16583 0.21177,-0.33113 0.26196,-0.47517 0.0593,-0.17014 0.0886,-0.33643 0.11715,-0.49716 l 8.532,-48.38721 c 0.0391,-0.22317 0.0811,-0.46108 0.0483,-0.72982 -0.0242,-0.19851 -0.0854,-0.3888 -0.18845,-0.57578 -0.0981,-0.1781 -0.23812,-0.35761 -0.42072,-0.50481 -0.16583,-0.13368 -0.33113,-0.21177 -0.47517,-0.26196 -0.17014,-0.0593 -0.33643,-0.0886 -0.49687,-0.11674 l -48.38772,-8.532 c -0.22297,-0.0395 -0.46087,-0.0815 -0.72961,-0.0487 -0.19851,0.0242 -0.3888,0.0854 -0.57579,0.18845 -0.17809,0.0981 -0.3576,0.23813 -0.5048,0.42073 -0.13368,0.16583 -0.21177,0.33112 -0.26196,0.47517 -0.0593,0.17013 -0.0886,0.33642 -0.116945,0.49727 z"
         id="path97" />
      <path
         d="m 99.18401,288.6892 c -0.1985,0.0242 -0.38879,0.0854 -0.57578,0.18845 -0.1781,0.0981 -0.3576,0.23813 -0.5048,0.42073 -0.13368,0.16583 -0.21177,0.33112 -0.26196,0.47517 -0.0593,0.17013 -0.0886,0.33642 -0.11678,0.49635 l -8.532005,48.38822 c -0.03945,0.22297 -0.08145,0.46088 -0.04864,0.72962 0.0242,0.19851 0.0854,0.38879 0.18845,0.57578 0.0981,0.1781 0.23812,0.3576 0.42073,0.50481 0.16582,0.13368 0.33112,0.21176 0.47516,0.26196 0.17014,0.0593 0.33643,0.0886 0.497235,0.11693 l 48.387225,8.532 c 0.22309,0.0393 0.461,0.0813 0.72975,0.0485 0.1985,-0.0242 0.38879,-0.0854 0.57578,-0.18845 0.1781,-0.0982 0.3576,-0.23813 0.5048,-0.42073 0.13368,-0.16583 0.21177,-0.33113 0.26196,-0.47517 0.0593,-0.17013 0.0886,-0.33643 0.11681,-0.49707 l 8.532,-48.38722 c 0.0394,-0.22325 0.0814,-0.46116 0.0486,-0.7299 -0.0242,-0.19851 -0.0854,-0.38879 -0.18845,-0.57578 -0.0981,-0.1781 -0.23812,-0.35761 -0.42073,-0.50481 -0.16582,-0.13368 -0.33112,-0.21176 -0.47516,-0.26196 -0.17014,-0.0593 -0.33643,-0.0886 -0.4972,-0.11715 l -48.38723,-8.531 c -0.22313,-0.0401 -0.46103,-0.0821 -0.72978,-0.0493 z"
         style="fill:none;stroke:#000000"
         id="path106" />
      <path
         d="m 208.28605,382.138 c -0.0242,-0.19851 -0.0854,-0.3888 -0.18845,-0.57578 -0.0982,-0.1781 -0.23812,-0.35761 -0.42073,-0.50481 -0.16583,-0.13368 -0.33112,-0.21177 -0.47516,-0.26196 -0.17014,-0.0593 -0.33643,-0.0886 -0.49695,-0.11707 l -48.38773,-8.532 c -0.22288,-0.0392 -0.46078,-0.0812 -0.72953,-0.0484 -0.1985,0.0242 -0.38879,0.0854 -0.57578,0.18845 -0.1781,0.0982 -0.3576,0.23812 -0.5048,0.42073 -0.13368,0.16583 -0.21177,0.33112 -0.26196,0.47516 -0.0593,0.17014 -0.0886,0.33643 -0.11703,0.49694 l -8.532,48.38773 c -0.0392,0.22289 -0.0812,0.4608 -0.0484,0.72954 0.0242,0.19851 0.0854,0.38879 0.18845,0.57578 0.0981,0.1781 0.23812,0.3576 0.42072,0.5048 0.16584,0.13368 0.33113,0.21177 0.47517,0.26196 0.17014,0.0593 0.33643,0.0886 0.49699,0.11702 l 48.38773,8.532 c 0.22284,0.0392 0.46074,0.0812 0.72949,0.0484 0.1985,-0.0242 0.38879,-0.0854 0.57578,-0.18845 0.17809,-0.0981 0.3576,-0.23812 0.5048,-0.42072 0.13368,-0.16583 0.21177,-0.33113 0.26196,-0.47517 0.0593,-0.17014 0.0886,-0.33643 0.11706,-0.497 l 8.53201,-48.38721 c 0.0392,-0.22334 0.0812,-0.46125 0.0484,-0.72999 z"
         style="fill:none;stroke:#000000"
         id="path116" />
      <path
         d="m 296.38338,297.1447 c -0.0242,-0.19851 -0.0854,-0.3888 -0.18845,-0.57578 -0.0982,-0.1781 -0.23813,-0.35761 -0.42073,-0.50481 -0.16583,-0.13368 -0.33112,-0.21177 -0.47517,-0.26196 -0.17013,-0.0593 -0.33642,-0.0886 -0.49711,-0.11492 l -48.38722,-8.53601 c -0.22322,-0.0373 -0.46113,-0.0793 -0.72987,-0.0465 -0.19851,0.0242 -0.38879,0.0854 -0.57578,0.18845 -0.1781,0.0981 -0.3576,0.23813 -0.5048,0.42073 -0.13368,0.16583 -0.21177,0.33112 -0.26196,0.47517 -0.0593,0.17013 -0.0886,0.33642 -0.11669,0.49858 l -8.532,48.38573 c -0.0395,0.22324 -0.0815,0.46115 -0.0487,0.72989 0.0242,0.19851 0.0854,0.38879 0.18844,0.57578 0.0981,0.1781 0.23813,0.3576 0.42073,0.5048 0.16583,0.13368 0.33113,0.21177 0.47517,0.26196 0.17014,0.0593 0.33643,0.0886 0.49682,0.11718 l 48.38772,8.53199 c 0.22301,0.0391 0.46092,0.0811 0.72966,0.0483 0.19851,-0.0242 0.3888,-0.0854 0.57578,-0.18845 0.1781,-0.0982 0.35761,-0.23813 0.50481,-0.42073 0.13368,-0.16583 0.21177,-0.33113 0.26196,-0.47517 0.0593,-0.17014 0.0886,-0.33643 0.1169,-0.49684 l 8.532,-48.38521 c 0.0393,-0.22549 0.0813,-0.4634 0.0485,-0.73214 z"
         style="fill:none;stroke:#000000"
         id="path118" />
      <path
         d="m 357.91253,362.82698 c -0.0242,-0.1985 -0.0854,-0.38879 -0.18845,-0.57578 -0.0982,-0.17809 -0.23813,-0.3576 -0.42073,-0.5048 -0.16583,-0.13368 -0.33113,-0.21177 -0.47517,-0.26196 -0.17013,-0.0593 -0.33643,-0.0886 -0.49718,-0.11706 l -48.38722,-8.53201 c -0.22314,-0.0392 -0.46105,-0.0812 -0.72979,-0.0484 -0.19851,0.0242 -0.3888,0.0854 -0.57578,0.18845 -0.1781,0.0982 -0.35761,0.23812 -0.50481,0.42073 -0.13368,0.16583 -0.21177,0.33112 -0.26196,0.47516 -0.0593,0.17014 -0.0886,0.33643 -0.11676,0.49695 l -8.532,48.38772 c -0.0395,0.22289 -0.0815,0.46079 -0.0487,0.72954 0.0242,0.1985 0.0854,0.38879 0.18845,0.57578 0.0982,0.1781 0.23813,0.3576 0.42073,0.5048 0.16583,0.13368 0.33112,0.21177 0.47517,0.26196 0.17013,0.0593 0.33642,0.0886 0.49724,0.11702 l 48.38721,8.53201 c 0.22309,0.0392 0.461,0.0812 0.72974,0.0484 0.19851,-0.0242 0.38879,-0.0854 0.57578,-0.18845 0.1781,-0.0981 0.3576,-0.23812 0.5048,-0.42073 0.13368,-0.16582 0.21177,-0.33112 0.26197,-0.47516 0.0593,-0.17014 0.0886,-0.33643 0.11682,-0.49699 l 8.532,-48.38773 c 0.0394,-0.22284 0.0814,-0.46074 0.0486,-0.72949 z"
         style="fill:none;stroke:#000000"
         id="path128" />
      <path
         d="m 435.86066,446.21743 c 0.0242,0.19851 0.0854,0.3888 0.18845,0.57578 0.0981,0.1781 0.23813,0.35761 0.42073,0.50481 0.16583,0.13368 0.33112,0.21177 0.47517,0.26196 0.17013,0.0593 0.33642,0.0886 0.49691,0.11708 l 48.38753,8.53201 c 0.22311,0.0391 0.46102,0.0811 0.72976,0.0483 0.19851,-0.0242 0.38879,-0.0854 0.57578,-0.18845 0.1781,-0.0982 0.3576,-0.23813 0.5048,-0.42073 0.13368,-0.16583 0.21177,-0.33112 0.26196,-0.47517 0.0593,-0.17013 0.0886,-0.33642 0.11691,-0.49692 l 8.53204,-48.38773 c 0.0393,-0.2229 0.0813,-0.46081 0.0485,-0.72955 -0.0242,-0.19851 -0.0854,-0.38879 -0.18845,-0.57578 -0.0981,-0.1781 -0.23812,-0.3576 -0.42073,-0.5048 -0.16583,-0.13368 -0.33112,-0.21177 -0.47516,-0.26196 -0.17014,-0.0593 -0.33643,-0.0886 -0.49701,-0.11701 l -48.38723,-8.532 c -0.22331,-0.0392 -0.46122,-0.0812 -0.72996,-0.0484 -0.19851,0.0242 -0.3888,0.0854 -0.57578,0.18844 -0.1781,0.0982 -0.35761,0.23813 -0.50481,0.42073 -0.13368,0.16583 -0.21177,0.33113 -0.26196,0.47517 -0.0593,0.17014 -0.0886,0.33643 -0.11709,0.49701 l -8.53201,48.38722 c -0.0391,0.22332 -0.0811,0.46123 -0.0483,0.72997 z"
         style="fill:none;stroke:#000000"
         id="path140" />
      <path
         style="fill:none;stroke:#000000"
         d="m 391.57101,282.30934 c -0.0391,0.22319 -0.0811,0.4611 -0.0483,0.72984 0.0242,0.19851 0.0854,0.38879 0.18845,0.57578 0.0981,0.1781 0.23813,0.3576 0.42073,0.5048 0.16583,0.13368 0.33113,0.21177 0.47517,0.26196 0.17014,0.0593 0.33643,0.0886 0.49691,0.11722 l 48.38772,8.531 c 0.22291,0.04 0.46082,0.082 0.72956,0.0492 0.19851,-0.0242 0.38879,-0.0854 0.57578,-0.18844 0.1781,-0.0982 0.35761,-0.23813 0.50481,-0.42073 0.13368,-0.16583 0.21176,-0.33113 0.26196,-0.47517 0.0593,-0.17014 0.0886,-0.33643 0.11699,-0.4963 l 8.532,-48.38872 c 0.0392,-0.22253 0.0812,-0.46044 0.0484,-0.72918 -0.0242,-0.19851 -0.0854,-0.3888 -0.18845,-0.57578 -0.0982,-0.1781 -0.23813,-0.35761 -0.42073,-0.50481 -0.16583,-0.13368 -0.33112,-0.21177 -0.47517,-0.26196 -0.17013,-0.0593 -0.33642,-0.0886 -0.49702,-0.11788 l -48.38722,-8.531 c -0.22331,-0.0394 -0.46122,-0.0814 -0.72996,-0.0486 -0.19851,0.0242 -0.38879,0.0854 -0.57578,0.18845 -0.1781,0.0982 -0.3576,0.23813 -0.5048,0.42073 -0.13368,0.16583 -0.21177,0.33112 -0.26196,0.47517 -0.0593,0.17013 -0.0886,0.33642 -0.11711,0.49563 z"
         id="path149" />
      <path
         style="fill:none;stroke:#000000"
         d="m 796.94062,449.25234 c -0.0379,-0.2137 -0.0779,-0.44041 -0.18882,-0.67099 -0.089,-0.18509 -0.21307,-0.35198 -0.38216,-0.5014 -0.14333,-0.12666 -0.31909,-0.23932 -0.5171,-0.31571 -0.23107,-0.0891 -0.43788,-0.10778 -0.60337,-0.10467 -0.17668,0.003 -0.34006,0.0321 -0.49816,0.0598 l -48.3872,8.53199 c -0.21383,0.0379 -0.44054,0.0779 -0.67112,0.18876 -0.18509,0.089 -0.35198,0.21306 -0.5014,0.38215 -0.12666,0.14333 -0.23932,0.3191 -0.31571,0.5171 -0.0891,0.23108 -0.10777,0.43789 -0.10467,0.60338 0.003,0.17667 0.0321,0.34005 0.06,0.49822 l 8.53199,48.38721 c 0.0377,0.2138 0.0777,0.4405 0.18863,0.671 0.089,0.1851 0.21306,0.352 0.38215,0.5014 0.14333,0.1267 0.3191,0.2394 0.51711,0.3158 0.23107,0.089 0.43788,0.1077 0.60337,0.1046 0.17667,0 0.34005,-0.032 0.49784,-0.0599 l 48.3877,-8.532 c 0.21365,-0.0381 0.44035,-0.0781 0.67093,-0.1887 0.18509,-0.089 0.35198,-0.213 0.50141,-0.3821 0.12665,-0.1433 0.23932,-0.3191 0.3157,-0.5171 0.0892,-0.2311 0.10778,-0.4379 0.10467,-0.6034 -0.003,-0.1767 -0.0321,-0.34 -0.0598,-0.4978 z"
         id="path152" />
      <path
         d="m 986.05008,368.36446 c -0.18509,0.089 -0.35198,0.21306 -0.5014,0.38215 -0.12666,0.14334 -0.23932,0.3191 -0.31571,0.51711 -0.0891,0.23107 -0.10778,0.43788 -0.10467,0.60337 0.003,0.17667 0.0321,0.34006 0.0598,0.49806 l 8.53198,48.3872 c 0.0379,0.21393 0.0779,0.44063 0.18883,0.67121 0.089,0.18509 0.21306,0.35198 0.38215,0.5014 0.14333,0.12666 0.3191,0.23933 0.5171,0.31571 0.23108,0.0892 0.43788,0.10778 0.60337,0.10467 0.17668,-0.003 0.34006,-0.0321 0.49816,-0.0601 l 48.38724,-8.53198 c 0.2138,-0.0376 0.4405,-0.0776 0.6711,-0.18853 0.1851,-0.089 0.352,-0.21306 0.5014,-0.38216 0.1266,-0.14333 0.2393,-0.31909 0.3157,-0.5171 0.089,-0.23107 0.1078,-0.43788 0.1047,-0.60337 0,-0.17668 -0.032,-0.34006 -0.06,-0.49795 l -8.532,-48.3872 c -0.038,-0.21404 -0.078,-0.44075 -0.1886,-0.67133 -0.089,-0.18509 -0.2131,-0.35197 -0.3822,-0.5014 -0.1433,-0.12666 -0.3191,-0.23932 -0.5171,-0.31571 -0.231,-0.0891 -0.4379,-0.10777 -0.6033,-0.10467 -0.1767,0.003 -0.3401,0.0321 -0.4979,0.0602 l -48.3877,8.53199 c -0.21364,0.0375 -0.44034,0.0775 -0.67092,0.18842 z"
         style="fill:none;stroke:#000000"
         id="path161" />
      <path
         d="m 953.70035,302.10217 c -0.089,-0.18509 -0.21306,-0.35197 -0.38215,-0.5014 -0.14333,-0.12666 -0.3191,-0.23932 -0.5171,-0.31571 -0.23107,-0.0891 -0.43788,-0.10777 -0.60337,-0.10467 -0.17668,0.003 -0.34006,0.0321 -0.49794,0.0594 l -48.3872,8.53099 c -0.21406,0.0393 -0.44076,0.0793 -0.67134,0.19017 -0.18509,0.089 -0.35198,0.21306 -0.5014,0.38215 -0.12666,0.14334 -0.23932,0.3191 -0.31571,0.51711 -0.0891,0.23107 -0.10778,0.43788 -0.10467,0.60337 0.003,0.17667 0.0321,0.34006 0.0602,0.4968 l 8.53199,48.3887 c 0.0375,0.21369 0.0775,0.44039 0.18841,0.67098 0.089,0.18508 0.21306,0.35197 0.38215,0.50139 0.14333,0.12666 0.3191,0.23933 0.5171,0.31571 0.23108,0.0892 0.43789,0.10778 0.60338,0.10467 0.17667,-0.003 0.34005,-0.0321 0.49806,-0.0598 l 48.3872,-8.53199 c 0.21393,-0.0379 0.44063,-0.0779 0.67121,-0.18877 0.18509,-0.089 0.35198,-0.21306 0.5014,-0.38216 0.12666,-0.14333 0.23933,-0.31909 0.31571,-0.5171 0.0891,-0.23107 0.10778,-0.43788 0.10467,-0.60337 -0.003,-0.17668 -0.0321,-0.34006 -0.06,-0.4982 l -8.53198,-48.38921 c -0.0376,-0.21178 -0.0776,-0.43849 -0.18855,-0.66907 z"
         style="fill:none;stroke:#000000"
         id="path169" />
      <path
         d="m 822.40272,276.02678 c 0.089,0.18508 0.21306,0.35197 0.38215,0.5014 0.14334,0.12666 0.3191,0.23932 0.51711,0.3157 0.23107,0.0892 0.43788,0.10778 0.60337,0.10468 0.17667,-0.003 0.34006,-0.0321 0.49773,-0.0597 l 48.3877,-8.53098 c 0.21376,-0.039 0.44046,-0.079 0.67105,-0.18993 0.18508,-0.089 0.35197,-0.21306 0.5014,-0.38216 0.12666,-0.14333 0.23932,-0.31909 0.3157,-0.5171 0.0892,-0.23107 0.10778,-0.43788 0.10468,-0.60337 -0.003,-0.17668 -0.0321,-0.34006 -0.0599,-0.49705 l -8.53199,-48.3887 c -0.0378,-0.21344 -0.0778,-0.44015 -0.1887,-0.67073 -0.089,-0.18508 -0.21306,-0.35197 -0.38216,-0.5014 -0.14333,-0.12666 -0.31909,-0.23932 -0.5171,-0.3157 -0.23107,-0.0892 -0.43788,-0.10778 -0.60337,-0.10468 -0.17668,0.003 -0.34006,0.0321 -0.49778,0.0611 l -48.3877,8.53099 c -0.21371,0.0376 -0.44042,0.0776 -0.671,0.18852 -0.18509,0.089 -0.35197,0.21306 -0.5014,0.38216 -0.12666,0.14333 -0.23932,0.31909 -0.31571,0.5171 -0.0891,0.23107 -0.10777,0.43788 -0.10467,0.60337 0.003,0.17667 0.0321,0.34006 0.0599,0.49846 l 8.53198,48.3887 c 0.0378,0.21203 0.0779,0.43873 0.18875,0.66932 z"
         style="fill:none;stroke:#000000"
         id="path177" />
      <path
         style="fill:none;stroke:#000000"
         d="m 703.84407,433.31015 c 0.0379,0.21373 0.0779,0.44043 0.18884,0.67101 0.089,0.18509 0.21306,0.35198 0.38215,0.5014 0.14333,0.12666 0.3191,0.23932 0.5171,0.31571 0.23108,0.0891 0.43789,0.10778 0.60338,0.10467 0.17667,-0.003 0.34005,-0.0321 0.49813,-0.0598 l 48.38721,-8.53199 c 0.21385,-0.0378 0.44055,-0.0778 0.67113,-0.18874 0.18509,-0.089 0.35198,-0.21306 0.5014,-0.38215 0.12666,-0.14333 0.23932,-0.3191 0.31571,-0.5171 0.0891,-0.23108 0.10778,-0.43789 0.10467,-0.60338 -0.003,-0.17667 -0.0321,-0.34005 -0.06,-0.49774 l -8.53199,-48.3877 c -0.0377,-0.21375 -0.0777,-0.44045 -0.18861,-0.67103 -0.089,-0.18509 -0.21306,-0.35198 -0.38215,-0.5014 -0.14333,-0.12666 -0.3191,-0.23932 -0.5171,-0.31571 -0.23108,-0.0891 -0.43788,-0.10778 -0.60338,-0.10467 -0.17667,0.003 -0.34005,0.0321 -0.49786,0.0599 l -48.38771,8.53199 c -0.21362,0.0378 -0.44032,0.0778 -0.6709,0.18872 -0.18509,0.089 -0.35198,0.21306 -0.5014,0.38215 -0.12666,0.14333 -0.23932,0.3191 -0.31571,0.5171 -0.0891,0.23108 -0.10778,0.43788 -0.10467,0.60338 0.003,0.17667 0.0321,0.34005 0.0598,0.49775 z"
         id="path184" />
      <path
         style="fill:none;stroke:#000000"
         d="m 672.57488,376.77098 c 0.21386,-0.0379 0.44056,-0.0779 0.67114,-0.18884 0.18509,-0.089 0.35198,-0.21306 0.5014,-0.38215 0.12666,-0.14333 0.23932,-0.3191 0.31571,-0.5171 0.0891,-0.23108 0.10778,-0.43789 0.10467,-0.60338 -0.003,-0.17667 -0.0321,-0.34005 -0.06,-0.49813 l -8.532,-48.3872 c -0.0377,-0.21386 -0.0777,-0.44056 -0.1886,-0.67114 -0.089,-0.18509 -0.21306,-0.35198 -0.38215,-0.5014 -0.14333,-0.12666 -0.3191,-0.23932 -0.5171,-0.31571 -0.23108,-0.0891 -0.43789,-0.10778 -0.60338,-0.10467 -0.17667,0.003 -0.34005,0.0321 -0.49787,0.06 l -48.3875,8.532 c -0.21382,0.0377 -0.44052,0.0777 -0.6711,0.1886 -0.18509,0.089 -0.35198,0.21306 -0.5014,0.38215 -0.12666,0.14333 -0.23932,0.3191 -0.31571,0.5171 -0.0891,0.23108 -0.10778,0.43788 -0.10467,0.60338 0.003,0.17667 0.0321,0.34005 0.06,0.49787 l 8.53199,48.3877 c 0.0377,0.21362 0.0777,0.44032 0.18859,0.6709 0.089,0.18509 0.21307,0.35198 0.38216,0.5014 0.14333,0.12666 0.3191,0.23932 0.5171,0.31571 0.23107,0.0891 0.43788,0.10778 0.60337,0.10467 0.17668,-0.003 0.34006,-0.0321 0.49798,-0.0598 z"
         id="path192" />
      <path
         d="m 722.22788,233.25094 c -0.089,-0.18509 -0.21306,-0.35198 -0.38216,-0.5014 -0.14333,-0.12666 -0.31909,-0.23932 -0.5171,-0.31571 -0.23107,-0.0891 -0.43788,-0.10778 -0.60337,-0.10467 -0.17668,0.003 -0.34006,0.0321 -0.4982,0.06 l -48.3872,8.53099 c -0.21379,0.0387 -0.4405,0.0787 -0.67108,0.18956 -0.18508,0.089 -0.35197,0.21306 -0.5014,0.38215 -0.12666,0.14333 -0.23932,0.3191 -0.3157,0.5171 -0.0892,0.23108 -0.10778,0.43789 -0.10468,0.60338 0.003,0.17667 0.0321,0.34005 0.0599,0.49742 l 8.53199,48.3887 c 0.0378,0.21307 0.0778,0.43977 0.18867,0.67035 0.089,0.18509 0.21306,0.35198 0.38216,0.5014 0.14333,0.12666 0.31909,0.23933 0.5171,0.31571 0.23107,0.0892 0.43788,0.10778 0.60337,0.10467 0.17667,-0.003 0.34006,-0.0321 0.4978,-0.0607 l 48.3877,-8.53098 c 0.21369,-0.038 0.44039,-0.078 0.67098,-0.18889 0.18508,-0.089 0.35197,-0.21307 0.5014,-0.38216 0.12665,-0.14333 0.23932,-0.3191 0.3157,-0.5171 0.0892,-0.23107 0.10778,-0.43788 0.10467,-0.60337 -0.003,-0.17668 -0.0321,-0.34006 -0.0598,-0.49808 l -8.53199,-48.38871 c -0.0379,-0.2124 -0.0779,-0.43911 -0.18877,-0.66969 z"
         style="fill:none;stroke:#000000"
         id="path203" />
      <path
         d="m 804.07387,282.79116 c -0.089,-0.18509 -0.21306,-0.35198 -0.38215,-0.5014 -0.14334,-0.12666 -0.3191,-0.23932 -0.51711,-0.31571 -0.23107,-0.0891 -0.43788,-0.10778 -0.60337,-0.10467 -0.17667,0.003 -0.34006,0.0321 -0.4982,0.0599 l -48.3872,8.531 c -0.21379,0.0388 -0.44049,0.0788 -0.67107,0.18966 -0.18509,0.089 -0.35198,0.21306 -0.5014,0.38215 -0.12666,0.14333 -0.23933,0.3191 -0.31571,0.5171 -0.0891,0.23108 -0.10778,0.43789 -0.10467,0.60338 0.003,0.17667 0.0321,0.34005 0.0599,0.49731 l 8.53198,48.3882 c 0.0378,0.21368 0.0778,0.44038 0.18867,0.67096 0.089,0.18509 0.21306,0.35198 0.38216,0.5014 0.14333,0.12666 0.31909,0.23933 0.5171,0.31571 0.23107,0.0892 0.43788,0.10778 0.60337,0.10467 0.17668,-0.003 0.34006,-0.0321 0.49781,-0.0598 l 48.3877,-8.53199 c 0.21368,-0.0379 0.44039,-0.0779 0.67097,-0.18878 0.18509,-0.089 0.35197,-0.21307 0.5014,-0.38216 0.12666,-0.14333 0.23932,-0.3191 0.31571,-0.5171 0.0891,-0.23107 0.10777,-0.43788 0.10467,-0.60337 -0.003,-0.17668 -0.0321,-0.34006 -0.0598,-0.4982 l -8.53199,-48.3887 c -0.0379,-0.2123 -0.0779,-0.439 -0.18878,-0.66958 z"
         style="fill:none;stroke:#000000"
         id="path207" />
      <path
         style="fill:none;stroke:#000000"
         d="m 847.21965,417.16811 c 0.0375,0.2137 0.0775,0.4404 0.18841,0.67098 0.089,0.18509 0.21306,0.35198 0.38215,0.5014 0.14333,0.12666 0.3191,0.23932 0.5171,0.31571 0.23108,0.0891 0.43789,0.10778 0.60338,0.10467 0.17667,-0.003 0.34005,-0.0321 0.49806,-0.0598 l 48.3872,-8.53199 c 0.21393,-0.0379 0.44063,-0.0779 0.67121,-0.18877 0.18509,-0.089 0.35198,-0.21306 0.5014,-0.38215 0.12666,-0.14333 0.23932,-0.3191 0.31571,-0.5171 0.0891,-0.23108 0.10778,-0.43788 0.10467,-0.60338 -0.003,-0.17667 -0.0321,-0.34005 -0.0601,-0.4982 l -8.53199,-48.38721 c -0.0376,-0.21378 -0.0776,-0.44048 -0.18853,-0.67106 -0.089,-0.18509 -0.21307,-0.35198 -0.38216,-0.5014 -0.14333,-0.12666 -0.3191,-0.23932 -0.5171,-0.31571 -0.23108,-0.0891 -0.43788,-0.10778 -0.60337,-0.10467 -0.17668,0.003 -0.34006,0.0321 -0.49794,0.0599 l -48.38721,8.53199 c -0.21405,0.0378 -0.44075,0.0778 -0.67133,0.18868 -0.18509,0.089 -0.35198,0.21306 -0.5014,0.38215 -0.12666,0.14333 -0.23932,0.3191 -0.31571,0.5171 -0.0891,0.23108 -0.10778,0.43789 -0.10467,0.60338 0.003,0.17667 0.0321,0.34005 0.0602,0.49779 z"
         id="path216" />
      <path
         d="m 1012.1038,218.69334 c -0.089,-0.18508 -0.213,-0.35197 -0.3821,-0.5014 -0.1433,-0.12665 -0.3191,-0.23932 -0.5171,-0.3157 -0.2311,-0.0892 -0.4379,-0.10778 -0.6034,-0.10467 -0.1767,0.003 -0.34,0.0321 -0.4982,0.0588 l -48.38717,8.53099 c -0.21381,0.0399 -0.44051,0.0798 -0.67109,0.19075 -0.18509,0.089 -0.35198,0.21306 -0.5014,0.38216 -0.12666,0.14333 -0.23932,0.31909 -0.31571,0.5171 -0.0891,0.23107 -0.10778,0.43788 -0.10467,0.60337 0.003,0.17668 0.0321,0.34006 0.0599,0.49622 l 8.53199,48.3887 c 0.0378,0.21427 0.0778,0.44098 0.18866,0.67156 0.089,0.18509 0.21306,0.35197 0.38215,0.5014 0.14333,0.12666 0.3191,0.23932 0.5171,0.31571 0.23108,0.0891 0.43789,0.10777 0.60338,0.10467 0.17667,-0.003 0.34005,-0.0321 0.49782,-0.0619 l 48.38761,-8.53099 c 0.2138,-0.0368 0.4405,-0.0768 0.671,-0.18769 0.1851,-0.089 0.352,-0.21306 0.5014,-0.38215 0.1267,-0.14334 0.2394,-0.3191 0.3157,-0.51711 0.089,-0.23107 0.1078,-0.43788 0.1047,-0.60337 0,-0.17667 -0.032,-0.34006 -0.06,-0.49929 l -8.532,-48.3837 c -0.038,-0.2162 -0.078,-0.4429 -0.1888,-0.67349 z"
         style="fill:none;stroke:#000000"
         id="path225" />
      <path
         d="m 978.70569,443.91449 c -0.089,-0.18509 -0.21306,-0.35198 -0.38215,-0.5014 -0.14333,-0.12666 -0.3191,-0.23932 -0.5171,-0.31571 -0.23108,-0.0891 -0.43789,-0.10778 -0.60338,-0.10467 -0.17667,0.003 -0.34005,0.0321 -0.49811,0.0598 l -48.38719,8.53199 c -0.21389,0.0379 -0.44059,0.0779 -0.67117,0.18883 -0.18509,0.089 -0.35198,0.21306 -0.5014,0.38215 -0.12666,0.14333 -0.23932,0.3191 -0.31571,0.5171 -0.0891,0.23108 -0.10778,0.43789 -0.10467,0.60338 0.003,0.17667 0.0321,0.34005 0.06,0.49814 l 8.53199,48.3872 c 0.0377,0.21385 0.0777,0.44055 0.18858,0.67115 0.089,0.1851 0.21306,0.352 0.38215,0.5014 0.14333,0.1266 0.3191,0.2393 0.5171,0.3157 0.23108,0.089 0.43788,0.1078 0.60338,0.1047 0.17667,0 0.34005,-0.032 0.49789,-0.06 l 48.3877,-8.532 c 0.2136,-0.038 0.4403,-0.078 0.67088,-0.1886 0.18509,-0.089 0.35198,-0.2131 0.5014,-0.3822 0.12666,-0.1433 0.23932,-0.3191 0.31571,-0.5171 0.0891,-0.231 0.10778,-0.4379 0.10467,-0.6033 -0.003,-0.1767 -0.0321,-0.3401 -0.0602,-0.4979 l -8.53199,-48.3877 c -0.0375,-0.21364 -0.0775,-0.44034 -0.18837,-0.67092 z"
         style="fill:none;stroke:#000000"
         id="path231" />
      <path
         d="m 666.29006,549.71281 c 0.11577,-0.1697 0.19829,-0.3605 0.24315,-0.5817 0.038,-0.1874 0.0477,-0.396 0.0149,-0.6057 -0.0383,-0.2446 -0.1256,-0.4331 -0.21104,-0.5748 -0.0912,-0.1514 -0.19785,-0.2785 -0.30109,-0.40135 l -31.58253,-37.63885 c -0.13954,-0.1661 -0.2875,-0.3425 -0.49886,-0.4867 -0.16966,-0.1158 -0.36051,-0.1983 -0.58166,-0.2432 -0.18745,-0.038 -0.396,-0.048 -0.60567,-0.015 -0.24469,0.038 -0.43311,0.1256 -0.57488,0.211 -0.15134,0.091 -0.27843,0.1979 -0.40126,0.30085 l -37.63871,31.5829 c -0.16633,0.13955 -0.34268,0.28755 -0.4869,0.49895 -0.11577,0.1696 -0.19829,0.3605 -0.24315,0.5816 -0.038,0.1875 -0.0477,0.396 -0.0149,0.6057 0.0383,0.2447 0.1256,0.4331 0.21104,0.5749 0.0912,0.1513 0.19785,0.2784 0.30092,0.401 l 31.5827,37.6389 c 0.13953,0.1664 0.2875,0.3427 0.49886,0.487 0.16965,0.1157 0.3605,0.1982 0.58165,0.2431 0.18746,0.038 0.39601,0.048 0.60568,0.015 0.24469,-0.038 0.43311,-0.1256 0.57487,-0.2111 0.15135,-0.091 0.27844,-0.1978 0.40127,-0.301 L 665.803,550.21146 c 0.16649,-0.13935 0.34283,-0.28735 0.48706,-0.49865 z"
         style="fill:none;stroke:#000000"
         id="path243" />
      <path
         d="m 389.05998,303.24679 c -0.19851,0.0242 -0.38879,0.0854 -0.57578,0.18845 -0.1781,0.0982 -0.3576,0.23812 -0.5048,0.42073 -0.13368,0.16583 -0.21177,0.33112 -0.26196,0.47516 -0.0593,0.17014 -0.0886,0.33643 -0.11677,0.49756 l -8.532,48.38673 c -0.0395,0.22327 -0.0815,0.46117 -0.0487,0.72992 0.0242,0.1985 0.0854,0.38879 0.18844,0.57578 0.0982,0.1781 0.23813,0.3576 0.42073,0.5048 0.16583,0.13368 0.33113,0.21177 0.47517,0.26196 0.17014,0.0593 0.33643,0.0886 0.49725,0.11713 l 48.38722,8.53201 c 0.22308,0.0391 0.46099,0.0811 0.72973,0.0483 0.19851,-0.0242 0.3888,-0.0854 0.57578,-0.18845 0.1781,-0.0981 0.35761,-0.23812 0.50481,-0.42072 0.13368,-0.16583 0.21177,-0.33113 0.26196,-0.47517 0.0593,-0.17014 0.0886,-0.33643 0.11682,-0.49688 l 8.53201,-48.38622 c 0.0394,-0.22445 0.0814,-0.46236 0.0486,-0.7311 -0.0242,-0.19851 -0.0854,-0.3888 -0.18845,-0.57579 -0.0982,-0.17809 -0.23813,-0.3576 -0.42073,-0.5048 -0.16583,-0.13368 -0.33112,-0.21177 -0.47517,-0.26196 -0.17013,-0.0593 -0.33642,-0.0886 -0.49718,-0.11596 l -48.38723,-8.531 c -0.22314,-0.0413 -0.46105,-0.0833 -0.72979,-0.0505 z"
         style="fill:none;stroke:#000000"
         id="path252" />
      <path
         d="m 459.00712,490.55541 c 0.028,-0.198 0.0181,-0.3976 -0.033,-0.6049 -0.0487,-0.1974 -0.13746,-0.4071 -0.27574,-0.5965 -0.12558,-0.172 -0.26504,-0.2903 -0.39118,-0.376 -0.14899,-0.1013 -0.30203,-0.1727 -0.4496,-0.2417 l -44.5307,-20.76492 c -0.20522,-0.0955 -0.42417,-0.19767 -0.69225,-0.23552 -0.19802,-0.028 -0.39765,-0.0181 -0.60494,0.033 -0.19743,0.0487 -0.40704,0.13745 -0.59649,0.27574 -0.17205,0.12558 -0.29026,0.26503 -0.37602,0.39117 -0.1013,0.149 -0.17266,0.30203 -0.24147,0.44963 l -20.76493,44.5307 c -0.0957,0.2052 -0.19787,0.4242 -0.23572,0.6922 -0.028,0.1981 -0.0181,0.3977 0.033,0.605 0.0487,0.1974 0.13746,0.407 0.27574,0.5965 0.12558,0.172 0.26503,0.2902 0.39118,0.376 0.14899,0.1013 0.30203,0.1726 0.44982,0.2415 l 44.5302,20.7649 c 0.2055,0.096 0.42445,0.1979 0.69253,0.2357 0.19802,0.028 0.39765,0.018 0.60493,-0.033 0.19744,-0.049 0.40705,-0.1375 0.5965,-0.2757 0.17205,-0.1256 0.29025,-0.2651 0.37602,-0.3912 0.1013,-0.149 0.17266,-0.302 0.2417,-0.4498 l 20.76493,-44.5302 c 0.0955,-0.2055 0.19764,-0.4245 0.23549,-0.6926 z"
         style="fill:none;stroke:#000000"
         id="path260" />
      <path
         d="m 382.91787,221.01467 c -0.0242,-0.19851 -0.0854,-0.3888 -0.18845,-0.57578 -0.0981,-0.1781 -0.23812,-0.35761 -0.42072,-0.50481 -0.16583,-0.13368 -0.33113,-0.21177 -0.47517,-0.26196 -0.17014,-0.0593 -0.33643,-0.0886 -0.49686,-0.1149 l -48.38772,-8.53601 c -0.22297,-0.0373 -0.46088,-0.0793 -0.72962,-0.0465 -0.19851,0.0242 -0.3888,0.0854 -0.57578,0.18845 -0.1781,0.0982 -0.35761,0.23813 -0.50481,0.42073 -0.13368,0.16583 -0.21177,0.33112 -0.26196,0.47517 -0.0593,0.17013 -0.0886,0.33642 -0.11694,0.4986 l -8.532,48.38372 c -0.0393,0.22522 -0.0813,0.46313 -0.0485,0.73187 0.0242,0.19851 0.0854,0.38879 0.18845,0.57578 0.0982,0.1781 0.23812,0.3576 0.42073,0.5048 0.16583,0.13368 0.33112,0.21177 0.47516,0.26197 0.17014,0.0593 0.33643,0.0886 0.49708,0.11518 l 48.38723,8.536 c 0.22325,0.037 0.46116,0.079 0.7299,0.0462 0.19851,-0.0242 0.38879,-0.0854 0.57578,-0.18845 0.1781,-0.0981 0.3576,-0.23813 0.5048,-0.42073 0.13368,-0.16583 0.21177,-0.33113 0.26196,-0.47517 0.0593,-0.17013 0.0886,-0.33643 0.11716,-0.49833 l 8.532,-48.38371 c 0.0391,-0.2255 0.0811,-0.46341 0.0483,-0.73215 z"
         style="fill:none;stroke:#000000"
         id="path266" />
      <path
         style="fill:none;stroke:#000000"
         d="m 271.32968,439.68699 c 0.0392,-0.22333 0.0812,-0.46123 0.0484,-0.72998 -0.0242,-0.1985 -0.0854,-0.38879 -0.18845,-0.57578 -0.0981,-0.1781 -0.23812,-0.3576 -0.42073,-0.5048 -0.16583,-0.13368 -0.33112,-0.21177 -0.47516,-0.26196 -0.17014,-0.0593 -0.33643,-0.0886 -0.49694,-0.11708 l -48.38773,-8.53201 c -0.22289,-0.0391 -0.46079,-0.0811 -0.72954,-0.0483 -0.1985,0.0242 -0.38879,0.0854 -0.57578,0.18845 -0.1781,0.0981 -0.3576,0.23812 -0.5048,0.42073 -0.13368,0.16582 -0.21177,0.33112 -0.26196,0.47516 -0.0593,0.17014 -0.0886,0.33643 -0.11702,0.49693 l -8.53201,48.3877 c -0.0392,0.2229 -0.0812,0.4608 -0.0484,0.7296 0.0242,0.1985 0.0854,0.3888 0.18845,0.5758 0.0981,0.1781 0.23812,0.3576 0.42073,0.5048 0.16583,0.1336 0.33112,0.2117 0.47516,0.2619 0.17014,0.059 0.33643,0.089 0.49699,0.117 l 48.38723,8.532 c 0.22334,0.0389 0.46124,0.0809 0.72999,0.0479 0.1985,-0.024 0.38879,-0.085 0.57578,-0.1884 0.1781,-0.098 0.3576,-0.2382 0.5048,-0.4208 0.13368,-0.1658 0.21177,-0.3311 0.26196,-0.4751 0.0593,-0.1702 0.0886,-0.3365 0.11707,-0.4968 z"
         id="path273" />
      <path
         d="m 182.59284,230.28571 c -0.19851,0.0242 -0.38879,0.0854 -0.57578,0.18845 -0.1781,0.0982 -0.3576,0.23813 -0.5048,0.42073 -0.13368,0.16583 -0.21177,0.33113 -0.26196,0.47517 -0.0593,0.17013 -0.0886,0.33643 -0.1167,0.49809 l -8.532,48.38872 c -0.0395,0.22073 -0.0815,0.45864 -0.0487,0.72738 0.0242,0.19851 0.0854,0.38879 0.18844,0.57578 0.0982,0.1781 0.23813,0.3576 0.42073,0.50481 0.16583,0.13368 0.33113,0.21176 0.47517,0.26196 0.17014,0.0593 0.33643,0.0886 0.49682,0.11468 l 48.38772,8.536 c 0.22301,0.0375 0.46092,0.0795 0.72966,0.0467 0.19851,-0.0242 0.3888,-0.0854 0.57578,-0.18845 0.1781,-0.0981 0.35761,-0.23813 0.50481,-0.42073 0.13368,-0.16583 0.21177,-0.33113 0.26196,-0.47517 0.0593,-0.17013 0.0886,-0.33642 0.11689,-0.49883 l 8.53201,-48.38372 c 0.0393,-0.22499 0.0813,-0.4629 0.0485,-0.73164 -0.0242,-0.19851 -0.0854,-0.38879 -0.18845,-0.57578 -0.0982,-0.1781 -0.23813,-0.3576 -0.42073,-0.50481 -0.16583,-0.13368 -0.33112,-0.21176 -0.47517,-0.26196 -0.17013,-0.0593 -0.33642,-0.0886 -0.49711,-0.11541 l -48.38723,-8.536 c -0.22321,-0.0368 -0.46112,-0.0788 -0.72986,-0.046 z"
         style="fill:none;stroke:#000000"
         id="path280" />
      <path
         style="fill:none;stroke:#000000"
         d="m 64.187015,480.47026 c -0.03911,0.22315 -0.08111,0.46105 -0.04832,0.72975 0.0242,0.1986 0.0854,0.3888 0.18845,0.5758 0.0981,0.1781 0.23812,0.3576 0.42073,0.5048 0.16583,0.1337 0.33112,0.2118 0.47517,0.262 0.17013,0.059 0.33642,0.089 0.496895,0.11675 l 48.387725,8.532 c 0.22293,0.0392 0.46084,0.0812 0.72958,0.0482 0.19851,-0.024 0.38879,-0.085 0.57578,-0.1885 0.1781,-0.098 0.3576,-0.2381 0.5048,-0.4207 0.13368,-0.1658 0.21177,-0.3311 0.26196,-0.4752 0.0593,-0.1701 0.0886,-0.3364 0.11698,-0.49695 l 8.53201,-48.38693 c 0.0392,-0.22309 0.0812,-0.461 0.0484,-0.72974 -0.0242,-0.19851 -0.0854,-0.3888 -0.18845,-0.57579 -0.0981,-0.17809 -0.23812,-0.3576 -0.42072,-0.5048 -0.16583,-0.13368 -0.33113,-0.21177 -0.47517,-0.26196 -0.17014,-0.0593 -0.33643,-0.0886 -0.49703,-0.11681 l -48.387225,-8.53201 c -0.223295,-0.0394 -0.461205,-0.0814 -0.729945,-0.0486 -0.19851,0.0242 -0.3888,0.0854 -0.57578,0.18845 -0.1781,0.0981 -0.35761,0.23812 -0.50481,0.42073 -0.13368,0.16583 -0.21177,0.33112 -0.26196,0.47516 -0.0593,0.17014 -0.0886,0.33643 -0.11711,0.4972 z"
         id="path289" />
      <path
         style="fill:none;stroke:#000000"
         d="m 101.69502,267.75053 c -0.0391,0.2244 -0.0811,0.46231 -0.0483,0.73105 0.0242,0.19851 0.0854,0.3888 0.18845,0.57578 0.0981,0.1781 0.23812,0.35761 0.42072,0.50481 0.16583,0.13368 0.33113,0.21177 0.47517,0.26196 0.17014,0.0593 0.33643,0.0886 0.4969,0.11601 l 48.38772,8.531 c 0.22293,0.0412 0.46084,0.0832 0.72958,0.0504 0.19851,-0.0242 0.3888,-0.0854 0.57579,-0.18845 0.17809,-0.0982 0.3576,-0.23813 0.5048,-0.42073 0.13368,-0.16583 0.21177,-0.33112 0.26196,-0.47517 0.0593,-0.17013 0.0886,-0.33642 0.11697,-0.4975 l 8.53201,-48.38872 c 0.0392,-0.22133 0.0812,-0.45924 0.0485,-0.72798 -0.0242,-0.19851 -0.0854,-0.38879 -0.18845,-0.57578 -0.0982,-0.1781 -0.23812,-0.3576 -0.42073,-0.5048 -0.16583,-0.13368 -0.33112,-0.21177 -0.47516,-0.26196 -0.17014,-0.0593 -0.33643,-0.0886 -0.49704,-0.11908 l -48.38723,-8.53101 c -0.22329,-0.0381 -0.46119,-0.0801 -0.72994,-0.0473 -0.1985,0.0242 -0.38879,0.0854 -0.57578,0.18845 -0.1781,0.0981 -0.3576,0.23813 -0.5048,0.42073 -0.13368,0.16583 -0.21177,0.33113 -0.26196,0.47517 -0.0593,0.17014 -0.0886,0.33643 -0.11712,0.49943 z"
         id="path295" />
      <path
         style="fill:none;stroke:#000000"
         d="m 135.09359,492.97311 c -0.0395,0.223 -0.0815,0.4609 -0.0487,0.7296 0.0242,0.1985 0.0854,0.3888 0.18845,0.5758 0.0981,0.1781 0.23812,0.3576 0.42073,0.5048 0.16583,0.1337 0.33112,0.2118 0.47516,0.262 0.17014,0.059 0.33643,0.089 0.49682,0.1169 l 48.38773,8.532 c 0.22301,0.039 0.46091,0.081 0.72966,0.048 0.1985,-0.024 0.38879,-0.085 0.57578,-0.1885 0.1781,-0.098 0.3576,-0.2381 0.5048,-0.4207 0.13368,-0.1659 0.21177,-0.3312 0.26196,-0.4752 0.0593,-0.1701 0.0886,-0.3364 0.1169,-0.4968 l 8.53201,-48.38695 c 0.0393,-0.22326 0.0813,-0.46116 0.0485,-0.72991 -0.0242,-0.1985 -0.0854,-0.38879 -0.18845,-0.57578 -0.0981,-0.1781 -0.23812,-0.3576 -0.42072,-0.5048 -0.16583,-0.13368 -0.33113,-0.21177 -0.47517,-0.26196 -0.17014,-0.0593 -0.33643,-0.0886 -0.49711,-0.11715 l -48.38722,-8.53201 c -0.22322,-0.0391 -0.46113,-0.0811 -0.72988,-0.0483 -0.1985,0.0242 -0.38879,0.0854 -0.57578,0.18845 -0.17809,0.0981 -0.3576,0.23812 -0.5048,0.42073 -0.13368,0.16583 -0.21177,0.33112 -0.26196,0.47516 -0.0593,0.17014 -0.0886,0.33643 -0.11669,0.49687 z"
         id="path305" />
      <path
         style="fill:none;stroke:#000000"
         d="m 308.83769,226.96876 c 0.0392,-0.22357 0.0812,-0.46148 0.0484,-0.73022 -0.0242,-0.19851 -0.0854,-0.38879 -0.18845,-0.57578 -0.0981,-0.1781 -0.23813,-0.3576 -0.42073,-0.50481 -0.16583,-0.13368 -0.33112,-0.21176 -0.47517,-0.26196 -0.17013,-0.0593 -0.33642,-0.0886 -0.49694,-0.11684 l -48.38773,-8.531 c -0.22288,-0.0404 -0.46079,-0.0824 -0.72953,-0.0496 -0.19851,0.0242 -0.38879,0.0854 -0.57578,0.18845 -0.1781,0.0981 -0.3576,0.23813 -0.5048,0.42073 -0.13368,0.16583 -0.21177,0.33113 -0.26196,0.47517 -0.0593,0.17013 -0.0886,0.33642 -0.11703,0.49666 l -8.532,48.38872 c -0.0392,0.22216 -0.0812,0.46007 -0.0484,0.72881 0.0243,0.19851 0.0854,0.38879 0.18845,0.57578 0.0981,0.1781 0.23813,0.3576 0.42073,0.50481 0.16583,0.13368 0.33113,0.21176 0.47517,0.26196 0.17013,0.0593 0.33643,0.0886 0.49698,0.11825 l 48.38772,8.53099 c 0.22284,0.039 0.46075,0.081 0.72949,0.0482 0.19851,-0.0242 0.3888,-0.0854 0.57578,-0.18845 0.1781,-0.0982 0.35761,-0.23813 0.50481,-0.42073 0.13368,-0.16583 0.21177,-0.33113 0.26196,-0.47517 0.0593,-0.17013 0.0886,-0.33643 0.11707,-0.49526 z"
         id="path311" />
      <path
         d="m 316.99876,498.36961 c 0.0242,0.1985 0.0854,0.3888 0.18844,0.5758 0.0982,0.1781 0.23813,0.3576 0.42073,0.5048 0.16583,0.1336 0.33113,0.2117 0.47517,0.2619 0.17014,0.059 0.33643,0.089 0.49688,0.117 l 48.38771,8.53205 c 0.22296,0.0389 0.46087,0.081 0.72961,0.048 0.19851,-0.024 0.3888,-0.085 0.57578,-0.1884 0.1781,-0.098 0.35761,-0.2382 0.50481,-0.4208 0.13368,-0.1658 0.21177,-0.3311 0.26196,-0.4751 0.0593,-0.1702 0.0886,-0.3365 0.11695,-0.4968 l 8.532,-48.38701 c 0.0393,-0.22333 0.0813,-0.46124 0.0485,-0.72998 -0.0242,-0.19851 -0.0854,-0.3888 -0.18845,-0.57578 -0.0982,-0.1781 -0.23813,-0.35761 -0.42073,-0.50481 -0.16583,-0.13368 -0.33112,-0.21177 -0.47517,-0.26196 -0.17013,-0.0593 -0.33642,-0.0886 -0.49705,-0.11708 l -48.38723,-8.532 c -0.22327,-0.0391 -0.46118,-0.0811 -0.72992,-0.0483 -0.19851,0.0242 -0.38879,0.0854 -0.57578,0.18845 -0.1781,0.0981 -0.3576,0.23813 -0.5048,0.42073 -0.13368,0.16583 -0.21177,0.33112 -0.26196,0.47517 -0.0593,0.17013 -0.0886,0.33642 -0.11715,0.49692 l -8.532,48.3877 c -0.0391,0.2229 -0.0811,0.4608 -0.0483,0.7296 z"
         style="fill:none;stroke:#000000"
         id="path320" />
      <path
         d="m 427.25586,384.19292 c -0.0242,-0.1985 -0.0854,-0.38879 -0.18845,-0.57578 -0.0981,-0.1781 -0.23812,-0.3576 -0.42073,-0.5048 -0.16583,-0.13368 -0.33112,-0.21177 -0.47516,-0.26196 -0.17014,-0.0593 -0.33643,-0.0886 -0.49686,-0.11704 l -48.38772,-8.532 c -0.22298,-0.0392 -0.46088,-0.0812 -0.72963,-0.0484 -0.1985,0.0242 -0.38879,0.0854 -0.57578,0.18845 -0.1781,0.0981 -0.3576,0.23812 -0.5048,0.42072 -0.13368,0.16583 -0.21177,0.33113 -0.26196,0.47517 -0.0593,0.17014 -0.0886,0.33643 -0.11694,0.49698 l -8.532,48.38772 c -0.0393,0.22285 -0.0813,0.46076 -0.0485,0.7295 0.0242,0.19851 0.0854,0.3888 0.18845,0.57579 0.0981,0.17809 0.23812,0.3576 0.42072,0.5048 0.16583,0.13368 0.33113,0.21177 0.47517,0.26196 0.17014,0.0593 0.33643,0.0886 0.49709,0.11706 l 48.38722,8.532 c 0.22324,0.0392 0.46115,0.0812 0.72989,0.0484 0.19851,-0.0242 0.3888,-0.0854 0.57579,-0.18845 0.17809,-0.0982 0.3576,-0.23812 0.5048,-0.42073 0.13368,-0.16583 0.21177,-0.33112 0.26196,-0.47516 0.0593,-0.17014 0.0886,-0.33643 0.11716,-0.49696 l 8.532,-48.38773 c 0.0391,-0.22287 0.0811,-0.46077 0.0483,-0.72952 z"
         style="fill:none;stroke:#000000"
         id="path328" />
      <path
         style="fill:none;stroke:#000000"
         d="m 510.83482,314.39791 c 0.22308,0.038 0.46098,0.08 0.72973,0.0472 0.1985,-0.0242 0.38879,-0.0854 0.57578,-0.18845 0.1781,-0.0981 0.3576,-0.23812 0.5048,-0.42072 0.13368,-0.16583 0.21177,-0.33113 0.26196,-0.47517 0.0593,-0.17014 0.0886,-0.33643 0.11693,-0.49927 l 8.532,-48.38372 c 0.0393,-0.22456 0.0813,-0.46247 0.0485,-0.73121 -0.0242,-0.19851 -0.0854,-0.3888 -0.18845,-0.57579 -0.0982,-0.17809 -0.23813,-0.3576 -0.42073,-0.5048 -0.16583,-0.13368 -0.33112,-0.21177 -0.47517,-0.26196 -0.17013,-0.0593 -0.33642,-0.0886 -0.49703,-0.11584 l -48.38742,-8.53101 c -0.2231,-0.0414 -0.461,-0.0834 -0.72975,-0.0506 -0.1985,0.0242 -0.38879,0.0854 -0.57578,0.18845 -0.1781,0.0981 -0.3576,0.23812 -0.5048,0.42073 -0.13368,0.16583 -0.21177,0.33112 -0.26196,0.47516 -0.0593,0.17014 -0.0886,0.33643 -0.11691,0.49767 l -8.53185,48.38873 c -0.0395,0.22116 -0.0815,0.45906 -0.0487,0.72781 0.0242,0.1985 0.0854,0.38879 0.18845,0.57578 0.0981,0.1781 0.23812,0.3576 0.42073,0.5048 0.16583,0.13368 0.33112,0.21177 0.47516,0.26196 0.17014,0.0593 0.33643,0.0886 0.49706,0.11925 z"
         id="path341" />
      <path
         style="fill:none;stroke:#000000"
         d="m 859.72198,488.07416 c 0.0378,0.21385 0.0779,0.44055 0.18875,0.67105 0.089,0.1851 0.21306,0.352 0.38215,0.5014 0.14333,0.1267 0.3191,0.2394 0.5171,0.3157 0.23108,0.089 0.43789,0.1078 0.60338,0.1047 0.17667,0 0.34005,-0.032 0.49822,-0.0599 l 48.3872,-8.532 c 0.21377,-0.0381 0.44047,-0.0781 0.67105,-0.1887 0.18509,-0.089 0.35198,-0.213 0.5014,-0.3821 0.12666,-0.1433 0.23932,-0.3191 0.31571,-0.5171 0.0891,-0.2311 0.10778,-0.4379 0.10467,-0.6034 -0.003,-0.1767 -0.0321,-0.34 -0.0599,-0.4978 l -8.53199,-48.38768 c -0.0378,-0.2137 -0.0778,-0.4404 -0.1887,-0.67098 -0.089,-0.18509 -0.21306,-0.35198 -0.38215,-0.5014 -0.14333,-0.12666 -0.3191,-0.23932 -0.5171,-0.31571 -0.23108,-0.0891 -0.43788,-0.10778 -0.60338,-0.10467 -0.17667,0.003 -0.34005,0.0321 -0.49777,0.0598 l -48.3877,8.53199 c -0.21372,0.0379 -0.44042,0.0779 -0.671,0.18876 -0.18509,0.089 -0.35198,0.21306 -0.5014,0.38215 -0.12666,0.14333 -0.23932,0.3191 -0.31571,0.5171 -0.0891,0.23108 -0.10778,0.43788 -0.10467,0.60338 0.003,0.17667 0.0321,0.34005 0.0598,0.49821 z"
         id="path342" />
      <path
         style="fill:none;stroke:#000000"
         d="m 974.21866,297.26947 c -0.21397,0.0379 -0.44067,0.0779 -0.67125,0.18883 -0.18509,0.089 -0.35198,0.21306 -0.5014,0.38216 -0.12666,0.14333 -0.23932,0.31909 -0.31571,0.5171 -0.0891,0.23107 -0.10778,0.43788 -0.10467,0.60337 0.003,0.17667 0.0321,0.34006 0.0601,0.49814 l 8.53199,48.3872 c 0.0376,0.21385 0.0776,0.44055 0.18849,0.67114 0.089,0.18508 0.21306,0.35197 0.38215,0.5014 0.14333,0.12666 0.3191,0.23932 0.5171,0.3157 0.23108,0.0892 0.43788,0.10778 0.60338,0.10468 0.17667,-0.003 0.34005,-0.0321 0.49798,-0.06 l 48.38718,-8.53199 c 0.214,-0.0377 0.4407,-0.0777 0.6713,-0.18861 0.1851,-0.089 0.352,-0.21306 0.5014,-0.38216 0.1267,-0.14333 0.2393,-0.31909 0.3157,-0.5171 0.089,-0.23107 0.1078,-0.43788 0.1047,-0.60337 0,-0.17668 -0.032,-0.34006 -0.06,-0.49786 l -8.532,-48.3882 c -0.038,-0.21313 -0.078,-0.43984 -0.1885,-0.67042 -0.089,-0.18508 -0.213,-0.35197 -0.3821,-0.5014 -0.1434,-0.12666 -0.3191,-0.23932 -0.5171,-0.3157 -0.2311,-0.0892 -0.4379,-0.10778 -0.6034,-0.10468 -0.1767,0.003 -0.3401,0.0321 -0.498,0.0608 z"
         id="path350" />
      <path
         style="fill:none;stroke:#000000"
         d="m 922.81398,431.25518 c 0.0378,0.21377 0.0778,0.44047 0.18874,0.67105 0.089,0.18509 0.21306,0.35198 0.38215,0.5014 0.14333,0.12666 0.3191,0.23933 0.5171,0.31571 0.23108,0.0892 0.43789,0.10778 0.60338,0.10467 0.17667,-0.003 0.34005,-0.0321 0.49772,-0.0599 l 48.38771,-8.53199 c 0.21376,-0.0378 0.44046,-0.0778 0.67104,-0.18869 0.18509,-0.0891 0.35198,-0.21307 0.5014,-0.38216 0.12666,-0.14333 0.23932,-0.3191 0.31571,-0.5171 0.0891,-0.23108 0.10778,-0.43788 0.10467,-0.60337 -0.003,-0.17668 -0.0321,-0.34006 -0.0599,-0.49778 l -8.532,-48.38771 c -0.0378,-0.21371 -0.0778,-0.44041 -0.1887,-0.67099 -0.089,-0.18509 -0.21306,-0.35198 -0.38215,-0.5014 -0.14333,-0.12666 -0.3191,-0.23932 -0.5171,-0.31571 -0.23108,-0.0891 -0.43788,-0.10778 -0.60338,-0.10467 -0.17667,0.003 -0.34005,0.0321 -0.49777,0.0598 l -48.3877,8.53199 c -0.21372,0.0378 -0.44042,0.0779 -0.671,0.18875 -0.18509,0.089 -0.35198,0.21306 -0.5014,0.38215 -0.12666,0.14333 -0.23932,0.3191 -0.31571,0.5171 -0.0891,0.23108 -0.10778,0.43789 -0.10467,0.60338 0.003,0.17667 0.0321,0.34005 0.0598,0.49823 z"
         id="path364" />
      <path
         style="fill:none;stroke:#000000"
         d="m 748.18206,270.13052 c 0.0379,0.2151 0.0779,0.4418 0.18883,0.67239 0.089,0.18508 0.21307,0.35197 0.38216,0.5014 0.14333,0.12666 0.3191,0.23932 0.5171,0.3157 0.23108,0.0892 0.43788,0.10778 0.60337,0.10467 0.17668,-0.003 0.34006,-0.0321 0.49814,-0.0577 l 48.38721,-8.53598 c 0.21385,-0.036 0.44055,-0.076 0.67113,-0.18686 0.18509,-0.089 0.35198,-0.21306 0.5014,-0.38216 0.12666,-0.14333 0.23932,-0.31909 0.31571,-0.5171 0.0891,-0.23107 0.10778,-0.43788 0.10467,-0.60337 -0.003,-0.17668 -0.0321,-0.34006 -0.06,-0.50011 l -8.53199,-48.38371 c -0.0377,-0.21537 -0.0777,-0.44208 -0.18861,-0.67266 -0.089,-0.18509 -0.21306,-0.35197 -0.38215,-0.5014 -0.14333,-0.12666 -0.3191,-0.23932 -0.5171,-0.31571 -0.23108,-0.0891 -0.43789,-0.10777 -0.60338,-0.10467 -0.17667,0.003 -0.34005,0.0321 -0.49786,0.058 l -48.3877,8.536 c -0.21363,0.0357 -0.44033,0.0757 -0.67091,0.18658 -0.18509,0.089 -0.35198,0.21306 -0.5014,0.38215 -0.12666,0.14334 -0.23933,0.3191 -0.31571,0.51711 -0.0891,0.23107 -0.10778,0.43788 -0.10467,0.60337 0.003,0.17667 0.0321,0.34006 0.0598,0.50039 z"
         id="path366" />
      <path
         style="fill:none;stroke:#000000"
         d="m 684.34268,311.82826 c -0.21395,0.0367 -0.44066,0.0767 -0.67124,0.18764 -0.18509,0.089 -0.35197,0.21306 -0.5014,0.38215 -0.12666,0.14333 -0.23932,0.3191 -0.31571,0.5171 -0.0891,0.23108 -0.10777,0.43789 -0.10467,0.60338 0.003,0.17667 0.0321,0.34005 0.0601,0.49934 l 8.53198,48.3862 c 0.0376,0.21365 0.0776,0.44035 0.18851,0.67093 0.089,0.18509 0.21306,0.35198 0.38215,0.5014 0.14333,0.12666 0.3191,0.23932 0.5171,0.31571 0.23108,0.0891 0.43789,0.10778 0.60338,0.10467 0.17667,-0.003 0.34005,-0.0321 0.49797,-0.0598 l 48.3872,-8.53199 c 0.21402,-0.0379 0.44072,-0.0779 0.6713,-0.18881 0.18509,-0.089 0.35198,-0.21306 0.5014,-0.38215 0.12666,-0.14333 0.23933,-0.3191 0.31571,-0.5171 0.0891,-0.23108 0.10778,-0.43788 0.10467,-0.60338 -0.003,-0.17667 -0.0321,-0.34005 -0.0601,-0.49816 l -8.53199,-48.3867 c -0.0375,-0.21433 -0.0775,-0.44103 -0.18844,-0.67161 -0.089,-0.18509 -0.21307,-0.35198 -0.38216,-0.5014 -0.14333,-0.12666 -0.3191,-0.23932 -0.5171,-0.31571 -0.23107,-0.0891 -0.43788,-0.10778 -0.60337,-0.10467 -0.17668,0.003 -0.34006,0.0321 -0.49804,0.062 z"
         id="path380" />
      <path
         style="fill:none;stroke:#000000"
         d="m 678.07866,397.10026 c -0.0379,-0.21378 -0.0779,-0.44048 -0.18877,-0.67106 -0.089,-0.18509 -0.21306,-0.35198 -0.38215,-0.5014 -0.14334,-0.12666 -0.3191,-0.23933 -0.5171,-0.31571 -0.23108,-0.0891 -0.43789,-0.10778 -0.60338,-0.10467 -0.17667,0.003 -0.34006,0.0321 -0.49821,0.0599 l -48.3872,8.53199 c -0.21378,0.0378 -0.44048,0.0778 -0.67106,0.18868 -0.18509,0.089 -0.35198,0.21307 -0.5014,0.38216 -0.12666,0.14333 -0.23933,0.3191 -0.31571,0.5171 -0.0891,0.23107 -0.10778,0.43788 -0.10467,0.60337 0.003,0.17668 0.0321,0.34006 0.06,0.4978 l 8.53204,48.3877 c 0.0377,0.21369 0.0777,0.4404 0.18857,0.67098 0.089,0.18509 0.21306,0.35198 0.38216,0.5014 0.14333,0.12666 0.31909,0.23932 0.5171,0.31571 0.23107,0.0891 0.43788,0.10778 0.60337,0.10467 0.17668,-0.003 0.34006,-0.0321 0.498,-0.0598 l 48.3875,-8.53199 c 0.21369,-0.0379 0.4404,-0.0779 0.67098,-0.18876 0.18509,-0.089 0.35198,-0.21306 0.5014,-0.38215 0.12666,-0.14333 0.23932,-0.3191 0.31571,-0.5171 0.0891,-0.23108 0.10778,-0.43789 0.10467,-0.60338 -0.003,-0.17667 -0.0321,-0.34005 -0.0598,-0.49821 z"
         id="path388" />
    </g>
  </g>
</svg>
