0
SECTION
2
HEADER
9
$INSUNITS
70
4
9
$ACADVER
1
AC1014
9
$HANDSEED
5
FFFF
0
ENDSEC
0
SECTION
2
TABLES
0
TABLE
2
VPORT
5
8
100
AcDbSymbolTable
0
ENDTAB
0
TABLE
2
LTYPE
5
5
100
AcDbSymbolTable
0
LTYPE
5
14
100
AcDbSymbolTableRecord
100
AcDbLinetypeTableRecord
2
BYBLOCK
70
0
0
LTYPE
5
15
100
AcDbSymbolTableRecord
100
AcDbLinetypeTableRecord
2
BYLAYER
70
0
0
ENDTAB
0
TABLE
2
LAYER
5
2
100
AcDbSymbolTable
70
2
0
LAYER
5
50
100
AcDbSymbolTableRecord
100
AcDbLayerTableRecord
2
0
70
0
6
CONTINUOUS
0
ENDTAB
0
TABLE
2
STYLE
5
3
100
AcDbSymbolTable
70
1
0
STYLE
5
11
100
AcDbSymbolTableRecord
100
AcDbTextStyleTableRecord
2
STANDARD
70
0
0
ENDTAB
0
TABLE
2
VIEW
5
6
100
AcDbSymbolTable
70
0
0
ENDTAB
0
TABLE
2
UCS
5
7
100
AcDbSymbolTable
70
0
0
ENDTAB
0
TABLE
2
APPID
5
9
100
AcDbSymbolTable
70
2
0
APPID
5
12
100
AcDbSymbolTableRecord
100
AcDbRegAppTableRecord
2
ACAD
70
0
0
ENDTAB
0
TABLE
2
DIMSTYLE
5
A
100
AcDbSymbolTable
70
1
0
ENDTAB
0
TABLE
2
BLOCK_RECORD
5
1
100
AcDbSymbolTable
70
1
0
BLOCK_RECORD
5
1F
100
AcDbSymbolTableRecord
100
AcDbBlockTableRecord
2
*MODEL_SPACE
0
BLOCK_RECORD
5
1B
100
AcDbSymbolTableRecord
100
AcDbBlockTableRecord
2
*PAPER_SPACE
0
ENDTAB
0
ENDSEC
0
SECTION
2
BLOCKS
0
BLOCK
5
20
100
AcDbEntity
100
AcDbBlockBegin
2
*MODEL_SPACE
0
ENDBLK
5
21
100
AcDbEntity
100
AcDbBlockEnd
0
BLOCK
5
1C
100
AcDbEntity
100
AcDbBlockBegin
2
*PAPER_SPACE
0
ENDBLK
5
1D
100
AcDbEntity
100
AcDbBlockEnd
0
ENDSEC
0
SECTION
2
ENTITIES
0
LWPOLYLINE
5
100
100
AcDbEntity
8
0
100
AcDbPolyline
90
14
70
1
43
0.0
10
121.95489230654958
20
2.6527036446656886
42
-0.36397023426613434
10
119.98527680052527
20
1.0000000000000071
10
6.3543590047790666
20
1.0000000000000142
10
6.354359004779063
20
7.5587245446739137
10
-6.354359004779063
20
7.5587245446739137
10
-6.3543590047790666
20
1.0000000000000142
10
-119.98527680052526
20
1.0000000000000133
42
-0.36397023426613812
10
-121.95489230654958
20
2.6527036446656993
10
-135.88822347349893
20
81.672551378390324
42
-0.4142135623731002
10
-134.26590432280886
20
83.989463239748957
10
-24.424898134824431
20
103.35739621888088
10
24.424898134824424
20
103.35739621888088
10
134.26590432280884
20
83.989463239748957
42
-0.41421356237310059
10
135.88822347349887
20
81.672551378390295
0
LWPOLYLINE
5
101
100
AcDbEntity
8
0
100
AcDbPolyline
90
24
70
1
43
0.0
10
-122.49908951000153
20
28.381705988499121
42
-0.41421356237306206
10
-122.09350972232892
20
28.960933953838666
10
-115.87330419856399
20
30.057724013230249
42
0.41421356237308482
10
-115.264934517055
20
30.926565961239632
10
-115.37983627813036
20
31.578206229868062
42
-0.41421356237311346
10
-114.97425649045768
20
32.157434195207642
10
-110.26112109696102
20
32.988487128813162
42
-0.41421356237303181
10
-109.68189313162144
20
32.582907341140498
10
-109.62844989007317
20
32.279815656966463
10
-108.5320774062083
20
32.473135706778216
42
-0.41421356237306262
10
-107.95284944086875
20
32.067555919105551
10
-107.4717186076056
20
29.338927371562981
42
-0.41421356237312457
10
-107.87729839527826
20
28.759699406223405
10
-108.96901101415681
20
28.56720101633524
10
-108.89503473458491
20
28.147660686916765
42
-0.41421356237308843
10
-111.32851346062077
20
24.672292894879355
10
-121.02799396197381
20
22.962012783635082
42
-0.41421356237306939
10
-121.60722192731343
20
23.367592571307743
10
-121.66088341035278
20
23.671921964482525
10
-122.75605201526021
20
23.478814191012432
42
-0.41421356237309803
10
-123.33527998059979
20
23.884393978685114
10
-123.81723730088595
20
26.617709767055729
42
-0.41421356237311069
10
-123.41165751321326
20
27.196937732395288
10
-122.32399949793555
20
27.38872118627258
0
LWPOLYLINE
5
102
100
AcDbEntity
8
0
100
AcDbPolyline
90
24
70
1
43
0.0
10
-129.11508507911162
20
65.902881378264141
42
-0.41421356237304713
10
-128.709505291439
20
66.482109343603724
10
-122.48929976767408
20
67.578899402995276
42
0.41421356237310192
10
-121.88093008616508
20
68.447741351004652
10
-121.99583184724042
20
69.099381619633107
42
-0.41421356237309509
10
-121.59025205956775
20
69.678609584972691
10
-116.87711666607112
20
70.509662518578239
42
-0.41421356237307366
10
-116.29788870073151
20
70.10408273090556
10
-116.24444545918324
20
69.800991046731497
10
-115.14807297531834
20
69.994311096543271
42
-0.41421356237308232
10
-114.56884500997879
20
69.588731308870621
10
-114.08771417671572
20
66.860102761328022
42
-0.41421356237314444
10
-114.49329396438836
20
66.280874795988453
10
-115.58500658326687
20
66.088376406100252
10
-115.51103030369507
20
65.668836076681799
42
-0.41421356237308893
10
-117.94450902973088
20
62.193468284644418
10
-127.64398953108389
20
60.483188173400137
42
-0.41421356237305312
10
-128.22321749642353
20
60.888767961072787
10
-128.27687897946288
20
61.193097354247584
10
-129.37204758437031
20
60.999989580777552
42
-0.41421356237310536
10
-129.95127554970986
20
61.405569368450173
10
-130.43323286999598
20
64.138885156820763
42
-0.4142135623731481
10
-130.02765308232333
20
64.718113122160332
10
-128.93999506704563
20
64.90989657603761
0
LWPOLYLINE
5
103
100
AcDbEntity
8
0
100
AcDbPolyline
90
24
70
1
43
0.0
10
-83.746564193970713
20
27.961727622536788
42
-0.41421356237302959
10
-83.340984406298105
20
28.540955587876354
10
-77.120778882533145
20
29.637745647267902
42
0.41421356237308993
10
-76.512409201024184
20
30.506587595277281
10
-76.627310962099472
20
31.158227863905751
42
-0.41421356237306206
10
-76.221731174426836
20
31.737455829245313
10
-71.50859578093015
20
32.568508762850769
42
-0.41421356237305834
10
-70.929367815590609
20
32.162928975178168
10
-70.875924574042344
20
31.859837291004119
10
-69.779552090177447
20
32.053157340815915
42
-0.41421356237307155
10
-69.200324124837849
20
31.647577553143208
10
-68.719193291574783
20
28.918949005600613
42
-0.41421356237309975
10
-69.124773079247433
20
28.339721040261061
10
-70.21648569812595
20
28.147222650372878
10
-70.142509418554141
20
27.727682320954393
42
-0.41421356237308793
10
-72.575988144589985
20
24.252314528917012
10
-82.275468645942993
20
22.542034417672745
42
-0.41421356237306289
10
-82.85469661128262
20
22.947614205345399
10
-82.908358094321969
20
23.251943598520178
10
-84.003526699229397
20
23.058835825050117
42
-0.41421356237309803
10
-84.582754664568981
20
23.464415612722803
10
-85.064711984855109
20
26.19773140109341
42
-0.41421356237313178
10
-84.659132197182444
20
26.776959366432941
10
-83.571474181904733
20
26.968742820310233
0
LWPOLYLINE
5
104
100
AcDbEntity
8
0
100
AcDbPolyline
90
24
70
1
43
0.0
10
-64.157194048850542
20
26.589740143736186
42
-0.41421356237306856
10
-63.751614261177949
20
27.168968109075742
10
-57.531408737413031
20
28.265758168467293
42
0.41421356237309676
10
-56.923039055904056
20
29.134600116476676
10
-57.037940816979358
20
29.786240385105142
42
-0.41421356237309248
10
-56.632361029306715
20
30.365468350444704
10
-51.919225635810051
20
31.196521284050203
42
-0.41421356237304019
10
-51.339997670470481
20
30.790941496377577
10
-51.286554428922216
20
30.487849812203507
10
-50.190181945057319
20
30.681169862015317
42
-0.41421356237307227
10
-49.610953979717721
20
30.27559007434261
10
-49.129823146454676
20
27.546961526800025
42
-0.41421356237309986
10
-49.535402934127298
20
26.967733561460467
10
-50.627115553005837
20
26.775235171572266
10
-50.55313927343402
20
26.355694842153781
42
-0.41421356237308571
10
-52.98661799946985
20
22.880327050116421
10
-62.686098500822879
20
21.170046938872193
42
-0.4142135623730574
10
-63.265326466162477
20
21.575626726544805
10
-63.318987949201848
20
21.879956119719587
10
-64.414156554109283
20
21.686848346249569
42
-0.41421356237310164
10
-64.993384519448824
20
22.092428133922194
10
-65.475341839734952
20
24.825743922292801
42
-0.41421356237312668
10
-65.069762052062302
20
25.40497188763235
10
-63.982104036784591
20
25.596755341509621
0
LWPOLYLINE
5
105
100
AcDbEntity
8
0
100
AcDbPolyline
90
24
70
1
43
0.0
10
-62.230969418118434
20
70.438717801318276
42
-0.41421356237307883
10
-61.825389630445784
20
71.017945766657846
10
-55.605184106680881
20
72.114735826049412
42
0.41421356237309853
10
-54.996814425171898
20
72.983577774058801
10
-55.111716186247207
20
73.635218042687271
42
-0.41421356237307
10
-54.70613639857455
20
74.214446008026826
10
-49.993001005077915
20
75.045498941632317
42
-0.41421356237304713
10
-49.413773039738317
20
74.639919153959681
10
-49.360329798190072
20
74.336827469785604
10
-48.263957314325168
20
74.530147519597406
42
-0.41421356237308504
10
-47.684729348985577
20
74.124567731924728
10
-47.20359851572249
20
71.395939184382144
42
-0.41421356237310536
10
-47.609178303395154
20
70.816711219042546
10
-48.700890922273686
20
70.624212829154388
10
-48.626914642701863
20
70.204672499735906
42
-0.41421356237308676
10
-51.060393368737714
20
66.729304707698532
10
-60.759873870090715
20
65.019024596454301
42
-0.41421356237308482
10
-61.339101835430334
20
65.424604384126908
10
-61.392763318469683
20
65.728933777301705
10
-62.487931923377154
20
65.535826003831687
42
-0.41421356237307971
10
-63.06715988871666
20
65.941405791504309
10
-63.549117209002802
20
68.674721579874898
42
-0.41421356237311729
10
-63.143537421330151
20
69.253949545214454
10
-62.055879406052448
20
69.445732999091732
0
LWPOLYLINE
5
106
100
AcDbEntity
8
0
100
AcDbPolyline
90
24
70
1
43
0.0
10
-30.79313729722724
20
56.660146633728168
42
-0.41421356237305268
10
-30.3875575095546
20
57.239374599067752
10
-24.167351985789651
20
58.336164658459296
42
0.41421356237309509
10
-23.558982304280711
20
59.205006606468629
10
-23.673884065355981
20
59.856646875097098
42
-0.41421356237310269
10
-23.268304277683328
20
60.435874840436682
10
-18.555168884186681
20
61.266927774042202
42
-0.41421356237304169
10
-17.975940918847112
20
60.861347986369537
10
-17.922497677298864
20
60.558256302195481
10
-16.826125193433921
20
60.751576352007241
42
-0.41421356237306461
10
-16.246897228094369
20
60.345996564334584
10
-15.765766394831262
20
57.617368016792021
42
-0.41421356237308632
10
-16.171346182503928
20
57.038140051452437
10
-17.263058801382481
20
56.845641661564258
10
-17.189082521810661
20
56.426101332145748
42
-0.41421356237308427
10
-19.622561247846498
20
52.950733540108388
10
-29.32204174919951
20
51.240453428864157
42
-0.41421356237305151
10
-29.901269714539129
20
51.646033216536793
10
-29.95493119757846
20
51.950362609711576
10
-31.050099802485924
20
51.75725483624155
42
-0.41421356237308693
10
-31.629327767825473
20
52.162834623914165
10
-32.111285088111615
20
54.89615041228479
42
-0.41421356237311557
10
-31.705705300438943
20
55.475378377624352
10
-30.618047285161243
20
55.66716183150163
0
LWPOLYLINE
5
107
100
AcDbEntity
8
0
100
AcDbPolyline
90
24
70
1
43
0.0
10
12.090370738807339
20
93.800721152764652
42
-0.4142135623730433
10
12.79478676521008
20
93.862349569480898
10
17.633247735854948
20
89.802398753547052
42
0.41421356237308665
10
18.689871775459132
20
89.894841378621365
10
19.115199753804131
20
90.40172752484483
42
-0.41421356237311102
10
19.819615780206899
20
90.463355941561076
10
23.485784295647868
20
87.387075292420931
42
-0.41421356237303042
10
23.547412712364082
20
86.682659266018121
10
23.349583665435674
20
86.446895788621688
10
24.20241006356704
20
85.731289472491426
42
-0.41421356237303775
10
24.264038480283272
20
85.0268734460887
10
22.483052682362125
20
82.904377223056954
42
-0.41421356237309853
10
21.778636655959364
20
82.842748806340737
10
20.929434989322612
20
83.555313611610728
10
20.655599487226777
20
83.228969168208152
42
-0.41421356237308593
10
16.429103328810289
20
82.859198667910832
10
8.8842468667488532
20
89.19008494251203
42
-0.4142135623730594
10
8.8226184500325608
20
89.894500968914855
10
9.021255354136791
20
90.131227213002845
10
8.169365407594789
20
90.846047752949843
42
-0.41421356237306783
10
8.107736990878605
20
91.550463779352583
10
9.8917821679716393
20
93.6766060285035
42
-0.41421356237314644
10
10.596198194374377
20
93.738234445219675
10
11.442245939296001
20
93.028316094497598
0
LWPOLYLINE
5
108
100
AcDbEntity
8
0
100
AcDbPolyline
90
24
70
1
43
0.0
10
55.428377782058043
20
47.436556489566122
42
-0.41421356237304202
10
56.007605747397648
20
47.842136277238787
10
62.227811271162579
20
46.74534621784715
42
0.41421356237308415
10
63.096653219171884
20
47.353715899356111
10
63.211554980247257
20
48.005356167984559
42
-0.41421356237307366
10
63.790782945586827
20
48.410935955657202
10
68.503918339083512
20
47.579883022051774
42
-0.41421356237304113
10
68.909498126756134
20
47.000655056712176
10
68.856054885207897
20
46.697563372538141
10
69.952427369072808
20
46.50424332272641
42
-0.41421356237306856
10
70.358007156745444
20
45.925015357386805
10
69.876876323482321
20
43.196386809844228
42
-0.4142135623731002
10
69.297648358142723
20
42.790807022171613
10
68.205935739264206
20
42.983305412059792
10
68.131959459692425
20
42.563765082641268
42
-0.41421356237307805
10
64.656591667655078
20
40.130286356605502
10
54.957111166301999
20
41.840566467849698
42
-0.41421356237306761
10
54.551531378629299
20
42.419794433189281
10
54.605192861668634
20
42.724123826364064
10
53.510024256761213
20
42.917231599834082
42
-0.41421356237309509
10
53.104444469088605
20
43.496459565173666
10
53.586401789374811
20
46.229775353544255
42
-0.41421356237309681
10
54.165629754714416
20
46.635355141216863
10
55.253287769992092
20
46.443571687339585
0
LWPOLYLINE
5
109
100
AcDbEntity
8
0
100
AcDbPolyline
90
24
70
1
43
0.0
10
71.738705211205925
20
30.034059317660535
42
-0.41421356237307155
10
72.317933176545438
20
30.439639105333171
10
78.538138700310327
20
29.34284904594157
42
0.41421356237310192
10
79.406980648319688
20
29.951218727450552
10
79.521882409395033
20
30.602858996078997
42
-0.41421356237308887
10
80.101110374734617
20
31.008438783751625
10
84.814245768231288
20
30.17738585014618
42
-0.4142135623730524
10
85.21982555590391
20
29.598157884806632
10
85.166382314355673
20
29.295066200632569
10
86.262754798220612
20
29.101746150820915
42
-0.41421356237306339
10
86.668334585893248
20
28.522518185481253
10
86.187203752630097
20
25.793889637938697
42
-0.41421356237308415
10
85.607975787290513
20
25.388309850266047
10
84.516263168411982
20
25.58080824015423
10
84.442286888840215
20
25.161267910735738
42
-0.41421356237308105
10
80.966919096802812
20
22.727789184699958
10
71.267438595449789
20
24.438069295944132
42
-0.41421356237306178
10
70.861858807777125
20
25.017297261283705
10
70.915520290816431
20
25.321626654458488
10
69.820351685909003
20
25.514734427928524
42
-0.41421356237308693
10
69.41477189823641
20
26.093962393268072
10
69.896729218522623
20
28.827278181638651
42
-0.41421356237315571
10
70.475957183862178
20
29.232857969311262
10
71.563615199139875
20
29.041074515433991
0
LWPOLYLINE
5
110
100
AcDbEntity
8
0
100
AcDbPolyline
90
24
70
1
43
0.0
10
12.061381010014268
20
21.244709944729578
42
-0.41421356237307261
10
12.640608975353869
20
21.650289732402221
10
18.860814499118778
20
20.55349967301062
42
0.41421356237310197
10
19.729656447128111
20
21.16186935451956
10
19.84455820820348
20
21.813509623148036
42
-0.41421356237309759
10
20.423786173543053
20
22.219089410820644
10
25.13692156703971
20
21.388036477215241
42
-0.41421356237305013
10
25.54250135471235
20
20.808808511875636
10
25.48905811316412
20
20.505716827701601
10
26.585430597029031
20
20.312396777889905
42
-0.41421356237308399
10
26.991010384701646
20
19.733168812550289
10
26.50987955143853
20
17.004540265007709
42
-0.41421356237308898
10
25.930651586098918
20
16.598960477335073
10
24.838938967220408
20
16.79145886722327
10
24.764962687648683
20
16.37191853780477
42
-0.41421356237308182
10
21.289594895611256
20
13.938439811768932
10
11.590114394258233
20
15.648719923013159
42
-0.4142135623730529
10
11.184534606585515
20
16.227947888352734
10
11.238196089624871
20
16.532277281527548
10
10.143027484717438
20
16.725385054997552
42
-0.41421356237310947
10
9.7374476970448214
20
17.304613020337129
10
10.219405017331065
20
20.03792880870769
42
-0.41421356237312829
10
10.798632982670615
20
20.44350859638028
10
11.886290997948308
20
20.251725142503023
0
LWPOLYLINE
5
111
100
AcDbEntity
8
0
100
AcDbPolyline
90
24
70
1
43
0.0
10
88.405667453421998
20
15.065017015697865
42
-0.41421356237307
10
88.98489541876161
20
15.470596803370508
10
95.205100942526514
20
14.373806743978871
42
0.41421356237310619
10
96.073942890535889
20
14.982176425487847
10
96.188844651611177
20
15.633816694116314
42
-0.41421356237307094
10
96.768072616950803
20
16.039396481788948
10
101.48120801044743
20
15.208343548183528
42
-0.41421356237310702
10
101.88678779812011
20
14.629115582843948
10
101.83334455657189
20
14.326023898669906
10
102.92971704043674
20
14.132703848858185
42
-0.41421356237309981
10
103.33529682810941
20
13.553475883518541
10
102.85416599484623
20
10.824847335975997
42
-0.41421356237310458
10
102.27493802950664
20
10.41926754830337
10
101.18322541062817
20
10.611765938191571
10
101.10924913105643
20
10.192225608773066
42
-0.41421356237308621
10
97.633881339018984
20
7.7587468827372641
10
87.934400837665947
20
9.4690269939814762
42
-0.41421356237309048
10
87.52882104999324
20
10.048254959321012
10
87.582482533032632
20
10.352584352495793
10
86.487313928125161
20
10.545692125965846
42
-0.41421356237313034
10
86.081734140452525
20
11.124920091305428
10
86.563691460738767
20
13.85823587967597
42
-0.41421356237312568
10
87.142919426078294
20
14.263815667348585
10
88.230577441356019
20
14.072032213471328
0
LWPOLYLINE
5
112
100
AcDbEntity
8
0
100
AcDbPolyline
90
24
70
1
43
0.0
10
95.021663022532024
20
52.586192405462953
42
-0.4142135623730574
10
95.600890987871651
20
52.991772193135589
10
101.82109651163654
20
51.894982133743966
42
0.4142135623730665
10
102.68993845964586
20
52.503351815252877
10
102.80484022072119
20
53.154992083881361
42
-0.41421356237312695
10
103.38406818606083
20
53.560571871554011
10
108.09720357955747
20
52.729518937948569
42
-0.4142135623730453
10
108.50278336723008
20
52.150290972609014
10
108.44934012568186
20
51.84719928843495
10
109.54571260954673
20
51.653879238623247
42
-0.41421356237311552
10
109.9512923972194
20
51.074651273283649
10
109.47016156395634
20
48.346022725741037
42
-0.41421356237312162
10
108.89093359861668
20
47.940442938068429
10
107.79922097973812
20
48.132941327956615
10
107.72524470016641
20
47.713400998538091
42
-0.41421356237308571
10
104.24987690812898
20
45.279922272502304
10
94.550396406775974
20
46.990202383746521
42
-0.41421356237300527
10
94.14481661910331
20
47.569430349086076
10
94.19847810214263
20
47.873759742260873
10
93.103309497235159
20
48.06686751573092
42
-0.41421356237313961
10
92.697729709562552
20
48.646095481070475
10
93.179687029848779
20
51.379411269441071
42
-0.41421356237310536
10
93.758914995188348
20
51.784991057113679
10
94.846573010466088
20
51.593207603236408
0
LWPOLYLINE
5
113
100
AcDbEntity
8
0
100
AcDbPolyline
90
24
70
1
43
0.0
10
117.11058154341684
20
68.051433598143689
42
-0.41421356237308482
10
117.68980950875647
20
68.457013385816325
10
123.91001503252139
20
67.360223326424688
42
0.41421356237308143
10
124.77885698053075
20
67.968593007933677
10
124.89375874160609
20
68.620233276562161
42
-0.41421356237305923
10
125.47298670694562
20
69.025813064234768
10
130.18612210044228
20
68.194760130629319
42
-0.41421356237307788
10
130.59170188811495
20
67.615532165289778
10
130.53825864656667
20
67.312440481115715
10
131.63463113043159
20
67.119120431303955
42
-0.41421356237308571
10
132.04021091810424
20
66.539892465964385
10
131.5590800848411
20
63.811263918421844
42
-0.41421356237311913
10
130.97985211950154
20
63.405684130749194
10
129.88813950062297
20
63.598182520637359
10
129.81416322105127
20
63.178642191218877
42
-0.41421356237308976
10
126.33879542901386
20
60.745163465183097
10
116.63931492766079
20
62.455443576427285
42
-0.41421356237306856
10
116.23373513998811
20
63.034671541766855
10
116.28739662302746
20
63.339000934941637
10
115.19222801811999
20
63.532108708411769
42
-0.41421356237310164
10
114.78664823044741
20
64.111336673751239
10
115.26860555073357
20
66.844652462121815
42
-0.41421356237312401
10
115.84783351607314
20
67.250232249794436
10
116.93549153135083
20
67.05844879591713
0
LWPOLYLINE
5
114
100
AcDbEntity
8
0
100
AcDbPolyline
90
24
70
1
43
0.0
10
110.49458597430683
20
30.530258208378655
42
-0.41421356237307155
10
111.07381393964641
20
30.935837996051298
10
117.2940194634113
20
29.839047936659643
42
0.41421356237310358
10
118.16286141142075
20
30.447417618168615
10
118.27776317249607
20
31.099057886797095
42
-0.41421356237309381
10
118.85699113783562
20
31.504637674469723
10
123.57012653133228
20
30.673584740864243
42
-0.41421356237303181
10
123.9757063190049
20
30.094356775524712
10
123.92226307745671
20
29.791265091350642
10
125.01863556132159
20
29.597945041538885
42
-0.41421356237306861
10
125.42421534899421
20
29.018717076199323
10
124.94308451573112
20
26.290088528656742
42
-0.41421356237314672
10
124.36385655039146
20
25.884508740984138
10
123.27214393151294
20
26.077007130872303
10
123.19816765194118
20
25.657466801453808
42
-0.41421356237308748
10
119.72279985990376
20
23.223988075418028
10
110.02331935855071
20
24.934268186662255
42
-0.41421356237313017
10
109.617739570878
20
25.513496152001835
10
109.67140105391735
20
25.817825545176582
10
108.57623244900994
20
26.010933318646622
42
-0.4142135623730524
10
108.17065266133737
20
26.590161283986152
10
108.65260998162348
20
29.323477072356773
42
-0.41421356237314744
10
109.23183794696314
20
29.729056860029374
10
110.31949596224084
20
29.537273406152117
0
LWPOLYLINE
5
115
100
AcDbEntity
8
0
100
AcDbPolyline
90
24
70
1
43
0.0
10
68.430707426650883
20
11.273471622778038
42
-0.41421356237306173
10
69.009935391990453
20
11.679051410450683
10
75.230140915755328
20
10.582261351059048
42
0.41421356237310675
10
76.098982863764718
20
11.190631032568024
10
76.21388462484002
20
11.84227130119648
42
-0.41421356237311913
10
76.793112590179618
20
12.247851088869126
10
81.506247983676246
20
11.416798155263713
42
-0.41421356237301998
10
81.911827771348925
20
10.837570189924126
10
81.858384529800659
20
10.534478505750082
10
82.954757013665571
20
10.34115845593837
42
-0.41421356237307883
10
83.360336801338235
20
9.7619304905987665
10
82.879205968075027
20
7.0333019430562
42
-0.41421356237311141
10
82.2999780027355
20
6.6277221553835446
10
81.20826538385694
20
6.8202205452717095
10
81.134289104285273
20
6.4006802158532388
42
-0.41421356237308393
10
77.658921312247813
20
3.9672014898174019
10
67.95944081089479
20
5.6774816010616167
42
-0.41421356237303408
10
67.553861023222069
20
6.2567095664011463
10
67.607522506261461
20
6.5610389595759679
10
66.512353901354004
20
6.7541467330460403
42
-0.41421356237309714
10
66.106774113681396
20
7.3333746983855717
10
66.588731433967595
20
10.066690486756155
42
-0.41421356237312734
10
67.167959399307165
20
10.472270274428761
10
68.255617414584876
20
10.280486820551504
0
LWPOLYLINE
5
116
100
AcDbEntity
8
0
100
AcDbPolyline
90
24
70
1
43
0.0
10
15.369378794569329
20
40.005297639612053
10
15.194288782503314
20
39.012312837385522
10
14.106630767225612
20
39.2040962912628
42
0.41421356237311169
10
13.527402801886048
20
38.798516503590172
10
13.045445481599804
20
36.065200715219589
42
0.41421356237310814
10
13.451025269272456
20
35.485972749880013
10
14.546193874179892
20
35.292864976409994
10
14.492532391140545
20
34.988535583235233
42
0.4142135623730559
10
14.898112178813241
20
34.409307617895664
10
24.597592680166237
20
32.699027506651447
42
0.4142135623730917
10
28.07296047220359
20
35.132506232687298
10
28.146936751775399
20
35.552046562105765
10
29.238649370653942
20
35.359548172217565
42
0.41421356237312107
10
29.817877335993504
20
35.765127959890194
10
30.299008169256624
20
38.493756507432778
42
0.41421356237305523
10
29.893428381584009
20
39.07298447277234
10
28.797055897719108
20
39.266304522584093
10
28.850499139267356
20
39.56939620675815
42
0.4142135623730252
10
28.444919351594699
20
40.148624172097733
10
23.731783958098049
20
40.979677105703153
42
0.41421356237308149
10
23.152555992758437
20
40.574097318030525
10
23.037654231683202
20
39.922457049402048
42
-0.41421356237308105
10
22.168812283673802
20
39.314087367893066
10
15.948606759908854
20
40.410877427284682
42
0.41421356237304924
0
LWPOLYLINE
5
117
100
AcDbEntity
8
0
100
AcDbPolyline
90
24
70
1
43
0.0
10
75.046702995760882
20
48.794647012543095
42
-0.41421356237304713
10
75.625930961100465
20
49.200226800215738
10
81.84613648486534
20
48.103436740824101
42
0.41421356237308826
10
82.714978432874702
20
48.711806422333048
10
82.829880193950046
20
49.363446690961524
42
-0.41421356237311646
10
83.40910815928963
20
49.76902647863416
10
88.122243552786315
20
48.937973545028782
42
-0.41421356237303597
10
88.527823340458966
20
48.35874557968917
10
88.474380098910672
20
48.0556538955151
10
89.570752582775583
20
47.862333845703411
42
-0.41421356237306406
10
89.976332370448233
20
47.283105880363806
10
89.49520153718511
20
44.554477332821207
42
-0.41421356237307633
10
88.915973571845527
20
44.1488975451486
10
87.824260952966995
20
44.341395935036765
10
87.750284673395214
20
43.921855605618276
42
-0.41421356237308415
10
84.274916881357825
20
41.488376879582489
10
74.575436380004803
20
43.198656990826663
42
-0.41421356237307461
10
74.16985659233211
20
43.77788495616624
10
74.22351807537143
20
44.082214349341001
10
73.128349470464002
20
44.275322122811041
42
-0.41421356237310536
10
72.72276968279138
20
44.854550088150603
10
73.204727003077622
20
47.587865876521171
42
-0.41421356237313267
10
73.783954968417163
20
47.993445664193814
10
74.871612983694874
20
47.801662210316557
0
LWPOLYLINE
5
118
100
AcDbEntity
8
0
100
AcDbPolyline
90
24
70
1
43
0.0
10
37.057175385139615
20
53.088162756845506
42
-0.41421356237308177
10
37.636403350479178
20
53.493742544518156
10
43.856608874244081
20
52.396952485126562
42
0.41421356237309509
10
44.725450822253364
20
53.005322166635494
10
44.840352583328723
20
53.656962435263964
42
-0.41421356237306073
10
45.419580548668328
20
54.062542222936607
10
50.132715942165021
20
53.231489289331151
42
-0.41421356237307366
10
50.538295729837664
20
52.652261323991574
10
50.484852488289391
20
52.349169639817539
10
51.581224972154303
20
52.155849590005872
42
-0.41421356237308993
10
51.986804759826981
20
51.57662162466621
10
51.505673926563816
20
48.84799307712364
42
-0.41421356237307971
10
50.926445961224225
20
48.442413289451025
10
49.834733342345729
20
48.63491167933919
10
49.760757062773912
20
48.215371349920702
42
-0.4142135623730881
10
46.285389270736523
20
45.781892623884929
10
36.585908769383494
20
47.49217273512906
42
-0.41421356237304752
10
36.180328981710808
20
48.071400700468672
10
36.233990464750178
20
48.375730093643455
10
35.13882185984275
20
48.568837867113487
42
-0.41421356237308177
10
34.733242072170114
20
49.148065832453042
10
35.215199392456363
20
51.881381620823632
42
-0.41421356237312651
10
35.794427357795911
20
52.286961408496268
10
36.882085373073615
20
52.095177954618975
0
LWPOLYLINE
5
119
100
AcDbEntity
8
0
100
AcDbPolyline
90
24
70
1
43
0.0
10
-40.864787484681464
20
75.48732092317816
42
-0.4142135623730438
10
-40.6229427220335
20
76.151783947566813
10
-34.898555717652698
20
78.821109445952516
42
0.41421356237310436
10
-34.535788573680726
20
79.817803982535551
10
-34.815432064266219
20
80.417501383371615
42
-0.41421356237309165
10
-34.573587301618232
20
81.081964407760324
10
-30.236140428948172
20
83.104549101326839
42
-0.41421356237307627
10
-29.571677404559466
20
82.862704338678853
10
-29.441609297030968
20
82.583772381946403
10
-28.432629710324626
20
83.054267290149681
42
-0.41421356237308243
10
-27.768166685935903
20
82.812422527501639
10
-26.597208953148677
20
80.301295565915183
42
-0.41421356237309026
10
-26.839053715796656
20
79.636832541526488
10
-27.843744879802472
20
79.168337357669884
10
-27.663704253389227
20
78.782238988353797
42
-0.41421356237308748
10
-29.114772829277054
20
74.795460842021811
10
-38.041098481871146
20
70.633046831031777
42
-0.41421356237306645
10
-38.705561506259798
20
70.874891593679692
10
-38.836160761542615
20
71.154962600447078
10
-39.844032431632321
20
70.684984322246805
42
-0.41421356237312523
10
-40.508495456020974
20
70.926829084894777
10
-41.681464661164142
20
73.442269662868952
42
-0.41421356237313461
10
-41.439619898516142
20
74.106732687257619
10
-40.438660141788063
20
74.573487887324873
0
LWPOLYLINE
5
120
100
AcDbEntity
8
0
100
AcDbPolyline
90
24
70
1
43
0.0
10
-49.143856295295933
20
50.971612059912871
42
-0.41421356237305312
10
-48.738276507623297
20
51.550840025252434
10
-42.518070983858351
20
52.647630084643986
42
0.41421356237308826
10
-41.909701302349383
20
53.516472032653326
10
-42.024603063424671
20
54.168112301281823
42
-0.4142135623731128
10
-41.619023275751999
20
54.7473402666214
10
-36.905887882255364
20
55.578393200226934
42
-0.41421356237304457
10
-36.326659916915794
20
55.17281341255427
10
-36.273216675367543
20
54.86972172838022
10
-35.176844191502646
20
55.063041778192002
42
-0.41421356237306578
10
-34.597616226163048
20
54.657461990519323
10
-34.116485392899975
20
51.92883344297671
42
-0.41421356237308837
10
-34.522065180572625
20
51.349605477637155
10
-35.613777799451164
20
51.157107087748976
10
-35.53980151987934
20
50.737566758330473
42
-0.41421356237308482
10
-37.973280245915163
20
47.262198966293113
10
-47.672760747268214
20
45.551918855048889
42
-0.41421356237306339
10
-48.251988712607812
20
45.95749864272149
10
-48.305650195647161
20
46.261828035896272
10
-49.400818800554632
20
46.068720262426275
42
-0.41421356237311041
10
-49.980046765894159
20
46.474300050098876
10
-50.462004086180272
20
49.207615838469501
42
-0.41421356237312068
10
-50.05642429850765
20
49.786843803809049
10
-48.968766283229925
20
49.978627257686341
0
LWPOLYLINE
5
121
100
AcDbEntity
8
0
100
AcDbPolyline
90
24
70
1
43
0.0
10
-42.527860726185871
20
13.450436670147784
42
-0.41421356237307261
10
-42.122280938513235
20
14.029664635487368
10
-35.902075414748303
20
15.126454694878916
42
0.41421356237310231
10
-35.293705733239349
20
15.99529664288829
10
-35.40860749431463
20
16.646936911516747
42
-0.4142135623730831
10
-35.003027706641966
20
17.22616487685633
10
-30.289892313145323
20
18.057217810461857
42
-0.41421356237306323
10
-29.710664347805729
20
17.651638022789186
10
-29.657221106257481
20
17.348546338615151
10
-28.560848622392577
20
17.541866388426904
42
-0.41421356237306456
10
-27.981620657052989
20
17.136286600754239
10
-27.500489823789938
20
14.407658053211648
42
-0.41421356237309881
10
-27.906069611462566
20
13.828430087872071
10
-28.997782230341102
20
13.63593169798391
10
-28.923805950769239
20
13.216391368565434
42
-0.41421356237308327
10
-31.357284676805097
20
9.7410235765280291
10
-41.056765178158166
20
8.0307434652838161
42
-0.41421356237306189
10
-41.63599314349775
20
8.4363232529564147
10
-41.689654626537099
20
8.7406526461311991
10
-42.784823231444562
20
8.547544872661204
42
-0.41421356237309775
10
-43.364051196784111
20
8.9531246603338204
10
-43.846008517070203
20
11.686440448704419
42
-0.41421356237310658
10
-43.440428729397588
20
12.265668414043958
10
-42.352770714119863
20
12.45745186792125
0
LWPOLYLINE
5
122
100
AcDbEntity
8
0
100
AcDbPolyline
90
24
70
1
43
0.0
10
-87.054561978525768
20
46.72231531741933
42
-0.41421356237308993
10
-86.648982190853104
20
47.301543282758928
10
-80.428776667088187
20
48.398333342150472
42
0.41421356237308482
10
-79.820406985579268
20
49.267175290159798
10
-79.935308746654513
20
49.918815558788275
42
-0.41421356237304618
10
-79.529728958981877
20
50.498043524127844
10
-74.816593565485192
20
51.32909645773335
42
-0.41421356237306428
10
-74.237365600145637
20
50.9235166700607
10
-74.183922358597385
20
50.620424985886665
10
-73.087549874732474
20
50.81374503569841
42
-0.41421356237308482
10
-72.50832190939289
20
50.408165248025753
10
-72.027191076129796
20
47.679536700483169
42
-0.41421356237308965
10
-72.43277086380246
20
47.100308735143614
10
-73.524483482680978
20
46.907810345255427
10
-73.450507203109154
20
46.488270015836932
42
-0.41421356237307894
10
-75.883985929144956
20
43.012902223799557
10
-85.583466430498035
20
41.302622112555312
42
-0.4142135623730559
10
-86.162694395837661
20
41.708201900227962
10
-86.21635587887701
20
42.012531293402745
10
-87.311524483784439
20
41.819423519932712
42
-0.41421356237309509
10
-87.89075244912398
20
42.225003307605355
10
-88.372709769410108
20
44.958319095975966
42
-0.4142135623731481
10
-87.967129981737443
20
45.537547061315529
10
-86.879471966459732
20
45.7293305151928
0
LWPOLYLINE
5
123
100
AcDbEntity
8
0
100
AcDbPolyline
90
24
70
1
43
0.0
10
-125.80708729455662
20
47.142293683381624
42
-0.41421356237308993
10
-125.40150750688396
20
47.721521648721215
10
-119.18130198311901
20
48.81831170811278
42
0.41421356237308826
10
-118.57293230161008
20
49.687153656122121
10
-118.68783406268534
20
50.33879392475059
42
-0.41421356237309509
10
-118.28225427501272
20
50.918021890090159
10
-113.56911888151608
20
51.749074823695707
42
-0.41421356237305162
10
-112.98989091617644
20
51.343495036023029
10
-112.93644767462821
20
51.040403351848994
10
-111.84007519076329
20
51.233723401660725
42
-0.41421356237306761
10
-111.26084722542372
20
50.82814361398809
10
-110.77971639216061
20
48.099515066445505
42
-0.41421356237311552
10
-111.18529617983329
20
47.520287101105922
10
-112.27700879871185
20
47.32778871121775
10
-112.20303251914001
20
46.908248381799254
42
-0.4142135623730881
10
-114.63651124517584
20
43.432880589761886
10
-124.33599174652889
20
41.72260047851762
42
-0.4142135623730559
10
-124.9152197118685
20
42.12818026619027
10
-124.96888119490785
20
42.432509659365053
10
-126.06404979981525
20
42.23940188589502
42
-0.41421356237310536
10
-126.64327776515479
20
42.644981673567642
10
-127.12523508544089
20
45.378297461938281
42
-0.4142135623731652
10
-126.71965529776826
20
45.957525427277815
10
-125.63199728249054
20
46.149308881155108
0
LWPOLYLINE
5
124
100
AcDbEntity
8
0
100
AcDbPolyline
90
24
70
1
43
0.0
10
-119.19109172544654
20
9.6211182936166022
42
-0.41421356237311041
10
-118.78551193777389
20
10.200346258956188
10
-112.56530641400894
20
11.297136318347754
42
0.41421356237310619
10
-111.9569367325
20
12.165978266357087
10
-112.07183849357526
20
12.817618534985591
42
-0.41421356237309115
10
-111.66625870590261
20
13.396846500325132
10
-106.95312331240599
20
14.227899433930705
42
-0.41421356237303525
10
-106.37389534706641
20
13.822319646258006
10
-106.32045210551814
20
13.519227962083971
10
-105.22407962165323
20
13.712548011895754
42
-0.41421356237308488
10
-104.64485165631368
20
13.306968224223057
10
-104.16372082305058
20
10.578339676680475
42
-0.41421356237311235
10
-104.56930061072326
20
9.9991117113408912
10
-105.66101322960178
20
9.8066133214527262
10
-105.58703695002997
20
9.3870729920342448
42
-0.41421356237308077
10
-108.02051567606577
20
5.9117051999968417
10
-117.71999617741878
20
4.2014250887526199
42
-0.41421356237306178
10
-118.29922414275843
20
4.6070048764252487
10
-118.35288562579778
20
4.911334269600065
10
-119.44805423070521
20
4.7182264961300096
42
-0.41421356237309731
10
-120.02728219604477
20
5.1238062838026543
10
-120.50923951633082
20
7.8571220721732358
42
-0.41421356237312795
10
-120.10365972865824
20
8.4363500375127742
10
-119.01600171338052
20
8.6281334913900665
0
LWPOLYLINE
5
125
100
AcDbEntity
8
0
100
AcDbPolyline
90
24
70
1
43
0.0
10
-103.76115381947287
20
31.653951744842374
42
-0.41421356237303125
10
-103.35557403180024
20
32.233179710181957
10
-97.13536850803527
20
33.329969769573481
42
0.41421356237308482
10
-96.526998826526281
20
34.198811717582871
10
-96.641900587601612
20
34.850451986211361
42
-0.41421356237309165
10
-96.236320799928961
20
35.429679951550895
10
-91.523185406432248
20
36.260732885156408
42
-0.41421356237302576
10
-90.943957441092749
20
35.855153097483765
10
-90.890514199544469
20
35.552061413309715
10
-89.794141715679601
20
35.745381463121518
42
-0.41421356237305917
10
-89.214913750339974
20
35.339801675448804
10
-88.733782917076894
20
32.61117312790622
42
-0.41421356237308649
10
-89.139362704749558
20
32.031945162566643
10
-90.231075323628076
20
31.839446772678475
10
-90.157099044056309
20
31.419906443259983
42
-0.41421356237308204
10
-92.590577770092096
20
27.944538651222629
10
-102.29005827144512
20
26.234258539978338
42
-0.4142135623730423
10
-102.86928623678476
20
26.63983832765101
10
-102.92294771982411
20
26.944167720825781
10
-104.01811632473154
20
26.751059947355724
42
-0.41421356237309803
10
-104.59734429007112
20
27.156639735028406
10
-105.07930161035725
20
29.889955523398992
42
-0.41421356237312079
10
-104.67372182268457
20
30.46918348873854
10
-103.58606380740687
20
30.660966942615833
0
LWPOLYLINE
5
126
100
AcDbEntity
8
0
100
AcDbPolyline
90
24
70
1
43
0.0
10
-110.37714938858288
20
69.175127134607479
42
-0.41421356237301726
10
-109.97156960091027
20
69.754355099947048
10
-103.75136407714534
20
70.851145159338586
42
0.41421356237309853
10
-103.14299439563632
20
71.719987107347961
10
-103.25789615671164
20
72.371627375976459
42
-0.41421356237310258
10
-102.852316369039
20
72.950855341315986
10
-98.139180975542331
20
73.78190827492152
42
-0.41421356237304802
10
-97.559953010202761
20
73.37632848724887
10
-97.506509768654496
20
73.073236803074806
10
-96.410137284789599
20
73.266556852886623
42
-0.41421356237309681
10
-95.830909319450001
20
72.860977065213902
10
-95.349778486186949
20
70.132348517671318
42
-0.41421356237311613
10
-95.755358273859613
20
69.553120552331734
10
-96.847070892738131
20
69.360622162443548
10
-96.773094613166322
20
68.941081833025081
42
-0.41421356237308521
10
-99.206573339202123
20
65.465714040987706
10
-108.90605384055516
20
63.75543392974344
42
-0.41421356237307305
10
-109.48528180589483
20
64.161013717416083
10
-109.53894328893418
20
64.465343110590879
10
-110.63411189384161
20
64.272235337120861
42
-0.41421356237310536
10
-111.21333985918115
20
64.677815124793483
10
-111.69529717946725
20
67.411130913164087
42
-0.4142135623731481
10
-111.28971739179461
20
67.990358878503642
10
-110.2020593765169
20
68.182142332380934
0
LWPOLYLINE
5
127
100
AcDbEntity
8
0
100
AcDbPolyline
90
24
70
1
43
0.0
10
-80.438566409415728
20
9.2011399276542178
42
-0.41421356237305973
10
-80.032986621743092
20
9.7803678929938016
10
-73.81278109797816
20
10.877157952385366
42
0.41421356237309759
10
-73.204411416469171
20
11.745999900394713
10
-73.319313177544501
20
12.397640169023196
42
-0.41421356237309404
10
-72.913733389871823
20
12.97686813436278
10
-68.200597996375166
20
13.807921067968241
42
-0.41421356237305701
10
-67.621370031035582
20
13.402341280295634
10
-67.567926789487302
20
13.0992495961216
10
-66.471554305622405
20
13.292569645933378
42
-0.4142135623730564
10
-65.892326340282807
20
12.886989858260691
10
-65.411195507019784
20
10.158361310718096
42
-0.41421356237309986
10
-65.816775294692434
20
9.5791333453785246
10
-66.908487913570951
20
9.3866349554903241
10
-66.834511633999114
20
8.9670946260718729
42
-0.41421356237308832
10
-69.267990360034943
20
5.491726834034476
10
-78.96747086138798
20
3.7814467227902204
42
-0.41421356237304768
10
-79.546698826727635
20
4.1870265104628483
10
-79.600360309766984
20
4.4913559036376638
10
-80.695528914674412
20
4.2982481301676581
42
-0.41421356237309509
10
-81.274756880013953
20
4.703827917840286
10
-81.756714200300109
20
7.4371437062108745
42
-0.41421356237310797
10
-81.351134412627403
20
8.0163716715504236
10
-80.26347639734972
20
8.2081551254276803
0
LWPOLYLINE
5
128
100
AcDbEntity
8
0
100
AcDbPolyline
90
24
70
1
43
0.0
10
-45.835858510740863
20
32.21102436503034
42
-0.41421356237306084
10
-45.430278723068263
20
32.790252330369881
10
-39.210073199303331
20
33.887042389761447
42
0.41421356237310902
10
-38.60170351779437
20
34.755884337770837
10
-38.716605278869636
20
35.407524606399299
42
-0.41421356237309404
10
-38.311025491197
20
35.986752571738876
10
-33.597890097700343
20
36.817805505344367
42
-0.41421356237305523
10
-33.018662132360781
20
36.412225717671731
10
-32.965218890812515
20
36.109134033497682
10
-31.868846406947618
20
36.302454083309478
42
-0.41421356237307833
10
-31.28961844160802
20
35.896874295636763
10
-30.808487608344976
20
33.168245748094172
42
-0.4142135623730917
10
-31.214067396017594
20
32.589017782754624
10
-32.305780014896129
20
32.396519392866438
10
-32.23180373532432
20
31.976979063447956
42
-0.41421356237308787
10
-34.665282461360142
20
28.501611271410574
10
-44.364762962713215
20
26.791331160166365
42
-0.41421356237305479
10
-44.943990928052777
20
27.196910947838944
10
-44.997652411092147
20
27.501240341013727
10
-46.09282101599959
20
27.308132567543709
42
-0.41421356237310092
10
-46.672048981339138
20
27.71371235521633
10
-47.154006301625259
20
30.447028143586955
42
-0.41421356237311041
10
-46.748426513952609
20
31.026256108926486
10
-45.660768498674891
20
31.21803956280376
0
LWPOLYLINE
5
129
100
AcDbEntity
8
0
100
AcDbPolyline
90
4
70
1
43
0.0
10
-12.992048107773307
20
60.128701135138378
10
-5.5830786802620436
20
60.128701135138378
10
-5.5830786802620436
20
65.834459200003366
10
-12.992048107773307
20
65.834459200003366
0
LWPOLYLINE
5
130
100
AcDbEntity
8
0
100
AcDbPolyline
90
24
70
1
43
0.0
10
-27.485139512672173
20
37.899558938845608
42
-0.41421356237305834
10
-27.079559724999562
20
38.478786904185171
10
-20.859354201234627
20
39.575576963576722
42
0.41421356237309676
10
-20.250984519725645
20
40.444418911586112
10
-20.365886280800957
20
41.096059180214588
42
-0.41421356237308649
10
-19.960306493128314
20
41.675287145554137
10
-15.247171099631656
20
42.506340079159628
42
-0.41421356237304813
10
-14.66794313429209
20
42.100760291486992
10
-14.614499892743824
20
41.797668607312943
10
-13.5181274088789
20
41.990988657124703
42
-0.41421356237305434
10
-12.938899443539331
20
41.585408869452046
10
-12.457768610276265
20
38.856780321909461
42
-0.41421356237310447
10
-12.86334839794889
20
38.277552356569878
10
-13.955061016827443
20
38.085053966681699
10
-13.881084737255623
20
37.66551363726321
42
-0.41421356237308626
10
-16.314563463291456
20
34.190145845225835
10
-26.014043964644493
20
32.479865733981619
42
-0.41421356237306511
10
-26.593271929984095
20
32.885445521654233
10
-26.646933413023461
20
33.189774914829016
10
-27.742102017930893
20
32.996667141358998
42
-0.41421356237309248
10
-28.321329983270438
20
33.402246929031605
10
-28.80328730355658
20
36.13556271740223
42
-0.41421356237311596
10
-28.397707515883912
20
36.714790682741778
10
-27.310049500606208
20
36.906574136619049
0
LWPOLYLINE
5
131
100
AcDbEntity
8
0
100
AcDbPolyline
90
24
70
1
43
0.0
10
29.732826637738722
20
80.687807489090915
42
-0.41421356237304963
10
30.397289662127349
20
80.929652251738872
10
36.121676666508108
20
78.260326753353155
42
0.41421356237309509
10
37.118371203091179
20
78.623093897325091
10
37.3980146936767
20
79.222791298161155
42
-0.41421356237312107
10
38.062477718065352
20
79.464636060809113
10
42.399924590735473
20
77.442051367242655
42
-0.4142135623730252
10
42.641769353383424
20
76.777588342854003
10
42.51170124585493
20
76.498656386121539
10
43.520680832561339
20
76.028161477918374
42
-0.414213562373067
10
43.762525595209297
20
75.363698453529594
10
42.591567862421954
20
72.852571491943166
42
-0.41421356237311269
10
41.927104838033259
20
72.61072672929518
10
40.922413674027467
20
73.079221913151741
10
40.742373047614237
20
72.693123543835611
42
-0.41421356237308965
10
36.755594901282244
20
71.242054967947794
10
27.829269248688178
20
75.404468978937757
42
-0.41421356237307633
10
27.587424486040113
20
76.068932003326481
10
27.718023741322941
20
76.349003010093895
10
26.710152071233274
20
76.818981288294154
42
-0.41421356237306234
10
26.468307308585317
20
77.483444312682806
10
27.641276513728556
20
79.998884890656981
42
-0.41421356237314977
10
28.30573953811723
20
80.240729653304925
10
29.306699294845281
20
79.77397445323767
0
LWPOLYLINE
5
132
100
AcDbEntity
8
0
100
AcDbPolyline
90
24
70
1
43
0.0
10
50.136181993048716
20
72.517420669718916
42
-0.41421356237304202
10
50.715409958388264
20
72.923000457391566
10
56.935615482153153
20
71.826210397999958
42
0.4142135623731093
10
57.804457430162557
20
72.434580079508919
10
57.919359191237866
20
73.086220348137374
42
-0.41421356237311213
10
58.498587156577464
20
73.491800135809996
10
63.211722550074114
20
72.660747202204576
42
-0.41421356237306339
10
63.617302337746757
20
72.081519236865006
10
63.563859096198513
20
71.778427552690957
10
64.660231580063439
20
71.585107502879282
42
-0.41421356237304713
10
65.06581136773606
20
71.005879537539613
10
64.584680534472895
20
68.277250989997086
42
-0.41421356237310042
10
64.005452569133311
20
67.871671202324421
10
62.913739950254801
20
68.064169592212608
10
62.839763670682991
20
67.644629262794155
42
-0.41421356237308954
10
59.364395878645624
20
65.211150536758325
10
49.66491537729263
20
66.92143064800247
42
-0.41421356237308121
10
49.259335589619901
20
67.500658613342083
10
49.312997072659272
20
67.804988006516865
10
48.217828467751829
20
67.998095779986897
42
-0.41421356237312756
10
47.812248680079207
20
68.577323745326467
10
48.294206000365428
20
71.310639533697028
42
-0.41421356237312756
10
48.873433965705004
20
71.716219321369636
10
49.961091980982715
20
71.524435867492357
0
LWPOLYLINE
5
133
100
AcDbEntity
8
0
100
AcDbPolyline
90
24
70
1
43
0.0
10
52.120379997503065
20
28.675968794683563
42
-0.41421356237305312
10
52.69960796284262
20
29.081548582356241
10
58.919813486607566
20
27.984758522964608
42
0.41421356237309193
10
59.788655434616942
20
28.593128204473576
10
59.903557195692237
20
29.244768473102035
42
-0.41421356237308393
10
60.482785161031821
20
29.650348260774678
10
65.195920554528499
20
28.819295327169169
42
-0.41421356237306511
10
65.60150034220112
20
28.240067361829656
10
65.548057100652883
20
27.936975677655603
10
66.644429584517795
20
27.743655627843911
42
-0.41421356237306645
10
67.050009372190431
20
27.16442766250427
10
66.568878538927294
20
24.435799114961696
42
-0.41421356237311491
10
65.98965057358771
20
24.030219327289064
10
64.897937954709207
20
24.222717717177265
10
64.823961675137411
20
23.803177387758758
42
-0.41421356237308316
10
61.348593883100023
20
21.369698661722957
10
51.649113381746986
20
23.079978772967117
42
-0.41421356237305834
10
51.243533594074286
20
23.659206738306725
10
51.297195077113635
20
23.963536131481508
10
50.2020264722062
20
24.156643904951505
42
-0.41421356237307511
10
49.796446684533564
20
24.735871870291128
10
50.278404004819777
20
27.469187658661717
42
-0.41421356237310575
10
50.857631970159353
20
27.874767446334303
10
51.945289985437057
20
27.682983992457029
0
LWPOLYLINE
5
134
100
AcDbEntity
8
0
100
AcDbPolyline
90
24
70
1
43
0.0
10
30.441179816029532
20
15.566987367080474
42
-0.41421356237307666
10
31.020407781369137
20
15.972567154753129
10
37.240613305134048
20
14.87577709536151
42
0.4142135623730942
10
38.109455253143423
20
15.484146776870455
10
38.224357014218775
20
16.13578704549894
42
-0.41421356237310036
10
38.803584979558323
20
16.541366833171555
10
43.516720373055023
20
15.710313899566117
42
-0.41421356237304929
10
43.922300160727623
20
15.131085934226544
10
43.868856919179386
20
14.827994250052509
10
44.965229403044304
20
14.634674200240843
42
-0.41421356237306201
10
45.370809190716948
20
14.055446234901215
10
44.889678357453789
20
11.326817687358677
42
-0.41421356237311374
10
44.310450392114198
20
10.921237899686025
10
43.218737773235681
20
11.11373628957419
10
43.144761493663978
20
10.694195960155728
42
-0.41421356237308182
10
39.669393701626518
20
8.2607172341198822
10
29.969913200273499
20
9.9709973453640686
42
-0.41421356237306617
10
29.564333412600774
20
10.550225310703665
10
29.617994895640134
20
10.854554703878447
10
28.522826290732709
20
11.047662477348521
42
-0.41421356237307821
10
28.117246503060102
20
11.626890442688055
10
28.59920382334629
20
14.360206231058621
42
-0.41421356237312024
10
29.178431788685884
20
14.765786018731244
10
30.266089803963574
20
14.574002564853931
0
LWPOLYLINE
5
135
100
AcDbEntity
8
0
100
AcDbPolyline
90
24
70
1
43
0.0
10
107.18658818975179
20
11.769670513496116
42
-0.41421356237307233
10
107.76581615509139
20
12.175250301168765
10
113.98602167885628
20
11.078460241777163
42
0.41421356237307971
10
114.85486362686561
20
11.686829923286107
10
114.96976538794098
20
12.338470191914595
42
-0.41421356237310036
10
115.54899335328057
20
12.744049979587208
10
120.26212874677722
20
11.912997045981751
42
-0.41421356237307172
10
120.66770853444986
20
11.333769080642178
10
120.61426529290162
20
11.030677396468143
10
121.71063777676653
20
10.837357346656422
42
-0.41421356237308082
10
122.11621756443918
20
10.258129381316794
10
121.63508673117607
20
7.5295008337742617
42
-0.41421356237306861
10
121.05585876583646
20
7.1239210461015876
10
119.96414614695792
20
7.3164194359897898
10
119.89016986738625
20
6.8968791065713155
42
-0.41421356237308626
10
116.41480207534876
20
4.4634003805354805
10
106.71532157399574
20
6.1736804917797397
42
-0.41421356237309298
10
106.30974178632302
20
6.7529084571192826
10
106.36340326936237
20
7.0572378502940651
10
105.26823466445495
20
7.2503456237641846
42
-0.41421356237310553
10
104.86265487678237
20
7.8295735891036653
10
105.3446121970685
20
10.562889377474233
42
-0.41421356237312634
10
105.92384016240808
20
10.968469165146876
10
107.01149817768582
20
10.776685711269586
0
LWPOLYLINE
5
136
100
AcDbEntity
8
0
100
AcDbPolyline
90
24
70
1
43
0.0
10
113.80258375886183
20
49.290845903261172
42
-0.41421356237309076
10
114.38181172420144
20
49.696425690933836
10
120.60201724796639
20
48.599635631542178
42
0.41421356237309853
10
121.47085919597571
20
49.208005313051153
10
121.58576095705108
20
49.859645581679587
42
-0.41421356237310464
10
122.16498892239062
20
50.265225369352244
10
126.87812431588728
20
49.434172435746824
42
-0.41421356237305312
10
127.2837041035599
20
48.854944470407247
10
127.2302608620117
20
48.551852786233212
10
128.32663334587662
20
48.358532736421466
42
-0.41421356237305645
10
128.73221313354921
20
47.779304771081897
10
128.25108230028616
20
45.050676223539313
42
-0.41421356237308055
10
127.67185433494657
20
44.64509643586667
10
126.58014171606797
20
44.83759482575487
10
126.5061654364962
20
44.418054496336346
42
-0.41421356237308699
10
123.0307976444588
20
41.984575770300566
10
113.33131714310575
20
43.694855881544754
42
-0.4142135623730574
10
112.92573735543307
20
44.274083846884338
10
112.97939883847246
20
44.57841324005912
10
111.88423023356495
20
44.771521013529131
42
-0.41421356237306856
10
111.47865044589236
20
45.350748978868694
10
111.96060776617855
20
48.084064767239312
42
-0.41421356237307094
10
112.53983573151811
20
48.489644554911948
10
113.62749374679584
20
48.297861101034655
0
LWPOLYLINE
5
137
100
AcDbEntity
8
0
100
AcDbPolyline
90
24
70
1
43
0.0
10
98.329660807087095
20
71.34678010034547
42
-0.4142135623730625
10
98.908888772426593
20
71.752359888018105
10
105.1290942961915
20
70.655569828626497
42
0.41421356237312695
10
105.9979362442009
20
71.263939510135472
10
106.11283800527622
20
71.915579778763913
42
-0.414213562373136
10
106.69206597061581
20
72.321159566436563
10
111.40520136411247
20
71.4901066328311
42
-0.41421356237307788
10
111.81078115178514
20
70.910878667491559
10
111.75733791023687
20
70.607786983317482
10
112.8537103941018
20
70.414466933505835
42
-0.41421356237307483
10
113.25929018177446
20
69.83523896816618
10
112.77815934851132
20
67.106610420623596
42
-0.41421356237311552
10
112.19893138317167
20
66.70103063295096
10
111.10721876429315
20
66.893529022839132
10
111.03324248472141
20
66.473988693420665
42
-0.41421356237309243
10
107.55787469268398
20
64.040509967384864
10
97.858394191330945
20
65.750790078629052
42
-0.41421356237305229
10
97.452814403658294
20
66.330018043968593
10
97.506475886697643
20
66.634347437143418
10
96.411307281790201
20
66.827455210613437
42
-0.41421356237308571
10
96.005727494117593
20
67.406683175953006
10
96.487684814403735
20
70.139998964323553
42
-0.41421356237313178
10
97.066912779743319
20
70.545578751996189
10
98.154570795021073
20
70.353795298118897
0
LWPOLYLINE
5
138
100
AcDbEntity
8
0
100
AcDbPolyline
90
24
70
1
43
0.0
10
91.713665237977082
20
33.825604710580414
42
-0.41421356237305268
10
92.292893203316581
20
34.231184498253015
10
98.513098727081541
20
33.134394438861413
42
0.41421356237309509
10
99.381940675090874
20
33.742764120370396
10
99.496842436166247
20
34.394404388998851
42
-0.41421356237310403
10
100.07607040150582
20
34.799984176671494
10
104.78920579500247
20
33.968931243066017
42
-0.41421356237302981
10
105.19478558267508
20
33.389703277726461
10
105.14134234112686
20
33.086611593552412
10
106.23771482499174
20
32.893291543740723
42
-0.41421356237310059
10
106.64329461266441
20
32.314063578401083
10
106.16216377940128
20
29.585435030858491
42
-0.41421356237311946
10
105.58293581406168
20
29.179855243185891
10
104.49122319518317
20
29.372353633074056
10
104.41724691561136
20
28.952813303655603
42
-0.41421356237308293
10
100.94187912357398
20
26.519334577619805
10
91.242398622220918
20
28.229614688864014
42
-0.41421356237303431
10
90.836818834548282
20
28.808842654203552
10
90.890480317587588
20
29.113172047378335
10
89.79531171268016
20
29.306279820848346
42
-0.41421356237312362
10
89.389731925007524
20
29.885507786187915
10
89.871689245293737
20
32.618823574558526
42
-0.414213562373133
10
90.450917210633349
20
33.024403362231126
10
91.538575225911046
20
32.832619908353834
0
LWPOLYLINE
5
139
100
AcDbEntity
8
0
100
AcDbPolyline
90
24
70
1
43
0.0
10
48.812382212948009
20
9.915381099801051
42
-0.41421356237306445
10
49.391610178287607
20
10.320960887473724
10
55.611815702052525
20
9.2241708280820873
42
0.41421356237311285
10
56.480657650061929
20
9.832540509591059
10
56.595559411137202
20
10.484180778219521
42
-0.41421356237309526
10
57.174787376476807
20
10.889760565892161
10
61.887922769973457
20
10.058707632286705
42
-0.41421356237305107
10
62.293502557646114
20
9.479479666947153
10
62.240059316097884
20
9.1763879827731198
10
63.336431799962803
20
8.9830679329614131
42
-0.414213562373067
10
63.742011587635439
20
8.403839967621769
10
63.260880754372266
20
5.6752114200791981
42
-0.41421356237309975
10
62.681652789032682
20
5.2696316324065817
10
61.589940170154165
20
5.4621300222947466
10
61.515963890582398
20
5.0425896928762581
42
-0.4142135623730866
10
58.040596098545009
20
2.6091109668404777
10
48.341115597191958
20
4.3193910780846325
42
-0.4142135623730604
10
47.935535809519251
20
4.8986190434242269
10
47.989197292558586
20
5.2029484365990442
10
46.894028687651172
20
5.3960562100690677
42
-0.4142135623730831
10
46.488448899978565
20
5.9752841754086106
10
46.970406220264806
20
8.7085999637792249
42
-0.41421356237309598
10
47.549634185604354
20
9.1141797514518039
10
48.637292200882044
20
8.9223962975745117
0
LWPOLYLINE
5
140
100
AcDbEntity
8
0
100
AcDbPolyline
90
24
70
1
43
0.0
10
33.749177600584595
20
34.327575061962996
42
-0.41421356237306339
10
34.328405565924136
20
34.733154849635653
10
40.548611089689075
20
33.636364790244016
42
0.41421356237308654
10
41.417453037698451
20
34.244734471752977
10
41.532354798773774
20
34.896374740381468
42
-0.41421356237309748
10
42.111582764113329
20
35.301954528054083
10
46.824718157610022
20
34.470901594448634
42
-0.41421356237305834
10
47.230297945282629
20
33.891673629109093
10
47.176854703734399
20
33.588581944935036
10
48.273227187599311
20
33.395261895123362
42
-0.41421356237306339
10
48.678806975271968
20
32.816033929783728
10
48.197676142008817
20
30.087405382241144
42
-0.41421356237310797
10
47.618448176669219
20
29.681825594568497
10
46.526735557790708
20
29.87432398445668
10
46.452759278218885
20
29.45478365503822
42
-0.41421356237308887
10
42.977391486181546
20
27.021304929002426
10
33.277910984828488
20
28.731585040246564
42
-0.41421356237304457
10
32.872331197155809
20
29.310813005586141
10
32.925992680195158
20
29.615142398760938
10
31.830824075287723
20
29.808250172230952
42
-0.41421356237308427
10
31.425244287615087
20
30.38747813757054
10
31.9072016079013
20
33.120793925941115
42
-0.41421356237312917
10
32.486429573240883
20
33.526373713613737
10
33.57408758851858
20
33.33459025973648
0
LWPOLYLINE
5
141
100
AcDbEntity
8
0
100
AcDbPolyline
90
24
70
1
43
0.0
10
78.354700780315881
20
67.555234707425598
42
-0.41421356237307366
10
78.933928745655464
20
67.960814495098248
10
85.154134269420339
20
66.864024435706639
42
0.41421356237310869
10
86.022976217429715
20
67.472394117215629
10
86.137877978505045
20
68.124034385844098
42
-0.41421356237308654
10
86.717105943844629
20
68.52961417351672
10
91.4302413373413
20
67.698561239911271
42
-0.41421356237302753
10
91.83582112501395
20
67.119333274571716
10
91.782377883465671
20
66.816241590397638
10
92.878750367330611
20
66.622921540585963
42
-0.41421356237309476
10
93.284330155003246
20
66.043693575246309
10
92.803199321740095
20
63.315065027703753
42
-0.41421356237308232
10
92.223971356400526
20
62.909485240031103
10
91.132258737521994
20
63.101983629919303
10
91.058282457950213
20
62.682443300500815
42
-0.41421356237308943
10
87.582914665912824
20
60.24896457446502
10
77.883434164559802
20
61.959244685709209
42
-0.41421356237306428
10
77.477854376887123
20
62.538472651048743
10
77.531515859926472
20
62.842802044223561
10
76.436347255019015
20
63.035909817693607
42
-0.41421356237309259
10
76.030767467346422
20
63.615137783033113
10
76.512724787632621
20
66.348453571403709
42
-0.4142135623731541
10
77.09195275297219
20
66.754033359076345
10
78.179610768249873
20
66.562249905199053
0
LWPOLYLINE
5
142
100
AcDbEntity
8
0
100
AcDbPolyline
90
24
70
1
43
0.0
10
18.677376579124285
20
58.765885334494577
42
-0.41421356237305013
10
19.256604544463897
20
59.171465122167206
10
25.476810068228801
20
58.074675062775597
42
0.41421356237308787
10
26.345652016238116
20
58.683044744284544
10
26.460553777313489
20
59.334685012912985
42
-0.41421356237309248
10
27.039781742653041
20
59.740264800585649
10
31.752917136149705
20
58.909211866980243
42
-0.41421356237303419
10
32.158496923822383
20
58.329983901640645
10
32.105053682274111
20
58.026892217466603
10
33.201426166139015
20
57.83357216765485
42
-0.41421356237306689
10
33.607005953811658
20
57.254344202315302
10
33.125875120548557
20
54.525715654772725
42
-0.41421356237309298
10
32.546647155208944
20
54.120135867100089
10
31.454934536330409
20
54.312634256988289
10
31.380958256758632
20
53.893093927569765
42
-0.41421356237308837
10
27.905590464721236
20
51.459615201533985
10
18.20610996336822
20
53.169895312778117
42
-0.41421356237305834
10
17.800530175695531
20
53.749123278117722
10
17.85419165873488
20
54.053452671292504
10
16.759023053827455
20
54.246560444762522
42
-0.41421356237307033
10
16.353443266154841
20
54.825788410102064
10
16.835400586441096
20
57.559104198472667
42
-0.41421356237314377
10
17.414628551780627
20
57.964683986145261
10
18.502286567058338
20
57.772900532268004
0
LWPOLYLINE
5
143
100
AcDbEntity
8
0
100
AcDbPolyline
90
24
70
1
43
0.0
10
-24.177141728117171
20
19.138971243963056
42
-0.41421356237305845
10
-23.771561940444542
20
19.718199209302639
10
-17.551356416679592
20
20.814989268694188
42
0.41421356237308976
10
-16.942986735170646
20
21.683831216703553
10
-17.057888496245937
20
22.335471485332022
42
-0.41421356237307982
10
-16.652308708573294
20
22.914699450671584
10
-11.939173315076641
20
23.745752384277111
42
-0.41421356237307
10
-11.359945349737053
20
23.340172596604436
10
-11.306502108188806
20
23.037080912430405
10
-10.210129624323873
20
23.230400962242179
42
-0.41421356237308177
10
-9.6309016589843033
20
22.824821174569493
10
-9.1497708257212036
20
20.096192627026909
42
-0.41421356237308382
10
-9.5553506133938608
20
19.516964661687332
10
-10.647063232272423
20
19.324466271799146
10
-10.57308695270056
20
18.904925942380689
42
-0.41421356237308204
10
-13.006565678736418
20
15.429558150343299
10
-22.706046180089459
20
13.719278039099091
42
-0.41421356237307433
10
-23.285274145429074
20
14.124857826771702
10
-23.338935628468423
20
14.429187219946485
10
-24.434104233375873
20
14.236079446476484
42
-0.41421356237309759
10
-25.013332198715418
20
14.64165923414911
10
-25.495289519001542
20
17.374975022519696
42
-0.41421356237314194
10
-25.089709731328892
20
17.954202987859261
10
-24.002051716051188
20
18.145986441736536
0
LWPOLYLINE
5
144
100
AcDbEntity
8
0
100
AcDbPolyline
90
24
70
1
43
0.0
10
-21.438660950248043
20
85.963292004160252
42
-0.41421356237305212
10
-21.377032533531825
20
86.667708030563034
10
-16.538571562886862
20
90.727658846496823
42
0.4142135623730781
10
-16.4461289378125
20
91.784282886100996
10
-16.871456916157584
20
92.291169032324461
42
-0.4142135623730932
10
-16.809828499441338
20
92.995585058727258
10
-13.143659984000443
20
96.071865707867502
42
-0.41421356237310775
10
-12.43924395759765
20
96.010237291151256
10
-12.241414910669269
20
95.774473813754895
10
-11.388588512537863
20
96.4900801298852
42
-0.41421356237308249
10
-10.684172486135102
20
96.428451713168926
10
-8.9031866882140029
20
94.305955490137194
42
-0.41421356237307982
10
-8.9648151049302278
20
93.601539463734426
10
-9.8140167715669939
20
92.888974658464349
10
-9.5401812694711232
20
92.562630215061787
42
-0.41421356237308626
10
-9.9099517697684281
20
88.336134056645307
10
-17.454808231829844
20
82.005247782044037
42
-0.41421356237306428
10
-18.159224258232641
20
82.066876198760212
10
-18.35786116233685
20
82.303602442848216
10
-19.209751108878859
20
81.588781902901218
42
-0.41421356237310775
10
-19.914167135281598
20
81.650410319617436
10
-21.698212312374594
20
83.776552568768324
42
-0.41421356237312784
10
-21.636583895658283
20
84.480968595171106
10
-20.790536150736699
20
85.190886945893212
0
LWPOLYLINE
5
145
100
AcDbEntity
8
0
100
AcDbPolyline
90
24
70
1
43
0.0
10
-67.46519183340564
20
45.350327838618718
42
-0.41421356237304202
10
-67.05961204573299
20
45.929555803958301
10
-60.839406521968058
20
47.026345863349846
42
0.41421356237309509
10
-60.231036840459112
20
47.895187811359186
10
-60.345938601534399
20
48.546828079987669
42
-0.4142135623731128
10
-59.940358813861735
20
49.126056045327246
10
-55.227223420365078
20
49.957108978932766
42
-0.41421356237303447
10
-54.647995455025502
20
49.551529191260109
10
-54.59455221347725
20
49.248437507086045
10
-53.498179729612346
20
49.441757556897834
42
-0.41421356237306184
10
-52.918951764272762
20
49.036177769225176
10
-52.437820931009711
20
46.307549221682564
42
-0.41421356237310403
10
-52.843400718682346
20
45.728321256343001
10
-53.935113337560871
20
45.535822866454801
10
-53.861137057989069
20
45.116282537036312
42
-0.41421356237308621
10
-56.29461578402487
20
41.640914744998966
10
-65.994096285377907
20
39.930634633754714
42
-0.41421356237306989
10
-66.573324250717519
20
40.336214421427357
10
-66.626985733756868
20
40.640543814602132
10
-67.722154338664311
20
40.447436041132072
42
-0.41421356237309775
10
-68.30138230400388
20
40.853015828804729
10
-68.783339624289994
20
43.586331617175318
42
-0.41421356237310109
10
-68.377759836617372
20
44.165559582514888
10
-67.290101821339633
20
44.35734303639218
0
LWPOLYLINE
5
146
100
AcDbEntity
8
0
100
AcDbPolyline
90
24
70
1
43
0.0
10
-60.849196264295585
20
7.8291524488536703
42
-0.41421356237306933
10
-60.443616476622935
20
8.4083804141932497
10
-54.223410952858018
20
9.50517047358478
42
0.41421356237308993
10
-53.615041271349057
20
10.374012421594125
10
-53.729943032424359
20
11.025652690222611
42
-0.41421356237308399
10
-53.324363244751694
20
11.604880655562193
10
-48.611227851255038
20
12.435933589167725
42
-0.41421356237305978
10
-48.031999885915447
20
12.03035380149505
10
-47.978556644367202
20
11.727262117321015
10
-46.882184160502298
20
11.920582167132778
42
-0.41421356237305978
10
-46.302956195162707
20
11.515002379460103
10
-45.821825361899656
20
8.786373831917512
42
-0.41421356237309248
10
-46.227405149572284
20
8.2071458665779353
10
-47.319117768450816
20
8.0146474766897384
10
-47.245141488878971
20
7.595107147271297
42
-0.41421356237308427
10
-49.678620214914815
20
4.1197393552338921
10
-59.378100716267852
20
2.4094592439896738
42
-0.41421356237304663
10
-59.957328681607471
20
2.8150390316622649
10
-60.01099016464682
20
3.1193684248370808
10
-61.10615876955427
20
2.9262606513670746
42
-0.41421356237310131
10
-61.685386734893804
20
3.3318404390397021
10
-62.167344055179953
20
6.0651562274102861
42
-0.41421356237310697
10
-61.761764267507289
20
6.6443841927498397
10
-60.674106252229585
20
6.8361676466271319
0
LWPOLYLINE
5
147
100
AcDbEntity
8
0
100
AcDbPolyline
90
24
70
1
43
0.0
10
-90.362559763080753
20
65.482903012301875
42
-0.41421356237302148
10
-89.956979975408146
20
66.062130977641459
10
-83.7367744516432
20
67.158921037032997
42
0.41421356237310192
10
-83.12840477013421
20
68.027762985042386
10
-83.243306531209541
20
68.679403253670856
42
-0.41421356237310702
10
-82.837726743536862
20
69.258631219010425
10
-78.12459135004022
20
70.089684152615902
42
-0.41421356237307366
10
-77.545363384700636
20
69.684104364943266
10
-77.49192014315237
20
69.381012680769217
10
-76.395547659287473
20
69.574332730581006
42
-0.41421356237306184
10
-75.816319693947875
20
69.168752942908313
10
-75.335188860684838
20
66.440124395365714
42
-0.41421356237311041
10
-75.740768648357488
20
65.860896430026145
10
-76.832481267236005
20
65.668398040137959
10
-76.758504987664196
20
65.248857710719491
42
-0.41421356237309048
10
-79.19198371370004
20
61.77348991868211
10
-88.89146421505302
20
60.063209807437858
42
-0.41421356237308415
10
-89.470692180392689
20
60.468789595110508
10
-89.524353663432038
20
60.773118988285297
10
-90.619522268339495
20
60.580011214815258
42
-0.41421356237310863
10
-91.198750233679021
20
60.985591002487894
10
-91.680707553965135
20
63.718906790858497
42
-0.41421356237315654
10
-91.275127766292471
20
64.298134756198039
10
-90.187469751014774
20
64.489918210075331
0
LWPOLYLINE
5
148
100
AcDbEntity
8
0
100
AcDbPolyline
90
24
70
1
43
0.0
10
-107.06915160402789
20
50.414539439724919
42
-0.41421356237310947
10
-106.66357181635524
20
50.993767405064503
10
-100.4433662925903
20
52.090557464456069
42
0.41421356237309098
10
-99.834996611081394
20
52.959399412465388
10
-99.949898372156667
20
53.611039681093857
42
-0.41421356237311135
10
-99.544318584484003
20
54.190267646433441
10
-94.831183190987304
20
55.021320580038946
42
-0.41421356237307366
10
-94.25195522564772
20
54.615740792366296
10
-94.198511984099497
20
54.312649108192261
10
-93.1021395002346
20
54.505969158004035
42
-0.41421356237307305
10
-92.522911534894959
20
54.100389370331357
10
-92.041780701631893
20
51.371760822788765
42
-0.41421356237310197
10
-92.447360489304572
20
50.792532857449203
10
-93.539073108183089
20
50.600034467561024
10
-93.465096828611308
20
50.180494138142521
42
-0.41421356237308621
10
-95.898575554647124
20
46.70512634610516
10
-105.59805605600016
20
44.994846234860887
42
-0.4142135623730423
10
-106.17728402133979
20
45.400426022533551
10
-106.23094550437914
20
45.704755415708327
10
-107.32611410928656
20
45.511647642238309
42
-0.41421356237310536
10
-107.90534207462612
20
45.917227429910938
10
-108.38729939491223
20
48.650543218281548
42
-0.41421356237314888
10
-107.98171960723957
20
49.229771183621111
10
-106.89406159196187
20
49.421554637498382
0
LWPOLYLINE
5
149
100
AcDbEntity
8
0
100
AcDbPolyline
90
24
70
1
43
0.0
10
-100.45315603491787
20
12.893364049959823
42
-0.41421356237310947
10
-100.0475762472452
20
13.472592015299405
10
-93.827370723480271
20
14.569382074690969
42
0.41421356237309509
10
-93.219001041971282
20
15.438224022700309
10
-93.33390280304657
20
16.089864291328805
42
-0.41421356237309009
10
-92.928323015373934
20
16.669092256668346
10
-88.215187621877249
20
17.500145190273862
42
-0.41421356237303475
10
-87.635959656537707
20
17.094565402601198
10
-87.582516414989442
20
16.791473718427167
10
-86.486143931124531
20
16.984793768238966
42
-0.41421356237307727
10
-85.906915965784947
20
16.57921398056628
10
-85.425785132521924
20
13.850585433023699
42
-0.41421356237308571
10
-85.831364920194559
20
13.271357467684126
10
-86.923077539073077
20
13.078859077795926
10
-86.849101259501239
20
12.659318748377475
42
-0.41421356237308188
10
-89.282579985537069
20
9.1839509563400412
10
-98.982060486890106
20
7.4736708450958389
42
-0.41421356237307028
10
-99.561288452229761
20
7.8792506327684499
10
-99.614949935269109
20
8.1835800259432681
10
-100.71011854017654
20
7.9904722524732472
42
-0.41421356237309731
10
-101.28934650551608
20
8.3960520401458929
10
-101.77130382580224
20
11.129367828516481
42
-0.41421356237310797
10
-101.36572403812954
20
11.708595793856029
10
-100.27806602285183
20
11.900379247733284
0
ENDSEC
0
SECTION
2
OBJECTS
0
DICTIONARY
5
C
100
AcDbDictionary
3
ACAD_GROUP
350
D
3
ACAD_MLINESTYLE
350
17
0
DICTIONARY
5
D
100
AcDbDictionary
0
DICTIONARY
5
1A
330
C
100
AcDbDictionary
0
DICTIONARY
5
17
100
AcDbDictionary
0
ENDSEC
0
EOF
