<?xml version="1.0" encoding="UTF-8" standalone="no"?>
<svg
   viewBox="0 0 1122.5196 793.70081"
   width="297mm"
   height="210mm"
   version="1.1"
   id="svg54"
   xmlns="http://www.w3.org/2000/svg"
   xmlns:svg="http://www.w3.org/2000/svg">
  <desc
     id="desc1">middle-foam.dxf - scale = 1.000000, origin = (0.000000, 0.000000), method = manual</desc>
  <defs
     id="defs4">
    <marker
       id="DistanceX"
       orient="auto"
       refX="0"
       refY="0"
       style="overflow:visible">
      <path
         d="M 3,-3 -3,3 M 0,-5 V 5"
         style="stroke:#000000;stroke-width:0.5"
         id="path1" />
    </marker>
    <pattern
       id="Hatch"
       patternUnits="userSpaceOnUse"
       width="8"
       height="8"
       x="0"
       y="0">
      <path
         d="M8 4 l-4,4"
         stroke="#000000"
         stroke-width="0.25"
         linecap="square"
         id="path2" />
      <path
         d="M6 2 l-4,4"
         stroke="#000000"
         stroke-width="0.25"
         linecap="square"
         id="path3" />
      <path
         d="M4 0 l-4,4"
         stroke="#000000"
         stroke-width="0.25"
         linecap="square"
         id="path4" />
    </pattern>
    <symbol
       id="*MODEL_SPACE" />
    <symbol
       id="*PAPER_SPACE" />
  </defs>
  <g
     id="g54">
    <g
       id="g55"
       transform="translate(42.769445,-20.611635)">
      <path
         d="m 979.42224,230.2772 a 7.559055,7.559055 0 0 0 -7.44422,-6.2465 H 542.50684 v 24.7889 H 494.47389 V 224.0307 H 65.002702 a 7.559055,7.559055 0 0 0 -7.44422,6.2465 L 4.8970722,528.93487 a 7.559055,7.559055 0 0 0 6.1315998,8.75684 l 415.147118,73.20163 h 184.62915 l 415.14716,-73.20163 a 7.559055,7.559055 0 0 0 6.1316,-8.75684 z"
         style="fill:none;stroke:#000000"
         id="path5" />
      <path
         d="m 55.501682,327.5207 a 1.889764,1.889764 0 0 0 1.5329,2.1892 l 23.50943,4.1453 a 2.834646,2.834646 0 0 1 2.29935,3.2838 l -0.43427,2.4629 a 1.889764,1.889764 0 0 0 1.5329,2.1892 l 17.813418,3.14101 a 1.889764,1.889764 0 0 0 2.18921,-1.5329 l 0.20199,-1.14551 4.14377,0.73063 a 1.889764,1.889764 0 0 0 2.18921,-1.53293 l 1.81845,-10.3129 a 1.889764,1.889764 0 0 0 -1.5329,-2.1892 l -4.12616,-0.7276 0.2796,-1.5856 a 11.338583,11.338583 0 0 0 -9.197398,-13.1353 l -36.65946,-6.464 a 1.889764,1.889764 0 0 0 -2.18921,1.5329 l -0.20281,1.1502 -4.13922,-0.7299 a 1.889764,1.889764 0 0 0 -2.18921,1.5329 l -1.82157,10.3307 a 1.889764,1.889764 0 0 0 1.5329,2.1892 l 4.11083,0.7248 z"
         style="fill:none;stroke:#000000"
         id="path6" />
      <path
         d="m 30.496342,469.33297 a 1.889764,1.889764 0 0 0 1.5329,2.18921 l 23.50944,4.14535 a 2.834646,2.834646 0 0 1 2.29935,3.28381 l -0.43428,2.46289 a 1.889764,1.889764 0 0 0 1.5329,2.18921 l 17.81343,3.14099 a 1.889764,1.889764 0 0 0 2.1892,-1.5329 l 0.202,-1.14555 4.14377,0.73066 a 1.889764,1.889764 0 0 0 2.1892,-1.5329 l 1.81845,-10.31292 a 1.889764,1.889764 0 0 0 -1.5329,-2.18921 l -4.12616,-0.72756 0.2796,-1.58566 a 11.338583,11.338583 0 0 0 -9.1974,-13.13525 l -36.65946,-6.46405 a 1.889764,1.889764 0 0 0 -2.1892,1.5329 l -0.20282,1.15022 -4.13922,-0.72985 a 1.889764,1.889764 0 0 0 -2.18921,1.5329 l -1.82157,10.33064 a 1.889764,1.889764 0 0 0 1.5329,2.18921 l 4.11084,0.72485 z"
         style="fill:none;stroke:#000000"
         id="path7" />
      <path
         d="m 201.96791,325.9333 a 1.889764,1.889764 0 0 0 1.5329,2.1892 l 23.50944,4.1454 a 2.834646,2.834646 0 0 1 2.29935,3.2838 l -0.43427,2.4629 a 1.889764,1.889764 0 0 0 1.5329,2.1892 l 17.81342,3.14099 a 1.889764,1.889764 0 0 0 2.18921,-1.53289 l 0.20199,-1.1456 4.14377,0.7307 a 1.889764,1.889764 0 0 0 2.18921,-1.5329 l 1.81845,-10.3129 a 1.889764,1.889764 0 0 0 -1.5329,-2.1892 l -4.12616,-0.7276 0.27959,-1.5856 a 11.338583,11.338583 0 0 0 -9.1974,-13.1353 l -36.65945,-6.464 a 1.889764,1.889764 0 0 0 -2.18921,1.5329 l -0.20281,1.1502 -4.13922,-0.7299 a 1.889764,1.889764 0 0 0 -2.18921,1.5329 l -1.82157,10.3307 a 1.889764,1.889764 0 0 0 1.5329,2.1892 l 4.11083,0.7248 z"
         style="fill:none;stroke:#000000"
         id="path8" />
      <path
         d="m 276.00648,320.7479 a 1.889764,1.889764 0 0 0 1.5329,2.1892 l 23.50944,4.1453 a 2.834646,2.834646 0 0 1 2.29935,3.2838 l -0.43428,2.4629 a 1.889764,1.889764 0 0 0 1.5329,2.1892 l 17.81343,3.141 a 1.889764,1.889764 0 0 0 2.1892,-1.5329 l 0.20199,-1.1455 4.14377,0.7306 a 1.889764,1.889764 0 0 0 2.18921,-1.5329 l 1.81845,-10.3129 a 1.889764,1.889764 0 0 0 -1.5329,-2.1892 l -4.12616,-0.7275 0.2796,-1.5857 a 11.338583,11.338583 0 0 0 -9.1974,-13.1353 l -36.65946,-6.464 a 1.889764,1.889764 0 0 0 -2.1892,1.5329 l -0.20282,1.1502 -4.13922,-0.7298 a 1.889764,1.889764 0 0 0 -2.18921,1.5329 l -1.82157,10.3306 a 1.889764,1.889764 0 0 0 1.5329,2.1892 l 4.11084,0.7249 z"
         style="fill:none;stroke:#000000"
         id="path9" />
      <path
         d="m 283.2867,486.47629 a 1.889764,1.889764 0 0 0 1.5329,2.18921 l 23.50943,4.14535 a 2.834646,2.834646 0 0 1 2.29935,3.28381 l -0.43427,2.46289 a 1.889764,1.889764 0 0 0 1.5329,2.18921 l 17.81343,3.14099 a 1.889764,1.889764 0 0 0 2.1892,-1.5329 l 0.20199,-1.14555 4.14377,0.73066 a 1.889764,1.889764 0 0 0 2.18921,-1.5329 l 1.81845,-10.31293 a 1.889764,1.889764 0 0 0 -1.5329,-2.1892 l -4.12616,-0.72756 0.2796,-1.58566 a 11.338583,11.338583 0 0 0 -9.1974,-13.13525 l -36.65946,-6.46405 a 1.889764,1.889764 0 0 0 -2.18921,1.5329 l -0.20281,1.15022 -4.13922,-0.72986 a 1.889764,1.889764 0 0 0 -2.18921,1.53291 l -1.82157,10.33064 a 1.889764,1.889764 0 0 0 1.5329,2.18921 l 4.11083,0.72485 z"
         style="fill:none;stroke:#000000"
         id="path10" />
      <path
         d="m 402.10685,434.3998 a 1.889764,1.889764 0 0 0 1.5329,2.18921 l 23.50944,4.14535 a 2.834646,2.834646 0 0 1 2.29935,3.28381 l -0.43427,2.46289 a 1.889764,1.889764 0 0 0 1.5329,2.18921 l 17.81342,3.14099 a 1.889764,1.889764 0 0 0 2.18921,-1.5329 l 0.20199,-1.14555 4.14377,0.73066 a 1.889764,1.889764 0 0 0 2.18921,-1.5329 l 1.81844,-10.31292 a 1.889764,1.889764 0 0 0 -1.5329,-2.18921 l -4.12615,-0.72756 0.27959,-1.58566 a 11.338583,11.338583 0 0 0 -9.1974,-13.13525 l -36.65946,-6.46405 a 1.889764,1.889764 0 0 0 -2.1892,1.5329 l -0.20282,1.15022 -4.13922,-0.72985 a 1.889764,1.889764 0 0 0 -2.18921,1.5329 l -1.82157,10.33064 a 1.889764,1.889764 0 0 0 1.5329,2.18921 l 4.11084,0.72485 z"
         style="fill:none;stroke:#000000"
         id="path11" />
      <path
         d="m 564.18625,574.77363 a 1.889764,1.889764 0 0 0 2.66236,0.23292 l 18.2871,-15.34469 a 2.834646,2.834646 0 0 1 3.99354,0.34939 l 1.60754,1.91579 a 1.889764,1.889764 0 0 0 2.66236,0.23292 l 13.85638,-11.62689 a 1.889764,1.889764 0 0 0 0.23293,-2.66235 l -0.7477,-0.89108 3.22328,-2.70465 a 1.889764,1.889764 0 0 0 0.23292,-2.66236 l -6.73128,-8.02204 a 1.889764,1.889764 0 0 0 -2.66236,-0.23292 l -3.20958,2.69316 -1.03497,-1.23343 a 11.338583,11.338583 0 0 0 -15.97416,-1.39756 l -28.51599,23.92776 a 1.889764,1.889764 0 0 0 -0.23293,2.66236 l 0.75076,0.89471 -3.21975,2.70169 a 1.889764,1.889764 0 0 0 -0.23292,2.66236 l 6.74285,8.03581 a 1.889764,1.889764 0 0 0 2.66236,0.23293 l 3.19766,-2.68316 z"
         style="fill:none;stroke:#000000"
         id="path12" />
      <path
         d="m 727.98344,399.53899 a 1.889764,1.889764 0 0 0 2.18921,1.5329 l 23.50944,-4.14535 a 2.834646,2.834646 0 0 1 3.28381,2.29935 l 0.43427,2.46289 a 1.889764,1.889764 0 0 0 2.18921,1.5329 l 17.81343,-3.14099 a 1.889764,1.889764 0 0 0 1.5329,-2.1892 l -0.20199,-1.14555 4.14377,-0.73066 a 1.889764,1.889764 0 0 0 1.5329,-2.1892 l -1.81845,-10.31293 a 1.889764,1.889764 0 0 0 -2.18921,-1.5329 l -4.12616,0.72755 -0.27959,-1.58566 a 11.338583,11.338583 0 0 0 -13.13525,-9.1974 l -36.65945,6.46405 a 1.889764,1.889764 0 0 0 -1.5329,2.18921 l 0.20281,1.15022 -4.13922,0.72986 a 1.889764,1.889764 0 0 0 -1.5329,2.1892 l 1.82157,10.33065 a 1.889764,1.889764 0 0 0 2.18921,1.53289 l 4.11083,-0.72485 z"
         style="fill:none;stroke:#000000"
         id="path13" />
      <path
         d="m 789.62877,333.7658 a 1.889764,1.889764 0 0 0 2.18921,1.5329 l 23.50944,-4.1454 a 2.834646,2.834646 0 0 1 3.28381,2.2994 l 0.43428,2.4629 a 1.889764,1.889764 0 0 0 2.1892,1.5329 l 17.81343,-3.141 a 1.889764,1.889764 0 0 0 1.5329,-2.1892 l -0.20199,-1.1456 4.14377,-0.7306 a 1.889764,1.889764 0 0 0 1.5329,-2.1892 l -1.81845,-10.313 a 1.889764,1.889764 0 0 0 -2.18921,-1.5329 l -4.12615,0.7276 -0.2796,-1.5857 a 11.338583,11.338583 0 0 0 -13.13525,-9.1974 l -36.65945,6.4641 a 1.889764,1.889764 0 0 0 -1.5329,2.1892 l 0.20281,1.1502 -4.13922,0.7299 a 1.889764,1.889764 0 0 0 -1.5329,2.1892 l 1.82157,10.3306 a 1.889764,1.889764 0 0 0 2.18921,1.5329 l 4.11084,-0.7248 z"
         style="fill:none;stroke:#000000"
         id="path14" />
      <path
         d="m 564.07668,300.5462 a 1.889764,1.889764 0 0 0 2.18921,1.5329 l 23.50944,-4.1454 a 2.834646,2.834646 0 0 1 3.28381,2.2994 l 0.43428,2.4629 a 1.889764,1.889764 0 0 0 2.18921,1.5329 l 17.81342,-3.141 a 1.889764,1.889764 0 0 0 1.5329,-2.1892 l -0.20199,-1.1456 4.14377,-0.7306 a 1.889764,1.889764 0 0 0 1.5329,-2.1892 l -1.81845,-10.313 a 1.889764,1.889764 0 0 0 -2.18921,-1.5329 l -4.12615,0.7276 -0.2796,-1.5857 a 11.338583,11.338583 0 0 0 -13.13525,-9.1974 l -36.65945,6.4641 a 1.889764,1.889764 0 0 0 -1.5329,2.1892 l 0.20281,1.1502 -4.13922,0.7299 a 1.889764,1.889764 0 0 0 -1.5329,2.1892 l 1.82158,10.3306 a 1.889764,1.889764 0 0 0 2.1892,1.5329 l 4.11084,-0.7248 z"
         style="fill:none;stroke:#000000"
         id="path15" />
      <path
         d="m 852.62202,277.1899 a 1.889764,1.889764 0 0 0 2.18921,1.5329 l 23.50943,-4.1454 a 2.834646,2.834646 0 0 1 3.28382,2.2994 l 0.43427,2.4629 a 1.889764,1.889764 0 0 0 2.18921,1.5329 l 17.81342,-3.141 a 1.889764,1.889764 0 0 0 1.5329,-2.1892 l -0.20199,-1.1456 4.14377,-0.7306 a 1.889764,1.889764 0 0 0 1.5329,-2.1892 l -1.81844,-10.313 a 1.889764,1.889764 0 0 0 -2.18921,-1.5329 l -4.12616,0.7276 -0.2796,-1.5857 a 11.338583,11.338583 0 0 0 -13.13524,-9.1974 l -36.65946,6.4641 a 1.889764,1.889764 0 0 0 -1.5329,2.1892 l 0.20282,1.1502 -4.13922,0.7298 a 1.889764,1.889764 0 0 0 -1.5329,2.1893 l 1.82157,10.3306 a 1.889764,1.889764 0 0 0 2.18921,1.5329 l 4.11083,-0.7249 z"
         style="fill:none;stroke:#000000"
         id="path16" />
      <path
         d="m 877.62735,419.00218 a 1.889764,1.889764 0 0 0 2.18921,1.5329 l 23.50944,-4.14535 a 2.834646,2.834646 0 0 1 3.28381,2.29935 l 0.43428,2.46289 a 1.889764,1.889764 0 0 0 2.1892,1.5329 l 17.81343,-3.14099 a 1.889764,1.889764 0 0 0 1.5329,-2.1892 l -0.20199,-1.14555 4.14377,-0.73065 a 1.889764,1.889764 0 0 0 1.5329,-2.18921 l -1.81845,-10.31293 a 1.889764,1.889764 0 0 0 -2.18921,-1.5329 l -4.12615,0.72755 -0.2796,-1.58566 a 11.338583,11.338583 0 0 0 -13.13525,-9.1974 l -36.65945,6.46405 a 1.889764,1.889764 0 0 0 -1.5329,2.18921 l 0.20281,1.15022 -4.13922,0.72985 a 1.889764,1.889764 0 0 0 -1.5329,2.18921 l 1.82157,10.33065 a 1.889764,1.889764 0 0 0 2.18921,1.5329 l 4.11084,-0.72486 z"
         style="fill:none;stroke:#000000"
         id="path17" />
      <path
         d="m 961.11303,477.45348 a 1.889764,1.889764 0 0 0 2.18921,1.5329 l 23.50944,-4.14534 a 2.834646,2.834646 0 0 1 3.28381,2.29935 l 0.43427,2.46289 a 1.889764,1.889764 0 0 0 2.18921,1.5329 l 17.81343,-3.14099 a 1.889764,1.889764 0 0 0 1.5329,-2.18921 l -0.202,-1.14554 4.1438,-0.73066 a 1.889764,1.889764 0 0 0 1.5329,-2.18921 l -1.8185,-10.31292 a 1.889764,1.889764 0 0 0 -2.1892,-1.5329 l -4.1261,0.72755 -0.2796,-1.58567 a 11.338583,11.338583 0 0 0 -13.13528,-9.1974 l -36.65946,6.46405 a 1.889764,1.889764 0 0 0 -1.5329,2.18921 l 0.20282,1.15022 -4.13922,0.72986 a 1.889764,1.889764 0 0 0 -1.5329,2.18921 l 1.82157,10.33064 a 1.889764,1.889764 0 0 0 2.18921,1.5329 l 4.11083,-0.72485 z"
         style="fill:none;stroke:#000000"
         id="path18" />
      <path
         d="m 936.10769,335.6412 a 1.889764,1.889764 0 0 0 2.18921,1.5329 l 23.50944,-4.1454 a 2.834646,2.834646 0 0 1 3.28381,2.2994 l 0.43428,2.4629 a 1.889764,1.889764 0 0 0 2.1892,1.5329 l 17.81343,-3.141 a 1.889764,1.889764 0 0 0 1.5329,-2.1892 l -0.20199,-1.1456 4.14377,-0.7306 a 1.889764,1.889764 0 0 0 1.5329,-2.1892 l -1.81845,-10.313 a 1.889764,1.889764 0 0 0 -2.18921,-1.5329 l -4.12616,0.7276 -0.27959,-1.5857 a 11.338583,11.338583 0 0 0 -13.13525,-9.1974 l -36.65945,6.4641 a 1.889764,1.889764 0 0 0 -1.5329,2.1892 l 0.20281,1.1502 -4.13922,0.7299 a 1.889764,1.889764 0 0 0 -1.5329,2.1892 l 1.82157,10.3306 a 1.889764,1.889764 0 0 0 2.18921,1.5329 l 4.11083,-0.7248 z"
         style="fill:none;stroke:#000000"
         id="path19" />
      <path
         d="m 777.1261,262.8596 a 1.889764,1.889764 0 0 0 2.18921,1.5329 l 23.50944,-4.1453 a 2.834646,2.834646 0 0 1 3.28381,2.2993 l 0.43428,2.4629 a 1.889764,1.889764 0 0 0 2.18921,1.5329 l 17.81342,-3.141 a 1.889764,1.889764 0 0 0 1.5329,-2.1892 l -0.20199,-1.1455 4.14377,-0.7307 a 1.889764,1.889764 0 0 0 1.5329,-2.1892 l -1.81845,-10.3129 a 1.889764,1.889764 0 0 0 -2.18921,-1.5329 l -4.12615,0.7275 -0.2796,-1.5856 a 11.338583,11.338583 0 0 0 -13.13525,-9.1974 l -36.65945,6.464 a 1.889764,1.889764 0 0 0 -1.5329,2.1892 l 0.20281,1.1502 -4.13922,0.7299 a 1.889764,1.889764 0 0 0 -1.5329,2.1892 l 1.82158,10.3306 a 1.889764,1.889764 0 0 0 2.1892,1.5329 l 4.11084,-0.7248 z"
         style="fill:none;stroke:#000000"
         id="path20" />
      <path
         d="m 576.57935,371.45234 -0.66175,-3.75301 -4.11084,0.72485 a 1.889764,1.889764 0 0 1 -2.18921,-1.5329 l -1.82157,-10.33065 a 1.889764,1.889764 0 0 1 1.5329,-2.1892 l 4.13922,-0.72986 -0.20281,-1.15022 a 1.889764,1.889764 0 0 1 1.5329,-2.18921 l 36.65945,-6.46405 a 11.338583,11.338583 0 0 1 13.13525,9.1974 l 0.27959,1.58566 4.12616,-0.72755 a 1.889764,1.889764 0 0 1 2.18921,1.5329 l 1.81845,10.31293 a 1.889764,1.889764 0 0 1 -1.5329,2.18921 l -4.14377,0.73065 0.20199,1.14555 a 1.889764,1.889764 0 0 1 -1.5329,2.18921 l -17.81343,3.14098 a 1.889764,1.889764 0 0 1 -2.1892,-1.5329 l -0.43428,-2.46289 a 2.834646,2.834646 0 0 0 -3.28381,-2.29935 l -23.50944,4.14535 a 1.889764,1.889764 0 0 1 -2.18921,-1.5329 z"
         style="fill:none;stroke:#000000"
         id="path21" />
      <path
         d="m 802.13144,404.67193 a 1.889764,1.889764 0 0 0 2.18921,1.5329 l 23.50944,-4.14535 a 2.834646,2.834646 0 0 1 3.28381,2.29935 l 0.43427,2.46289 a 1.889764,1.889764 0 0 0 2.18921,1.5329 l 17.81343,-3.14099 a 1.889764,1.889764 0 0 0 1.5329,-2.1892 l -0.20199,-1.14555 4.14377,-0.73065 a 1.889764,1.889764 0 0 0 1.5329,-2.18921 l -1.81845,-10.31293 a 1.889764,1.889764 0 0 0 -2.18921,-1.5329 l -4.12616,0.72755 -0.27959,-1.58566 a 11.338583,11.338583 0 0 0 -13.13525,-9.1974 l -36.65945,6.46405 a 1.889764,1.889764 0 0 0 -1.5329,2.18921 l 0.20281,1.15022 -4.13922,0.72985 a 1.889764,1.889764 0 0 0 -1.5329,2.18921 l 1.82157,10.33065 a 1.889764,1.889764 0 0 0 2.18921,1.5329 l 4.11084,-0.72486 z"
         style="fill:none;stroke:#000000"
         id="path22" />
      <path
         d="m 658.54898,420.89939 a 1.889764,1.889764 0 0 0 2.1892,1.5329 l 23.50944,-4.14535 a 2.834646,2.834646 0 0 1 3.28381,2.29935 l 0.43428,2.46289 a 1.889764,1.889764 0 0 0 2.18921,1.5329 l 17.81342,-3.14098 a 1.889764,1.889764 0 0 0 1.5329,-2.18921 l -0.20199,-1.14555 4.14377,-0.73065 a 1.889764,1.889764 0 0 0 1.5329,-2.18921 l -1.81845,-10.31293 a 1.889764,1.889764 0 0 0 -2.1892,-1.5329 l -4.12616,0.72755 -0.2796,-1.58566 a 11.338583,11.338583 0 0 0 -13.13525,-9.1974 l -36.65945,6.46405 a 1.889764,1.889764 0 0 0 -1.5329,2.18921 l 0.20282,1.15022 -4.13922,0.72986 a 1.889764,1.889764 0 0 0 -1.5329,2.1892 l 1.82157,10.33065 a 1.889764,1.889764 0 0 0 2.1892,1.5329 l 4.11084,-0.72485 z"
         style="fill:none;stroke:#000000"
         id="path23" />
      <path
         d="m 364.04077,505.55763 a 1.889764,1.889764 0 0 0 0.91406,2.51135 l 21.63548,10.08879 a 2.834646,2.834646 0 0 1 1.37109,3.76704 l -1.05692,2.26657 a 1.889764,1.889764 0 0 0 0.91405,2.51135 l 16.3935,7.64442 a 1.889764,1.889764 0 0 0 2.51136,-0.91406 l 0.4916,-1.05423 3.81346,1.77825 a 1.889764,1.889764 0 0 0 2.51136,-0.91406 l 4.42567,-9.49088 a 1.889764,1.889764 0 0 0 -0.91406,-2.51135 l -3.79726,-1.77069 0.68047,-1.45927 a 11.338583,11.338583 0 0 0 -5.48436,-15.06814 l -33.73729,-15.73196 a 1.889764,1.889764 0 0 0 -2.51136,0.91406 l -0.4936,1.05854 -3.80928,-1.7763 a 1.889764,1.889764 0 0 0 -2.51135,0.91406 l -4.43327,9.50718 a 1.889764,1.889764 0 0 0 0.91406,2.51135 l 3.78315,1.76412 z"
         style="fill:none;stroke:#000000"
         id="path24" />
      <path
         d="m 332.7498,412.89983 a 1.889764,1.889764 0 0 0 1.5329,2.18921 l 23.50944,4.14534 a 2.834646,2.834646 0 0 1 2.29935,3.28382 l -0.43427,2.46289 a 1.889764,1.889764 0 0 0 1.5329,2.18921 l 17.81342,3.14098 a 1.889764,1.889764 0 0 0 2.18921,-1.5329 l 0.20199,-1.14554 4.14377,0.73066 a 1.889764,1.889764 0 0 0 2.18921,-1.5329 l 1.81844,-10.31293 a 1.889764,1.889764 0 0 0 -1.5329,-2.18921 l -4.12615,-0.72755 0.27959,-1.58566 A 11.338583,11.338583 0 0 0 374.9693,398.88 l -36.65945,-6.46405 a 1.889764,1.889764 0 0 0 -2.18921,1.5329 l -0.20282,1.15022 -4.13922,-0.72986 a 1.889764,1.889764 0 0 0 -2.1892,1.5329 l -1.82157,10.33065 a 1.889764,1.889764 0 0 0 1.5329,2.1892 l 4.11083,0.72485 z"
         style="fill:none;stroke:#000000"
         id="path25" />
      <path
         d="m 357.75514,271.0875 a 1.889764,1.889764 0 0 0 1.5329,2.1892 l 23.50944,4.1454 a 2.834646,2.834646 0 0 1 2.29935,3.2838 l -0.43428,2.4629 a 1.889764,1.889764 0 0 0 1.5329,2.1892 l 17.81343,3.141 a 1.889764,1.889764 0 0 0 2.1892,-1.5329 l 0.202,-1.1456 4.14377,0.7307 a 1.889764,1.889764 0 0 0 2.1892,-1.5329 l 1.81845,-10.3129 a 1.889764,1.889764 0 0 0 -1.5329,-2.1893 l -4.12616,-0.7275 0.2796,-1.5857 a 11.338583,11.338583 0 0 0 -9.1974,-13.1352 l -36.65945,-6.4641 a 1.889764,1.889764 0 0 0 -2.18921,1.5329 l -0.20282,1.1503 -4.13922,-0.7299 a 1.889764,1.889764 0 0 0 -2.18921,1.5329 l -1.82157,10.3306 a 1.889764,1.889764 0 0 0 1.5329,2.1892 l 4.11084,0.7249 z"
         style="fill:none;stroke:#000000"
         id="path26" />
      <path
         d="m 189.46524,396.83949 a 1.889764,1.889764 0 0 0 1.5329,2.18921 l 23.50944,4.14535 a 2.834646,2.834646 0 0 1 2.29935,3.28381 l -0.43427,2.46289 a 1.889764,1.889764 0 0 0 1.5329,2.18921 l 17.81342,3.14099 a 1.889764,1.889764 0 0 0 2.18921,-1.5329 l 0.20199,-1.14554 4.14377,0.73066 a 1.889764,1.889764 0 0 0 2.18921,-1.5329 l 1.81845,-10.31293 a 1.889764,1.889764 0 0 0 -1.5329,-2.18921 l -4.12616,-0.72755 0.27959,-1.58567 a 11.338583,11.338583 0 0 0 -9.1974,-13.13525 l -36.65945,-6.46405 a 1.889764,1.889764 0 0 0 -2.18921,1.5329 l -0.20281,1.15023 -4.13922,-0.72986 a 1.889764,1.889764 0 0 0 -2.18921,1.5329 l -1.82157,10.33064 a 1.889764,1.889764 0 0 0 1.5329,2.18921 l 4.11083,0.72485 z"
         style="fill:none;stroke:#000000"
         id="path27" />
      <path
         d="m 42.999012,398.42681 a 1.889764,1.889764 0 0 0 1.5329,2.18921 l 23.50944,4.14535 a 2.834646,2.834646 0 0 1 2.29934,3.28381 l -0.43427,2.46289 a 1.889764,1.889764 0 0 0 1.5329,2.18921 l 17.81343,3.14099 a 1.889764,1.889764 0 0 0 2.1892,-1.5329 l 0.20199,-1.14554 4.14377,0.73066 a 1.889764,1.889764 0 0 0 2.18921,-1.5329 l 1.81845,-10.31293 a 1.889764,1.889764 0 0 0 -1.5329,-2.18921 l -4.12616,-0.72755 0.2796,-1.58567 a 11.338583,11.338583 0 0 0 -9.1974,-13.13525 l -36.65946,-6.46405 a 1.889764,1.889764 0 0 0 -2.1892,1.5329 l -0.20282,1.15022 -4.13922,-0.72985 a 1.889764,1.889764 0 0 0 -2.18921,1.5329 l -1.82157,10.33064 a 1.889764,1.889764 0 0 0 1.5329,2.18921 l 4.11083,0.72485 z"
         style="fill:none;stroke:#000000"
         id="path28" />
      <path
         d="m 68.004342,256.6145 a 1.889764,1.889764 0 0 0 1.5329,2.1892 l 23.50944,4.1454 a 2.834646,2.834646 0 0 1 2.29935,3.2838 l -0.43427,2.4629 a 1.889764,1.889764 0 0 0 1.5329,2.1892 l 17.813418,3.141 a 1.889764,1.889764 0 0 0 2.18921,-1.5329 l 0.20199,-1.1456 4.14377,0.7307 a 1.889764,1.889764 0 0 0 2.18921,-1.5329 l 1.81845,-10.313 a 1.889764,1.889764 0 0 0 -1.5329,-2.1892 l -4.12616,-0.7275 0.27959,-1.5857 a 11.338583,11.338583 0 0 0 -9.1974,-13.1352 l -36.659448,-6.4641 a 1.889764,1.889764 0 0 0 -2.18921,1.5329 l -0.20281,1.1502 -4.13922,-0.7298 a 1.889764,1.889764 0 0 0 -2.18921,1.5329 l -1.82157,10.3306 a 1.889764,1.889764 0 0 0 1.5329,2.1892 l 4.11083,0.7249 z"
         style="fill:none;stroke:#000000"
         id="path29" />
      <path
         d="m 126.32222,339.8882 a 1.889764,1.889764 0 0 0 1.5329,2.1892 l 23.50944,4.14535 a 2.834646,2.834646 0 0 1 2.29935,3.28382 l -0.43428,2.46289 a 1.889764,1.889764 0 0 0 1.5329,2.18921 l 17.81343,3.14098 a 1.889764,1.889764 0 0 0 2.18921,-1.5329 l 0.20199,-1.14554 4.14377,0.73066 a 1.889764,1.889764 0 0 0 2.18921,-1.5329 l 1.81844,-10.31293 a 1.889764,1.889764 0 0 0 -1.5329,-2.18924 l -4.12616,-0.7275 0.2796,-1.5857 a 11.338583,11.338583 0 0 0 -9.1974,-13.1352 l -36.65945,-6.4641 a 1.889764,1.889764 0 0 0 -2.18921,1.5329 l -0.20282,1.1502 -4.13922,-0.7298 a 1.889764,1.889764 0 0 0 -2.18921,1.5329 l -1.82157,10.3306 a 1.889764,1.889764 0 0 0 1.5329,2.1892 l 4.11084,0.7249 z"
         style="fill:none;stroke:#000000"
         id="path30" />
      <path
         d="m 101.31688,481.70051 a 1.889764,1.889764 0 0 0 1.5329,2.18921 l 23.50944,4.14535 a 2.834646,2.834646 0 0 1 2.29935,3.28381 l -0.43427,2.4629 a 1.889764,1.889764 0 0 0 1.5329,2.1892 l 17.81342,3.14099 a 1.889764,1.889764 0 0 0 2.18921,-1.5329 l 0.20199,-1.14554 4.14377,0.73066 a 1.889764,1.889764 0 0 0 2.18921,-1.5329 l 1.81844,-10.31293 a 1.889764,1.889764 0 0 0 -1.5329,-2.18921 l -4.12615,-0.72755 0.27959,-1.58567 a 11.338583,11.338583 0 0 0 -9.1974,-13.13524 l -36.65945,-6.46405 a 1.889764,1.889764 0 0 0 -2.18921,1.5329 l -0.20281,1.15022 -4.13922,-0.72986 a 1.889764,1.889764 0 0 0 -2.189208,1.5329 l -1.82157,10.33064 a 1.889764,1.889764 0 0 0 1.5329,2.18921 l 4.110828,0.72485 z"
         style="fill:none;stroke:#000000"
         id="path31" />
      <path
         d="m 214.47058,255.0272 a 1.889764,1.889764 0 0 0 1.5329,2.1892 l 23.50944,4.1453 a 2.834646,2.834646 0 0 1 2.29935,3.2838 l -0.43427,2.4629 a 1.889764,1.889764 0 0 0 1.53289,2.1892 l 17.81343,3.141 a 1.889764,1.889764 0 0 0 2.18921,-1.5329 l 0.20199,-1.1455 4.14377,0.7306 a 1.889764,1.889764 0 0 0 2.18921,-1.5329 l 1.81844,-10.3129 a 1.889764,1.889764 0 0 0 -1.5329,-2.1892 l -4.12615,-0.7275 0.27959,-1.5857 a 11.338583,11.338583 0 0 0 -9.1974,-13.1353 l -36.65945,-6.464 a 1.889764,1.889764 0 0 0 -2.18921,1.5329 l -0.20282,1.1502 -4.13921,-0.7298 a 1.889764,1.889764 0 0 0 -2.18921,1.5329 l -1.82157,10.3306 a 1.889764,1.889764 0 0 0 1.5329,2.1892 l 4.11083,0.7249 z"
         style="fill:none;stroke:#000000"
         id="path32" />
      <path
         d="m 345.25247,341.9937 a 1.889764,1.889764 0 0 0 1.5329,2.18918 l 23.50944,4.14535 a 2.834646,2.834646 0 0 1 2.29935,3.28381 l -0.43428,2.46289 a 1.889764,1.889764 0 0 0 1.5329,2.18921 l 17.81343,3.14099 a 1.889764,1.889764 0 0 0 2.18921,-1.5329 l 0.20199,-1.14555 4.14377,0.73066 a 1.889764,1.889764 0 0 0 2.18921,-1.5329 l 1.81844,-10.31293 a 1.889764,1.889764 0 0 0 -1.5329,-2.1892 l -4.12616,-0.72751 0.2796,-1.5857 a 11.338583,11.338583 0 0 0 -9.1974,-13.1353 l -36.65945,-6.464 a 1.889764,1.889764 0 0 0 -2.18921,1.5329 l -0.20282,1.1502 -4.13922,-0.7298 a 1.889764,1.889764 0 0 0 -2.1892,1.5329 l -1.82158,10.3306 a 1.889764,1.889764 0 0 0 1.5329,2.1892 l 4.11084,0.7249 z"
         style="fill:none;stroke:#000000"
         id="path33" />
      <path
         d="m 469.38656,447.5093 h 28.0024 v 21.56507 h -28.0024 z"
         style="fill:none;stroke:#000000"
         id="path34" />
      <path
         d="m 414.60952,363.49364 a 1.889764,1.889764 0 0 0 1.5329,2.18921 l 23.50944,4.14535 a 2.834646,2.834646 0 0 1 2.29935,3.28381 l -0.43428,2.46289 a 1.889764,1.889764 0 0 0 1.5329,2.18921 l 17.81343,3.14099 a 1.889764,1.889764 0 0 0 2.18921,-1.5329 l 0.20199,-1.14555 4.14377,0.73066 a 1.889764,1.889764 0 0 0 2.18921,-1.5329 l 1.81844,-10.31292 a 1.889764,1.889764 0 0 0 -1.5329,-2.18921 l -4.12616,-0.72755 0.2796,-1.58567 a 11.338583,11.338583 0 0 0 -9.1974,-13.13525 l -36.65945,-6.46405 a 1.889764,1.889764 0 0 0 -2.18921,1.5329 l -0.20282,1.15022 -4.13922,-0.72985 a 1.889764,1.889764 0 0 0 -2.18921,1.5329 l -1.82157,10.33064 a 1.889764,1.889764 0 0 0 1.5329,2.18921 l 4.11083,0.72485 z"
         style="fill:none;stroke:#000000"
         id="path35" />
      <path
         d="m 630.8664,525.21301 a 1.889764,1.889764 0 0 0 2.51135,0.91406 l 21.63548,-10.08879 a 2.834646,2.834646 0 0 1 3.76704,1.37109 l 1.05692,2.26657 a 1.889764,1.889764 0 0 0 2.51135,0.91406 l 16.3935,-7.64442 a 1.889764,1.889764 0 0 0 0.91406,-2.51135 l -0.49159,-1.05423 3.81346,-1.77825 a 1.889764,1.889764 0 0 0 0.91406,-2.51136 l -4.42567,-9.49087 a 1.889764,1.889764 0 0 0 -2.51135,-0.91406 l -3.79726,1.77069 -0.68047,-1.45927 a 11.338583,11.338583 0 0 0 -15.06814,-5.48435 l -33.73729,15.73195 a 1.889764,1.889764 0 0 0 -0.91406,2.51136 l 0.49361,1.05854 -3.80928,1.77629 a 1.889764,1.889764 0 0 0 -0.91406,2.51136 l 4.43327,9.50718 a 1.889764,1.889764 0 0 0 2.51135,0.91405 l 3.78316,-1.76411 z"
         style="fill:none;stroke:#000000"
         id="path36" />
      <path
         d="m 707.98144,494.33281 a 1.889764,1.889764 0 0 0 2.18921,1.53289 l 23.50944,-4.14534 a 2.834646,2.834646 0 0 1 3.28381,2.29935 l 0.43427,2.46289 a 1.889764,1.889764 0 0 0 2.18921,1.5329 l 17.81343,-3.14099 a 1.889764,1.889764 0 0 0 1.5329,-2.18921 l -0.20199,-1.14554 4.14377,-0.73066 a 1.889764,1.889764 0 0 0 1.5329,-2.18921 l -1.81845,-10.31292 a 1.889764,1.889764 0 0 0 -2.18921,-1.5329 l -4.12616,0.72755 -0.27959,-1.58567 a 11.338583,11.338583 0 0 0 -13.13525,-9.19739 l -36.65945,6.46405 a 1.889764,1.889764 0 0 0 -1.5329,2.1892 l 0.20281,1.15023 -4.13922,0.72985 a 1.889764,1.889764 0 0 0 -1.5329,2.18921 l 1.82157,10.33064 a 1.889764,1.889764 0 0 0 2.18921,1.5329 l 4.11083,-0.72485 z"
         style="fill:none;stroke:#000000"
         id="path37" />
      <path
         d="m 715.48077,328.6328 a 1.889764,1.889764 0 0 0 2.18921,1.5329 l 23.50944,-4.1453 a 2.834646,2.834646 0 0 1 3.28381,2.2993 l 0.43428,2.4629 a 1.889764,1.889764 0 0 0 2.1892,1.5329 l 17.81343,-3.141 a 1.889764,1.889764 0 0 0 1.5329,-2.1892 l -0.20199,-1.1455 4.14377,-0.7307 a 1.889764,1.889764 0 0 0 1.5329,-2.1892 l -1.81845,-10.3129 a 1.889764,1.889764 0 0 0 -2.18921,-1.5329 l -4.12616,0.7275 -0.27959,-1.5856 a 11.338583,11.338583 0 0 0 -13.13525,-9.1974 l -36.65945,6.464 a 1.889764,1.889764 0 0 0 -1.5329,2.1892 l 0.20281,1.1503 -4.13922,0.7298 a 1.889764,1.889764 0 0 0 -1.5329,2.1892 l 1.82157,10.3307 a 1.889764,1.889764 0 0 0 2.18921,1.5329 l 4.11083,-0.7249 z"
         style="fill:none;stroke:#000000"
         id="path38" />
      <path
         d="m 633.54364,279.0871 a 1.889764,1.889764 0 0 0 2.18921,1.5329 l 23.50943,-4.1454 a 2.834646,2.834646 0 0 1 3.28382,2.2994 l 0.43427,2.4629 a 1.889764,1.889764 0 0 0 2.18921,1.5329 l 17.81342,-3.141 a 1.889764,1.889764 0 0 0 1.5329,-2.1892 l -0.20199,-1.1456 4.14377,-0.7306 a 1.889764,1.889764 0 0 0 1.5329,-2.1892 l -1.81844,-10.313 a 1.889764,1.889764 0 0 0 -2.18921,-1.5329 l -4.12616,0.7276 -0.2796,-1.5857 a 11.338583,11.338583 0 0 0 -13.13524,-9.1974 l -36.65946,6.4641 a 1.889764,1.889764 0 0 0 -1.5329,2.1892 l 0.20282,1.1502 -4.13922,0.7299 a 1.889764,1.889764 0 0 0 -1.5329,2.1892 l 1.82157,10.3306 a 1.889764,1.889764 0 0 0 2.18921,1.5329 l 4.11083,-0.7248 z"
         style="fill:none;stroke:#000000"
         id="path39" />
      <path
         d="m 923.60502,264.735 a 1.889764,1.889764 0 0 0 2.18921,1.5329 l 23.50944,-4.1453 a 2.834646,2.834646 0 0 1 3.28381,2.2993 l 0.43428,2.4629 a 1.889764,1.889764 0 0 0 2.1892,1.5329 l 17.81343,-3.141 a 1.889764,1.889764 0 0 0 1.5329,-2.1892 l -0.20199,-1.1455 4.14377,-0.7307 a 1.889764,1.889764 0 0 0 1.5329,-2.1892 l -1.81845,-10.3129 a 1.889764,1.889764 0 0 0 -2.18921,-1.5329 l -4.12615,0.7275 -0.2796,-1.5856 a 11.338583,11.338583 0 0 0 -13.13525,-9.1974 l -36.65945,6.464 a 1.889764,1.889764 0 0 0 -1.5329,2.1892 l 0.20281,1.1502 -4.13922,0.7299 a 1.889764,1.889764 0 0 0 -1.5329,2.1892 l 1.82158,10.3306 a 1.889764,1.889764 0 0 0 2.1892,1.5329 l 4.11084,-0.7248 z"
         style="fill:none;stroke:#000000"
         id="path40" />
      <path
         d="m 948.61036,406.54733 a 1.889764,1.889764 0 0 0 2.18921,1.53289 l 23.50944,-4.14534 a 2.834646,2.834646 0 0 1 3.28381,2.29935 l 0.43427,2.46289 a 1.889764,1.889764 0 0 0 2.18921,1.5329 l 17.81343,-3.14099 a 1.889764,1.889764 0 0 0 1.5329,-2.18921 l -0.20199,-1.14554 4.14376,-0.73066 a 1.889764,1.889764 0 0 0 1.5329,-2.18921 l -1.8184,-10.31292 a 1.889764,1.889764 0 0 0 -2.1892,-1.5329 l -4.12621,0.72755 -0.27959,-1.58566 a 11.338583,11.338583 0 0 0 -13.13525,-9.1974 l -36.65945,6.46405 a 1.889764,1.889764 0 0 0 -1.5329,2.1892 l 0.20281,1.15023 -4.13922,0.72985 a 1.889764,1.889764 0 0 0 -1.5329,2.18921 l 1.82157,10.33064 a 1.889764,1.889764 0 0 0 2.18921,1.5329 l 4.11083,-0.72485 z"
         style="fill:none;stroke:#000000"
         id="path41" />
      <path
         d="m 890.13002,489.90834 a 1.889764,1.889764 0 0 0 2.18921,1.5329 l 23.50944,-4.14535 a 2.834646,2.834646 0 0 1 3.28381,2.29935 l 0.43428,2.46289 a 1.889764,1.889764 0 0 0 2.1892,1.5329 l 17.81343,-3.14099 a 1.889764,1.889764 0 0 0 1.5329,-2.18921 l -0.20199,-1.14554 4.14377,-0.73066 a 1.889764,1.889764 0 0 0 1.5329,-2.1892 l -1.81845,-10.31293 a 1.889764,1.889764 0 0 0 -2.18921,-1.5329 l -4.12616,0.72755 -0.27959,-1.58566 a 11.338583,11.338583 0 0 0 -13.13525,-9.1974 l -36.65945,6.46405 a 1.889764,1.889764 0 0 0 -1.5329,2.18921 l 0.20281,1.15022 -4.13922,0.72985 a 1.889764,1.889764 0 0 0 -1.5329,2.18921 l 1.82157,10.33064 a 1.889764,1.889764 0 0 0 2.18921,1.5329 l 4.11084,-0.72485 z"
         style="fill:none;stroke:#000000"
         id="path42" />
      <path
         d="m 865.12468,348.09602 a 1.889764,1.889764 0 0 0 2.18921,1.5329 l 23.50944,-4.14535 a 2.834646,2.834646 0 0 1 3.28381,2.29935 l 0.43428,2.46289 a 1.889764,1.889764 0 0 0 2.18921,1.5329 l 17.81342,-3.14098 a 1.889764,1.889764 0 0 0 1.5329,-2.18921 l -0.20199,-1.14555 4.14377,-0.73065 a 1.889764,1.889764 0 0 0 1.5329,-2.18922 l -1.81845,-10.3129 a 1.889764,1.889764 0 0 0 -2.1892,-1.5329 l -4.12616,0.7275 -0.2796,-1.5856 a 11.338583,11.338583 0 0 0 -13.13525,-9.1974 l -36.65945,6.464 a 1.889764,1.889764 0 0 0 -1.5329,2.1892 l 0.20281,1.1503 -4.13922,0.7298 a 1.889764,1.889764 0 0 0 -1.5329,2.1892 l 1.82158,10.33066 a 1.889764,1.889764 0 0 0 2.1892,1.5329 l 4.11084,-0.72485 z"
         style="fill:none;stroke:#000000"
         id="path43" />
      <path
         d="m 702.9781,257.7267 a 1.889764,1.889764 0 0 0 2.18921,1.5329 l 23.50944,-4.1454 a 2.834646,2.834646 0 0 1 3.28381,2.2994 l 0.43428,2.4629 a 1.889764,1.889764 0 0 0 2.1892,1.5329 l 17.81343,-3.141 a 1.889764,1.889764 0 0 0 1.5329,-2.1892 l -0.20199,-1.1456 4.14377,-0.7306 a 1.889764,1.889764 0 0 0 1.5329,-2.1892 l -1.81845,-10.313 a 1.889764,1.889764 0 0 0 -2.18921,-1.5329 l -4.12615,0.7276 -0.2796,-1.5857 a 11.338583,11.338583 0 0 0 -13.13525,-9.1974 l -36.65945,6.4641 a 1.889764,1.889764 0 0 0 -1.5329,2.1892 l 0.20281,1.1502 -4.13922,0.7299 a 1.889764,1.889764 0 0 0 -1.5329,2.1892 l 1.82157,10.3306 a 1.889764,1.889764 0 0 0 2.18921,1.5329 l 4.11084,-0.7248 z"
         style="fill:none;stroke:#000000"
         id="path44" />
      <path
         d="m 646.04631,349.99323 a 1.889764,1.889764 0 0 0 2.1892,1.5329 l 23.50944,-4.14535 a 2.834646,2.834646 0 0 1 3.28381,2.29935 l 0.43428,2.46289 a 1.889764,1.889764 0 0 0 2.18921,1.53291 l 17.81342,-3.14099 a 1.889764,1.889764 0 0 0 1.5329,-2.18921 l -0.20199,-1.14554 4.14377,-0.73066 a 1.889764,1.889764 0 0 0 1.5329,-2.18921 L 700.6548,333.9674 a 1.889764,1.889764 0 0 0 -2.1892,-1.5329 l -4.12616,0.7275 -0.2796,-1.5856 A 11.338583,11.338583 0 0 0 680.9246,322.379 l -36.65946,6.464 a 1.889764,1.889764 0 0 0 -1.5329,2.1892 l 0.20282,1.1503 -4.13922,0.7298 a 1.889764,1.889764 0 0 0 -1.5329,2.1892 l 1.82157,10.33067 a 1.889764,1.889764 0 0 0 2.18921,1.5329 l 4.11083,-0.72485 z"
         style="fill:none;stroke:#000000"
         id="path45" />
      <path
         d="m 814.63411,475.57809 a 1.889764,1.889764 0 0 0 2.18921,1.5329 l 23.50944,-4.14535 a 2.834646,2.834646 0 0 1 3.28381,2.29935 l 0.43427,2.46289 a 1.889764,1.889764 0 0 0 2.18921,1.5329 l 17.81343,-3.14099 a 1.889764,1.889764 0 0 0 1.5329,-2.18921 l -0.20199,-1.14554 4.14377,-0.73066 a 1.889764,1.889764 0 0 0 1.5329,-2.1892 l -1.81845,-10.31293 a 1.889764,1.889764 0 0 0 -2.18921,-1.5329 l -4.12616,0.72755 -0.27959,-1.58566 a 11.338583,11.338583 0 0 0 -13.13525,-9.1974 l -36.65945,6.46405 a 1.889764,1.889764 0 0 0 -1.5329,2.18921 l 0.20281,1.15022 -4.13922,0.72985 a 1.889764,1.889764 0 0 0 -1.5329,2.18921 l 1.82157,10.33064 a 1.889764,1.889764 0 0 0 2.18921,1.5329 l 4.11083,-0.72485 z"
         style="fill:none;stroke:#000000"
         id="path46" />
      <path
         d="m 589.08202,442.3585 a 1.889764,1.889764 0 0 0 2.18921,1.5329 l 23.50944,-4.14535 a 2.834646,2.834646 0 0 1 3.28381,2.29935 l 0.43427,2.46289 a 1.889764,1.889764 0 0 0 2.18921,1.5329 l 17.81343,-3.14098 a 1.889764,1.889764 0 0 0 1.5329,-2.18921 l -0.20199,-1.14555 4.14376,-0.73065 a 1.889764,1.889764 0 0 0 1.5329,-2.18921 l -1.81844,-10.31293 a 1.889764,1.889764 0 0 0 -2.18921,-1.5329 l -4.12616,0.72755 -0.27959,-1.58566 a 11.338583,11.338583 0 0 0 -13.13525,-9.1974 l -36.65945,6.46405 a 1.889764,1.889764 0 0 0 -1.5329,2.18921 l 0.20281,1.15022 -4.13922,0.72985 a 1.889764,1.889764 0 0 0 -1.5329,2.18921 l 1.82157,10.33065 a 1.889764,1.889764 0 0 0 2.18921,1.5329 l 4.11083,-0.72486 z"
         style="fill:none;stroke:#000000"
         id="path47" />
      <path
         d="m 427.11219,292.5875 a 1.889764,1.889764 0 0 0 1.5329,2.1892 l 23.50944,4.1453 a 2.834646,2.834646 0 0 1 2.29935,3.2839 l -0.43428,2.4628 a 1.889764,1.889764 0 0 0 1.5329,2.1893 l 17.81343,3.1409 a 1.889764,1.889764 0 0 0 2.18921,-1.5329 l 0.20199,-1.1455 4.14377,0.7307 a 1.889764,1.889764 0 0 0 2.1892,-1.5329 l 1.81845,-10.313 a 1.889764,1.889764 0 0 0 -1.5329,-2.1892 l -4.12616,-0.7275 0.2796,-1.5857 a 11.338583,11.338583 0 0 0 -9.1974,-13.1352 l -36.65945,-6.4641 a 1.889764,1.889764 0 0 0 -2.18921,1.5329 l -0.20282,1.1502 -4.13922,-0.7298 a 1.889764,1.889764 0 0 0 -2.18921,1.5329 l -1.82157,10.3306 a 1.889764,1.889764 0 0 0 1.5329,2.1892 l 4.11084,0.7249 z"
         style="fill:none;stroke:#000000"
         id="path48" />
      <path
         d="m 437.46235,545.15185 a 1.889764,1.889764 0 0 0 0.23293,2.66236 l 18.2871,15.34469 a 2.834646,2.834646 0 0 1 0.34938,3.99354 l -1.60753,1.91579 a 1.889764,1.889764 0 0 0 0.23292,2.66236 l 13.85639,11.62689 a 1.889764,1.889764 0 0 0 2.66236,-0.23293 l 0.7477,-0.89107 3.22328,2.70465 a 1.889764,1.889764 0 0 0 2.66236,-0.23292 l 6.73128,-8.02204 a 1.889764,1.889764 0 0 0 -0.23292,-2.66236 l -3.20958,-2.69316 1.03496,-1.23342 a 11.338583,11.338583 0 0 0 -1.39755,-15.97416 l -28.516,-23.92776 a 1.889764,1.889764 0 0 0 -2.66236,0.23292 l -0.75075,0.89472 -3.21974,-2.70169 a 1.889764,1.889764 0 0 0 -2.66236,0.23293 l -6.74285,8.03581 a 1.889764,1.889764 0 0 0 0.23293,2.66236 l 3.19766,2.68316 z"
         style="fill:none;stroke:#000000"
         id="path49" />
      <path
         d="m 263.50381,391.65403 a 1.889764,1.889764 0 0 0 1.5329,2.18921 l 23.50944,4.14534 a 2.834646,2.834646 0 0 1 2.29935,3.28382 l -0.43428,2.46289 a 1.889764,1.889764 0 0 0 1.5329,2.18921 l 17.81343,3.14098 a 1.889764,1.889764 0 0 0 2.1892,-1.53289 l 0.202,-1.14555 4.14377,0.73066 a 1.889764,1.889764 0 0 0 2.1892,-1.5329 l 1.81845,-10.31293 a 1.889764,1.889764 0 0 0 -1.5329,-2.1892 l -4.12616,-0.72756 0.2796,-1.58566 a 11.338583,11.338583 0 0 0 -9.1974,-13.13525 l -36.65946,-6.46405 a 1.889764,1.889764 0 0 0 -2.1892,1.5329 l -0.20282,1.15022 -4.13922,-0.72986 a 1.889764,1.889764 0 0 0 -2.18921,1.5329 l -1.82157,10.33065 a 1.889764,1.889764 0 0 0 1.5329,2.1892 l 4.11084,0.72486 z"
         style="fill:none;stroke:#000000"
         id="path50" />
      <path
         d="m 288.50915,249.8417 a 1.889764,1.889764 0 0 0 1.5329,2.1892 l 23.50943,4.1454 a 2.834646,2.834646 0 0 1 2.29935,3.2838 l -0.43427,2.4629 a 1.889764,1.889764 0 0 0 1.5329,2.1892 l 17.81343,3.141 a 1.889764,1.889764 0 0 0 2.1892,-1.5329 l 0.20199,-1.1456 4.14377,0.7307 a 1.889764,1.889764 0 0 0 2.18921,-1.5329 l 1.81845,-10.3129 a 1.889764,1.889764 0 0 0 -1.5329,-2.1893 l -4.12616,-0.7275 0.2796,-1.5857 a 11.338583,11.338583 0 0 0 -9.1974,-13.1352 l -36.65946,-6.4641 a 1.889764,1.889764 0 0 0 -2.18921,1.5329 l -0.20281,1.1503 -4.13922,-0.7299 a 1.889764,1.889764 0 0 0 -2.18921,1.5329 l -1.82157,10.3306 a 1.889764,1.889764 0 0 0 1.5329,2.1892 l 4.11083,0.7249 z"
         style="fill:none;stroke:#000000"
         id="path51" />
      <path
         d="m 176.96258,467.74565 a 1.889764,1.889764 0 0 0 1.5329,2.18921 l 23.50943,4.14535 a 2.834646,2.834646 0 0 1 2.29935,3.28381 l -0.43427,2.46289 a 1.889764,1.889764 0 0 0 1.5329,2.18921 l 17.81342,3.14099 a 1.889764,1.889764 0 0 0 2.18921,-1.5329 l 0.20199,-1.14555 4.14377,0.73066 a 1.889764,1.889764 0 0 0 2.18921,-1.5329 l 1.81845,-10.31292 a 1.889764,1.889764 0 0 0 -1.5329,-2.18921 l -4.12616,-0.72755 0.2796,-1.58567 a 11.338583,11.338583 0 0 0 -9.1974,-13.13525 l -36.65946,-6.46405 a 1.889764,1.889764 0 0 0 -2.18921,1.5329 l -0.20281,1.15022 -4.13922,-0.72985 a 1.889764,1.889764 0 0 0 -2.18921,1.5329 l -1.82157,10.33064 a 1.889764,1.889764 0 0 0 1.5329,2.18921 l 4.11083,0.72485 z"
         style="fill:none;stroke:#000000"
         id="path52" />
      <path
         d="m 113.81955,410.79436 a 1.889764,1.889764 0 0 0 1.5329,2.1892 l 23.50944,4.14535 a 2.834646,2.834646 0 0 1 2.29935,3.28382 l -0.43427,2.46289 a 1.889764,1.889764 0 0 0 1.53289,2.1892 l 17.81343,3.14099 a 1.889764,1.889764 0 0 0 2.18921,-1.5329 l 0.20199,-1.14554 4.14377,0.73066 a 1.889764,1.889764 0 0 0 2.18921,-1.5329 l 1.81844,-10.31293 a 1.889764,1.889764 0 0 0 -1.5329,-2.18921 l -4.12615,-0.72755 0.27959,-1.58567 a 11.338583,11.338583 0 0 0 -9.1974,-13.13524 l -36.65945,-6.46405 a 1.889764,1.889764 0 0 0 -2.18921,1.5329 l -0.20282,1.15022 -4.13922,-0.72986 a 1.889764,1.889764 0 0 0 -2.1892,1.5329 l -1.82157,10.33064 a 1.889764,1.889764 0 0 0 1.5329,2.18921 l 4.11083,0.72485 z"
         style="fill:none;stroke:#000000"
         id="path53" />
      <path
         d="m 138.82489,268.982 a 1.889764,1.889764 0 0 0 1.5329,2.1892 l 23.50944,4.1454 a 2.834646,2.834646 0 0 1 2.29935,3.2838 l -0.43428,2.4629 a 1.889764,1.889764 0 0 0 1.5329,2.1892 l 17.81343,3.141 a 1.889764,1.889764 0 0 0 2.1892,-1.5329 l 0.202,-1.1455 4.14377,0.7306 a 1.889764,1.889764 0 0 0 2.1892,-1.5329 l 1.81845,-10.3129 a 1.889764,1.889764 0 0 0 -1.5329,-2.1892 l -4.12616,-0.7276 0.2796,-1.5856 a 11.338583,11.338583 0 0 0 -9.1974,-13.1353 l -36.65946,-6.464 a 1.889764,1.889764 0 0 0 -2.1892,1.5329 l -0.20282,1.1502 -4.13922,-0.7299 a 1.889764,1.889764 0 0 0 -2.18921,1.5329 l -1.82157,10.3307 a 1.889764,1.889764 0 0 0 1.5329,2.1892 l 4.11084,0.7248 z"
         style="fill:none;stroke:#000000"
         id="path54" />
    </g>
  </g>
</svg>
