<?xml version="1.0" encoding="UTF-8" standalone="no"?>
<svg
   viewBox="0 0 1122.5197 793.7008"
   width="297mm"
   height="210mm"
   version="1.1"
   id="svg486"
   sodipodi:docname="switch-plate-alps.svg"
   inkscape:version="1.3 (0e150ed, 2023-07-21)"
   xmlns:inkscape="http://www.inkscape.org/namespaces/inkscape"
   xmlns:sodipodi="http://sodipodi.sourceforge.net/DTD/sodipodi-0.dtd"
   xmlns="http://www.w3.org/2000/svg"
   xmlns:svg="http://www.w3.org/2000/svg">
  <sodipodi:namedview
     id="namedview486"
     pagecolor="#ffffff"
     bordercolor="#111111"
     borderopacity="1"
     inkscape:showpageshadow="0"
     inkscape:pageopacity="0"
     inkscape:pagecheckerboard="1"
     inkscape:deskcolor="#d1d1d1"
     inkscape:document-units="mm"
     inkscape:zoom="1"
     inkscape:cx="561.5"
     inkscape:cy="396.5"
     inkscape:window-width="2464"
     inkscape:window-height="1342"
     inkscape:window-x="1060"
     inkscape:window-y="424"
     inkscape:window-maximized="0"
     inkscape:current-layer="g486" />
  <desc
     id="desc1">switch-plate.dxf - scale = 1.000000, origin = (0.000000, 0.000000), method = manual</desc>
  <defs
     id="defs4">
    <marker
       id="DistanceX"
       orient="auto"
       refX="0"
       refY="0"
       style="overflow:visible">
      <path
         d="M 3,-3 -3,3 M 0,-5 V 5"
         style="stroke:#000000;stroke-width:0.5"
         id="path1" />
    </marker>
    <pattern
       id="Hatch"
       patternUnits="userSpaceOnUse"
       width="8"
       height="8"
       x="0"
       y="0">
      <path
         d="M8 4 l-4,4"
         stroke="#000000"
         stroke-width="0.25"
         linecap="square"
         id="path2" />
      <path
         d="M6 2 l-4,4"
         stroke="#000000"
         stroke-width="0.25"
         linecap="square"
         id="path3" />
      <path
         d="M4 0 l-4,4"
         stroke="#000000"
         stroke-width="0.25"
         linecap="square"
         id="path4" />
    </pattern>
    <symbol
       id="*MODEL_SPACE" />
    <symbol
       id="*PAPER_SPACE" />
  </defs>
  <g
     inkscape:groupmode="layer"
     inkscape:label="0"
     id="g486">
    <path
       d="m 819.17301,277.5289 c 0.0479,0.12665 0.12264,0.26823 0.25017,0.40905 0.15512,0.17136 0.34893,0.29807 0.53672,0.3844 0.2041,0.0939 0.41779,0.14954 0.64638,0.16753 0.29998,0.0233 0.56755,-0.0262 0.81752,-0.0676 l 53.56723,-9.44441 c 0.17477,-0.0318 0.35562,-0.0636 0.54143,-0.12217 0.15498,-0.0488 0.32958,-0.12047 0.5068,-0.23655 0.21558,-0.14115 0.38016,-0.31186 0.49599,-0.47485 0.12588,-0.17718 0.20666,-0.3599 0.24327,-0.55261 0.048,-0.25283 0.009,-0.47381 -0.0273,-0.67978 l -7.80395,-44.25987 c -0.0255,-0.14405 -0.0519,-0.29341 -0.1094,-0.44536 -0.0479,-0.12666 -0.12264,-0.26823 -0.25017,-0.40906 -0.15511,-0.17135 -0.34892,-0.29806 -0.53672,-0.3844 -0.20408,-0.0939 -0.41779,-0.14953 -0.64637,-0.16753 -0.29998,-0.0232 -0.56756,0.0262 -0.81758,0.0686 l -53.56723,9.44442 c -0.17468,0.031 -0.35547,0.063 -0.54135,0.12083 -0.15499,0.0488 -0.32958,0.12047 -0.50679,0.23646 -0.21559,0.14124 -0.38018,0.31195 -0.49601,0.47494 -0.12588,0.17718 -0.20666,0.3599 -0.24326,0.55261 -0.0479,0.25282 -0.009,0.4738 0.0273,0.68107 l 7.80395,44.25987 c 0.0257,0.14277 0.052,0.29213 0.10958,0.44406 z"
       style="fill:none;stroke:#000000;stroke-width:1.00627"
       id="path7"
       sodipodi:nodetypes="ssssccssssccssssccssssccs" />
    <path
       d="m 1052.8473,436.50932 c -0.048,-0.12674 -0.1225,-0.26826 -0.2503,-0.40908 -0.1551,-0.17136 -0.3489,-0.29803 -0.5367,-0.38436 -0.2041,-0.0939 -0.4177,-0.14953 -0.6464,-0.16752 -0.3,-0.0238 -0.5674,0.0233 -0.8179,0.0677 l -53.56816,9.44556 c -0.17482,0.0307 -0.35553,0.0626 -0.54144,0.12085 -0.15504,0.0485 -0.32961,0.12037 -0.50687,0.23649 -0.21556,0.1412 -0.38017,0.3119 -0.49599,0.47489 -0.1258,0.17717 -0.20656,0.35987 -0.24318,0.55258 -0.0487,0.2529 -0.006,0.47388 0.0278,0.68065 l 7.80413,44.25954 c 0.026,0.1446 0.052,0.29397 0.109,0.44599 0.048,0.12666 0.1227,0.26824 0.2502,0.40906 0.1551,0.17137 0.3489,0.29808 0.5367,0.38434 0.2041,0.0938 0.4179,0.14953 0.6464,0.16752 0.3001,0.0233 0.5676,-0.0262 0.8177,-0.0676 l 53.5686,-9.44552 c 0.1746,-0.031 0.3554,-0.0621 0.5412,-0.12072 0.1551,-0.0488 0.3296,-0.12037 0.5068,-0.23646 0.2156,-0.14124 0.3803,-0.31196 0.496,-0.47493 0.126,-0.1772 0.2067,-0.35984 0.2434,-0.55257 0.048,-0.25294 0.01,-0.47397 -0.028,-0.68076 l -7.8042,-44.25952 c -0.026,-0.14454 -0.052,-0.2939 -0.1091,-0.44591 z"
       style="fill:none;stroke:#000000;stroke-width:1.0063"
       id="path13"
       sodipodi:nodetypes="ssssccssssccssssccssssccs" />
    <path
       style="fill:none;stroke:#000000;stroke-width:1.00628"
       d="m 681.06305,538.37581 c 0.0623,0.13275 0.12625,0.27025 0.22108,0.40218 0.0791,0.10996 0.18788,0.22735 0.34753,0.33041 0.19411,0.12536 0.41417,0.19755 0.61789,0.23235 0.22146,0.0377 0.44224,0.0367 0.66771,-0.005 0.29579,-0.0544 0.54205,-0.16957 0.77266,-0.27702 l 49.29707,-22.98772 c 0.16086,-0.0752 0.32721,-0.15259 0.49175,-0.25678 0.13703,-0.0869 0.28716,-0.20166 0.42834,-0.35963 0.17169,-0.19215 0.28647,-0.39963 0.35616,-0.58709 0.0758,-0.20372 0.10647,-0.40104 0.092,-0.59667 -0.0191,-0.25667 -0.11396,-0.46009 -0.20272,-0.65034 l -18.99347,-40.73186 c -0.0619,-0.13272 -0.12602,-0.27017 -0.22089,-0.40198 -0.079,-0.10995 -0.18788,-0.22734 -0.34752,-0.33041 -0.19422,-0.12531 -0.41418,-0.19754 -0.6179,-0.23235 -0.22146,-0.0377 -0.44224,-0.0366 -0.66771,0.005 -0.2959,0.0553 -0.54204,0.16956 -0.77234,0.27682 l -49.29762,22.98776 c -0.16062,0.0752 -0.32696,0.15272 -0.4915,0.25699 -0.13703,0.0869 -0.28721,0.20146 -0.42832,0.35953 -0.17171,0.19218 -0.2865,0.39973 -0.35618,0.58719 -0.0758,0.20372 -0.10647,0.40105 -0.092,0.59669 0.0191,0.25667 0.11396,0.46008 0.2024,0.65067 z"
       id="path26"
       sodipodi:nodetypes="cssssccssssccssssccsssscc" />
    <path
       d="m 666.74131,549.67181 c 0.11001,-0.11955 0.22534,-0.26898 0.32093,-0.45797 0.11628,-0.22989 0.17365,-0.45977 0.19266,-0.65853 0.0207,-0.21612 -4.6e-4,-0.41451 -0.0648,-0.59929 -0.0846,-0.24257 -0.2286,-0.41393 -0.36319,-0.57465 L 638.008,513.03609 c -0.0942,-0.1118 -0.19125,-0.22784 -0.31683,-0.33028 -0.10465,-0.0857 -0.2399,-0.17045 -0.42051,-0.22841 -0.21975,-0.07 -0.45065,-0.083 -0.65627,-0.0636 -0.22347,0.021 -0.43624,0.0801 -0.64313,0.17854 -0.27152,0.12959 -0.47957,0.30437 -0.67431,0.46737 l -41.66896,34.96457 c -0.13597,0.11408 -0.2766,0.2321 -0.40851,0.37555 -0.11,0.11954 -0.22534,0.26885 -0.3209,0.45786 -0.11628,0.22988 -0.17365,0.45977 -0.19267,0.65862 -0.0207,0.21604 4.5e-4,0.41441 0.0648,0.59929 0.0845,0.24251 0.22856,0.41387 0.36309,0.57427 l 28.81905,34.34535 c 0.0939,0.11218 0.19133,0.22802 0.31681,0.33058 0.10464,0.0857 0.23992,0.17034 0.42051,0.22829 0.21976,0.07 0.45065,0.083 0.65626,0.0637 0.22349,-0.0211 0.43626,-0.0801 0.64317,-0.17855 0.27152,-0.12959 0.47956,-0.30424 0.6743,-0.46772 L 666.3327,550.047 c 0.13612,-0.11381 0.27674,-0.23183 0.40865,-0.37514 z"
       style="fill:none;stroke:#000000;stroke-width:1.00509"
       id="path33"
       sodipodi:nodetypes="ssssccssssccssssccssssccs" />
    <path
       style="fill:none;stroke:#000000;stroke-width:1.00628"
       d="m 700.69362,435.03811 c 0.0258,0.14432 0.0521,0.2937 0.10964,0.44562 0.0479,0.12666 0.12264,0.26822 0.25017,0.40909 0.1551,0.17135 0.34893,0.29802 0.53671,0.38436 0.20409,0.0938 0.41781,0.14951 0.64639,0.16752 0.29996,0.0237 0.56746,-0.0234 0.81796,-0.0676 l 53.56695,-9.44532 c 0.17483,-0.031 0.35563,-0.0629 0.5415,-0.12107 0.15499,-0.0485 0.32959,-0.12036 0.50681,-0.23647 0.21558,-0.1412 0.38016,-0.31191 0.49599,-0.47492 0.12589,-0.17715 0.20666,-0.35985 0.24328,-0.55256 0.048,-0.25286 0.009,-0.47388 -0.0274,-0.68051 l -7.80415,-44.2598 c -0.0254,-0.14434 -0.0518,-0.29371 -0.10934,-0.44563 -0.0481,-0.12665 -0.12265,-0.26823 -0.25019,-0.40908 -0.1551,-0.17136 -0.34893,-0.29804 -0.5367,-0.38438 -0.2041,-0.0938 -0.41782,-0.1495 -0.64639,-0.16753 -0.29997,-0.0236 -0.56746,0.0234 -0.81767,0.0675 l -53.56751,9.44535 c -0.17457,0.031 -0.35537,0.0627 -0.54127,0.12093 -0.15498,0.0485 -0.32959,0.12036 -0.50681,0.23646 -0.21557,0.14121 -0.38016,0.31192 -0.49598,0.47492 -0.12589,0.17716 -0.20667,0.35985 -0.24329,0.55256 -0.048,0.25286 -0.009,0.4739 0.0272,0.68052 z"
       id="path38"
       sodipodi:nodetypes="cssssccssssccssssccsssscc" />
    <path
       style="fill:none;stroke:#000000;stroke-width:1.00627"
       d="m 311.26532,232.82499 c 0.0363,-0.20728 0.0752,-0.42827 0.0273,-0.68108 -0.0366,-0.19272 -0.11738,-0.37544 -0.24327,-0.55262 -0.11583,-0.16299 -0.28042,-0.3337 -0.496,-0.47494 -0.17721,-0.11603 -0.35182,-0.18787 -0.50681,-0.23645 -0.18588,-0.058 -0.36667,-0.09 -0.54132,-0.12083 l -53.56718,-9.44442 c -0.25016,-0.045 -0.5176,-0.0918 -0.81759,-0.0685 -0.22859,0.018 -0.4423,0.0732 -0.64638,0.16753 -0.18779,0.0863 -0.38161,0.21305 -0.53671,0.3844 -0.12747,0.14084 -0.20218,0.28241 -0.25018,0.40906 -0.0576,0.15194 -0.0839,0.3013 -0.1094,0.44536 l -7.80395,44.25986 c -0.0364,0.20597 -0.0754,0.42696 -0.0274,0.67977 0.0366,0.19273 0.11737,0.37545 0.24328,0.55262 0.11582,0.163 0.28039,0.3337 0.49597,0.47485 0.17723,0.11604 0.35184,0.18797 0.50681,0.23654 0.18588,0.058 0.36669,0.0901 0.54143,0.12218 l 53.56715,9.44441 c 0.25003,0.0433 0.51754,0.0909 0.81752,0.0676 0.22859,-0.018 0.44231,-0.0732 0.64638,-0.16754 0.18779,-0.0863 0.38161,-0.21304 0.53672,-0.3844 0.12746,-0.14083 0.20217,-0.2824 0.25017,-0.40906 0.0576,-0.15193 0.0839,-0.3013 0.10958,-0.44406 z"
       id="path45"
       sodipodi:nodetypes="cssssccssssccssssccsssscc" />
    <path
       style="fill:none;stroke:#000000;stroke-width:1.00628"
       d="m 681.23434,401.9725 c -0.0256,-0.14435 -0.052,-0.29375 -0.10965,-0.44564 -0.0479,-0.12667 -0.12265,-0.26823 -0.25017,-0.40909 -0.15511,-0.17135 -0.34893,-0.29803 -0.53672,-0.38437 -0.20411,-0.0938 -0.4178,-0.1495 -0.64639,-0.16753 -0.29996,-0.0236 -0.56747,0.0233 -0.81804,0.0675 l -53.567,9.44534 c -0.17474,0.0309 -0.35554,0.0627 -0.54143,0.12095 -0.15497,0.0486 -0.32959,0.12036 -0.50681,0.23646 -0.21558,0.14121 -0.38016,0.31193 -0.49599,0.47491 -0.12589,0.17718 -0.20666,0.35988 -0.24328,0.55259 -0.048,0.25285 -0.009,0.47387 0.0274,0.68054 l 7.8042,44.25984 c 0.0254,0.1443 0.0518,0.29368 0.10933,0.4456 0.048,0.12665 0.12264,0.26822 0.25018,0.40909 0.15511,0.17134 0.34892,0.29802 0.5367,0.38436 0.20411,0.0938 0.41782,0.14951 0.64641,0.16753 0.29995,0.0237 0.56745,-0.0234 0.81781,-0.0675 l 53.56731,-9.44534 c 0.17465,-0.031 0.35545,-0.0628 0.54131,-0.12114 0.15499,-0.0485 0.32959,-0.12036 0.5068,-0.23647 0.21559,-0.14121 0.38018,-0.31191 0.496,-0.47491 0.12589,-0.17716 0.20666,-0.35987 0.24327,-0.55257 0.0479,-0.25287 0.009,-0.47388 -0.0272,-0.68094 z"
       id="path58"
       sodipodi:nodetypes="cssssccssssccssssccsssscc" />
    <path
       style="fill:none;stroke:#000000;stroke-width:1.00629"
       d="m 61.764377,481.2148 c -0.03628,0.20683 -0.07524,0.4279 -0.02716,0.68074 0.03659,0.19271 0.117371,0.37535 0.24327,0.55253 0.115831,0.163 0.280407,0.33371 0.495987,0.47495 0.177243,0.11604 0.351833,0.18797 0.506816,0.23646 0.185873,0.058 0.36668,0.09 0.541292,0.12083 l 53.567529,9.44535 c 0.25015,0.0442 0.51767,0.0918 0.81761,0.0676 0.22859,-0.018 0.44231,-0.0732 0.64641,-0.16753 0.18776,-0.0863 0.38159,-0.21306 0.53669,-0.38442 0.12747,-0.14084 0.20218,-0.28241 0.25018,-0.40907 0.0576,-0.15193 0.0839,-0.3013 0.10939,-0.44592 l 7.8042,-44.2595 c 0.0364,-0.20683 0.0754,-0.42785 0.0274,-0.68072 -0.0366,-0.1927 -0.11737,-0.3754 -0.24326,-0.55256 -0.11584,-0.163 -0.28042,-0.33372 -0.49599,-0.47491 -0.17723,-0.11604 -0.35183,-0.18795 -0.50681,-0.23647 -0.18589,-0.0583 -0.36669,-0.0901 -0.54143,-0.12086 l -53.566981,-9.44534 c -0.250562,-0.0443 -0.518059,-0.0914 -0.818026,-0.0677 -0.228604,0.0181 -0.442292,0.0737 -0.646401,0.16753 -0.187778,0.0863 -0.381595,0.21301 -0.53671,0.38437 -0.127512,0.14085 -0.202176,0.28241 -0.250166,0.40907 -0.05762,0.15193 -0.08396,0.3013 -0.109574,0.44584 z"
       id="path63"
       sodipodi:nodetypes="cssssccssssccssssccsssscc" />
    <path
       style="fill:none;stroke:#000000;stroke-width:1.00627"
       d="m 307.30252,332.59346 c -0.0363,0.20703 -0.0752,0.42805 -0.0273,0.68091 0.0366,0.1927 0.11739,0.3754 0.24328,0.55256 0.11582,0.163 0.2804,0.33369 0.496,0.47491 0.17723,0.11603 0.35182,0.18792 0.50679,0.23646 0.18588,0.0583 0.36668,0.0901 0.54132,0.12104 l 53.56726,9.4453 c 0.25013,0.044 0.51763,0.0911 0.81761,0.0674 0.22859,-0.018 0.44229,-0.0737 0.64639,-0.16752 0.18777,-0.0863 0.38159,-0.213 0.53669,-0.38435 0.12748,-0.14087 0.20217,-0.28242 0.25019,-0.40908 0.0575,-0.15192 0.0839,-0.3013 0.10943,-0.44557 l 7.80399,-44.25942 c 0.0364,-0.20626 0.0754,-0.42725 0.0273,-0.68016 -0.0366,-0.19262 -0.11737,-0.37534 -0.24328,-0.55253 -0.11582,-0.16299 -0.28039,-0.33369 -0.49598,-0.47493 -0.17721,-0.11604 -0.35183,-0.18788 -0.5068,-0.23646 -0.18588,-0.058 -0.36669,-0.09 -0.54146,-0.12187 l -53.56668,-9.44436 c -0.25057,-0.0443 -0.51804,-0.0909 -0.81804,-0.0676 -0.22857,0.018 -0.44226,0.0741 -0.64639,0.16753 -0.18777,0.0863 -0.38159,0.21305 -0.5367,0.38433 -0.12749,0.14091 -0.20217,0.28248 -0.25017,0.40914 -0.0575,0.15183 -0.0839,0.3013 -0.1096,0.44424 z"
       id="path71"
       sodipodi:nodetypes="cssssccssssccssssccsssscc" />
    <path
       d="m 807.29166,287.89214 c -0.0479,-0.12666 -0.12254,-0.26825 -0.25005,-0.40917 -0.15506,-0.17128 -0.34876,-0.29801 -0.53644,-0.38437 -0.204,-0.0939 -0.41758,-0.14957 -0.64605,-0.16759 -0.29981,-0.0233 -0.56722,0.0261 -0.81756,0.0675 l -53.53512,9.4388 c -0.17469,0.0317 -0.35542,0.0636 -0.54113,0.12182 -0.15489,0.0487 -0.32937,0.12042 -0.50649,0.2364 -0.21545,0.14121 -0.37992,0.3119 -0.49566,0.47488 -0.12579,0.17716 -0.2065,0.35987 -0.24306,0.5525 -0.0481,0.25292 -0.009,0.47389 0.0273,0.68015 l 7.80404,44.25969 c 0.0255,0.14428 0.0519,0.29367 0.10943,0.44557 0.048,0.12668 0.12254,0.26826 0.25009,0.4091 0.15501,0.17136 0.34875,0.29806 0.53643,0.38441 0.20399,0.0938 0.41756,0.14955 0.64604,0.16759 0.29978,0.0236 0.56712,-0.0233 0.81711,-0.0673 l 53.5357,-9.43973 c 0.17454,-0.031 0.35523,-0.0628 0.54101,-0.12098 0.15488,-0.0484 0.32938,-0.12033 0.50648,-0.2364 0.21545,-0.14119 0.37992,-0.31187 0.49567,-0.47485 0.1258,-0.17715 0.2065,-0.35984 0.24307,-0.55253 0.0479,-0.25286 0.009,-0.47387 -0.0273,-0.6809 l -7.804,-44.2602 c -0.0257,-0.14295 -0.052,-0.29242 -0.10961,-0.44424 z"
       style="fill:none;stroke:#000000;stroke-width:1.00598"
       id="path77"
       sodipodi:nodetypes="ssssccssssccssssccssssccs" />
    <path
       style="fill:none;stroke:#000000;stroke-width:1.00627"
       d="m 99.272327,268.49447 c -0.03624,0.208 -0.0752,0.42908 -0.02712,0.6819 0.03659,0.19272 0.117378,0.37544 0.243281,0.55253 0.115831,0.16308 0.280407,0.33379 0.495984,0.47493 0.177241,0.11604 0.351831,0.18797 0.506801,0.23646 0.18589,0.058 0.36669,0.09 0.54128,0.12001 l 53.56732,9.44443 c 0.25022,0.0462 0.51761,0.0933 0.81767,0.0695 0.22859,-0.018 0.44227,-0.0741 0.6464,-0.16752 0.18777,-0.0863 0.3816,-0.21305 0.53669,-0.38442 0.12747,-0.14082 0.20218,-0.2824 0.25018,-0.40904 0.0576,-0.15194 0.0839,-0.30131 0.10943,-0.44609 l 7.80394,-44.25979 c 0.0364,-0.20524 0.0754,-0.42623 0.0274,-0.67914 -0.0366,-0.19271 -0.11738,-0.37535 -0.24328,-0.55252 -0.11583,-0.16299 -0.28041,-0.33369 -0.49599,-0.47493 -0.17724,-0.11604 -0.35183,-0.18788 -0.50681,-0.23646 -0.18586,-0.058 -0.36668,-0.09 -0.5415,-0.1229 l -53.56678,-9.44438 c -0.25053,-0.0433 -0.51792,-0.0904 -0.81799,-0.0667 -0.22856,0.018 -0.44227,0.0742 -0.64638,0.16753 -0.18778,0.0864 -0.3816,0.21295 -0.53671,0.38432 -0.12748,0.14093 -0.20218,0.2824 -0.25017,0.40905 -0.0576,0.15194 -0.0839,0.30131 -0.10954,0.44792 z"
       id="path85"
       sodipodi:nodetypes="cssssccssssccssssccsssscc" />
    <path
       style="fill:none;stroke:#000000;stroke-width:1.00629"
       d="m 132.67078,493.71744 c -0.0367,0.20672 -0.0757,0.4277 -0.0277,0.68062 0.0366,0.19264 0.11737,0.37537 0.24327,0.55254 0.11583,0.163 0.28041,0.33369 0.49599,0.47493 0.17722,0.11614 0.35184,0.18788 0.50682,0.23647 0.18588,0.058 0.36669,0.0901 0.54122,0.12092 l 53.56799,9.44543 c 0.25025,0.0443 0.51772,0.0909 0.81771,0.0676 0.22858,-0.018 0.44232,-0.0732 0.6464,-0.16754 0.18778,-0.0864 0.38162,-0.21296 0.53671,-0.38432 0.12749,-0.14094 0.20218,-0.28251 0.25019,-0.40916 0.0575,-0.15185 0.0839,-0.30131 0.10926,-0.44574 l 7.80416,-44.25931 c 0.0365,-0.20698 0.0755,-0.428 0.0275,-0.68085 -0.0366,-0.19271 -0.11737,-0.37541 -0.24326,-0.55257 -0.11584,-0.163 -0.28041,-0.3337 -0.49601,-0.47492 -0.17723,-0.11604 -0.35183,-0.18795 -0.5068,-0.23646 -0.18588,-0.0583 -0.36669,-0.0901 -0.54156,-0.12108 l -53.56746,-9.44541 c -0.25046,-0.044 -0.51796,-0.0912 -0.8179,-0.0676 -0.22859,0.018 -0.44231,0.0737 -0.6464,0.16752 -0.18779,0.0863 -0.38161,0.21302 -0.53671,0.38437 -0.12748,0.14087 -0.2022,0.28242 -0.25018,0.40907 -0.0576,0.15194 -0.0839,0.30131 -0.10913,0.44555 z"
       id="path95"
       sodipodi:nodetypes="cssssccssssccssssccsssscc" />
    <path
       style="fill:none;stroke:#000000;stroke-width:1.00628"
       d="m 800.09616,454.12456 c -0.0258,-0.14428 -0.052,-0.29369 -0.10964,-0.44559 -0.0479,-0.12666 -0.12264,-0.26822 -0.25017,-0.40908 -0.15511,-0.17135 -0.34894,-0.29803 -0.53672,-0.38436 -0.20409,-0.0938 -0.41781,-0.14951 -0.64639,-0.16753 -0.29997,-0.0237 -0.56746,0.0234 -0.81798,0.0676 l -53.56687,9.44532 c -0.17481,0.031 -0.35561,0.0628 -0.5415,0.12097 -0.15498,0.0485 -0.32959,0.12036 -0.50681,0.23647 -0.21559,0.1412 -0.38017,0.3119 -0.496,0.47491 -0.12589,0.17716 -0.20666,0.35987 -0.24326,0.55256 -0.048,0.25289 -0.009,0.4739 0.0274,0.68095 l 7.80417,44.25942 c 0.0255,0.14433 0.0519,0.2938 0.10935,0.44564 0.0479,0.12676 0.12264,0.26825 0.25017,0.40917 0.15511,0.17136 0.34893,0.29797 0.53671,0.38432 0.20411,0.0938 0.41781,0.14954 0.64639,0.16753 0.29999,0.0233 0.56755,-0.0262 0.81764,-0.0676 l 53.56745,-9.44533 c 0.17457,-0.031 0.35538,-0.063 0.54127,-0.12092 0.15499,-0.0488 0.32958,-0.12036 0.50682,-0.23647 0.21558,-0.14115 0.38017,-0.31195 0.49598,-0.47494 0.12588,-0.1771 0.20665,-0.35982 0.24327,-0.55254 0.048,-0.25281 0.009,-0.47392 -0.0272,-0.68054 z"
       id="path102"
       sodipodi:nodetypes="cssssccssssccssssccsssscc" />
    <path
       style="fill:none;stroke:#000000;stroke-width:1.00628"
       d="m 389.14851,283.0535 c -0.0363,0.2069 -0.0752,0.42799 -0.0272,0.6808 0.0366,0.19272 0.11736,0.37544 0.24326,0.55253 0.11583,0.16299 0.2804,0.33378 0.49599,0.47493 0.17724,0.11604 0.35183,0.18797 0.50681,0.23647 0.18588,0.058 0.36668,0.09 0.54131,0.12114 l 53.56723,9.44442 c 0.25018,0.045 0.51764,0.0918 0.81763,0.0685 0.22858,-0.018 0.44231,-0.0732 0.64639,-0.16742 0.18778,-0.0864 0.3816,-0.21306 0.5367,-0.38443 0.12746,-0.14083 0.20218,-0.2824 0.25017,-0.40905 0.0576,-0.15193 0.0839,-0.3013 0.10954,-0.44498 l 7.80401,-44.26025 c 0.0364,-0.20635 0.0754,-0.42734 0.0274,-0.68025 -0.0366,-0.19271 -0.11736,-0.37535 -0.24327,-0.55253 -0.11582,-0.16299 -0.28041,-0.33369 -0.49599,-0.47493 -0.17722,-0.11614 -0.35182,-0.18788 -0.5068,-0.23647 -0.18589,-0.058 -0.36668,-0.09 -0.54146,-0.12177 l -53.56666,-9.44437 c -0.25058,-0.0443 -0.51808,-0.0918 -0.81806,-0.0676 -0.22859,0.0181 -0.44229,0.0732 -0.64637,0.16755 -0.1878,0.0863 -0.38162,0.21295 -0.53671,0.38431 -0.12748,0.14092 -0.20219,0.2824 -0.25017,0.40906 -0.0576,0.15193 -0.0839,0.3013 -0.10964,0.44442 z"
       id="path115"
       sodipodi:nodetypes="cssssccssssccssssccsssscc" />
    <path
       style="fill:none;stroke:#000000;stroke-width:1.00629"
       d="m 972.02313,303.24899 c -0.17496,0.031 -0.35577,0.063 -0.54165,0.1212 -0.155,0.0488 -0.32958,0.12036 -0.50683,0.23646 -0.21557,0.14116 -0.38016,0.31185 -0.49599,0.47494 -0.12588,0.17708 -0.20666,0.35982 -0.24327,0.55254 -0.048,0.25282 -0.009,0.47392 0.0275,0.6808 l 7.80417,44.25946 c 0.0253,0.14444 0.0516,0.29384 0.10926,0.44574 0.0481,0.12665 0.12264,0.26823 0.25017,0.40909 0.15511,0.17135 0.34894,0.29803 0.53672,0.38436 0.2041,0.0938 0.41781,0.14951 0.6464,0.16753 0.29996,0.0237 0.56746,-0.0234 0.8178,-0.0676 l 53.56755,-9.44543 c 0.175,-0.0308 0.3558,-0.0627 0.5417,-0.121 0.1549,-0.0485 0.3296,-0.12037 0.5067,-0.23646 0.2156,-0.14119 0.3803,-0.31193 0.4962,-0.47493 0.1257,-0.17715 0.2065,-0.35987 0.2431,-0.55256 0.048,-0.2529 0.01,-0.47394 -0.028,-0.68058 l -7.8041,-44.26033 c -0.026,-0.14377 -0.052,-0.29313 -0.109,-0.44513 -0.048,-0.12674 -0.1224,-0.26826 -0.2502,-0.40905 -0.1551,-0.17137 -0.349,-0.29807 -0.5367,-0.38441 -0.2041,-0.0938 -0.4177,-0.14946 -0.6464,-0.16754 -0.2999,-0.0233 -0.5676,0.0262 -0.8179,0.0686 z"
       id="path124"
       sodipodi:nodetypes="cssssccssssccssssccsssscc" />
    <path
       d="m 981.9407,449.01208 c -0.0479,-0.12667 -0.12264,-0.26822 -0.25018,-0.40909 -0.1551,-0.17135 -0.34892,-0.29803 -0.5367,-0.38436 -0.20411,-0.0938 -0.41783,-0.14952 -0.6464,-0.16752 -0.29996,-0.0237 -0.56746,0.0234 -0.81791,0.0676 l -53.56735,9.44539 c -0.17485,0.0311 -0.35567,0.0629 -0.54155,0.12118 -0.15498,0.0484 -0.32956,0.12035 -0.5068,0.23647 -0.21558,0.1412 -0.38018,0.31191 -0.49599,0.47492 -0.12589,0.17716 -0.20667,0.35985 -0.24328,0.55256 -0.048,0.25286 -0.009,0.47387 0.0275,0.68087 l 7.80415,44.25941 c 0.0254,0.14443 0.0518,0.2938 0.10936,0.44573 0.0481,0.12664 0.12273,0.26812 0.25019,0.40906 0.15509,0.17136 0.34893,0.29798 0.53671,0.38432 0.2041,0.0938 0.41781,0.14954 0.6464,0.16754 0.29998,0.0233 0.56756,-0.0262 0.81771,-0.0676 l 53.56789,-9.44543 c 0.17453,-0.0309 0.35535,-0.063 0.54121,-0.12091 0.155,-0.0488 0.32959,-0.12037 0.50682,-0.23647 0.21558,-0.14124 0.38017,-0.31193 0.49599,-0.47494 0.12589,-0.17717 0.20666,-0.35981 0.24327,-0.55253 0.048,-0.25291 0.009,-0.47391 -0.0277,-0.68062 l -7.80414,-44.25983 c -0.0252,-0.14423 -0.0516,-0.29362 -0.10912,-0.44554 z"
       style="fill:none;stroke:#000000;stroke-width:1.00629"
       id="path125"
       sodipodi:nodetypes="ssssccssssccssssccssssccs" />
    <path
       style="fill:none;stroke:#000000;stroke-width:1.00629"
       d="m 844.06899,418.89613 c 0.0252,0.1443 0.0516,0.29368 0.10913,0.44559 0.0479,0.12668 0.12264,0.26823 0.25017,0.4091 0.1551,0.17135 0.34894,0.29802 0.53671,0.38436 0.2041,0.0938 0.41781,0.14951 0.6464,0.16753 0.29998,0.0237 0.56749,-0.0233 0.8179,-0.0676 l 53.56732,-9.4454 c 0.17491,-0.031 0.35571,-0.0629 0.54161,-0.12099 0.15496,-0.0485 0.32958,-0.12036 0.50681,-0.23647 0.21558,-0.14121 0.38017,-0.31191 0.49599,-0.47491 0.12589,-0.17717 0.20666,-0.35987 0.24326,-0.55257 0.048,-0.25285 0.009,-0.47388 -0.0275,-0.68093 l -7.80414,-44.25935 c -0.0254,-0.14436 -0.0518,-0.29375 -0.10925,-0.44568 -0.0481,-0.12664 -0.12264,-0.26822 -0.25019,-0.40909 -0.1551,-0.17135 -0.34893,-0.29802 -0.53672,-0.38435 -0.20409,-0.0938 -0.41781,-0.14951 -0.64638,-0.16753 -0.29997,-0.0237 -0.56749,0.0233 -0.81778,0.0675 l -53.56732,9.4454 c -0.17503,0.0309 -0.35582,0.0628 -0.54171,0.121 -0.15497,0.0486 -0.32959,0.12037 -0.50682,0.23649 -0.21558,0.14119 -0.38017,0.3119 -0.49599,0.4749 -0.12589,0.17717 -0.20666,0.35987 -0.24326,0.55256 -0.048,0.25286 -0.009,0.47392 0.0276,0.68055 z"
       id="path134"
       sodipodi:nodetypes="cssssccssssccssssccsssscc" />
    <path
       style="fill:none;stroke:#000000;stroke-width:1.00629"
       d="m 770.03707,413.67225 c 0.0253,0.14436 0.0517,0.29374 0.10924,0.44566 0.048,0.12666 0.12265,0.26824 0.25019,0.40909 0.15511,0.17135 0.34892,0.29803 0.53671,0.38436 0.2041,0.0938 0.41781,0.14951 0.6464,0.16753 0.29999,0.0237 0.56746,-0.0234 0.81779,-0.0675 l 53.56739,-9.44541 c 0.17499,-0.0309 0.3558,-0.0628 0.54169,-0.121 0.15498,-0.0485 0.32958,-0.12036 0.50679,-0.23648 0.2156,-0.1412 0.38019,-0.3119 0.496,-0.4749 0.12589,-0.17717 0.20667,-0.35988 0.24328,-0.55257 0.048,-0.25286 0.009,-0.47393 -0.0276,-0.68053 l -7.80416,-44.25994 c -0.0253,-0.14431 -0.0516,-0.29369 -0.10914,-0.44562 -0.048,-0.12665 -0.12264,-0.26824 -0.25018,-0.40909 -0.15511,-0.17135 -0.34893,-0.29802 -0.53671,-0.38436 -0.2041,-0.0938 -0.41781,-0.1495 -0.6464,-0.16752 -0.29995,-0.0237 -0.56746,0.0234 -0.81785,0.0676 l -53.56738,9.44541 c -0.17494,0.031 -0.35574,0.0628 -0.54162,0.12109 -0.15496,0.0486 -0.32957,0.12046 -0.5068,0.23648 -0.2156,0.1412 -0.38018,0.31191 -0.49599,0.4749 -0.1259,0.17718 -0.20667,0.35988 -0.24328,0.55257 -0.048,0.25287 -0.009,0.47389 0.0275,0.6805 z"
       id="path142"
       sodipodi:nodetypes="cssssccssssccssssccsssscc" />
    <path
       style="fill:none;stroke:#000000;stroke-width:1.00629"
       d="m 497.82312,585.05593 c 0.19473,0.16346 0.40278,0.33809 0.6744,0.46754 0.207,0.0988 0.41989,0.15734 0.64345,0.17862 0.20576,0.0191 0.437,0.007 0.65698,-0.0646 0.1809,-0.0582 0.3163,-0.1435 0.42119,-0.22912 0.1259,-0.10281 0.2237,-0.21866 0.31754,-0.33144 l 28.88851,-34.42813 c 0.13508,-0.16062 0.27928,-0.33253 0.36405,-0.57555 0.0646,-0.18526 0.0861,-0.38387 0.0656,-0.60021 -0.0188,-0.19911 -0.076,-0.42927 -0.19209,-0.65932 -0.0954,-0.18915 -0.21071,-0.33861 -0.32066,-0.45813 -0.13184,-0.14343 -0.27232,-0.2616 -0.4085,-0.37553 l -41.66786,-34.96364 c -0.19464,-0.16319 -0.40272,-0.33783 -0.6744,-0.4672 -0.207,-0.0989 -0.41991,-0.15734 -0.64369,-0.17766 -0.20581,-0.0191 -0.43702,-0.007 -0.65699,0.0645 -0.1809,0.0582 -0.31629,0.14349 -0.42116,0.22921 -0.12579,0.10275 -0.2237,0.21865 -0.31756,0.33113 l -28.88834,34.42806 c -0.13507,0.16099 -0.27945,0.33282 -0.36426,0.57589 -0.0647,0.1851 -0.0861,0.38378 -0.0656,0.6002 0.0188,0.19905 0.0759,0.42917 0.19208,0.65924 0.0955,0.1891 0.21073,0.3387 0.32067,0.45822 0.13187,0.14333 0.27226,0.26157 0.40865,0.37514 z"
       id="path155"
       sodipodi:nodetypes="cssssccssssccssssccsssscc" />
    <path
       d="m 433.4591,446.91284 c 0.0366,0.19269 0.11738,0.3754 0.24328,0.55256 0.11582,0.16299 0.28041,0.33371 0.49599,0.47492 0.17724,0.11603 0.35182,0.18793 0.5068,0.23646 0.18589,0.0583 0.3667,0.0901 0.54134,0.12104 l 53.5674,9.44537 c 0.25033,0.044 0.51785,0.0911 0.81781,0.0675 0.2286,-0.018 0.44229,-0.0737 0.64639,-0.16752 0.1878,-0.0863 0.3816,-0.21301 0.53671,-0.38437 0.12747,-0.14087 0.20218,-0.28242 0.25018,-0.40907 0.0575,-0.15193 0.0839,-0.30132 0.10933,-0.44561 l 7.8042,-44.25985 c 0.0365,-0.20666 0.0754,-0.42768 0.0274,-0.68054 -0.0366,-0.19271 -0.11736,-0.37541 -0.24326,-0.55258 -0.11583,-0.163 -0.28041,-0.3337 -0.49599,-0.4749 -0.17723,-0.11604 -0.35183,-0.18794 -0.50682,-0.23647 -0.18587,-0.0583 -0.36667,-0.0901 -0.5414,-0.12106 l -53.56709,-9.44534 c -0.25057,-0.0441 -0.51807,-0.0913 -0.81803,-0.0676 -0.22859,0.018 -0.44229,0.0737 -0.64639,0.16752 -0.18779,0.0863 -0.3816,0.21302 -0.53672,0.38436 -0.12747,0.14087 -0.20217,0.28242 -0.25017,0.40909 -0.0576,0.15192 -0.0839,0.30131 -0.10945,0.44568 l -7.80417,44.25938 c -0.0363,0.20706 -0.0752,0.42807 -0.0273,0.68096 z"
       style="fill:none;stroke:#000000;stroke-width:1.00629"
       id="path162"
       sodipodi:nodetypes="ssssccssssccssssccssssccs" />
    <path
       d="m 429.66253,390.09778 c -0.0366,-0.19271 -0.11736,-0.37541 -0.24326,-0.55257 -0.11584,-0.163 -0.28041,-0.33371 -0.49599,-0.47492 -0.17725,-0.11605 -0.35184,-0.18794 -0.50682,-0.23646 -0.18587,-0.0583 -0.36668,-0.0901 -0.54126,-0.12093 l -53.56751,-9.44535 c -0.25019,-0.0441 -0.5177,-0.0912 -0.81767,-0.0675 -0.22857,0.018 -0.44229,0.0737 -0.64638,0.16752 -0.18778,0.0863 -0.38161,0.21302 -0.53671,0.38437 -0.12748,0.14087 -0.20218,0.28243 -0.25018,0.40908 -0.0576,0.15193 -0.0839,0.30131 -0.10935,0.44565 l -7.80412,44.25981 c -0.0365,0.20662 -0.0755,0.42764 -0.0274,0.68051 0.0366,0.1927 0.11738,0.3754 0.24326,0.55256 0.11584,0.163 0.28042,0.33371 0.49599,0.47491 0.17724,0.11604 0.35184,0.18795 0.50681,0.23648 0.18588,0.0583 0.36668,0.0901 0.54152,0.12097 l 53.56696,9.44533 c 0.25049,0.044 0.51799,0.0913 0.81794,0.0676 0.22861,-0.0181 0.44231,-0.0737 0.64641,-0.16752 0.18778,-0.0863 0.3816,-0.21301 0.5367,-0.38436 0.12747,-0.14088 0.20217,-0.28244 0.25018,-0.40909 0.0575,-0.15192 0.0839,-0.3013 0.10964,-0.44561 l 7.80414,-44.25981 c 0.0362,-0.20665 0.0752,-0.42766 0.0272,-0.68053 z"
       style="fill:none;stroke:#000000;stroke-width:1.00628"
       id="path166"
       sodipodi:nodetypes="ssssccssssccssssccssssccs" />
    <path
       style="fill:none;stroke:#000000;stroke-width:1.00628"
       d="m 919.66352,432.98318 c 0.0256,0.14436 0.052,0.29374 0.10946,0.44567 0.0481,0.12665 0.12264,0.26823 0.25017,0.40907 0.15512,0.17136 0.34894,0.29805 0.53671,0.38439 0.20411,0.0938 0.41782,0.1495 0.6464,0.16751 0.29996,0.0236 0.56745,-0.0234 0.81752,-0.0675 l 53.56747,-9.44534 c 0.1747,-0.0309 0.3555,-0.0627 0.54141,-0.12095 0.15496,-0.0486 0.32958,-0.12036 0.5068,-0.23646 0.21557,-0.14121 0.38016,-0.31192 0.49598,-0.47493 0.12589,-0.17715 0.20667,-0.35986 0.24328,-0.55255 0.048,-0.25287 0.009,-0.47388 -0.0273,-0.68055 l -7.80414,-44.25986 c -0.0255,-0.1443 -0.0519,-0.29369 -0.10944,-0.44562 -0.0481,-0.12665 -0.12264,-0.26822 -0.25019,-0.40908 -0.1551,-0.17135 -0.34892,-0.29803 -0.53669,-0.38436 -0.2041,-0.0938 -0.41782,-0.14951 -0.64641,-0.16752 -0.29995,-0.0237 -0.56745,0.0234 -0.81756,0.0675 l -53.56746,9.44534 c -0.17467,0.031 -0.35548,0.0628 -0.54134,0.12104 -0.15499,0.0485 -0.3296,0.12037 -0.50683,0.23648 -0.21558,0.1412 -0.38016,0.31191 -0.49598,0.47492 -0.1259,0.17715 -0.20667,0.35985 -0.24327,0.55255 -0.048,0.25286 -0.009,0.47388 0.0273,0.68096 z"
       id="path178"
       sodipodi:nodetypes="cssssccssssccssssccsssscc" />
    <path
       d="m 662.80892,306.33784 c 0.15498,-0.0488 0.32958,-0.12036 0.50681,-0.2363 0.2156,-0.14113 0.38021,-0.31167 0.49606,-0.47452 0.12592,-0.17701 0.20673,-0.35956 0.24337,-0.55207 0.0481,-0.25255 0.009,-0.47329 -0.0275,-0.67815 l -7.79519,-44.21116 c -0.0254,-0.14482 -0.0517,-0.29402 -0.10927,-0.44577 -0.0479,-0.12652 -0.12258,-0.26792 -0.25008,-0.40858 -0.15507,-0.17114 -0.34886,-0.29767 -0.53662,-0.38389 -0.20406,-0.0937 -0.41776,-0.1493 -0.64632,-0.16723 -0.29997,-0.0232 -0.56752,0.0263 -0.81783,0.0696 l -53.56624,9.44426 c -0.17473,0.03 -0.35555,0.0621 -0.54141,0.11984 -0.155,0.0487 -0.32961,0.12036 -0.50684,0.23639 -0.2156,0.14103 -0.3802,0.31158 -0.49605,0.47443 -0.12592,0.177 -0.20672,0.35954 -0.24337,0.55206 -0.0481,0.25256 -0.009,0.4733 0.0271,0.68129 l 7.79553,44.20656 c 0.0253,0.1463 0.0516,0.2955 0.10923,0.44725 0.0479,0.12652 0.12258,0.26792 0.25008,0.40866 0.15507,0.17106 0.34885,0.2976 0.53662,0.38381 0.20407,0.0937 0.41775,0.14929 0.64632,0.16723 0.29997,0.0232 0.56753,-0.0263 0.81772,-0.0668 l 53.56624,-9.44426 c 0.17484,-0.0329 0.35566,-0.0647 0.54156,-0.12291 z"
       style="fill:none;stroke:#000000;stroke-width:1.00729;stroke-dasharray:none"
       id="path185"
       sodipodi:nodetypes="ssssccssssccssssccssssccs" />
    <path
       d="m 298.78974,303.05028 c -0.0366,-0.19273 -0.11737,-0.37535 -0.24328,-0.55252 -0.11583,-0.16299 -0.2804,-0.33369 -0.496,-0.47493 -0.17722,-0.11614 -0.35182,-0.18798 -0.50681,-0.23646 -0.18589,-0.058 -0.36668,-0.09 -0.54147,-0.11903 l -53.56707,-9.44938 c -0.25046,-0.0421 -0.51784,-0.0904 -0.81787,-0.0658 -0.22857,0.018 -0.44227,0.0741 -0.64639,0.16753 -0.18777,0.0863 -0.38161,0.21295 -0.53671,0.38431 -0.12746,0.14082 -0.20217,0.28239 -0.25017,0.40904 -0.0576,0.15193 -0.0839,0.3013 -0.10909,0.4471 l -7.80392,44.25637 c -0.0367,0.20695 -0.0757,0.42796 -0.0276,0.68083 0.0366,0.19269 0.11738,0.37539 0.24327,0.55255 0.11584,0.163 0.28042,0.3337 0.496,0.4749 0.17723,0.11604 0.35183,0.18793 0.5068,0.23646 0.18589,0.0583 0.36669,0.0901 0.54122,0.12112 l 53.56757,9.44536 c 0.25023,0.0439 0.51773,0.091 0.8177,0.0674 0.22858,-0.018 0.44228,-0.0737 0.64639,-0.16752 0.18777,-0.0863 0.38161,-0.213 0.53671,-0.38433 0.12747,-0.14086 0.20217,-0.28242 0.25016,-0.40908 0.0575,-0.15192 0.0839,-0.3013 0.10932,-0.44551 l 7.80393,-44.25587 c 0.0364,-0.20901 0.0754,-0.43 0.0274,-0.68289 z"
       style="fill:none;stroke:#000000;stroke-width:1.00627"
       id="path196"
       sodipodi:nodetypes="ssssccssssccssssccssssccs" />
    <path
       d="m 460.61323,496.97279 c 0.0144,-0.19563 -0.016,-0.39285 -0.0915,-0.59645 -0.0695,-0.18735 -0.18398,-0.39475 -0.35532,-0.58679 -0.14085,-0.15781 -0.29061,-0.27223 -0.4275,-0.35915 -0.16428,-0.10448 -0.33032,-0.18169 -0.49061,-0.25669 l -49.21498,-22.94923 c -0.22993,-0.10716 -0.47569,-0.22167 -0.77108,-0.27628 -0.22515,-0.0415 -0.44563,-0.0426 -0.66679,-0.005 -0.20347,0.0352 -0.42323,0.10716 -0.61722,0.23268 -0.15943,0.10317 -0.26815,0.22061 -0.34724,0.33055 -0.0949,0.13179 -0.15902,0.26928 -0.22089,0.402 l -18.99377,40.73247 c -0.0889,0.19024 -0.18365,0.39369 -0.20282,0.65031 -0.0144,0.19562 0.0159,0.39285 0.0915,0.59646 0.0695,0.18733 0.18397,0.39465 0.35529,0.58668 0.14087,0.15783 0.29063,0.27234 0.42752,0.35925 0.16427,0.10448 0.33032,0.18158 0.49085,0.25647 l 49.21446,22.94919 c 0.23019,0.10723 0.47597,0.22196 0.77139,0.27648 0.22517,0.0414 0.44563,0.0426 0.66679,0.005 0.20346,-0.0352 0.42322,-0.10726 0.61721,-0.23269 0.15944,-0.10316 0.26816,-0.2206 0.34726,-0.33054 0.095,-0.13185 0.15904,-0.26936 0.22109,-0.40218 l 18.9938,-40.73199 c 0.0886,-0.19066 0.18342,-0.39399 0.2025,-0.65064 z"
       style="fill:none;stroke:#000000;stroke-width:1.00545"
       id="path202"
       sodipodi:nodetypes="ssssccssssccssssccssssccs" />
    <path
       style="fill:none;stroke:#000000;stroke-width:1.00628"
       d="m 856.5715,489.80218 c 0.0256,0.14433 0.052,0.2937 0.10945,0.44564 0.0481,0.12665 0.12264,0.26824 0.25017,0.40907 0.15511,0.17135 0.34893,0.29807 0.53671,0.38441 0.2041,0.0938 0.41781,0.14944 0.6464,0.16753 0.29999,0.0233 0.56755,-0.0261 0.81807,-0.0676 l 53.5669,-9.44541 c 0.17472,-0.031 0.35554,-0.063 0.54141,-0.12095 0.15499,-0.0488 0.32958,-0.12046 0.50679,-0.23647 0.21558,-0.14124 0.38017,-0.31194 0.496,-0.47493 0.12588,-0.17719 0.20666,-0.35992 0.24327,-0.55254 0.048,-0.25291 0.009,-0.47393 -0.0273,-0.68062 l -7.80413,-44.25976 c -0.0255,-0.1443 -0.0519,-0.29369 -0.10944,-0.44561 -0.0481,-0.12666 -0.12264,-0.26823 -0.25018,-0.40908 -0.15509,-0.17135 -0.34893,-0.29804 -0.5367,-0.38437 -0.2041,-0.0938 -0.41781,-0.14951 -0.64641,-0.16752 -0.29996,-0.0237 -0.56747,0.0233 -0.81755,0.0675 l -53.56747,9.44535 c -0.17466,0.031 -0.35547,0.0628 -0.54138,0.12095 -0.15496,0.0485 -0.32955,0.12045 -0.50681,0.23647 -0.21557,0.14121 -0.38016,0.31191 -0.49597,0.47491 -0.1259,0.17717 -0.20667,0.35987 -0.24328,0.55257 -0.048,0.25286 -0.009,0.47387 0.0273,0.68094 z"
       id="path212"
       sodipodi:nodetypes="cssssccssssccssssccsssscc" />
    <path
       style="fill:none;stroke:#000000;stroke-width:1.00625"
       d="m 888.61459,244.84896 c -0.17484,0.0288 -0.35568,0.0607 -0.54149,0.11954 -0.15499,0.0488 -0.32958,0.12036 -0.5068,0.23646 -0.2156,0.14124 -0.38019,0.31192 -0.49601,0.47491 -0.12589,0.17708 -0.20667,0.35979 -0.24328,0.5525 -0.048,0.25279 -0.009,0.47389 0.0273,0.68242 l 7.80363,44.2525 c 0.0254,0.14608 0.0517,0.29543 0.10924,0.44736 0.0479,0.12664 0.12272,0.26811 0.25017,0.40902 0.15511,0.17136 0.34894,0.29796 0.53672,0.38429 0.2041,0.0938 0.4178,0.14952 0.64639,0.16752 0.29998,0.0233 0.56755,-0.0262 0.81765,-0.0658 l 53.56801,-9.44954 c 0.17453,-0.0288 0.35535,-0.0596 0.54114,-0.11877 0.15499,-0.0488 0.32957,-0.12036 0.50682,-0.23646 0.21559,-0.14123 0.38017,-0.31192 0.496,-0.4749 0.12589,-0.17718 0.20666,-0.3598 0.24327,-0.5525 0.0481,-0.25291 0.009,-0.47388 -0.0279,-0.67853 l -7.80345,-44.2571 c -0.0252,-0.14535 -0.0515,-0.2947 -0.10911,-0.44662 -0.0481,-0.12663 -0.12264,-0.26821 -0.25018,-0.40902 -0.15509,-0.17134 -0.34892,-0.29805 -0.5367,-0.38437 -0.2041,-0.0937 -0.41782,-0.14944 -0.64639,-0.16743 -0.29999,-0.0233 -0.56757,0.0262 -0.81784,0.0649 z"
       id="path214"
       sodipodi:nodetypes="cssssccssssccssssccsssscc" />
    <path
       d="m 360.31941,368.73185 c -0.0366,-0.1927 -0.11736,-0.37539 -0.24326,-0.55257 -0.11584,-0.16299 -0.2804,-0.3337 -0.496,-0.4749 -0.17723,-0.11604 -0.35183,-0.18795 -0.50681,-0.23648 -0.18588,-0.0583 -0.36668,-0.0901 -0.54162,-0.12109 l -53.56738,-9.4454 c -0.25037,-0.044 -0.51788,-0.0912 -0.81784,-0.0675 -0.2286,0.018 -0.44231,0.0737 -0.6464,0.16752 -0.18779,0.0863 -0.3816,0.21301 -0.53672,0.38436 -0.12747,0.14087 -0.20219,0.28243 -0.25017,0.40909 -0.0576,0.15193 -0.0839,0.3013 -0.10914,0.44562 l -7.80415,44.25987 c -0.0366,0.20664 -0.0756,0.42766 -0.0276,0.68053 0.0366,0.1927 0.11737,0.3754 0.24327,0.55257 0.11583,0.163 0.28041,0.3337 0.496,0.4749 0.17723,0.11604 0.35182,0.18796 0.50681,0.23648 0.18589,0.0583 0.36669,0.0901 0.54168,0.121 l 53.56739,9.44541 c 0.25032,0.0441 0.51781,0.0912 0.81779,0.0675 0.22859,-0.018 0.4423,-0.0737 0.6464,-0.16753 0.18778,-0.0863 0.3816,-0.21302 0.53671,-0.38437 0.12746,-0.14086 0.20218,-0.28242 0.25018,-0.40908 0.0576,-0.15193 0.0839,-0.30131 0.10925,-0.44566 l 7.80414,-44.25987 c 0.0366,-0.20659 0.0756,-0.42761 0.0275,-0.68049 z"
       style="fill:none;stroke:#000000;stroke-width:1.00629"
       id="path222"
       sodipodi:nodetypes="ssssccssssccssssccssssccs" />
    <path
       style="fill:none;stroke:#000000;stroke-width:1.00629"
       d="m 501.31663,386.83712 c 0.25033,0.0439 0.51782,0.091 0.8178,0.0674 0.22858,-0.018 0.44229,-0.0737 0.64639,-0.16753 0.18779,-0.0863 0.3816,-0.21301 0.53671,-0.38436 0.12747,-0.14087 0.20219,-0.28242 0.25018,-0.40908 0.0576,-0.15194 0.0839,-0.30131 0.10932,-0.44554 l 7.80414,-44.25985 c 0.0365,-0.20674 0.0755,-0.42776 0.0274,-0.68063 -0.0366,-0.19269 -0.11737,-0.3754 -0.24328,-0.55256 -0.11584,-0.163 -0.28039,-0.33371 -0.49598,-0.47492 -0.17724,-0.11604 -0.35184,-0.18794 -0.50681,-0.23647 -0.18589,-0.0583 -0.36669,-0.0901 -0.54145,-0.12096 l -53.56745,-9.44536 c -0.25021,-0.0442 -0.51771,-0.0913 -0.81767,-0.0676 -0.22859,0.018 -0.44231,0.0737 -0.64641,0.16752 -0.18777,0.0863 -0.38159,0.21302 -0.5367,0.38437 -0.12748,0.14087 -0.20218,0.28242 -0.25017,0.40908 -0.0576,0.15193 -0.0839,0.30131 -0.10937,0.44574 l -7.80416,44.2594 c -0.0365,0.20698 -0.0755,0.42799 -0.0274,0.68086 0.0366,0.1927 0.11736,0.3754 0.24326,0.55256 0.11584,0.163 0.28042,0.33371 0.49599,0.47492 0.17723,0.11604 0.35183,0.18794 0.50682,0.23646 0.18588,0.0583 0.36669,0.0901 0.54149,0.12117 z"
       id="path229"
       sodipodi:nodetypes="cssssccssssccssssccsssscc" />
    <path
       d="m 956.93549,307.20042 c -0.0479,-0.12666 -0.12264,-0.26823 -0.25018,-0.40905 -0.15511,-0.17136 -0.34893,-0.29807 -0.53671,-0.3844 -0.20409,-0.0938 -0.41781,-0.14954 -0.64638,-0.16753 -0.3,-0.0233 -0.56756,0.0261 -0.81775,0.0676 l -53.56704,9.44443 c -0.17508,0.0318 -0.35593,0.0637 -0.54177,0.12223 -0.155,0.0488 -0.32959,0.12046 -0.50682,0.23645 -0.21558,0.14124 -0.38017,0.31195 -0.49599,0.47494 -0.1259,0.17717 -0.20666,0.35989 -0.24328,0.55261 -0.048,0.25282 -0.009,0.47381 0.0276,0.6796 l 7.80392,44.2596 c 0.0252,0.14428 0.0516,0.29367 0.10913,0.44558 0.0479,0.12667 0.12264,0.26822 0.25018,0.40907 0.1551,0.17135 0.34892,0.29803 0.53669,0.38436 0.20411,0.0938 0.41782,0.1495 0.64641,0.16751 0.29998,0.0237 0.56745,-0.0234 0.81788,-0.0675 l 53.56706,-9.44534 c 0.17489,-0.031 0.35569,-0.0629 0.54158,-0.12108 0.15499,-0.0485 0.32958,-0.12036 0.50682,-0.23646 0.21558,-0.1412 0.38017,-0.31191 0.49598,-0.4749 0.1259,-0.17718 0.20667,-0.35987 0.24328,-0.55256 0.048,-0.25286 0.009,-0.47386 -0.0275,-0.68091 l -7.80389,-44.26011 c -0.0255,-0.14248 -0.0518,-0.29185 -0.10943,-0.44377 z"
       style="fill:none;stroke:#000000;stroke-width:1.00627"
       id="path239"
       sodipodi:nodetypes="ssssccssssccssssccssssccs" />
    <path
       d="m 210.69271,388.04283 c -0.0366,-0.1927 -0.11737,-0.3754 -0.24327,-0.55256 -0.11583,-0.16299 -0.28041,-0.33371 -0.49598,-0.47491 -0.17724,-0.11604 -0.35183,-0.18794 -0.50682,-0.23648 -0.18588,-0.0583 -0.36668,-0.0901 -0.54136,-0.12095 l -53.56747,-9.44534 c -0.25011,-0.044 -0.51759,-0.0911 -0.81757,-0.0675 -0.22858,0.018 -0.4423,0.0737 -0.6464,0.16752 -0.18777,0.0863 -0.38159,0.21301 -0.5367,0.38436 -0.12747,0.14087 -0.20219,0.28242 -0.25018,0.40908 -0.0576,0.15193 -0.0839,0.30132 -0.10944,0.44562 l -7.80415,44.25986 c -0.0364,0.20666 -0.0754,0.42767 -0.0273,0.68055 0.0366,0.19269 0.11738,0.37539 0.24329,0.55255 0.11583,0.16301 0.2804,0.33372 0.49597,0.47493 0.17724,0.11604 0.35183,0.18793 0.50682,0.23646 0.18589,0.0583 0.36669,0.0901 0.54139,0.12095 l 53.56748,9.44534 c 0.25005,0.0441 0.51756,0.0912 0.81753,0.0675 0.22858,-0.018 0.4423,-0.0737 0.6464,-0.16752 0.18777,-0.0863 0.38159,-0.21303 0.5367,-0.38439 0.12747,-0.14085 0.20217,-0.28241 0.25018,-0.40907 0.0576,-0.15192 0.0839,-0.3013 0.10946,-0.44567 l 7.80415,-44.25939 c 0.0363,-0.20707 0.0752,-0.42809 0.0273,-0.68095 z"
       style="fill:none;stroke:#000000;stroke-width:1.00628"
       id="path250"
       sodipodi:nodetypes="ssssccssssccssssccssssccs" />
    <path
       style="fill:none;stroke:#000000;stroke-width:1.00627"
       d="m 513.81963,315.93139 c 0.25032,0.0421 0.5177,0.0904 0.81776,0.0667 0.2286,-0.018 0.44227,-0.0741 0.64639,-0.16753 0.18778,-0.0863 0.3816,-0.21304 0.53671,-0.3843 0.12748,-0.14093 0.20219,-0.28249 0.25017,-0.40916 0.0576,-0.15193 0.0839,-0.30129 0.10931,-0.44773 l 7.80405,-44.25488 c 0.0365,-0.20818 0.0754,-0.42916 0.0273,-0.68199 -0.0366,-0.19271 -0.11739,-0.37544 -0.24328,-0.55261 -0.11583,-0.16299 -0.28041,-0.33369 -0.496,-0.47483 -0.17723,-0.11604 -0.35182,-0.18797 -0.50681,-0.23656 -0.18587,-0.058 -0.36668,-0.09 -0.5414,-0.11993 l -53.5672,-9.44442 c -0.25038,-0.0462 -0.51797,-0.0923 -0.81786,-0.0695 -0.22859,0.018 -0.44232,0.0732 -0.6464,0.16751 -0.18778,0.0863 -0.3816,0.21306 -0.5367,0.38442 -0.12757,0.14082 -0.20218,0.2824 -0.25018,0.40905 -0.0575,0.15192 -0.0839,0.30129 -0.10935,0.44626 l -7.80373,44.25949 c -0.0367,0.20505 -0.0756,0.42604 -0.0276,0.67886 0.0366,0.19271 0.11737,0.37543 0.24327,0.55261 0.11583,0.16299 0.28041,0.33369 0.496,0.47492 0.17724,0.11604 0.35183,0.18789 0.50681,0.23647 0.18588,0.058 0.3667,0.09 0.54152,0.12311 z"
       id="path259"
       sodipodi:nodetypes="cssssccssssccssssccsssscc" />
    <path
       style="fill:none;stroke:#000000;stroke-width:1.00624"
       d="m 745.03171,271.8569 c 0.0257,0.14561 0.0521,0.29496 0.10956,0.44689 0.0481,0.12662 0.12273,0.26812 0.25017,0.40904 0.1551,0.17134 0.34893,0.29794 0.53671,0.38428 0.20409,0.0938 0.4178,0.14952 0.64638,0.16751 0.29998,0.0233 0.56755,-0.0261 0.81789,-0.0658 l 53.5664,-9.44926 c 0.1748,-0.0288 0.35563,-0.0607 0.54143,-0.11923 0.15499,-0.0487 0.32958,-0.12036 0.5068,-0.23644 0.21558,-0.14125 0.38017,-0.31193 0.49599,-0.47492 0.12589,-0.17716 0.20666,-0.35979 0.24327,-0.5525 0.048,-0.2529 0.009,-0.47386 -0.0273,-0.6827 l -7.80368,-44.25284 c -0.0255,-0.14581 -0.0517,-0.29516 -0.1093,-0.44709 -0.0479,-0.12664 -0.12264,-0.26822 -0.25016,-0.40903 -0.15511,-0.17134 -0.34892,-0.29804 -0.5367,-0.38438 -0.2041,-0.0937 -0.4178,-0.14943 -0.64639,-0.16752 -0.29997,-0.0233 -0.56754,0.0262 -0.81759,0.0658 l -53.56694,9.44936 c -0.17456,0.0287 -0.35539,0.0606 -0.5412,0.11899 -0.15496,0.0487 -0.32956,0.12035 -0.50679,0.23645 -0.21557,0.14114 -0.38016,0.31184 -0.49598,0.47491 -0.12589,0.17708 -0.20666,0.3598 -0.24328,0.5525 -0.048,0.2528 -0.009,0.47386 0.0271,0.68288 z"
       id="path268"
       sodipodi:nodetypes="cssssccssssccssssccsssscc" />
    <path
       d="m 1015.3389,223.79144 c -0.048,-0.12675 -0.1224,-0.26819 -0.2502,-0.40906 -0.1551,-0.17135 -0.349,-0.29797 -0.5367,-0.38432 -0.2042,-0.0938 -0.4178,-0.14952 -0.6464,-0.16752 -0.3,-0.0233 -0.5675,0.0261 -0.818,0.0667 l -53.56663,9.44436 c -0.17483,0.0329 -0.35567,0.0647 -0.54152,0.12279 -0.155,0.0488 -0.32957,0.12036 -0.50682,0.23646 -0.21557,0.14124 -0.38015,0.31195 -0.49597,0.47493 -0.12589,0.17718 -0.20666,0.35981 -0.24327,0.55253 -0.048,0.25291 -0.009,0.47389 0.0275,0.67914 l 7.80394,44.25988 c 0.0255,0.14479 0.0519,0.29416 0.10943,0.44608 0.0481,0.12663 0.12264,0.26823 0.25017,0.40906 0.1551,0.17136 0.34893,0.29806 0.5367,0.3844 0.20411,0.0938 0.41781,0.14945 0.6464,0.16753 0.29998,0.0233 0.56754,-0.0262 0.81766,-0.0695 l 53.56716,-9.44441 c 0.1746,-0.03 0.3555,-0.0621 0.5413,-0.12002 0.155,-0.0487 0.3296,-0.12036 0.5068,-0.23645 0.2156,-0.14116 0.3803,-0.31187 0.496,-0.47494 0.1259,-0.1771 0.2066,-0.3598 0.2433,-0.55253 0.048,-0.25287 0.01,-0.47379 -0.027,-0.682 l -7.804,-44.25529 c -0.025,-0.14663 -0.052,-0.29599 -0.1094,-0.44791 z"
       style="fill:none;stroke:#000000;stroke-width:1.00627"
       id="path271"
       sodipodi:nodetypes="ssssccssssccssssccssssccs" />
    <path
       d="m 179.50722,235.42997 c -0.22856,0.0178 -0.44219,0.0735 -0.64623,0.16632 -0.1877,0.0859 -0.38142,0.21195 -0.5364,0.38252 -0.12734,0.14018 -0.20194,0.28114 -0.24986,0.40727 -0.0574,0.15129 -0.0837,0.30004 -0.10879,0.44479 l -7.77221,44.0798 c -0.0366,0.20386 -0.0754,0.42394 -0.0273,0.6759 0.0367,0.19198 0.11763,0.37395 0.24364,0.55052 0.11593,0.16243 0.28062,0.33258 0.49628,0.4734 0.1773,0.11584 0.35194,0.18748 0.50694,0.23589 0.18591,0.0579 0.36672,0.0899 0.54117,0.11868 l 53.56986,9.44987 c 0.25025,0.0421 0.51764,0.0904 0.81761,0.0661 0.22857,-0.0178 0.44222,-0.0726 0.64623,-0.16641 0.18771,-0.0859 0.38142,-0.21185 0.5364,-0.38243 0.12738,-0.14027 0.20195,-0.28115 0.24986,-0.40726 0.0574,-0.15129 0.0837,-0.30006 0.10892,-0.44554 l 7.77237,-44.07522 c 0.0363,-0.20771 0.0751,-0.42788 0.0268,-0.67976 -0.0367,-0.19198 -0.11764,-0.37404 -0.24364,-0.55052 -0.11594,-0.16243 -0.28063,-0.33257 -0.4963,-0.4734 -0.17727,-0.11585 -0.35191,-0.18748 -0.50692,-0.23589 -0.1859,-0.0579 -0.36671,-0.09 -0.54152,-0.11945 l -53.56931,-9.44978 c -0.25046,-0.0411 -0.51786,-0.0893 -0.81782,-0.0652 z"
       style="fill:none;stroke:#000000;stroke-width:1.00425"
       id="path278"
       sodipodi:nodetypes="ssssccssssccssssccssssccs" />
    <path
       style="fill:none;stroke:#000000;stroke-width:1.00627"
       d="m 831.56636,347.98906 c 0.0254,0.14421 0.0518,0.2936 0.10932,0.4455 0.0479,0.12667 0.12264,0.26822 0.25016,0.40908 0.15511,0.17134 0.34893,0.29801 0.53671,0.38434 0.20411,0.0938 0.41781,0.1495 0.64639,0.16752 0.29996,0.0236 0.56745,-0.0234 0.8177,-0.0674 l 53.56763,-9.44535 c 0.17452,-0.0311 0.35533,-0.0629 0.54123,-0.12113 0.15497,-0.0485 0.32957,-0.12036 0.5068,-0.23645 0.21557,-0.14121 0.38016,-0.31191 0.496,-0.47491 0.12588,-0.17715 0.20665,-0.35984 0.24326,-0.55255 0.048,-0.25284 0.009,-0.47385 -0.0276,-0.68083 L 881.45,293.56048 c -0.0252,-0.14581 -0.0515,-0.29517 -0.10909,-0.44709 -0.0481,-0.12663 -0.12264,-0.26822 -0.25017,-0.40905 -0.15512,-0.17135 -0.34894,-0.29795 -0.53672,-0.3843 -0.20409,-0.0939 -0.4178,-0.14953 -0.64638,-0.16752 -0.3,-0.0233 -0.56756,0.0262 -0.81787,0.0658 l -53.56713,9.44939 c -0.17486,0.0288 -0.35568,0.0607 -0.54148,0.11904 -0.15499,0.0487 -0.32958,0.12036 -0.50681,0.23647 -0.21559,0.14123 -0.38018,0.31192 -0.496,0.47491 -0.12589,0.17718 -0.20666,0.35982 -0.24326,0.55252 -0.048,0.25292 -0.009,0.47392 0.0274,0.68291 z"
       id="path288"
       sodipodi:nodetypes="cssssccssssccssssccsssscc" />
    <path
       d="m 273.78472,444.86188 c -0.0366,-0.1927 -0.11737,-0.3754 -0.24327,-0.55256 -0.11583,-0.163 -0.28041,-0.33371 -0.49598,-0.47492 -0.17724,-0.11604 -0.35183,-0.18793 -0.50681,-0.23647 -0.18589,-0.0583 -0.36669,-0.0901 -0.54137,-0.12095 l -53.56748,-9.44534 c -0.2501,-0.044 -0.51758,-0.0911 -0.81756,-0.0675 -0.22858,0.018 -0.4423,0.0737 -0.6464,0.16752 -0.18777,0.0863 -0.3816,0.21302 -0.53671,0.38437 -0.12747,0.14086 -0.20218,0.28242 -0.25017,0.40908 -0.0576,0.15192 -0.0839,0.30131 -0.10945,0.44561 l -7.80414,44.25983 c -0.0364,0.20663 -0.0754,0.42761 -0.0273,0.68053 0.0366,0.19272 0.11736,0.37535 0.24326,0.55254 0.11583,0.16299 0.28041,0.3337 0.49599,0.47494 0.17724,0.11604 0.35183,0.18797 0.50682,0.23646 0.18586,0.0579 0.36668,0.09 0.54138,0.12105 l 53.56693,9.44532 c 0.25061,0.0443 0.51808,0.0909 0.81807,0.0676 0.22858,-0.018 0.44229,-0.0741 0.64639,-0.16754 0.18778,-0.0863 0.38161,-0.21296 0.5367,-0.38433 0.12749,-0.14092 0.20219,-0.28241 0.25019,-0.40915 0.0575,-0.15185 0.0839,-0.30132 0.10945,-0.44565 l 7.80415,-44.25935 c 0.0363,-0.20704 0.0752,-0.42807 0.0273,-0.68094 z"
       style="fill:none;stroke:#000000;stroke-width:1.00628"
       id="path296"
       sodipodi:nodetypes="ssssccssssccssssccssssccs" />
    <path
       d="m 314.5973,499.06504 c 0.0366,0.19271 0.11738,0.37544 0.24328,0.55262 0.11582,0.163 0.28039,0.3337 0.49599,0.47485 0.17724,0.11604 0.35182,0.18797 0.5068,0.23646 0.18589,0.058 0.36668,0.09 0.54126,0.12102 l 53.56745,9.44534 c 0.25018,0.0443 0.51766,0.0909 0.81764,0.0676 0.22859,-0.018 0.4423,-0.0732 0.6464,-0.16754 0.18778,-0.0863 0.38159,-0.21296 0.53671,-0.38432 0.12747,-0.14085 0.20217,-0.28241 0.25017,-0.40906 0.0576,-0.15195 0.0839,-0.30131 0.10936,-0.44575 l 7.80416,-44.25943 c 0.0365,-0.20704 0.0754,-0.42807 0.0274,-0.68094 -0.0366,-0.1927 -0.11737,-0.37541 -0.24327,-0.55257 -0.11582,-0.16301 -0.2804,-0.3337 -0.496,-0.47491 -0.17723,-0.11604 -0.35182,-0.18794 -0.5068,-0.23647 -0.18587,-0.0583 -0.36668,-0.0901 -0.54148,-0.12107 l -53.5669,-9.44532 c -0.25051,-0.044 -0.518,-0.0911 -0.81799,-0.0675 -0.22857,0.018 -0.44228,0.0737 -0.64638,0.16753 -0.18779,0.0863 -0.38162,0.21302 -0.53672,0.38436 -0.12747,0.14087 -0.20217,0.28243 -0.25018,0.40909 -0.0575,0.15192 -0.0839,0.30131 -0.10964,0.44558 l -7.80416,44.2599 c -0.0362,0.20671 -0.0753,0.42771 -0.0272,0.68054 z"
       style="fill:none;stroke:#000000;stroke-width:1.00628"
       id="path302"
       sodipodi:nodetypes="ssssccssssccssssccssssccs" />
    <path
       style="fill:none;stroke:#000000;stroke-width:1.00629"
       d="m 682.14711,317.80736 c -0.1749,0.0301 -0.35569,0.0621 -0.54158,0.12007 -0.15499,0.0488 -0.32958,0.12036 -0.50682,0.23646 -0.21558,0.14115 -0.38017,0.31187 -0.49598,0.47486 -0.1259,0.17719 -0.20666,0.35991 -0.24327,0.55263 -0.0479,0.25283 -0.009,0.47391 0.0275,0.68191 l 7.80429,44.25908 c 0.0253,0.14426 0.0517,0.29365 0.10923,0.44557 0.0479,0.12668 0.12264,0.26823 0.25018,0.40909 0.1551,0.17136 0.34892,0.29804 0.5367,0.38437 0.2041,0.0938 0.41781,0.14952 0.64641,0.16753 0.29996,0.0236 0.56745,-0.0234 0.81777,-0.0674 l 53.56717,-9.44537 c 0.175,-0.0311 0.3558,-0.0629 0.54169,-0.1211 0.15497,-0.0486 0.32959,-0.12036 0.50682,-0.23648 0.21558,-0.14121 0.38016,-0.31192 0.49598,-0.47492 0.12589,-0.17717 0.20666,-0.35987 0.24326,-0.55257 0.048,-0.25285 0.009,-0.47389 -0.0276,-0.6809 l -7.80428,-44.25949 c -0.0253,-0.14489 -0.0516,-0.29427 -0.10914,-0.4462 -0.0481,-0.12665 -0.12264,-0.26825 -0.25018,-0.40908 -0.15511,-0.17136 -0.34893,-0.29807 -0.53672,-0.38441 -0.20409,-0.0938 -0.4178,-0.14945 -0.64638,-0.16754 -0.3,-0.0233 -0.56756,0.0262 -0.81793,0.0695 z"
       id="path314"
       sodipodi:nodetypes="cssssccssssccssssccsssscc" />
    <path
       d="m 725.46199,238.34968 c -0.0479,-0.12665 -0.12272,-0.26812 -0.25017,-0.40904 -0.1551,-0.17135 -0.3489,-0.29797 -0.53668,-0.38431 -0.2041,-0.0939 -0.41779,-0.14953 -0.64638,-0.16753 -0.29998,-0.0233 -0.56754,0.0262 -0.81801,0.0676 l -53.56511,9.44409 c -0.1748,0.0317 -0.35563,0.0636 -0.54142,0.12177 -0.155,0.0488 -0.32958,0.12036 -0.5068,0.23647 -0.21558,0.14123 -0.38016,0.31192 -0.49599,0.47491 -0.12588,0.17717 -0.20665,0.35981 -0.24325,0.55251 -0.0481,0.25292 -0.009,0.4739 0.0274,0.68023 l 7.80376,44.25884 c 0.0256,0.14368 0.0519,0.29305 0.10953,0.44497 0.0479,0.12664 0.12264,0.26822 0.25017,0.40903 0.15509,0.17135 0.34891,0.29806 0.53668,0.38439 0.2041,0.0938 0.4178,0.14945 0.64637,0.16745 0.29997,0.0233 0.56755,-0.0262 0.81761,-0.0685 l 53.56566,-9.44415 c 0.17461,-0.031 0.35542,-0.063 0.5413,-0.12113 0.15498,-0.0488 0.32957,-0.12036 0.5068,-0.23646 0.21558,-0.14114 0.38014,-0.31193 0.49596,-0.47492 0.12589,-0.17708 0.20666,-0.3598 0.24327,-0.55251 0.048,-0.25282 0.009,-0.47389 -0.0272,-0.68078 l -7.80378,-44.25883 c -0.0257,-0.14313 -0.052,-0.2925 -0.10964,-0.44441 z"
       style="fill:none;stroke:#000000;stroke-width:1.00783;stroke-dasharray:none"
       id="path321"
       sodipodi:nodetypes="ssssccssssccssssccssssccs" />
    <path
       d="m 990.72138,420.91936 c 0.048,0.12666 0.12254,0.26825 0.24992,0.40914 0.15493,0.17139 0.34853,0.29812 0.53606,0.38449 0.20382,0.0939 0.41725,0.14961 0.64551,0.16769 0.29957,0.0237 0.56667,-0.0231 0.81683,-0.0675 l 53.4892,-9.43161 c 0.1745,-0.0307 0.3551,-0.0626 0.5407,-0.12072 0.1547,-0.0484 0.3291,-0.12028 0.5059,-0.23632 0.2154,-0.14116 0.3798,-0.31183 0.4953,-0.47478 0.1256,-0.17713 0.2062,-0.3598 0.2429,-0.55251 0.048,-0.25289 0.01,-0.47378 -0.028,-0.68065 l -7.8042,-44.26037 c -0.026,-0.14461 -0.052,-0.294 -0.1092,-0.446 -0.048,-0.12673 -0.1224,-0.26825 -0.2498,-0.40914 -0.1549,-0.17137 -0.3485,-0.29811 -0.536,-0.38448 -0.2039,-0.0939 -0.4173,-0.14961 -0.6456,-0.16769 -0.2995,-0.0238 -0.5667,0.0233 -0.8166,0.0676 l -53.48965,9.43163 c -0.17429,0.0306 -0.35483,0.0624 -0.54046,0.12058 -0.15474,0.0484 -0.32907,0.12028 -0.50603,0.23635 -0.21525,0.14114 -0.37956,0.3118 -0.49518,0.47477 -0.12565,0.17713 -0.20626,0.3598 -0.24277,0.55249 -0.0479,0.25285 -0.009,0.47389 0.0273,0.68079 l 7.80432,44.26035 c 0.0258,0.1445 0.0521,0.2939 0.10958,0.44582 z"
       style="fill:none;stroke:#000000;stroke-width:1.00556"
       id="path329"
       sodipodi:nodetypes="ssssccssssccssssccssssccs" />
    <path
       d="m 385.32381,226.92114 c -0.0366,-0.19271 -0.11737,-0.37542 -0.24326,-0.55249 -0.11584,-0.16308 -0.28042,-0.33378 -0.49599,-0.47491 -0.17725,-0.11605 -0.35184,-0.18797 -0.50681,-0.23646 -0.18588,-0.058 -0.36668,-0.09 -0.54118,-0.11899 l -53.56679,-9.44933 c -0.25018,-0.0421 -0.51757,-0.0903 -0.81758,-0.0658 -0.22859,0.018 -0.44226,0.0741 -0.64639,0.16751 -0.18777,0.0863 -0.38158,0.21305 -0.53669,0.38439 -0.12757,0.14081 -0.20218,0.28238 -0.25016,0.40903 -0.0576,0.15193 -0.0839,0.30129 -0.1093,0.44708 l -7.80369,44.25287 c -0.0364,0.20882 -0.0754,0.42979 -0.0273,0.68271 0.0366,0.19269 0.11737,0.37531 0.24325,0.55248 0.11584,0.16298 0.28041,0.33368 0.49599,0.47491 0.17725,0.11604 0.35183,0.18787 0.50682,0.23645 0.18587,0.058 0.36667,0.09 0.54141,0.11923 l 53.56624,9.44923 c 0.25051,0.0421 0.51789,0.0893 0.81791,0.0658 0.22856,-0.018 0.4423,-0.0732 0.64637,-0.16752 0.18777,-0.0863 0.3816,-0.21294 0.53669,-0.38429 0.12748,-0.14092 0.20218,-0.28239 0.25018,-0.40904 0.0576,-0.15192 0.0839,-0.30128 0.10957,-0.44688 l 7.80369,-44.25286 c 0.0361,-0.20901 0.0752,-0.43007 0.0271,-0.68288 z"
       style="fill:none;stroke:#000000;stroke-width:1.00624"
       id="path336"
       sodipodi:nodetypes="ssssccssssccssssccssssccs" />
    <path
       d="m 675.31701,377.27062 c 0.15497,-0.0486 0.32959,-0.12036 0.50681,-0.23647 0.21558,-0.14121 0.38016,-0.31192 0.49599,-0.47492 0.1259,-0.17715 0.20666,-0.35985 0.24327,-0.55256 0.048,-0.25286 0.009,-0.47388 -0.0274,-0.68086 l -7.80417,-44.25942 c -0.0254,-0.14444 -0.0518,-0.29383 -0.10937,-0.44574 -0.0479,-0.12667 -0.12264,-0.26823 -0.25016,-0.40908 -0.15512,-0.17136 -0.34894,-0.29804 -0.53671,-0.38437 -0.20411,-0.0938 -0.41782,-0.14951 -0.6464,-0.16753 -0.29998,-0.0237 -0.56746,0.0234 -0.81769,0.0676 l -53.56742,9.44536 c -0.17476,0.0308 -0.35557,0.0627 -0.54145,0.12096 -0.15499,0.0485 -0.32958,0.12036 -0.50682,0.23646 -0.21557,0.14121 -0.38016,0.31192 -0.49599,0.47492 -0.12588,0.17716 -0.20665,0.35986 -0.24327,0.55256 -0.048,0.25286 -0.009,0.47387 0.0274,0.68062 l 7.80414,44.25989 c 0.0254,0.14423 0.0518,0.2936 0.10933,0.44553 0.048,0.12664 0.12264,0.26822 0.25018,0.40908 0.15511,0.17136 0.34893,0.29803 0.53671,0.38437 0.2041,0.0938 0.41782,0.1495 0.6464,0.16752 0.29996,0.0237 0.56745,-0.0234 0.81777,-0.0675 l 53.56727,-9.44536 c 0.17482,-0.0311 0.35562,-0.0629 0.54151,-0.12107 z"
       style="fill:none;stroke:#000000;stroke-width:1.00629"
       id="path343"
       sodipodi:nodetypes="ssssccssssccssssccssssccs" />
    <path
       style="fill:none;stroke:#000000;stroke-width:1.00627"
       d="m 157.6762,351.9043 c -0.0365,0.20703 -0.0755,0.42805 -0.0275,0.68091 0.0366,0.19269 0.11738,0.37539 0.24327,0.55257 0.11584,0.16299 0.28041,0.33369 0.496,0.47489 0.17723,0.11604 0.35183,0.18793 0.5068,0.23647 0.18588,0.0583 0.36668,0.0901 0.5416,0.12098 l 53.56696,9.44533 c 0.25041,0.044 0.51792,0.0911 0.81787,0.0674 0.22859,-0.018 0.44231,-0.0737 0.64641,-0.16752 0.18777,-0.0863 0.38159,-0.21301 0.53669,-0.38436 0.12747,-0.14086 0.20218,-0.2824 0.25017,-0.40907 0.0575,-0.15192 0.0839,-0.3013 0.10913,-0.44558 l 7.8039,-44.2596 c 0.0368,-0.20579 0.0757,-0.42678 0.0276,-0.6796 -0.0366,-0.19272 -0.11737,-0.37544 -0.24327,-0.55262 -0.11583,-0.16299 -0.28041,-0.33368 -0.49599,-0.47492 -0.17721,-0.11604 -0.35183,-0.18789 -0.50681,-0.23646 -0.18587,-0.058 -0.36668,-0.09 -0.54178,-0.12224 l -53.56692,-9.4444 c -0.25025,-0.0433 -0.51777,-0.0909 -0.81774,-0.0676 -0.22859,0.018 -0.44229,0.0741 -0.6464,0.16753 -0.18778,0.0863 -0.38161,0.21304 -0.5367,0.3844 -0.12746,0.14084 -0.20218,0.2824 -0.25017,0.40905 -0.0576,0.15194 -0.0839,0.3013 -0.10943,0.44378 z"
       id="path349"
       sodipodi:nodetypes="cssssccssssccssssccsssscc" />
    <path
       style="fill:none;stroke:#000000;stroke-width:1.00629"
       d="m 139.75946,376.22078 c 0.0362,-0.20691 0.0752,-0.42793 0.0272,-0.68079 -0.0366,-0.1927 -0.11738,-0.37541 -0.24327,-0.55258 -0.11583,-0.16299 -0.28042,-0.3337 -0.49599,-0.4749 -0.17725,-0.11604 -0.35183,-0.18795 -0.50681,-0.23648 -0.18588,-0.0583 -0.3667,-0.0901 -0.54126,-0.12072 l -53.567526,-9.44537 c -0.250201,-0.0443 -0.517696,-0.0915 -0.817655,-0.0678 -0.228587,0.018 -0.442291,0.0737 -0.646401,0.16753 -0.187778,0.0863 -0.381605,0.21302 -0.536709,0.38436 -0.127516,0.14087 -0.202177,0.28243 -0.25017,0.40909 -0.05759,0.15192 -0.08396,0.30131 -0.109393,0.44591 l -7.804218,44.25974 c -0.0365,0.20681 -0.07547,0.42782 -0.02739,0.68069 0.03659,0.19271 0.117371,0.37541 0.24327,0.55257 0.115832,0.163 0.280408,0.33373 0.495986,0.47493 0.17724,0.11604 0.35183,0.18794 0.506817,0.23646 0.185878,0.0583 0.366682,0.0901 0.54147,0.12086 l 53.566986,9.44533 c 0.25052,0.0442 0.51801,0.0913 0.818,0.0677 0.22858,-0.018 0.4423,-0.0737 0.64639,-0.16753 0.18778,-0.0863 0.3816,-0.21302 0.5367,-0.38436 0.12748,-0.14088 0.20219,-0.28243 0.25019,-0.4091 0.0576,-0.15191 0.0839,-0.3013 0.10968,-0.4458 z"
       id="path363"
       sodipodi:nodetypes="cssssccssssccssssccsssscc" />
    <path
       d="m 385.97025,308.41419 c -0.22856,0.0178 -0.44217,0.0734 -0.64617,0.16615 -0.18768,0.0858 -0.38138,0.21168 -0.53632,0.38206 -0.12733,0.14004 -0.20191,0.28086 -0.24979,0.40684 -0.0574,0.15114 -0.0836,0.29976 -0.10874,0.44392 l -7.76469,44.03497 c -0.0364,0.20594 -0.0752,0.42584 -0.0269,0.67752 0.0367,0.19178 0.11769,0.37366 0.24374,0.55007 0.11596,0.1623 0.28066,0.33232 0.49634,0.47302 0.17731,0.11564 0.35196,0.18733 0.50697,0.23574 0.18593,0.0581 0.36674,0.09 0.54172,0.12101 l 53.56951,9.44578 c 0.25033,0.044 0.51783,0.0911 0.81774,0.0678 0.22855,-0.0177 0.44219,-0.0729 0.6462,-0.16615 0.18768,-0.0858 0.38136,-0.21164 0.5363,-0.38201 0.12734,-0.14007 0.20192,-0.28085 0.24979,-0.40685 0.0574,-0.15114 0.0836,-0.29976 0.10883,-0.44329 l 7.7647,-44.03455 c 0.0364,-0.20696 0.0751,-0.42692 0.0268,-0.67855 -0.0368,-0.19181 -0.11769,-0.3737 -0.24373,-0.55014 -0.11595,-0.16229 -0.28066,-0.33229 -0.49636,-0.47294 -0.17729,-0.11575 -0.35194,-0.18736 -0.50695,-0.23575 -0.18591,-0.0579 -0.36671,-0.0899 -0.54162,-0.11997 l -53.56948,-9.44485 c -0.25045,-0.0462 -0.51803,-0.0923 -0.8179,-0.0698 z"
       style="fill:none;stroke:#000000;stroke-width:1.00376"
       id="path370"
       sodipodi:nodetypes="ssssccssssccssssccssssccs" />
    <path
       d="m 96.116595,293.73606 c -0.228588,0.018 -0.442288,0.0741 -0.646404,0.16754 -0.187777,0.0863 -0.381603,0.21305 -0.536707,0.38441 -0.12751,0.14083 -0.202179,0.28241 -0.250182,0.40907 -0.05761,0.15193 -0.08396,0.3013 -0.109228,0.44509 l -7.804134,44.26035 c -0.03662,0.20672 -0.07558,0.42774 -0.0276,0.6806 0.03658,0.1927 0.117375,0.37541 0.243271,0.55258 0.115834,0.16299 0.280413,0.33371 0.49599,0.47492 0.177244,0.11604 0.351835,0.18793 0.506821,0.23646 0.185878,0.0583 0.366682,0.0901 0.541652,0.12099 l 53.567292,9.44538 c 0.25034,0.0442 0.51784,0.0913 0.8178,0.0676 0.22858,-0.018 0.4423,-0.0737 0.6464,-0.16752 0.18779,-0.0863 0.38161,-0.21302 0.53671,-0.38436 0.12746,-0.14087 0.20217,-0.28243 0.25019,-0.40909 0.0576,-0.15193 0.0839,-0.30131 0.10926,-0.44574 l 7.80416,-44.25947 c 0.0366,-0.20691 0.0756,-0.42799 0.0275,-0.68081 -0.0366,-0.19272 -0.11738,-0.37544 -0.24328,-0.55254 -0.11582,-0.16308 -0.2804,-0.33379 -0.496,-0.47494 -0.17721,-0.11613 -0.35182,-0.18797 -0.5068,-0.23647 -0.18588,-0.058 -0.3667,-0.09 -0.54166,-0.12109 l -53.567262,-9.44447 c -0.250426,-0.0451 -0.517887,-0.0918 -0.817863,-0.0686 z"
       style="fill:none;stroke:#000000;stroke-width:1.00629"
       id="path376"
       sodipodi:nodetypes="ssssccssssccssssccssssccs" />
    <path
       d="m 286.28761,373.95575 c -0.0366,-0.19269 -0.11739,-0.37539 -0.24329,-0.55255 -0.11583,-0.16301 -0.28041,-0.33372 -0.49598,-0.47492 -0.17724,-0.11604 -0.35183,-0.18794 -0.50683,-0.23647 -0.18588,-0.0583 -0.36668,-0.0901 -0.54171,-0.12101 l -53.56734,-9.4454 c -0.2503,-0.0441 -0.5178,-0.0912 -0.81778,-0.0675 -0.22856,0.018 -0.44228,0.0737 -0.64638,0.16752 -0.18778,0.0863 -0.38161,0.21301 -0.53671,0.38437 -0.12748,0.14086 -0.20218,0.28242 -0.25019,0.40907 -0.0576,0.15194 -0.0839,0.30132 -0.10925,0.44569 l -7.80417,44.25939 c -0.0365,0.20704 -0.0755,0.42806 -0.0275,0.68094 0.0366,0.1927 0.11738,0.37541 0.24327,0.55256 0.11583,0.16301 0.28041,0.33371 0.49599,0.47492 0.17724,0.11604 0.35184,0.18794 0.50681,0.23647 0.18589,0.0583 0.3667,0.0902 0.54161,0.12099 l 53.56734,9.44541 c 0.25043,0.044 0.51793,0.0911 0.81789,0.0675 0.22859,-0.018 0.4423,-0.0737 0.64641,-0.16753 0.18777,-0.0863 0.3816,-0.21301 0.53671,-0.38436 0.12747,-0.14087 0.20218,-0.28242 0.25016,-0.40909 0.0576,-0.15193 0.0839,-0.30131 0.10914,-0.4456 l 7.80414,-44.25986 c 0.0367,-0.20666 0.0757,-0.42767 0.0276,-0.68054 z"
       style="fill:none;stroke:#000000;stroke-width:1.00629"
       id="path382"
       sodipodi:nodetypes="ssssccssssccssssccssssccs" />
    <path
       d="m 103.35382,201.71945 c 0.43321,-0.7202 0.88088,-1.0908 1.5613,-1.419 0.65684,-0.3168 1.48063,-0.3844 2.28948,-0.3828 h 6.03997 c 4.44617,3.7779 10.97626,3.7779 15.42207,0 h 16.89278 l 2.4e-4,-10.0195 c 2.4e-4,-0.9138 0.0632,-1.7871 0.51933,-2.5719 0.35348,-0.6083 0.95716,-1.2307 1.72549,-1.5917 0.84114,-0.3951 1.50748,-0.3714 2.29089,-0.3691 h 134.50485 c 0.91409,0 1.78734,0.061 2.57219,0.5168 0.60827,0.3535 1.23066,0.9572 1.59163,1.7255 0.39517,0.8411 0.37141,1.5075 0.3714,2.2904 l -2e-5,10.0195 h 30.16788 c 4.44591,3.7779 10.976,3.7779 15.42207,0 h 30.16905 v -4.54 h -0.001 l -1.8e-4,-5.4795 c -1.8e-4,-0.9138 0.0628,-1.7871 0.51892,-2.5719 0.35348,-0.6083 0.95716,-1.2307 1.72549,-1.5917 0.84113,-0.3951 1.50748,-0.3714 2.29081,-0.3691 h 134.50698 c 0.9143,0 1.78756,0.061 2.5724,0.5168 0.60828,0.3535 1.23067,0.9572 1.59163,1.7255 0.39517,0.8411 0.37142,1.5075 0.37144,2.2904 l 10e-6,5.4795 h -10e-4 v 4.54 h 105.5854 v -4.54 h -0.001 l 2e-5,-5.4795 c 2e-5,-0.4671 0.002,-0.8987 0.0761,-1.3365 0.12117,-0.7142 0.62085,-1.6489 1.22726,-2.1961 0.9475,-0.8552 2.05185,-1.0024 3.23211,-1.0001 h 134.50698 c 0.46754,0 0.8991,-5e-4 1.33691,0.074 0.71425,0.1212 1.64887,0.6208 2.19614,1.2273 0.85512,0.9474 1.00235,2.0518 1.00217,3.2316 l -1.8e-4,5.4795 h -0.001 v 4.54 h 30.16905 c 4.44607,3.7779 10.97616,3.7779 15.42207,0 h 30.16788 l -2e-5,-10.0195 c -10e-6,-0.4671 0.002,-0.8987 0.0761,-1.3365 0.12118,-0.7142 0.62086,-1.6489 1.22727,-2.1961 0.94749,-0.8552 2.05184,-1.0024 3.23189,-1.0001 h 134.50485 c 0.46761,0 0.89917,-5e-4 1.33699,0.074 0.71424,0.1212 1.64886,0.6208 2.19614,1.2273 0.85511,0.9474 1.00234,2.0518 1.00258,3.2316 l 2.4e-4,10.0195 h 16.89278 c 4.4458,3.7779 10.97595,3.7779 15.42215,0 h 6.0399 c 0.6761,0 1.3315,0.018 1.9469,0.2392 0.8021,0.2878 1.2756,0.6574 1.7606,1.3432 0.4255,0.6017 0.6214,1.3839 0.7588,2.1616 l 56.031,317.7706 c 0.081,0.4603 0.1545,0.8856 0.1574,1.3297 0,0.7244 -0.3251,1.7316 -0.8272,2.3759 -0.7847,1.0066 -1.8467,1.3434 -3.0091,1.5484 l -3.0601,0.5393 c -5.0347,-2.9499 -11.4656,-1.8159 -15.1879,2.678 l -15.1572,2.6724 0.787,4.467 h 10e-4 l 0.9518,5.3968 c 0.081,0.4603 0.1541,0.8856 0.157,1.3296 0.01,0.7245 -0.3251,1.7317 -0.8273,2.3759 -0.7846,1.0067 -1.8466,1.3435 -3.0087,1.5486 l -130.27386,22.9703 c -0.46046,0.081 -0.88578,0.1546 -1.32984,0.1575 -0.72444,0.01 -1.73163,-0.3251 -2.37589,-0.8273 -1.00665,-0.7846 -1.34342,-1.8466 -1.54832,-3.0092 l -0.95196,-5.3972 h 10e-4 l -0.788,-4.466 -29.16289,5.142 c -5.03468,-2.95 -11.46557,-1.8161 -15.18793,2.678 l -29.16418,5.142 0.788,4.467 h 10e-4 l 0.95205,5.3969 c 0.0812,0.4603 0.15441,0.8857 0.15728,1.3297 0.005,0.7245 -0.3251,1.7317 -0.82726,2.3759 -0.78461,1.0067 -1.84662,1.3434 -3.009,1.5484 l -130.27589,22.9711 c -0.46029,0.081 -0.88561,0.1544 -1.32967,0.1573 -0.72444,0.01 -1.73163,-0.3251 -2.37589,-0.8273 -1.00665,-0.7846 -1.34342,-1.8466 -1.54849,-3.009 l -0.95113,-5.397 h 10e-4 l -0.787,-4.467 -34.7368,6.125 h -181.6164 l -34.7368,-6.125 -0.787,4.467 h 10e-4 l -0.95113,5.397 c -0.15889,0.9005 -0.37258,1.7495 -0.95802,2.4432 -0.45374,0.5377 -1.15633,1.0458 -1.97567,1.2678 -0.89697,0.2432 -1.54907,0.104 -2.32036,-0.032 l -130.27589,-22.971 c -0.90046,-0.1589 -1.74951,-0.3725 -2.44323,-0.958 -0.53765,-0.4537 -1.04576,-1.1563 -1.26782,-1.9757 -0.24311,-0.8969 -0.10401,-1.549 0.0321,-2.3204 l 0.95205,-5.3969 h 10e-4 l 0.788,-4.467 -29.16418,-5.1419 c -3.72236,-4.4942 -10.15325,-5.6281 -15.18793,-2.678 l -29.16289,-5.1421 -0.788,4.466 h 0.001 l -0.95196,5.3973 c -0.15872,0.9006 -0.37241,1.7497 -0.95785,2.4434 -0.45374,0.5376 -1.15633,1.0457 -1.97567,1.2678 -0.89697,0.2431 -1.54907,0.104 -2.32053,-0.032 L 85.730656,547.69445 c -0.9002,-0.1589 -1.74924,-0.3726 -2.44296,-0.958 -0.53765,-0.4538 -1.04576,-1.1563 -1.26783,-1.9757 -0.2431,-0.897 -0.104,-1.5491 0.0318,-2.3203 l 0.95178,-5.3968 h 0.001 l 0.787,-4.467 -15.15716,-2.6728 c -3.72234,-4.4939 -10.15322,-5.6279 -15.18792,-2.678 l -3.06007,-0.5393 c -0.90055,-0.1589 -1.7496,-0.3726 -2.44332,-0.958 -0.53765,-0.4537 -1.04576,-1.1563 -1.26782,-1.9757 -0.24311,-0.8969 -0.104,-1.549 0.0322,-2.3204 L 102.7384,203.66193 c 0.12154,-0.6875 0.26191,-1.3544 0.61548,-1.9422 z"
       style="fill:none;stroke:#000000"
       id="path397"
       sodipodi:nodetypes="sscccccssccssccccccccssccssccccccccssccssccccccccssccsscccccssccsscccccccssccssccccccccccssccssccccccccccssccssccccccccccssccsscccccccssccs" />
  </g>
</svg>
